<?xml version="1.0" standalone="no"?>
<!DOCTYPE svg PUBLIC "-//W3C//DTD SVG 20010904//EN"
 "http://www.w3.org/TR/2001/REC-SVG-20010904/DTD/svg10.dtd">
<svg version="1.0" xmlns="http://www.w3.org/2000/svg"
 width="901.000000pt" height="901.000000pt" viewBox="0 0 901.000000 901.000000"
 preserveAspectRatio="xMidYMid meet">
<metadata>
Created by potrace 1.11, written by Peter Selinger 2001-2013
</metadata>
<g transform="translate(0.000000,901.000000) scale(0.100000,-0.100000)"
fill="#000000" stroke="none">
<path d="M4581 7010 c-79 -21 -161 -63 -224 -114 -21 -17 -128 -127 -237 -246
-438 -476 -704 -703 -985 -841 -186 -91 -386 -138 -533 -126 l-64 5 49 -35
c148 -105 371 -223 548 -289 84 -32 281 -85 368 -99 l37 -6 0 -234 c0 -129 -4
-236 -8 -239 -8 -5 -393 -50 -902 -106 -274 -30 -688 -67 -1020 -92 -106 -8
-350 -13 -620 -13 -383 0 -460 3 -555 18 -204 34 -327 85 -341 143 -17 66 54
172 183 275 65 51 76 57 93 46 11 -6 20 -21 20 -32 0 -28 16 -46 73 -83 80
-53 151 -35 177 43 l11 35 27 -52 c43 -81 122 -132 202 -129 14 0 36 1 51 1
35 0 119 55 119 78 0 10 11 24 25 30 17 8 25 20 25 36 0 13 7 29 15 36 17 14
20 41 6 56 -4 5 -11 25 -14 45 -4 31 -3 35 15 35 28 -1 34 21 9 29 -38 12 -24
28 18 21 22 -3 51 -2 65 4 33 12 54 53 38 73 -6 7 -9 23 -5 35 10 41 -105 129
-177 135 -25 2 -52 7 -61 11 -22 9 -93 -10 -109 -29 -7 -8 -16 -15 -21 -15 -5
0 7 23 27 51 38 54 38 75 2 84 -13 3 -32 22 -43 43 -11 20 -30 41 -41 47 -12
6 -29 17 -38 24 -28 24 -157 -11 -180 -49 -5 -8 -25 -30 -43 -49 -40 -41 -40
-48 -8 -95 24 -35 20 -51 -6 -20 -21 26 -64 44 -80 33 -8 -5 -38 -9 -67 -9
-48 0 -56 -3 -91 -39 -21 -21 -47 -42 -59 -45 -25 -8 -38 -42 -23 -60 7 -9 7
-16 -1 -24 -9 -9 -4 -12 22 -12 33 0 33 0 15 -20 -22 -24 -15 -32 43 -50 33
-11 41 -17 35 -29 -4 -9 -7 -38 -6 -66 1 -27 -1 -44 -6 -37 -15 25 -214 -131
-270 -212 -77 -112 -52 -226 63 -292 85 -48 150 -71 278 -98 245 -51 514 -70
978 -69 600 0 1050 27 2290 138 1272 114 1748 141 2500 144 606 2 995 -15
1340 -60 629 -80 967 -220 1086 -450 25 -48 28 -64 28 -144 0 -106 -26 -183
-98 -294 -110 -170 -282 -315 -661 -556 -550 -350 -1041 -538 -1602 -615 -241
-33 -591 -31 -828 5 -165 25 -336 67 -343 84 -3 9 -12 24 -21 34 -8 10 -18 43
-21 73 -6 51 -5 54 16 54 12 0 29 3 38 6 19 7 21 34 3 34 -15 0 -47 31 -47 44
0 5 24 5 54 2 69 -9 129 7 155 41 22 27 28 78 10 88 -6 4 -8 22 -6 40 5 39
-20 88 -55 106 -13 6 -39 26 -58 44 -64 58 -104 75 -182 75 -51 0 -74 4 -82
15 -10 13 -19 13 -78 1 -37 -8 -81 -24 -98 -36 -16 -12 -30 -19 -30 -16 0 4
21 37 46 76 56 83 55 111 -3 126 -29 7 -41 18 -60 54 -30 56 -62 89 -92 95
-13 2 -35 14 -47 26 -21 19 -30 21 -81 15 -32 -3 -80 -17 -108 -31 -27 -13
-60 -27 -73 -30 -12 -4 -31 -24 -42 -45 -11 -21 -35 -51 -55 -65 -19 -15 -37
-36 -41 -47 -8 -26 22 -104 48 -122 11 -8 18 -20 16 -26 -2 -7 -24 5 -53 29
-61 50 -89 59 -124 38 -18 -11 -49 -15 -98 -14 -80 2 -111 -13 -148 -71 -12
-18 -38 -37 -62 -47 -70 -27 -109 -96 -63 -110 24 -8 26 -21 5 -29 -8 -3 -15
-13 -15 -21 0 -13 9 -16 38 -15 55 3 56 2 26 -23 -23 -20 -25 -26 -15 -45 6
-12 19 -22 29 -22 24 -1 116 -34 120 -43 1 -4 -5 -21 -14 -38 -11 -21 -14 -43
-10 -68 4 -20 9 -53 12 -74 4 -26 14 -43 33 -55 35 -22 41 -32 41 -68 0 -24
10 -41 44 -72 24 -22 59 -48 77 -58 19 -9 45 -25 57 -35 19 -15 36 -17 85 -13
75 6 99 25 137 107 l26 59 33 -67 c51 -104 148 -186 244 -207 88 -19 98 -20
112 -8 9 7 26 9 45 5 24 -5 44 1 98 30 86 47 102 62 102 95 0 20 10 33 38 51
26 17 38 32 40 54 4 28 32 81 32 59 0 -24 273 -99 480 -133 661 -107 1393 13
2055 337 173 85 509 277 675 386 418 275 610 527 627 826 14 249 -136 449
-457 610 -232 117 -610 214 -1030 264 -63 8 -107 14 -97 15 15 1 17 16 17 169
l0 168 63 13 c102 20 319 96 439 154 111 53 285 153 362 209 l39 28 -84 0
c-393 0 -800 244 -1305 780 -380 403 -422 445 -485 483 -172 101 -373 106
-583 13 -55 -25 -226 -131 -226 -140 0 -3 20 -36 44 -73 47 -73 166 -279 233
-403 22 -41 88 -164 146 -272 115 -213 165 -291 264 -408 100 -120 215 -213
356 -286 l79 -41 -2 -176 -1 -176 43 -3 c24 -2 -180 -3 -452 -4 -478 0 -714
-8 -1170 -39 -242 -17 -227 -16 -594 -50 -148 -14 -280 -25 -293 -25 l-23 0 0
250 0 250 46 28 c26 15 79 51 118 81 193 146 296 282 501 666 141 264 272 496
332 587 24 37 46 74 49 82 12 32 -223 167 -351 201 -101 26 -219 28 -304 5z
m1445 -271 c33 -31 40 -79 18 -124 -50 -107 -204 -69 -204 49 0 101 111 145
186 75z m-1093 -9 c17 -19 27 -42 27 -61 0 -40 -34 -95 -63 -103 -36 -10 -91
-6 -108 7 -58 44 -49 160 15 188 40 17 99 3 129 -31z m-4136 -1426 c18 -20 20
-29 12 -53 -10 -27 -44 -51 -74 -51 -18 0 -55 47 -55 70 0 10 9 29 21 44 25
31 61 28 96 -10z m3281 -226 l-3 -233 -50 -6 c-27 -4 -99 -12 -160 -18 -60 -7
-134 -14 -162 -18 l-53 -5 0 225 0 225 116 7 c68 4 149 16 197 30 131 36 118
60 115 -207z m2817 197 c44 -9 134 -16 203 -16 l122 0 0 -155 0 -154 27 0 c14
0 24 -2 21 -5 -2 -3 -65 0 -139 5 -74 5 -178 12 -231 16 l-98 6 0 159 c0 87 3
159 8 159 4 0 43 -7 87 -15z m-2351 -2170 c31 -31 40 -58 32 -99 -10 -50 -49
-81 -103 -81 -38 0 -49 5 -74 33 -44 49 -36 115 19 160 28 22 98 15 126 -13z"/>
<path d="M1520 5073 c0 -22 42 -129 67 -172 69 -118 206 -191 359 -191 l46 0
-7 33 c-11 51 -48 133 -83 181 -39 56 -97 99 -171 127 -61 23 -211 39 -211 22z"/>
<path d="M1490 4291 c-57 -18 -140 -64 -183 -101 -81 -71 -127 -181 -127 -302
0 -67 1 -67 83 -39 169 59 263 184 275 369 5 88 5 89 -48 73z"/>
<path d="M7121 3675 c-79 -18 -159 -44 -166 -55 -9 -15 112 -167 177 -221 165
-137 370 -171 600 -99 99 31 98 30 54 95 -94 136 -262 257 -394 284 -71 15
-192 13 -271 -4z"/>
<path d="M8428 3178 c-155 -80 -280 -215 -329 -352 -33 -95 -40 -367 -9 -416
7 -12 19 -10 71 15 244 117 378 320 379 575 0 78 -16 200 -28 212 -4 4 -42
-11 -84 -34z"/>
<path d="M6228 3083 c-34 -5 -34 -12 -7 -66 89 -175 230 -257 419 -244 112 7
116 11 81 77 -60 113 -151 193 -257 225 -46 14 -170 18 -236 8z"/>
<path d="M7324 2556 c-198 -63 -316 -186 -358 -373 -15 -66 -22 -193 -12 -193
3 0 40 11 84 25 87 28 177 81 235 141 75 77 131 241 125 365 l-3 57 -71 -22z"/>
</g>
</svg>
