<svg xmlns="http://www.w3.org/2000/svg" viewBox="0 0 512 512"><path fill="#9797ed" d="M386.02479,386.832a60.4,60.4,0,0,1-6.5965,2.85328c-5.285,2.13958-10.59725,4.209-16.029,5.95277a149.651,149.651,0,0,1-15.765,3.96737c-3.02415.61946-6.04878,1.23736-9.07921,1.82505-2.76354.53587-5.5714.75358-8.35712,1.12337-3.00732.39924-6.0317.3043-9.041.619-2.58926.27068-5.22053.14939-7.83346.18069-2.68182.03211-5.364.03047-8.04582.063-.68473.00829-1.368.10227-2.053.13455a12.79542,12.79542,0,0,1-2.26289.04806,64.51047,64.51047,0,0,0-7.82758-.22923c-4.95108-.0566-9.90383-.006-14.85386-.10393-3.56763-.07056-7.12982-.31294-10.684-.68554-2.45653-.2575-4.93521-.29893-7.39466-.5341-4.72987-.45221-9.47894-.28437-14.21088-.5268-2.67593-.13707-5.35835-.13641-8.02649-.34629-2.59735-.20437-5.187-.54073-7.76887-.89974-3.59959-.50054-7.17508-1.15914-10.79287-1.55041-2.65977-.28769-5.30248-.74481-7.9842-.79816-1.64988-.03281-3.30083-.00673-4.95122-.01885a49.028,49.028,0,0,0-9.19032,1.07474,248.28907,248.28907,0,0,0-25.13861,6.34527c-6.7829,1.99178-13.56268,4.00028-20.46877,5.54046-3.61666.80658-7.2601,1.4528-10.924,2.0111-3.52482.53713-7.026,1.22771-10.54165,1.827q-6.69723,1.14171-13.31885,2.65743A106.89745,106.89745,0,0,0,97.24358,423.452c-1.4441.63771-2.84091,1.38388-4.2503,2.09827-1.02315.51861-1.01493.5302-1.955-.27229-.20717-.17686-.42894-.33661-.644-.50425-1.74374-.91826-2.24927-2.7043-2.93006-4.322-1.5893-3.77652-1.98656-7.83146-2.61135-11.83058a36.94708,36.94708,0,0,1-.39331-8.0045c.13536-2.18405.64425-4.2318,2.79754-5.397,8.90273-.69806,16.20823-5.76091,24.224-8.88723,11.174-4.86557,21.85571-10.68888,32.59611-16.42409,13.37155-7.14023,27.80483-11.08348,42.81144-12.98121,7.5711-.95735,15.17307-1.46165,22.80125-1.733,3.43064-.122,6.87292-.62569,10.29152-.32058,5.913.52773,11.80483.0193,17.7014-.0751,9.321-.14919,18.44094-1.86844,27.52766-3.836,10.61767-2.29915,21.03033-5.5418,31.81987-7.03671,8.85661-1.2271,17.66362-2.77547,26.52245-3.98216a22.38553,22.38553,0,0,0,4.03123-.85625c2.7732-.91724,3.29193-1.87958,2.61638-4.80706a3.167,3.167,0,0,0,1.77154-1.51971,41.843,41.843,0,0,1,4.08168-6.65164,45.74678,45.74678,0,0,1,10.24563-9.738,15.58059,15.58059,0,0,1,4.06069-1.95894,5.778,5.778,0,0,1,3.435-.13639c3.7797,6.11438,7.7447,12.1081,11.72442,18.09333,4.71,7.08355,10.20513,13.59449,14.97567,20.63268a6.32191,6.32191,0,0,1,1.2008,2.36467c3.14073,8.33284,3.87213,17.08738,4.4583,25.85113C386.27778,383.06656,387.25288,384.99543,386.02479,386.832Z"/><path fill="#f6c193" d="M464.89151,321.60105a3.63539,3.63539,0,0,0-.40594,1.98983c.01008,1.65073-.0635,3.30363-.00388,4.952a70.60319,70.60319,0,0,1-.53657,8.62918,50.71478,50.71478,0,0,1-1.74047,8.66021c-2.37161,8.8867-4.83816,17.743-7.81988,26.45147a59.46272,59.46272,0,0,0-2.49135,9.12394c-.26743,1.55136-.47267,3.11474-.66157,4.67805-.27127,2.24429-.6086,4.48792-.72619,6.74183-.19984,3.83046-.64293,3.1804,2.76886,4.3216a68.059,68.059,0,0,0,7.983,1.97035c2.88559.59078,5.77442,1.20077,8.6894,1.60214,2.45113.33754,4.86114.83375,7.27211,1.35354a11.24274,11.24274,0,0,1,3.61717,1.44663,1.8325,1.8325,0,0,1,.9716,1.26858,1.55609,1.55609,0,0,1-.58547,1.651,10.074,10.074,0,0,1-2.70768,1.46268,38.47773,38.47773,0,0,1-7.39756,1.70489,28.94733,28.94733,0,0,1-5.31455-.01855c-2.46505-.17865-4.95061-.14941-7.42518-.101-2.34282.04576-4.64426-.52952-6.98764-.37214-.20523.01378-.41253-.004-.61888-.00454-2.004-.00537-2.34549.19314-2.32906,2.16352a14.80452,14.80452,0,0,0,1.94435,8.09915,4.49111,4.49111,0,0,0,1.38145,1.50766,12.17577,12.17577,0,0,0,5.00751,1.78662,12.7354,12.7354,0,0,0,3.90356-.093,15.05265,15.05265,0,0,1,6.51976.30526,36.54246,36.54246,0,0,1,5.4453,1.86854,27.99254,27.99254,0,0,0,4.83856,1.73221,35.36706,35.36706,0,0,0,5.9.78793c1.71825.047,3.439-.00066,5.15761.0377a43.00673,43.00673,0,0,0,5.7093-.68813,17.75066,17.75066,0,0,1,6.54794.19843,7.50883,7.50883,0,0,1,2.43394,1.07975,3.1733,3.1733,0,0,1,.08276,5.113,9.23152,9.23152,0,0,1-3.9784,1.60817c-2.34867.46974-4.73192.73319-7.1201.99226-2.59392.28144-5.21788.11229-7.78933.62931a9.7765,9.7765,0,0,1-1.85317.04234c-6.53442.0316-13.07475-.09355-19.60106.15211-3.70417.13936-7.41938.1317-11.11125.41768-1.91865.14868-3.83013.23366-5.74968.30327-1.937.07026-3.81934-.43941-5.74534-.4324a1.673,1.673,0,0,1-.601-.13074c-2.31429-.91217-4.51659-1.93679-5.92608-4.18586a22.48946,22.48946,0,0,1-3.46254-8.30887,24.21327,24.21327,0,0,1-.35427-6.94462,72.80546,72.80546,0,0,0,.15543-8.4476c-1.20127-2.01851-.59131-4.30542-.87446-6.45233a97.67983,97.67983,0,0,1-.98939-15.61809,101.71181,101.71181,0,0,1,3.20328-24.46571,8.83975,8.83975,0,0,0,.192-1.218c1.81527-7.41383,3.92271-14.77215,5.03558-22.33588,1.23479-8.39279.94287-16.83379.42826-25.277a137.65709,137.65709,0,0,0-2.93358-21.22412,89.747,89.747,0,0,0-4.16968-12.73447,69.21171,69.21171,0,0,1-5.02358-26.9957c.02051-.6872.00116-1.37553-.02777-2.06339a5.43261,5.43261,0,0,0-3.12521-5.05325c-6.01-3.30746-8.71486-8.96117-9.12986-15.50426a80.68844,80.68844,0,0,1,4.14725-31.509,19.90743,19.90743,0,0,1,3.87856-6.75079,4.46252,4.46252,0,0,1,.47922-.4334c.07752-.06589.1629-.12907.241-.19594A3.80247,3.80247,0,0,0,422.92,189.009a28.32274,28.32274,0,0,1,10.412-7.55367,9.21566,9.21566,0,0,1,5.86575-.37162c5.00241,1.12513,9.90221,2.64785,14.1603,5.5038,4.20209,2.81837,7.4031,6.74973,10.23467,10.93576a61.52658,61.52658,0,0,1,5.28245,9.56515c2.00825,4.53424,4.20335,8.97815,6.53957,13.34072,3.80094,7.09782,3.14557,11.51218-2.90183,18.01195-.74176.79726-1.34729,1.996-2.78469,1.79468-.49883-2.7414-.55971-5.53738-1.12109-8.27923-1.66729-8.14315-4.85877-15.37894-11.81118-20.45129a15.82822,15.82822,0,0,0-4.76518-2.61387c8.37691,3.30805,13.14658,10.43785,15.6528,19.35592a37.89294,37.89294,0,0,1,1.7319,11.51233,30.59132,30.59132,0,0,0,.57549,3.44891c.1697,3.68156-.86131,7.2218-1.25712,10.83591-.47161,4.30634-.56551,8.63681-.68319,12.94806-.206,7.55227-.80945,15.07407-1.22088,22.61013-.2248,4.11786-.1183,8.2449-.06532,12.3658.07625,5.92867-.75033,11.78094-1.30737,17.65727A8.11563,8.11563,0,0,1,464.89151,321.60105Z"/><path fill="#ffadb7" d="M464.89151,321.601c-.04168-.05453-.12132-.1104-.1195-.16352a35.244,35.244,0,0,1,.17005-3.87043,52.37065,52.37065,0,0,0,.75633-7.73431,2.2638,2.2638,0,0,1,.02162-.61586c.63748-2.22281.34873-4.49906.37519-6.75206.046-3.91377.01492-7.82842.01931-11.74271a8.7436,8.7436,0,0,1,.24868-2.443,9.1,9.1,0,0,0,.14767-2.04084c.09209-1.97789-.16042-3.96382.35841-5.935a11.512,11.512,0,0,0,.06462-2.66854,11.65615,11.65615,0,0,1,.32453-3.67015,4.672,4.672,0,0,0,.07384-1.43212c.01069-1.99142.00706-3.98294.01981-5.97436a9.67422,9.67422,0,0,1,.3076-3.25978,4.56611,4.56611,0,0,0,.08291-1.43086c.01094-1.16732.023-2.335.0066-3.50216a48.1832,48.1832,0,0,1,.71389-6.91269c.379-2.90578,1.13182-5.77769.94549-8.74575.53153-.76679-.47206-1.78752.41289-2.49584a27.46045,27.46045,0,0,0,3.89257-3.92,19.35769,19.35769,0,0,0,2.71731-4.33364,9.21212,9.21212,0,0,0,.41259-6.80332,20.8179,20.8179,0,0,0-1.39427-3.42371c-1.67247-3.3089-3.34022-6.62044-4.97187-9.94955-1.20677-2.4624-2.32846-4.9665-3.53563-7.42873a63.68584,63.68584,0,0,0-3.92941-6.742,54.54769,54.54769,0,0,0-8.56738-9.6709,11.0703,11.0703,0,0,0-2.38733-1.5877,53.32113,53.32113,0,0,0-11.67928-4.47557c-1.13293-.29961-2.32916-.1574-3.41885-.65034a1.30255,1.30255,0,0,0-.81252.00453,16.36907,16.36907,0,0,0-4.28319,1.38956,39.22136,39.22136,0,0,0-8.34773,6.27407,4.09424,4.09424,0,0,0-.35457.50207c-.35322.60921-.86706,1.09932-1.25037,1.68621l.00786-.00571c-.12973.14967-.284.27495-.41828.42007-2.9333,3.17862-4.2822,7.12165-5.35289,11.18653q-.83571,3.17277-1.51033,6.38718c-.26615,1.26678-.25025,2.60138-.5926,3.8416-.53607,1.94193-.11345,3.97206-.70212,5.89939a5.83108,5.83108,0,0,0-.08228,1.64058c-.00938,2.47525.03349,4.95146-.0217,7.42558a20.785,20.785,0,0,0,1.96267,9.15761,16.17,16.17,0,0,0,7.9049,8.32419c.31087.14614.60416.33368.9225.45921.87628.34548,1.0853.99039,1.2551,1.90284.54676,2.93834.25282,5.88744.35271,8.82919a8.702,8.702,0,0,0,.31849,3.055,3.19356,3.19356,0,0,1,.09052,1.02068,41.59859,41.59859,0,0,0,.96741,6.68457,81.64777,81.64777,0,0,0,3.921,12.53672c.92754,2.43319,1.69572,4.92671,2.5966,7.37064a65.32285,65.32285,0,0,1,1.983,7.96044,53.51307,53.51307,0,0,1,1.17214,6.65c.17278,1.69811.71722,3.36421.52105,5.09861.71021,2.396.10045,4.92343.73718,7.33634a8.47068,8.47068,0,0,1,.07611,2.054c.01139,1.51261.00539,3.02534.01648,4.53795a10.05339,10.05339,0,0,0,.25951,2.65087,4.46713,4.46713,0,0,1,.07848,2.24179,21.89237,21.89237,0,0,0-.338,5.32487,14.64318,14.64318,0,0,1-.39762,4.48844c-.03922,3.86838-1.11247,7.564-1.93951,11.29419-.977,4.40644-2.07468,8.78617-3.12974,13.17513a4.8567,4.8567,0,0,1-.32152.75773,13.76232,13.76232,0,0,1-3.09637,4.007c-2.30744,2.76262-4.76851,5.39089-7.07716,8.15159-.39141.468-.74342.9847-1.41568,1.08505a12.74906,12.74906,0,0,0-2.95316,3.11434,21.088,21.088,0,0,0-4.92258,11.99261,19.037,19.037,0,0,1-.38676,2.43666,1.947,1.947,0,0,1-2.69571,1.74116,19.6842,19.6842,0,0,1-3.8871-1.33792,22.347,22.347,0,0,1-9.34387-7.85384c-.30712-.45256-.65071-.88039-.97739-1.31969-1.07471-.584-1.36258-1.70242-1.7219-2.71212A91.363,91.363,0,0,0,382.893,358.43873c-.74143-1.06851-1.10239-2.3599-1.81953-3.454a3.03672,3.03672,0,0,0-.28834-.75767c-3.56754-4.86038-7.16687-9.69746-10.71918-14.56886-3.2306-4.43018-6.369-8.92334-9.29231-13.5676-1.97076-3.13093-4.08314-6.17272-6.1322-9.25436a6.01927,6.01927,0,0,0-.69388-1.01645c-.51-.49832-.19107-1.02436-.15286-1.545a17.10345,17.10345,0,0,1,5.15763-2.947c.79228-.22482,1.56766-.51057,2.36245-.72511,4.5738-1.23464,9.06406-2.729,13.543-4.26675,2.20475-.757,4.45692-1.37634,6.69067-2.0479.65651-.19737,1.3296-.34008,1.98434-.54257,2.35948-.72969,4.70437-1.50842,7.07413-2.2025,1.98-.57993,3.89076-1.33645,5.81409-2.06932a32.012,32.012,0,0,0,5.78006-3.14368,8.47707,8.47707,0,0,0,2.10606-1.95962,21.70986,21.70986,0,0,0,3.61383-6.20409,78.966,78.966,0,0,0,3.75188-15.36168,76.356,76.356,0,0,0,.82-10.24664c-.00189-.61329.13832-1.22572.17277-1.84079a9.84436,9.84436,0,0,0,.03178-2.25477,17.26738,17.26738,0,0,1-.21879-3.28425,41.22682,41.22682,0,0,0-.99095-8.36562c-.47315-2.4242-.76374-4.874-1.1918-7.30008-1.24106-7.034-.79052-14.11371-.669-21.17826a87.70982,87.70982,0,0,1,.80786-10.45378,32.404,32.404,0,0,1,1.92277-8.60623c.48915-1.13091.81543-2.33207,1.21982-3.49988a16.84247,16.84247,0,0,1,2.78767-5.24626,33.00372,33.00372,0,0,1,7.118-6.80891c1.02553-.68505,2.014-1.42563,3.01942-2.14085a12.76113,12.76113,0,0,1,12.57784-4.48374,59.97226,59.97226,0,0,1,19.40258,7.19991c1.59517.95026,2.666,2.577,4.40929,3.31512,1.9882,3.17323,4.26842,6.16113,6.12366,9.4229,5.601,9.847,11.06775,19.77545,17.68635,29.00173a5.04238,5.04238,0,0,0,1.1597,1.42783c.14808.11187.29167.23059.43264.35254a2.93988,2.93988,0,0,0,.45694,2.0928,35.63345,35.63345,0,0,1,3.66471,7.13539,41.72357,41.72357,0,0,1,1.77354,6.75443,42.45368,42.45368,0,0,1,.43259,7.18519,45.33466,45.33466,0,0,1-.5586,5.94009,83.67041,83.67041,0,0,1-2.52774,12.48712,169.48106,169.48106,0,0,1-5.95093,17.75866,126.72111,126.72111,0,0,1-5.77654,12.75878,96.04826,96.04826,0,0,1-7.42769,11.86779c-2.27257,3.10114-4.58656,6.17193-6.89123,9.24939A4.4889,4.4889,0,0,1,464.89151,321.601Z"/><path fill="#8c4646" d="M429.46159,172.16709a39.23667,39.23667,0,0,1-9.6177-13.94623,87.83731,87.83731,0,0,1-4.53194-14.28737,99.65262,99.65262,0,0,1-2.13454-13.18163,112.49215,112.49215,0,0,1-.29331-14.7988c2.35774,1.81931,2.55693,1.83172,5.10093-.2492a114.92266,114.92266,0,0,0,14.58307-14.46617c2.31273-2.709,4.98191-5.10906,7.03986-8.04811a14.78837,14.78837,0,0,0,1.95982-3.37048c.70527-1.94234.40785-2.65263-1.4993-3.56994-.48961-.23547-1.047-.367-1.30737-.92366a57.36789,57.36789,0,0,1,16.84641-3.47857,36.2212,36.2212,0,0,1,13.77886,1.83724,21.81821,21.81821,0,0,1,6.70176,3.93563,14.52571,14.52571,0,0,1,4.149,6.04134c.24858.81592-.19632,1.04216-.85814.87419-3.816-.96843-6.1414,1.30527-8.19113,3.89529a26.27246,26.27246,0,0,0-4.67108,9.58682,87.01884,87.01884,0,0,0-2.68081,11.65328,19.539,19.539,0,0,1-8.00062,13.90469,7.37076,7.37076,0,0,0-3.24919,7.2217c.54121,7.338-2.72356,13.023-7.97239,17.75986a54.95373,54.95373,0,0,1-6.53483,5.03222,18.548,18.548,0,0,0-6.98668,7.399C430.79724,171.60751,430.51867,172.49283,429.46159,172.16709Z"/><path fill="#f6c193" d="M429.46159 172.16709a1.01121 1.01121 0 0 0 .80643-.54381c.43038-.86013.90632-1.6973 1.35071-2.5506a11.95543 11.95543 0 0 1 3.676-4.11724c1.99767-1.46079 4.00472-2.90941 5.98072-4.39908a35.81428 35.81428 0 0 0 4.96491-4.33843 21.2762 21.2762 0 0 0 5.61994-10.60456 30.498 30.498 0 0 0 .27258-4.52345c.04067-1.2371.02117-2.4766.08089-3.71249a3.42359 3.42359 0 0 1 1.65464-2.89933 28.0931 28.0931 0 0 0 3.20035-2.59136 18.96507 18.96507 0 0 0 6.15521-11.812 78.39973 78.39973 0 0 1 3.71647-14.97259 22.25944 22.25944 0 0 1 5.49222-8.86151 10.236 10.236 0 0 1 2.31248-1.71649c1.56331-.8047 3.15646-1.3793 4.87858-.3182.47494.29267.48562-.2694.61319-.54543 1.0416 2.29994 2.141 4.571 3.02395 6.94316a55.67945 55.67945 0 0 1 1.90659 6.50042 58.85885 58.85885 0 0 0 2.56268 8.88028 19.4434 19.4434 0 0 0 5.96705 7.736 42.29262 42.29262 0 0 1 3.62358 3.35787c1.74289 1.78587 2.12322 3.52954-.46289 5.49705-.87316.66433-1.79435 1.26569-2.6662 1.93174a8.26346 8.26346 0 0 0-1.52858 1.362 3.16361 3.16361 0 0 0-.73516 2.86679c.39324 1.52184.652 3.07873 1.05476 4.59775a9.28454 9.28454 0 0 1-.178 4.46349 37.15636 37.15636 0 0 0-1.16725 6.66728 8.88367 8.88367 0 0 1-.49318 2.20247c-.7213 2.3627-2.6151 3.45238-4.762 4.1593a10.3461 10.3461 0 0 1-3.44011.54517c-1.64829-.032-3.29844.04081-4.947.01464a22.66516 22.66516 0 0 0-6.08207.83139c-4.35627.392-8.59414-.51711-12.85465-1.17322-.60981-.09389-1.20586-.2724-1.81708-.35153-.65462-.08472-1.44759-.50453-1.92222.16357-.52453.73826.07747 1.45639.46758 2.06641a20.1927 20.1927 0 0 0 6.58765 6.66911c1.23464.73848 2.26651 1.57388 2.18 3.1985-.28945 2.3094-.98953 4.53747-1.22763 6.86438a19.531 19.531 0 0 0-.04058 5.91558 2.36658 2.36658 0 0 1-.40815 2.14124 1.58834 1.58834 0 0 1-.24122.543c-.1751.1671-.36355-.00064-.51188-.13138-.9722-.85686-1.84868-1.80247-2.88792-2.607a26.2664 26.2664 0 0 0-7.18728-3.86493c-3.01724-1.09909-6.05848-2.13321-9.09906-3.16689a19.63255 19.63255 0 0 0-6.224-1.05223 12.606 12.606 0 0 0-6.78235 1.94267 26.13647 26.13647 0 0 1-3.44218 2.20371c.67019-2.65113.17841-2.805 1.41315-5.25405C428.18975 175.77983 428.91526 172.32432 429.46159 172.16709zM87.57235 395.50733a5.41033 5.41033 0 0 0-2.5161 4.68582 37.82731 37.82731 0 0 0 .20547 6.78276q.53851 4.29 1.35188 8.5258a22.12349 22.12349 0 0 0 3.38608 8.55183 7.80241 7.80241 0 0 1 .39453.72019 19.4941 19.4941 0 0 1-8.78073 3.3c-3.10945.51389-6.22348.98943-9.36426 1.30072-3.4768.34459-6.94434.78934-10.41035 1.23383-2.71748.34853-5.42042.81469-8.14088 1.13454-3.0632.36022-6.14037.59988-9.20839.92139-1.90731.2-3.80886.45468-5.71311.68385-.20476.0247-.40992.04844-.61557.06311-2.2582.16153-4.54462.15418-6.767.528-2.248.37812-4.51214.32419-6.76225.59671a23.16456 23.16456 0 0 1-9.59444-.72709 16.77149 16.77149 0 0 1-5.58891-3.02627 8.19152 8.19152 0 0 1-1.02565-1.0157c-1.46324-1.67923-1.3391-3.01624.61749-4.50815a13.07159 13.07159 0 0 1 3.31442-1.64332c5.65-2.14162 11.32549-4.21578 16.97866-6.3491 1.66933-.63 3.2951-1.37536 4.94087-2.06778a1.34228 1.34228 0 0 0 .72875-.69036c2.31861-1.58231 4.96921-2.55052 7.35107-4.03553a40.32392 40.32392 0 0 0 12.07349-10.97573c.34334-.49063.89354-.88956.76213-1.60771a6.22922 6.22922 0 0 0 2.78426-2.26084 67.19218 67.19218 0 0 1 7.57369-8.08932 8.98042 8.98042 0 0 1 9.94762-1.55048 16.153 16.153 0 0 1 3.37558 1.9422 1.52984 1.52984 0 0 0 1.11309.42811C83.091 390.12839 85.29438 392.85744 87.57235 395.50733z"/><path fill="#7286cc" d="M330.20039,334.28025c.20369.03271.41112.05093.61021.10173.26761.0683.60157.17553.50984.51176a10.58662,10.58662,0,0,0-.25274,2.44682,1.16317,1.16317,0,0,1-.60727,1.01794,11.442,11.442,0,0,1-1.97693,1.07726,25.19564,25.19564,0,0,1-5.20017,1.13356c-1.4241.14785-2.84169.38378-4.25087.64224-1.21035.222-2.43728.276-3.64987.53466-2.33481.49792-4.70217.85081-7.06407,1.21116-1.41795.2163-2.85551.30173-4.27613.50328-1.41815.20116-2.82489.48184-4.23909.71236-1.07867.17587-2.16893.27514-3.2503.43486a159.23185,159.23185,0,0,0-15.65892,3.23942c-4.8426,1.22095-9.71609,2.32216-14.58693,3.42767q-5.59957,1.271-11.22922,2.40731c-1.33569.269-2.7138.32158-4.06822.50474-1.62261.21948-3.23987.47794-4.86107.70825a10.80126,10.80126,0,0,1-1.22937.103,9.83291,9.83291,0,0,0-3.0586.32257,5.23149,5.23149,0,0,1-1.63876.09052c-2.202.00938-4.4041-.00642-6.60592.01414a31.16584,31.16584,0,0,0-4.297.29314,14.024,14.024,0,0,1-5.32645-.13158,8.21773,8.21773,0,0,0-1.83813-.15758q-3.406-.02691-6.81234-.00527a11.01594,11.01594,0,0,0-3.67673.32179,4.59513,4.59513,0,0,1-1.43458.07568c-1.51382.00988-3.02772.00673-4.54157.01275a8.2089,8.2089,0,0,0-2.44637.26187,7.22407,7.22407,0,0,1-1.839.14137,13.7696,13.7696,0,0,0-4.29062.36136,1.92874,1.92874,0,0,1-.8194.04614c-2.27987-.23643-4.497.415-6.76057.48285a31.69414,31.69414,0,0,0-3.24622.43219c-2.2983.313-4.57879.75792-6.86529,1.15617a78.95275,78.95275,0,0,0-9.22362,1.96c-1.37647.41337-2.78456.72026-4.16814,1.11148a105.511,105.511,0,0,0-14.13613,5.033,97.72827,97.72827,0,0,0-9.61392,4.70537c-7.66584,4.46194-15.62985,8.37235-23.61159,12.23078a47.85035,47.85035,0,0,1-7.18968,3.042,1.75432,1.75432,0,0,1-.56749-1.50545c.22118-1.8286.6402-3.50783,2.912-3.74331a38.15554,38.15554,0,0,0,5.88922-1.86491c2.30415-.89642,4.6035-1.82835,6.82484-2.90949,4.016-1.95463,8.05739-3.856,12.01421-5.93759,4.378-2.30324,8.86477-4.39947,13.3012-6.59184,1.35561-.66994,2.717-1.3306,4.04922-2.045a161.22678,161.22678,0,0,1,20.66048-9.30209,67.73931,67.73931,0,0,1,14.00107-3.32119,62.15563,62.15563,0,0,1,13.15432-.62869c3.49569.25357,7.01364.074,10.4906.5987a6.18169,6.18169,0,0,0,.61788.03223c3.77458.18555,7.558.267,11.32127.5861a98.04553,98.04553,0,0,0,11.33333.19311,128.77352,128.77352,0,0,0,13.56947-.8285,140.20784,140.20784,0,0,0,16.74775-3.368c3.72564-.985,7.35159-2.26245,10.96433-3.58429a108.99964,108.99964,0,0,1,14.62357-4.2574,30.75828,30.75828,0,0,1,3.86714-.57846c2.46387-.2063,4.93385-.34979,7.40366-.472,4.5959-.22743,9.182-.50353,13.75054-1.12365,3.4729-.47138,6.91108-1.11043,10.35767-1.71862C329.23739,334.34537,329.72159,334.3281,330.20039,334.28025Z"/><path fill="#8c4646" d="M412.79683 115.17356c-.20251-.19411-.42836-.37372-.71762-.22644-.42662.21721-.81918.50527-1.25382.70225a6.3035 6.3035 0 0 1-7.34388-1.54645 19.85491 19.85491 0 0 1-4.17532-8.63094 7.21331 7.21331 0 0 1 .11272-3.0691 16.08954 16.08954 0 0 1 2.58082-5.79682 25.21746 25.21746 0 0 1 2.29731-2.90762 92.8107 92.8107 0 0 1 15.25528-13.18287 38.16492 38.16492 0 0 1 11.80423-5.22833 11.04086 11.04086 0 0 1 4.89728-.29037 6.0924 6.0924 0 0 1 2.10235.79774 3.56551 3.56551 0 0 1 1.77414 3.06863 7.92042 7.92042 0 0 1-.54555 3.02223c-.30619.83607-.69463 1.64294-1.06685 2.45347a1.09141 1.09141 0 0 0 .02434.98453c-5.71227 9.79814-14.15521 17.22733-21.91591 25.24707C415.23239 112.011 413.145 112.86544 412.79683 115.17356zM488.29442 227.8145a.85892.85892 0 0 0-.28824.02585 51.50728 51.50728 0 0 1-3.74-5.90649q-6.66777-10.91829-13.16855-21.93741a38.72536 38.72536 0 0 1-5.23905-16.76975 69.0115 69.0115 0 0 1 .1509-10.27124 5.54794 5.54794 0 0 1 .90844-3.31887c.25458.31957.53572.6217.75915.96174a17.4685 17.4685 0 0 0 3.659 3.8931c3.24985 2.654 6.50172 5.30655 9.70868 8.01195a51.86784 51.86784 0 0 1 7.51423 7.63684 27.61239 27.61239 0 0 1 5.86656 13.66654 28.97841 28.97841 0 0 1-.88486 11.036 49.73013 49.73013 0 0 1-3.35508 8.85482C489.53773 225.06158 488.92374 226.44168 488.29442 227.8145z"/><path fill="#f6c193" d="M113.8231 381.5503a4.07969 4.07969 0 0 0-2.4874 3.63442 2.1929 2.1929 0 0 1-1.58943 2.12443c-5.85013 2.346-11.597 4.94856-17.53843 7.06762a5.58624 5.58624 0 0 1-5.11671-.62432 31.80915 31.80915 0 0 1-6.59215-6.112 97.72388 97.72388 0 0 1 7.00077-9.61359 25.95671 25.95671 0 0 1 5.2355-4.90731 11.30443 11.30443 0 0 1 13.25188.183 22.92537 22.92537 0 0 1 5.49866 5.76321c.34.51382.69588 1.01753 1.0555 1.51792A2.17909 2.17909 0 0 0 113.8231 381.5503zM420.65939 374.032c.99826-1.38237 2.16985-2.62482 3.23428-3.94522 1.32738-1.64655 2.9615-3.02208 4.12775-4.80361a4.31169 4.31169 0 0 1 .92351-.78861c.91615 1.94221.19419 3.91369-.02243 5.83-.68577 6.067-1.27985 12.147-1.36438 18.24372a125.31413 125.31413 0 0 0 1.4108 17.62051 4.07612 4.07612 0 0 1-.03478 2.42518 18.05694 18.05694 0 0 1-6.93341-1.72727 4.08032 4.08032 0 0 1-2.59064-4.07258c.055-2.26848-.04254-4.54334.08457-6.80655.1189-2.11664.445-4.22164.68007-6.33179.01527-.13663.04173-.27279.04662-.40976C420.39987 384.18893 420.96442 379.12291 420.65939 374.032z"/><path fill="#6a2e2e" d="M412.79683,115.17356c-.00915-.20281.04836-.44235-.03949-.60177a1.07477,1.07477,0,0,1,.22779-1.47215,12.98808,12.98808,0,0,1,1.0322-1.00472c2.68309-1.951,4.80961-4.48833,7.167-6.78026,3.2944-3.203,6.3121-6.67426,9.48559-9.99464a33.84149,33.84149,0,0,0,6.45333-8.96144,1.72742,1.72742,0,0,1,1.419-1.03509.14926.14926,0,0,1,.2188.002c.65582.20384,1.326.37068,1.9645.61891a2.39268,2.39268,0,0,1,1.59229,3.26714,9.82537,9.82537,0,0,1-1.39149,2.97175,53.887,53.887,0,0,1-5.29051,6.55022c-2.1015,2.16822-4.25763,4.30332-6.15571,6.64287a59.96186,59.96186,0,0,1-5.24843,5.52016c-2.12856,2.03344-4.41141,3.9057-6.63455,5.83961a6.46945,6.46945,0,0,1-2.174,1.15714,1.609,1.609,0,0,1-2.15074-1.24174,1.34089,1.34089,0,0,0-.38829-.69865Z"/><path fill="#7286cc" d="M381.07348,354.98471a4.38018,4.38018,0,0,1,1.37768,1.76506c1.7348,2.71754,3.44813,5.45077,5.08969,8.22538a58.77951,58.77951,0,0,1,4.85159,10.21343q1.38027,3.87814,3.10013,7.61813a88.1348,88.1348,0,0,1-9.468,4.02526,14.86029,14.86029,0,0,0-.38159-4.07787,5.66724,5.66724,0,0,1-.05257-1.63819,10.2053,10.2053,0,0,0-.32882-3.46128,3.87119,3.87119,0,0,1-.08228-1.22529,6.26075,6.26075,0,0,0-.26819-2.2332,3.31593,3.31593,0,0,1-.13873-1.01131,55.93466,55.93466,0,0,0-2.28949-13.27742C381.98212,358.276,381.54153,356.62616,381.07348,354.98471Z"/><path fill="#6a2e2e" d="M466.91791,169.63659a5.63768,5.63768,0,0,1-.25473,2.23517.88263.88263,0,0,0-.09455.39777c.12978,2.61362-.65608,5.17377-.45271,7.79023a6.6351,6.6351,0,0,0,.1764,1.421,6.68,6.68,0,0,1,.22177,1.832,32.11275,32.11275,0,0,0,3.07808,12.6815,85.14627,85.14627,0,0,0,4.36045,7.69687c1.60429,2.71522,3.18983,5.44166,4.81074,8.14692,1.26831,2.11678,2.58556,4.20419,3.86753,6.3129,1.38881,2.28453,2.792,4.56127,4.12648,6.87738a8.702,8.702,0,0,1,1.24871,2.81224c-.092.08034-.24728.24339-.26643.2287a2.58762,2.58762,0,0,1-.57826-.52771,222.452,222.452,0,0,1-13.94786-22.1329,143.0249,143.0249,0,0,0-7.45168-12.58885,17.33233,17.33233,0,0,0-1.16953-1.69538,6.73493,6.73493,0,0,1-1.71461-3.41312,5.15923,5.15923,0,0,0-.02475-.81629c-.83213-4.4751-.06154-8.82943.97175-13.166.09425-.39567.15115-.80027.22544-1.20071.26108-1.17524.12223-2.46535.96646-3.47308.36193-.432.5961-1.205,1.41618-.63195l.15383.61444a.89271.89271,0,0,0,.3262.58616Z"/><path fill="#e7b182" d="M466.43279 168.42329c-.25538.0268-.5527-.05544-.70814.24592a15.30344 15.30344 0 0 0-1.26115 2.96131 5.8025 5.8025 0 0 1-.41335.89776 1.89334 1.89334 0 0 0-1.13585-2.00961 17.812 17.812 0 0 1-5.40629-4.34613 15.65807 15.65807 0 0 1-3.05252-4.58469c-.17046-.39169-.32509-.75792.00625-1.14017a1.39 1.39 0 0 1 1.40252-.64982c1.464.31271 2.92471.6471 4.39841.90679 1.47233.25948 2.95525.46938 4.44064.6394a12.64659 12.64659 0 0 1 2.02292.271 16.0486 16.0486 0 0 0 3.6827.1576c.53995.02319 1.114-.08156 1.504.4446-.4582.28429-.91011.57953-1.37612.85068a11.41921 11.41921 0 0 0-3.88864 3.81923A1.81653 1.81653 0 0 0 466.43279 168.42329zM428.93414 408.61394a6.47289 6.47289 0 0 1-.70124-2.96354c-.21557-1.47367-.31481-2.97708-.51052-4.46655-.31148-2.37021-.29031-4.77914-.52574-7.143-.22479-2.25789-.27706-4.49865-.30911-6.7512a9.55628 9.55628 0 0 1 .31884-3.45968 4.70251 4.70251 0 0 0 .08185-1.42979 12.57809 12.57809 0 0 1 .36022-4.07283 2.79948 2.79948 0 0 0 .05-1.02225 29.77267 29.77267 0 0 1 .77079-7.51593.69288.69288 0 0 0 .02969-.20317c-.16517-1.72482.33638-3.391.4459-5.09142 1.12452-1.21478 1.95272-2.69354 3.30373-3.70632a4.34742 4.34742 0 0 1-.04213 1.02817c-.785 2.76874-1.24855 5.60573-1.78588 8.42512-.28054 1.47214-.4507 2.9735-.70265 4.44664-.39793 2.32667-.06462 4.68809-.4326 6.96536-.555 3.43478-.18493 6.85751-.335 10.28051a4.55185 4.55185 0 0 0 .2449 2.03222 1.49243 1.49243 0 0 1 .13135.60006 36.73781 36.73781 0 0 0 .41979 6.14384 12.69655 12.69655 0 0 0 .34394 2.6409 4.45677 4.45677 0 0 1 .0871 1.43292c.00791 1.30737.00075 2.61479-.00041 3.92231Q429.55562 408.66021 428.93414 408.61394z"/><path fill="#f6c193" d="M34.614,414.06254a3.59761,3.59761,0,0,1-1.14786-3.53482,2.91729,2.91729,0,0,1,1.82436-2.33158c.69354-.29322,1.40754-.54008,2.11927-.78791a41.50333,41.50333,0,0,0,12.1774-6.33048,17.82269,17.82269,0,0,1,5.27788-3.119c.01123,1.47795-1.1634,2.28609-1.98,3.21074A48.65323,48.65323,0,0,1,36.95744,413.387,4.745,4.745,0,0,1,34.614,414.06254Z"/><path fill="#e7b184" d="M80.499,387.64041a7.0563,7.0563,0,0,1,2.30459,1.68634,34.34088,34.34088,0,0,0,3.93364,3.60682,5.68735,5.68735,0,0,0,5.79914.80925q4.09016-1.66,8.20948-3.24806c2.48739-.96491,4.8643-2.20558,7.44058-2.952.52025-.1507.98171-.4935,1.49228-.69078a2.69982,2.69982,0,0,0,1.65739-1.66766q.07068.8077.14233,1.61469a7.721,7.721,0,0,1-2.50495,1.37478c-1.37469.61962-2.77716,1.17875-4.17583,1.74373-2.86343,1.15664-5.68837,2.39135-8.46441,3.75228a17.01965,17.01965,0,0,1-8.76145,1.83721,2.55373,2.55373,0,0,1-1.93623-1.35411,15.51271,15.51271,0,0,0-3.86131-3.86425,5.5185,5.5185,0,0,1-1.79006-1.92958Q80.24121,387.99938,80.499,387.64041Z"/><path fill="#e8b283" d="M34.614,414.06254c.33324-.52362.95224-.496,1.43525-.71449a46.52942,46.52942,0,0,0,10.68071-6.77543,39.33221,39.33221,0,0,0,6.68768-6.89817c.43883-.60369.96269-1.14558,1.44741-1.71583a.78742.78742,0,0,1,.325-.06923c.28036.10318.83226.08145.53724.57128a19.72722,19.72722,0,0,1-1.67814,2.33126,34.43445,34.43445,0,0,1-4.03147,4.64965A61.22457,61.22457,0,0,1,42.9439,410.716c-1.924,1.2048-3.964,2.19134-5.98736,3.21021a4.1918,4.1918,0,0,1-1.95346.58156l.01479-.01263a1.0385,1.0385,0,0,0-.40105-.43864Z"/><path fill="#f6c193" d="M34.61682,414.05647q.20063.21914.40115.43847A.56733.56733,0,0,1,34.61682,414.05647Z"/><path fill="#e8b283" d="M469.82145 240.21107q-.00644.80739-.0129 1.61479a1.06325 1.06325 0 0 1-.4.88095 9.37844 9.37844 0 0 1-.42569-2.83041 31.68508 31.68508 0 0 0-.70442-6.71 40.55372 40.55372 0 0 0-1.88295-7.55562 27.99815 27.99815 0 0 0-8.15812-12.41289 18.58144 18.58144 0 0 0-8.23221-4.42309.68019.68019 0 0 1-.34621-.20448.83732.83732 0 0 1-.14506-.36011c-.00584-.0245.09829-.10328.15721-.11035a2.18493 2.18493 0 0 1 .805-.05626 18.12564 18.12564 0 0 1 4.22326 1.5594 28.59114 28.59114 0 0 1 6.38146 5.13871 23.63986 23.63986 0 0 1 3.434 4.59877 36.21475 36.21475 0 0 1 4.05985 10.51674c.41945 2.00415.90244 4.0026 1.17073 6.02822A35.82323 35.82323 0 0 1 469.82145 240.21107zM424.56673 237.24372a32.17688 32.17688 0 0 1 .52282-8.97006 64.19561 64.19561 0 0 1 2.08431-8.126 27.49518 27.49518 0 0 1 1.80882-3.91574 6.479 6.479 0 0 1 2.96659-2.45273c.51193-.284 1.01343-1.04257 1.77681-.42205-.04511.8029-.78531.86266-1.27773 1.1622a9.77822 9.77822 0 0 0-4.22946 5.38959 41.32992 41.32992 0 0 0-2.19842 8.724c-.13226 1.21453-.45659 2.40771-.67972 3.61317a3.83089 3.83089 0 0 0-.10005 1.01829A10.95266 10.95266 0 0 1 424.56673 237.24372z"/><path fill="#efc5b3" d="M421.5011,191.49639q.20911-.21.41828-.42Z"/></svg>
