<svg xmlns="http://www.w3.org/2000/svg" viewBox="0 0 512 512"><path fill="#9797ed" d="M359.18728,102.33729a9.33189,9.33189,0,0,1,3.09313,3.617c.57288.9908,1.08306,2.02011,1.58092,3.05165,2.95648,6.1255,6.34009,12.02459,9.53589,18.02316,2.837,5.32508,5.80061,10.57709,8.94832,15.72637,3.346,5.4737,6.73162,10.91717,10.48014,16.13152,2.31721,3.22334,4.455,6.57528,6.75351,9.81252,3.5358,4.97979,7.142,9.90959,10.71557,14.86258,2.36709,3.28072,4.79074,6.5162,6.951,9.94842,2.64335,4.19967,5.525,8.24912,8.18,12.44176,1.75463,2.77082,3.30555,5.67157,4.92289,8.52821,1.80554,3.18908,3.56837,6.40237,5.37739,9.58947,1.39481,2.45738,2.582,5.022,4.01823,7.46208a76.93391,76.93391,0,0,0,6.54913,9.09871q2.655,3.3009,5.328,6.5873a44.69628,44.69628,0,0,1,5.92763,10.29488c.71067,1.60454,1.30088,3.26233,2.00478,4.87012a14.32934,14.32934,0,0,1,.75506,7.86226c-.57162,4.30833-2.35846,8.20285-4.06548,12.11167-3.11712,7.13782-6.373,14.214-9.82,21.2009q-3.09158,6.26637-6.10733,12.57015c-3.77578,7.84558-7.50662,15.71344-11.52589,23.43883-5.32368,10.23274-10.8942,20.318-17.19287,30.00049a79.87722,79.87722,0,0,1-9.60158,12.21762,49.64793,49.64793,0,0,0-3.30978,3.79846,49.84785,49.84785,0,0,1-3.87568,4.21363c-3.8295,3.84355-7.64662,7.69956-11.49555,11.52354a144.26452,144.26452,0,0,1-22.82226,18.69265,116.63879,116.63879,0,0,1-10.4739,6.12986c-6.66352,3.41695-13.477,6.49191-20.39617,9.35751-6.9128,2.863-13.8579,5.63529-20.87715,8.22311-5.08722,1.87558-10.29233,3.37944-15.501,4.86982-2.86.81838-5.7329,1.59315-8.58221,2.447a59.1391,59.1391,0,0,1-9.45068,1.64589c-5.6671.73692-11.36985,1.17385-17.00665,2.18307a40.94882,40.94882,0,0,1-6.13593.68683c-1.898.05016-3.78976.3786-5.68076.61277a1.44588,1.44588,0,0,1-1.09044-.15585,2.20653,2.20653,0,0,1-.3786-1.51641c.56126-16.45563.04593-32.91712.27439-49.37373.08769-6.31655.61537-12.621,1.014-18.92679a7.31756,7.31756,0,0,1,.86631-3.28533,2.10674,2.10674,0,0,1,1.775-.88c2.63669-.06119,4.82265-1.29917,7.00425-2.58782,5.7729-3.41,10.6241-7.90036,15.335-12.62692A71.7686,71.7686,0,0,1,291.40691,352.354a106.13637,106.13637,0,0,1,29.59214-9.39706c5.273-.786,10.65083-1.058,15.75689-2.79869a19.70009,19.70009,0,0,0,11.07239-5.45233c9.1167-9.32386,17.58588-19.2543,26.86977-28.4271a58.32654,58.32654,0,0,0,8.16873-9.83278A91.6637,91.6637,0,0,0,398.4886,273.8382a9.769,9.769,0,0,0,1.1981-5.481c-.19859-2.57556-1.69974-4.52559-3.16336-6.46837-3.63093-4.81957-7.83088-9.16227-11.66617-13.80982-6.595-7.99183-11.64594-16.97746-16.48606-26.08112a235.25335,235.25335,0,0,1-14.98986-35.87776c-4.14848-12.375-8.24576-24.77206-13.10139-36.89112a64.97414,64.97414,0,0,0-9.34306-16.216,24.8761,24.8761,0,0,0-4.53989-4.73507,2.52527,2.52527,0,0,1-1.14417-2.12436c1.42077-3.103,3.82967-5.46042,6.29551-7.64722a107.15886,107.15886,0,0,1,17.76295-13.13379,57.04268,57.04268,0,0,1,6.84856-3.10529C357.13741,101.86839,358.19816,101.53084,359.18728,102.33729Z"/><path fill="#f6c193" d="M132.61351,260.1362c-6.07726-.54828-12.11755-1.30365-17.93039-3.28741a14.41907,14.41907,0,0,1-4.46-2.27108,11.176,11.176,0,0,1-3.24478-4.07321,29.344,29.344,0,0,1-2.73744-10.32794,9.67726,9.67726,0,0,0-1.56483-4.955,5.13362,5.13362,0,0,1-.66122-4.15156,16.41529,16.41529,0,0,1,.39843-1.78133c.74151-2.42374-.11571-4.49864-1.415-6.45771-.54665-.82426-1.21856-1.5648-1.82226-2.35208a3.48965,3.48965,0,0,1-.68587-3.20078,18.72883,18.72883,0,0,1,2.56495-5.58637c1.15224-1.79771,2.30848-3.5955,3.538-5.34036a16.90828,16.90828,0,0,0,2.71818-8.61437,9.58572,9.58572,0,0,0-.12963-1.36005c-.21277-3.42107-.82152-6.8314-.61957-10.2605a38.43772,38.43772,0,0,1,2.03154-10.74536,30.44057,30.44057,0,0,1,4.71265-8.082,33.80732,33.80732,0,0,1,6.853-6.67729c1.54544-.22461,1.88324,1.10954,2.39959,2.01819a43.90365,43.90365,0,0,1,4.03485,11.1777c2.20087,8.75384,3.5663,17.6748,5.23936,26.53438a33.08647,33.08647,0,0,0,2.03615,7.27089,11.8517,11.8517,0,0,0,1.46256,2.58681c2.25377,2.87657,3.76824,2.79338,5.669-.32368a29.3822,29.3822,0,0,1,3.12373-4.5191c3.50148-3.87932,7.55561-4.98628,11.20752-3.07,3.74508,1.9652,5.80425,7.13737,4.68688,11.71595a15.73878,15.73878,0,0,1-2.722,5.77317,15.86677,15.86677,0,0,0-3.455,12.40414,30.22257,30.22257,0,0,1,.51312,6.614,39.57147,39.57147,0,0,0,.6055,6.76879c.79326-4.55173,2.00758-8.78373,3.083-13.04711,4.71006-18.67353,8.63008-37.53724,13.55059-56.16042,1.38637-5.24715,2.88061-10.46149,4.41063-15.66548a51.009,51.009,0,0,1,2.01694-5.82325c.1528-.41392.30841-.82755.44366-1.24843a5.44372,5.44372,0,0,1,.227-.61815c2.98093-8.385,7.4697-15.993,12.12161-23.517a2.11475,2.11475,0,0,0,1.67-1.05637c2.31564-3.12188,4.61271-6.25841,6.979-9.34164,3.29374-4.29162,6.55033-8.61119,10.05962-12.73635,3.45588-4.0624,6.77895-8.23751,10.20091-12.32922,1.46675-1.75384,3.03244-3.42517,4.55971-5.1281,6.01831-6.71052,12.47417-12.99424,18.91716-19.28691,2.5067-2.44822,5.18958-4.71625,7.79637-7.06173,1.58717-1.42811,3.23932-2.78926,4.761-4.28369,2.50925-2.46434,5.24063-4.66729,7.96866-6.86692,3.91478-3.15651,7.91687-6.20533,11.90082-9.27525,1.8115-1.3959,3.626-2.77622,5.33787-4.30432a32.43168,32.43168,0,0,1,4.2767-3.05278,60.17993,60.17993,0,0,1,11.82278-5.957,40.44578,40.44578,0,0,1,7.5853-1.56,4.51518,4.51518,0,0,1,2.03529.20563,1.44171,1.44171,0,0,0,1.63259-.5323c.48381-.58893.95442-1.18878,1.43982-1.77639a9.5,9.5,0,0,1,4.9-3.15577,5.0471,5.0471,0,0,1,6.42467,4.39209,17.78533,17.78533,0,0,1,.16025,4.98711A24.21385,24.21385,0,0,0,321.18,36.162a7.13588,7.13588,0,0,0,.91252,3.04378,58.10148,58.10148,0,0,0,3.48113,5.912,13.82212,13.82212,0,0,1,1.63505,3.26051c.497,1.5148.70956,2.96772-.49509,4.28554-.137.14988-.12988.43153-.18958.65208-2.65763,1.72719-5.61735,1.61392-8.57993,1.35946a46.62634,46.62634,0,0,0-16.98519,1.28149,5.56249,5.56249,0,0,0-3.48242,7.19036c.43066,1.42991,2.19683.64042,2.63569,1.86244a.52574.52574,0,0,1-.22435.37755c-2.36644,1.07552-2.58888,1.85034-1.16834,4.10591a26.71117,26.71117,0,0,0,2.25952,2.5771c2.44081,2.963,1.31171,6.23438-2.42108,7.09915a10.25853,10.25853,0,0,1-4.0743.09042,37.60572,37.60572,0,0,1-14.30377-5.84932c-1.98989-1.28573-3.62206-1.26079-5.3925.152a37.536,37.536,0,0,0-5.58424,5.03827c-5.92948,7.05851-10.26129,15.12949-14.93055,23.00259-4.52106,7.6232-8.47976,15.52883-12.42285,23.45011a5.73051,5.73051,0,0,0-.701,2.16q-3.86082,6.03323-7.19341,12.37765c-2.47689,4.71538-5.53623,9.08388-8.30266,13.62731-.292.457-.664.85193-.99243,1.28073-2.67131,3.93548-5.66678,7.63305-8.43315,11.49941-3.36861,3.32812-6.21892,6.99732-7.64276,11.60765a8.18545,8.18545,0,0,0-.81178,1.88354c-1.46347,4.29158-1.84238,8.8135-2.81135,13.20935-1.21839,5.52737-2.82831,10.93-4.53,16.32014-1.565,4.95722-2.69295,10.01281-2.26534,15.28356-.29883,4.43669.42483,8.83182.5118,13.24979.18636,9.46966,2.079,18.81205,2.07151,28.29493-.00283,3.59147-.56076,7.1489-.61447,10.73373a4.74312,4.74312,0,0,0,.17273,3.77249,55.74727,55.74727,0,0,1,5.43656,21.62629c.52443,8.52,1.4455,17.01,1.39624,25.57494a27.29618,27.29618,0,0,1-7.12612,18.55306,42.18986,42.18986,0,0,1-20.33769,13.06466,35.92721,35.92721,0,0,1-29.53575-3.8283,40.144,40.144,0,0,1-17.45214-20.27416,18.35686,18.35686,0,0,1-1.15918-9.17349,213.60371,213.60371,0,0,1,6.86779-34.32347A42.01018,42.01018,0,0,1,148.643,273.65951a1.99071,1.99071,0,0,0,.72959-1.16779c-2.88668,2.57511-5.009,5.71722-7.30074,8.71916-.57152.74863-.87522,1.83706-2.10392,1.85293-.65758-1.662-.51332-3.45549-.7914-5.17888a68.05924,68.05924,0,0,0-2.34237-9.98539,2.08372,2.08372,0,0,1-.04277-.45333c2.43345-2.73874,4.86307-5.47953,6.33216-8.90513a9.03522,9.03522,0,0,0,.56162-1.25108c.28325-1.09941.84216-2.50735-.15582-3.19745-.88167-.60974-1.65279.71714-2.41951,1.26791C138.45353,257.26845,135.91105,259.37142,132.61351,260.1362Z"/><path fill="#ffadb7" d="M139.96789,283.06381a1.57209,1.57209,0,0,0,.33322-.30593,82.86324,82.86324,0,0,1,5.393-7.36115,38.32926,38.32926,0,0,1,4.41875-4.51026.8524.8524,0,0,1,.362.94675,3.52643,3.52643,0,0,1-1.06849,1.98309,32.7064,32.7064,0,0,0-4.52953,5.42749,35.63983,35.63983,0,0,0-3.90393,6.96509,86.78168,86.78168,0,0,0-4.74144,16.4202c-.46427,2.38416-1.08563,4.73753-1.56081,7.11982-.43018,2.15665-.77127,4.33159-1.12881,6.50221q-.66523,4.03875-1.28761,8.08453a11.46283,11.46283,0,0,0-.08534,1.36977,6.76364,6.76364,0,0,1-.289,2.48593,1.51934,1.51934,0,0,0-.10944.89482c.50889,1.9762.50745,4.07806,1.5874,5.91968.53471.91181.80315,1.97533,1.27042,2.932a36.75454,36.75454,0,0,0,6.95105,9.85005,43.85139,43.85139,0,0,0,12.13828,8.83317,31.30758,31.30758,0,0,0,11.14815,3.06847,46.0866,46.0866,0,0,0,5.22073.40017,34.12164,34.12164,0,0,0,13.6935-3.09606c.89392-.4233,1.82912-.75865,2.73877-1.14968a32.25447,32.25447,0,0,0,7.00547-4.29271,62.68247,62.68247,0,0,0,5.26032-5.09964,30.4631,30.4631,0,0,0,3.872-4.78333,24.06092,24.06092,0,0,0,3.37945-8.419,25.53037,25.53037,0,0,0,.43161-5.44986c.004-2.52137.012-5.04285-.01153-7.564a13.1391,13.1391,0,0,0-.36757-4.31132,5.5538,5.5538,0,0,1-.08423-1.59338,6.12892,6.12892,0,0,0-.05838-1.59682c-.56549-1.79572-.34851-3.63183-.40133-5.45431a14.64377,14.64377,0,0,0-.4065-4.76286,1.06431,1.06431,0,0,1-.03463-.45451,19.55469,19.55469,0,0,0-.49448-4.98371c-.33174-2.09726-.68839-4.1955-1.15978-6.26471a43.35763,43.35763,0,0,0-3.663-10.06964,4.76988,4.76988,0,0,1-.60952-3.07328,1.9943,1.9943,0,0,1,.3379-.58173c.97421.13327,1.32095.93732,1.76631,1.64245a47.11427,47.11427,0,0,1,6.65976,20.51661c.88769,8.2656,1.64981,16.5447,2.9098,24.76529.89376,5.83126,3.42266,11.08317,6.13344,16.20708,4.21274,7.96286,8.6459,15.82011,13.51264,23.39934a98.131,98.131,0,0,0,11.58319,15.02994c1.66945,1.742,3.86292,2.60481,5.63507,4.1143a11.02278,11.02278,0,0,0-.85186,4.19623c-.07871,4.04058-.72011,8.05436-.54853,12.10456-.77869,6.62006-.30352,13.26435-.35329,19.89694-.07619,10.15531-.04347,20.31152-.03247,30.46737a26.90117,26.90117,0,0,1-.63,6.58333c-1.84907.42915-3.69229.87906-5.54623,1.27944q-2.2306.48174-4.48254.8635c-1.651.28315-3.33807.354-4.9834.59065-3.40925.49034-6.84392.35-10.25617.70172a28.73966,28.73966,0,0,1-7.30934-.107,6.51148,6.51148,0,0,0-1.13629-.11218c-4.12656.101-8.23-.31361-12.33675-.59133-2.42649-.16408-4.836-.569-7.25644-.83607a50.8,50.8,0,0,1-6.951-1.292,77.8162,77.8162,0,0,1-12.479-4.4555,139.5862,139.5862,0,0,1-40.84843-28.94428,139.66886,139.66886,0,0,1-16.50309-20.74191,115.14517,115.14517,0,0,1-7.05042-12.30458,43.42171,43.42171,0,0,1-4.28928-14.15681,38.17607,38.17607,0,0,1,.11736-9.1337,62.34961,62.34961,0,0,1,5.51985-18.07983,87.59025,87.59025,0,0,1,5.33223-9.59959c2.68486-4.35348,5.74727-8.45149,8.59949-12.69172a76.69457,76.69457,0,0,0,8.66187-16.855c1.31121-3.649,2.2068-7.44968,3.23431-11.19725.56374-2.05606.99955-4.14683,1.519-6.21542a49.96348,49.96348,0,0,1,2.59259-7.56487C139.65616,284.08244,139.79606,283.56627,139.96789,283.06381Z"/><path fill="#8c4646" d="M176.56142,160.59131c-.88576,3.23406-1.73151,6.47973-2.66582,9.6997-1.82941,6.30477-3.28757,12.70407-4.91151,19.061-1.20848,4.73062-2.47181,9.453-3.48133,14.22756-2.73113,12.917-6.03208,25.69513-9.18732,38.50928-.29165,1.18447-.53512,2.3808-.80229,3.57131a2.2912,2.2912,0,0,1-.54311,1.25571c-.44109.02849-.32579-.37639-.41738-.59312a3.37308,3.37308,0,0,1-.24973-.87979c-.18938-1.51411-.42428-3.02679-.51865-4.54768-.21281-3.42932-.35172-6.8632-.52227-10.29515a8.039,8.039,0,0,0-.09249-1.37069,7.83347,7.83347,0,0,1,1.21426-5.89728c1.13056-1.90432,2.34792-3.75723,3.47406-5.6641a11.58334,11.58334,0,0,0,1.79829-6.98373,9.957,9.957,0,0,0-3.1348-6.91826c-2.50177-2.22747-5.469-2.39972-8.51291-.779a12.51632,12.51632,0,0,0-4.38022,3.96811c-.74124,1.0643-1.40646,2.18165-2.10312,3.27688-.3278.51536-.64068,1.04038-.97547,1.551-1.2109,1.84709-2.51427,1.69927-4.06473.566a9.64721,9.64721,0,0,1-3.00461-3.97788,33.38668,33.38668,0,0,1-2.23395-7.67543c-.79967-4.2724-1.48908-8.56567-2.30823-12.83415a175.15,175.15,0,0,0-4.11282-18.06512,31.81759,31.81759,0,0,0-3.50834-8.18253,2.08285,2.08285,0,0,0-1.1575-1.00224,25.90335,25.90335,0,0,1,8.58363-9.06222,37.88345,37.88345,0,0,1,16.3603-6.13578,48.558,48.558,0,0,1,12.10812-.05245,75.39911,75.39911,0,0,0,9.824.58209c-.61876.598-.61407.73075.03259,1.37494a3.89925,3.89925,0,0,1,.822,1.08275C170.03059,152.99914,173.4476,156.68708,176.56142,160.59131Z"/><path fill="#f6c193" d="M359.18728,102.33729a6.93832,6.93832,0,0,0-3.5391.69856A57.60229,57.60229,0,0,0,345.74,108.198c-2.5022,1.73018-4.8905,3.62418-7.35287,5.41307a54.08274,54.08274,0,0,0-8.10732,7.01026,39.50186,39.50186,0,0,0-4.72426,5.53792c-4.438-.99493-8.84229-.263-13.26043.21085a8.15773,8.15773,0,0,1-6.1375-2.085,4.37229,4.37229,0,0,1-.105,4.23779c-1.48178-.20867-1.16523-1.43975-1.13517-2.29687a8.88171,8.88171,0,0,0-1.66165-5.32046c-2.81342-4.35566-3.39794-9.22321-2.77152-14.27783a36.99234,36.99234,0,0,1,.84808-4.95232c.52359-1.96943.59351-3.75787-.88766-5.34593,1.8627-.61968,2.22305-2.11,2.557-3.8537A47.20765,47.20765,0,0,0,301.34354,68.613a23.96735,23.96735,0,0,1-.8564-3.5494c-.06155-2.56192-1.27112-5.096-.18174-7.68452a12.76848,12.76848,0,0,1,7.28029-1.42668,58.83,58.83,0,0,0,19.91048-1.22651q2.3275,3.233,4.656,6.46529c2.99236,4.13256,6.00449,8.25089,8.982,12.3941,2.08859,2.90633,4.11005,5.86094,6.20392,8.76339q3.74591,5.1925,7.13432,10.62195a91.4465,91.4465,0,0,1,4.57225,8.69935A2.82035,2.82035,0,0,1,359.18728,102.33729Z"/><path fill="#8c4646" d="M190.814,129.48331a.86138.86138,0,0,1,.151,1.21149c-.84713,1.269-1.61839,2.58933-2.48083,3.84744a85.60008,85.60008,0,0,0-8.5616,16.92082,4.9974,4.9974,0,0,1-.89828,1.823c-1.23187.68761-1.87878-.32826-2.48223-1.00051-2.13616-2.37976-4.3447-4.70091-6.27747-7.25769a14.0444,14.0444,0,0,0-.71738-4.02918,10.63862,10.63862,0,0,1,.29741-6.50915,8.10364,8.10364,0,0,1,5.74644-5.09161,26.00381,26.00381,0,0,1,6.80489-.57787A64.56622,64.56622,0,0,1,190.814,129.48331Z"/><path fill="#733838" d="M170.26461,145.02788a1.834,1.834,0,0,1,1.63026,1.09179,9.2855,9.2855,0,0,0,1.93152,2.24427c1.27633,1.20841,2.09788,2.80744,3.46032,3.9424.52788.43974.96424.99388,1.73744.97971q-.05283.22274-.106.4454c-.27021.27382-.18469.6849-.38094.98725q-.98779,2.93628-1.9757,5.87257a2.11184,2.11184,0,0,1-1.65811-1.09135c-1.762-2.46739-3.95155-4.61052-5.48437-7.24944-.343-.5905-.74107-1.15505-1.02562-1.77221A11.17618,11.17618,0,0,0,165.836,146.745c.468-.31284.8336-.55727,1.19936-.80169C168.11142,145.63662,169.29463,145.70835,170.26461,145.02788Z"/><path fill="#ecaf7a" d="M132.61351,260.1362a3.333,3.333,0,0,1,1.50567-.985,32.484,32.484,0,0,0,7.38423-4.89649,9.01218,9.01218,0,0,1,1.311-.90538c1.05688-.6749,1.6512-.36085,1.7301.93457a8.79472,8.79472,0,0,1-.83106,4.41173,34.37022,34.37022,0,0,1-4.76471,7.20255c-.55742.67751-1.099,1.51033-2.15754,1.548-.41631-1.139-.88567-2.262-1.23667-3.42073A6.297,6.297,0,0,0,132.61351,260.1362Z"/><path fill="#ecaf7b" d="M327.4962,54.72588c-.51813,1.08462-1.65227,1.052-2.55586,1.26157-4.78069,1.10871-9.65305,1.05735-14.52105.95492a5.73917,5.73917,0,0,1-1.33732-.25258,7.45781,7.45781,0,0,0-3.17522-.07831c-1.26813.20878-2.517.53358-3.78377.75234a10.67959,10.67959,0,0,1-1.59783.0438,1.24546,1.24546,0,0,1-.0546-1.82152c1.29077-1.09437,2.92882-1.13919,4.46487-1.33346,1.56245-.1976,3.14128-.13214,4.72458-.41913a26.10669,26.10669,0,0,1,4.76356-.07337,16.9433,16.9433,0,0,1,4.05219.3324,9.1432,9.1432,0,0,0,3.1584.00109c1.63836-.18817,3.26116-.51172,4.8902-.77783Q327.0099,54.02094,327.4962,54.72588Z"/><path fill="#f8cba4" d="M450.68675,123.53311a.66238.66238,0,0,1,.60616.7628.56963.56963,0,0,1-.623.50573.57551.57551,0,0,1-.61237-.52277A.66456.66456,0,0,1,450.68675,123.53311Z"/><path fill="#7285cc" d="M399.96473,268.3894a74.53059,74.53059,0,0,1-10.05419-7.91455c-3.13024-2.91631-6.15012-5.932-9.036-9.08846a110.33423,110.33423,0,0,1-19.88688-30.55345,225.59636,225.59636,0,0,1-9.21451-26.08312c-1.519-5.11887-3.208-10.181-5.19405-15.1413q-3.35931-8.39026-6.68317-16.79467a154.28455,154.28455,0,0,0-8.1214-16.90669,59.48667,59.48667,0,0,1-3.39864-6.99254c-.69928-2.34508.27526-4.39472,2.98822-6.28481a42.07557,42.07557,0,0,1,4.4854,6.57833c.70068,1.17687,1.38311,2.36628,2.0277,3.57458,3.31073,6.20626,5.58167,12.82948,7.8956,19.44674,3.46719,9.91541,6.84882,19.859,10.23766,29.80093,1.6179,4.74652,3.66083,9.34717,5.47245,14.02892a148.90777,148.90777,0,0,0,7.96543,16.7081c2.44782,4.55048,4.892,9.11313,7.7037,13.47243,2.06255,3.19784,4.25341,6.29813,6.458,9.39059,1.0109,1.418,2.35169,2.60237,3.34834,4.02859,1.49245,2.13569,3.49566,3.79767,5.10572,5.83114,1.50524,1.90108,2.99247,3.836,4.61675,5.641a25.07319,25.07319,0,0,1,3.60869,6.06405A.86633.86633,0,0,1,399.96473,268.3894Z"/><path fill="#7286cc" d="M337.14436,340.37325a66.67279,66.67279,0,0,1,5.43762-7.91433,86.04479,86.04479,0,0,1,7.07551-8.10281c3.233-3.351,6.42717-6.73948,9.64312-10.107.52723-.552,1.05362-1.10965,1.6256-1.61336a131.83259,131.83259,0,0,1,20.98942-15.4479,10.5166,10.5166,0,0,1,1.03943-.46377c.19036.15028.35248.37442.18028.56921-2.0157,2.27981-3.924,4.65264-5.89188,6.9713-3.41978,4.02943-7.446,7.45876-10.93244,11.3975-2.483,2.80516-5.16814,5.39928-7.71408,8.13284-1.34393,1.44294-2.51359,3.0474-3.77814,4.56543-.39024.46841-.82417.902-1.25481,1.335-1.88646,1.89668-3.86594,3.70975-5.644,5.70275a15.73079,15.73079,0,0,1-5.87285,3.86712c-1.32932.5628-2.73712.941-4.112,1.39515A.676.676,0,0,1,337.14436,340.37325Z"/><path fill="#ecaf7a" d="M331.3641 132.62981a3.21763 3.21763 0 0 1-.993 1.45805 6.626 6.626 0 0 0-1.99465 4.8276 9.867 9.867 0 0 0-4.05308-.10383 23.62065 23.62065 0 0 1-9.03839-.26974c-5.1151-1.41779-8.42913-4.60377-9.33694-9.99418-.00016-1.52359-.00016-3.04742-.00016-4.48995.65956-.46547.9789.0488 1.282.27921 2.1978 1.67086 4.70725 1.699 7.20944 1.22177 1.49407-.285 3.00938-.41443 4.50161-.63934a10.356 10.356 0 0 1 6.61515 1.24028 2.908 2.908 0 0 0 1.11748 1.64679A26.98065 26.98065 0 0 1 331.3641 132.62981zM300.41149 96.44348a9.64522 9.64522 0 0 1-5.57627-1.80221 43.178 43.178 0 0 1-7.94466-6.5306c-.94216-1.00141-1.91866-1.97041-2.87013-2.96315a5.40535 5.40535 0 0 0-3.88526-1.65122c-4.95644-.22047-8.79929 1.80964-12.04665 5.44608-3.23255 3.61981-5.61307 7.804-8.23487 11.827-2.7524 4.22331-5.67277 8.32688-8.56062 12.45431-1.96893 2.81409-3.957 5.61641-6.007 8.37158-1.40948 1.89442-2.93965 3.699-4.41586 5.54386a.60281.60281 0 0 1-.30426-.76687c.20615-.49127.46584-.96014.7046-1.43763 2.11453-4.22885 4.15335-8.49784 6.36677-12.6743 2.02935-3.82925 4.24042-7.56247 6.38535-11.33007.865-1.51936 1.79614-3.00136 2.64624-4.52874A104.6985 104.6985 0 0 1 263.298 85.48773c1.78736-2.45249 3.64219-4.8571 5.4958-7.26149a31.96387 31.96387 0 0 1 5.71061-5.16089 6.84609 6.84609 0 0 1 1.16393-.71535c.675-.34753 1.36791-.66015 2.036-.9792 2.56086 1.47318 5.00167 3.03926 7.58465 4.31823a31.84255 31.84255 0 0 0 8.40547 2.82139 8.51121 8.51121 0 0 1 1.33551.266c1.63805.58514 3.21667-.032 4.68449-.47169 2.12046-.63525 2.65816-3.70757 1.15205-5.55295a11.91923 11.91923 0 0 0-1.44623-1.46424c-1.60567-1.38717-2.112-3.29206-2.50615-5.24515a.62469.62469 0 0 1 .64261-.763c.83615-.05473 1.67483-.07 2.51247-.10175a.54984.54984 0 0 1 .79864-.00148 1.4347 1.4347 0 0 1 .53585.95374c.826 3.37712 1.67769 6.74794 2.51614 10.122a30.69458 30.69458 0 0 1 .66312 8.5729c-.71728 1.87439-.12814 3.93963-.84931 5.81344.15 1.61123-.42607 3.14035-.5377 4.7236-.053.7526-.27072.946-.96429 1.00265C301.62677 96.41387 301.01832 96.41888 300.41149 96.44348z"/><path fill="#8c4747" d="M208.24481,177.57561c.17807,1.36019.36981,2.71876.53182,4.08086a46.90782,46.90782,0,0,1-1.00155,14.54386,100.55729,100.55729,0,0,1-8.62565,24.99584,3.603,3.603,0,0,1-.39945.53994c-.9005-.71921-.54021-1.65513-.4233-2.539.85458-6.45935,3.24288-12.52618,4.84093-18.79568,1.80409-7.07762,3.68821-14.12962,4.20488-21.45538A1.239,1.239,0,0,1,208.24481,177.57561Z"/><path fill="#ecaf7b" d="M145.47157,300.37413c-.00015-1.06736-.07561-2.14129.01622-3.20067.16977-1.95854.35738-3.92214.68371-5.859.46506-2.76038,1.03066-5.50525,1.61573-8.24341.28448-1.33136.70436-2.63425,1.08359-3.94409a.47116.47116,0,0,1,.33791-.25614c.30282-.03219.38593.22622.30256.4289a8.34432,8.34432,0,0,0-.36123,3.60585,41.1155,41.1155,0,0,1-.72517,6.768,54.5296,54.5296,0,0,0-.68438,6.0945c-.02323,1.89016.30665,3.80988-.34389,5.67073a1.38162,1.38162,0,0,0,.0141.89642,9.47,9.47,0,0,1,.33538,3.84277,40.42136,40.42136,0,0,0,.74145,6.31042,49.15492,49.15492,0,0,0,1.49917,7.34108,1.38344,1.38344,0,0,1-.13834,1.10607,1.02176,1.02176,0,0,1-.9271.55891.83334.83334,0,0,1-.7177-.48325,14.96453,14.96453,0,0,1-1.30149-4.35062c-.39661-1.92174-.44545-3.90695-.90978-5.82771a6.58339,6.58339,0,0,1-.06375-1.36668,12.34723,12.34723,0,0,0-.37566-4.07092,4.19672,4.19672,0,0,1-.07839-1.36175C145.46628,302.81382,145.47171,301.594,145.47157,300.37413Z"/><path fill="#ecaf7a" d="M196.37553,311.25554c-.00036,2.36306-.09117,4.73037.01981,7.08819a43.79306,43.79306,0,0,1-1.484,11.92884c-.32294,1.40195-.86077,2.7533-1.21549,4.14937a3.71624,3.71624,0,0,1-1.4488,1.98276c-.37582.30428-.87244.03347-1.04292-.4717a2.276,2.276,0,0,1,.28864-1.75323,23.84263,23.84263,0,0,0,1.76976-5.87542,24.32448,24.32448,0,0,0,.76137-4.69023c-.02611-4.03456.82262-8.02307.52885-12.06482a5.358,5.358,0,0,1,.25163-2.4814,5.24448,5.24448,0,0,0,.18592-2.035c.00808-1.98188.00065-3.96379.00473-5.9457.0011-.533.00258-1.0673.0395-1.59856.02893-.41619.23831-.74838.70148-.71084.45966.03728.60036.41428.61877.81555.02445.53263.02021,1.06674.02043,1.60024Q196.37736,306.22455,196.37553,311.25554Z"/><path fill="#763a3a" d="M207.37249,178.946c.86311.99368.58685,2.22882.39321,3.2625-.58388,3.11671-.95145,6.27094-1.71592,9.35934-1.23743,4.99884-2.52876,9.981-3.945,14.93239-.93689,3.27562-1.84918,6.561-2.65267,9.871a15.15944,15.15944,0,0,0-.70225,5.36491,7.27165,7.27165,0,0,1-1.02266,2.27214c-.63086-.64333-.38531-1.447-.32983-2.17518a50.81008,50.81008,0,0,1,2.38035-13.01324,118.52206,118.52206,0,0,0,4.04368-14.06177c.78773-3.64985,1.45259-7.32607,2.1917-10.98661A19.28213,19.28213,0,0,1,207.37249,178.946Z"/><path fill="#8c4848" d="M225.17006,153.33847a17.62208,17.62208,0,0,1,.06892,4.57027,8.07106,8.07106,0,0,1-6.84907,7.2261c-.66055-1.10422.18042-1.85874.68624-2.62791,1.40833-2.14156,2.878-4.24326,4.35457-6.33905.42945-.60951,1.04376-1.1284.89387-1.99446C224.40985,153.69606,224.78461,153.51185,225.17006,153.33847Z"/><path fill="#7d3f3e" d="M224.32456,154.17342a.807.807,0,0,1,.31414,1.16073,10.93813,10.93813,0,0,1-1.1157,1.68437c-1.69579,2.01475-2.92569,4.34847-4.47224,6.46486a2.95818,2.95818,0,0,0-.661,1.65147,6.94539,6.94539,0,0,1-2.35564.63194c-.04941-.13837-.166-.29688-.1322-.41081a1.56982,1.56982,0,0,1,.32914-.57084,127.44192,127.44192,0,0,0,7.76818-10.30211A2.35458,2.35458,0,0,1,224.32456,154.17342Z"/><path fill="#8c4646" d="M178.53721,154.7187a.897.897,0,0,1,.381-.98733A1.00212,1.00212,0,0,1,178.53721,154.7187Z"/></svg>
