<svg xmlns="http://www.w3.org/2000/svg" viewBox="0 0 512 512"><path fill="#9797ed" d="M254.56607,310.8439a23.37987,23.37987,0,0,0,1.75552,5.68564,8.76678,8.76678,0,0,0,1.40259,2.01723,28.18508,28.18508,0,0,0,7.87564,5.89774c2.316,1.19742,4.699,2.26553,7.05442,3.38656a43.77793,43.77793,0,0,1,10.86672,7.00059,28.48981,28.48981,0,0,1,7.11457,10.95862c1.108,2.8086,2.1054,5.66251,3.27313,8.44542a44.37813,44.37813,0,0,0,5.709,10.45478c1.05808,1.34815,2.16255,2.6674,3.332,3.9193a132.26711,132.26711,0,0,0,14.37551,12.94312,155.45118,155.45118,0,0,0,16.86738,11.42663c4.8216,2.90556,9.64383,5.81174,14.51371,8.63494a129.83335,129.83335,0,0,0,20.59263,9.86319c3.02962,1.10454,6.03545,2.28889,9.11017,3.2514,3.7941,1.18776,7.65209,2.17036,11.47633,3.2631a99.4558,99.4558,0,0,1,13.36569,4.76927c6.58283,2.94687,13.0545,6.12758,19.47141,9.412,8.55671,4.37964,17.02192,8.93245,25.3393,13.75979,4.33382,2.51528,8.7838,4.82965,13.15941,7.27394,2.8166,1.57336,5.59378,3.21732,8.38747,4.83166a5.23943,5.23943,0,0,1,.51759.33657c1.2173.90995,1.283,1.30372.48123,2.719a4.76589,4.76589,0,0,0-.2341.56839c-2.20963,4.12339-4.26362,8.32845-6.52029,12.42717a5.104,5.104,0,0,0-.49991.35867,1.44683,1.44683,0,0,1-1.89422.10423,15.16534,15.16534,0,0,1-1.71254-1.13916,37.21776,37.21776,0,0,0-11.20527-5.98321c-5.30067-1.8987-10.72062-3.42407-16.05316-5.21959-8.58556-2.89083-17.17958-5.75914-25.728-8.75657-3.88313-1.36162-7.66413-3.014-11.49449-4.52687a85.97029,85.97029,0,0,0-14.69581-4.66288c-2.68782-.53642-5.38514-1.03332-8.09051-1.4716-3.51742-.56975-7.04689-1.06534-10.57167-1.58937-3.93174-.58456-7.87486-1.10129-11.79366-1.76234a151.20635,151.20635,0,0,1-18.06848-3.96513,141.06308,141.06308,0,0,1-13.62682-4.66882,88.05753,88.05753,0,0,1-8.73083-4.17279c-2.71011-1.48524-5.44206-2.9305-8.16284-4.3962a257.23919,257.23919,0,0,1-23.708-14.11463q-6.45776-4.431-12.50922-9.4012c-1.53577-1.2665-3.10057-2.49854-4.67174-3.72113a18.04218,18.04218,0,0,1-2.72065-2.49716c2.35722-4.26919,3.13919-8.99252,3.94319-13.74566a44.36218,44.36218,0,0,1-7.04775,11.7023,41.49861,41.49861,0,0,1-12.13372,4.39794c-4.16708.81521-8.37685,1.43-12.58455,2.01235-2.238.30968-4.5089.41142-6.76912.52131a74.07814,74.07814,0,0,1-7.60723.36593c-3.56088-.19208-7.12751-.27564-10.67638-.6748-1.70267-.19149-3.41668-.21033-5.12643-.4164-2.79433-.33682-5.55913-.81264-8.32781-1.29347-2.565-.44546-5.14319-.81465-7.71083-1.24576q-4.15632-.69786-8.30352-1.45012c-6.14347-1.11315-12.18662-2.67062-18.25025-4.13824-5.33116-1.29032-10.70245-2.39831-16.09345-3.40406-1.88479-.35164-3.79858-.5487-5.70008-.80944-.5201-.0713-.79528.14439-.81389.65191-.01759.4799.01289.96131.00984,1.442-.02226,3.50423.08726,7.016-.109,10.51062-.20729,3.69147-.56886,7.37671-.97522,11.05937-.77191,6.99566-2.73256,13.70956-4.46877,20.4792a121.03141,121.03141,0,0,0-2.60639,12.26508c-.41279,2.77868-.63242,5.58552-.98433,8.37392-.44625,3.53581-.93776,7.066-1.41282,10.59816-.08224.61145-.155,1.22572-.27565,1.83-.19991,1.00114-.75174,1.48968-1.72493,1.35125a36.28066,36.28066,0,0,0-4.70367.13722c-2.60684,1.269-5.162.257-7.69762-.25711-1.13995-.23117-2.46184-.32529-3.17894-1.53554-.299-.28078-.61016-.54982-.89476-.84449a4.16455,4.16455,0,0,1-1.155-2.99576,68.06613,68.06613,0,0,1,.30788-9.26005,16.028,16.028,0,0,0,.07865-1.85263c.05309-3.64266-.03024-7.29287.17725-10.92657.35294-6.18045.24836-12.36256.29743-18.54386.03656-4.60485.16761-9.22491-.137-13.81206-.30511-4.59535-.045-9.20468-.54552-13.78541a2.86808,2.86808,0,0,1-.02941-.61641c.44458-4.043.11812-8.10191.25151-12.15183a49.871,49.871,0,0,1,2.14533-13.78187,29.54854,29.54854,0,0,1,7.63582-12.30959,13.03644,13.03644,0,0,1,4.56719-2.73933,41.139,41.139,0,0,1,10.2227-2.22587,122.64327,122.64327,0,0,1,13.58454-.407c2.41347.00763,4.78206.44377,7.18262.57207,2.80606.15,5.60352.46291,8.4042.711,2.39069.21174,4.7806.43224,7.171.64753.47849.04313.95679.10011,1.43638.11715,2.81457.10023,5.60635.42093,8.4002.76463,2.10881.25937,4.23761.36257,6.35927.50975,2.60177.18055,5.21661.2337,7.80564.5225a126.043,126.043,0,0,0,12.76377.38861,10.02575,10.02575,0,0,0,6.71714-2.72581c2.10683-1.7993,2.73178-4.23314,2.849-6.82791a46.74366,46.74366,0,0,0-.23249-7.80905,55.44426,55.44426,0,0,1,9.256-4.80835c4.78431-2.21213,9.52932-4.48022,14.21136-6.91207,6.131-3.18446,12.48165-5.94356,18.54908-9.26649A.80789.80789,0,0,1,254.56607,310.8439Z"/><path fill="#f0aa89" d="M257.59008,196.06538a35.34364,35.34364,0,0,0-.42274,4.879c-.1271,1.82967-.33652,3.65727-.60314,5.47211a11.42977,11.42977,0,0,0-.14817,2.84434,17.3146,17.3146,0,0,0,.98072,5.01191c2.69641,8.197.81443,15.42288-4.91707,21.71439a44.11772,44.11772,0,0,1-5.78467,5.234c-5.78285,4.4459-15.80151,3.52871-21.243-1.34375-2.48638-2.2264-3.30047-5.09008-3.17678-8.34733.25323-6.66826,3.09161-12.28454,6.95326-17.51164a44.90709,44.90709,0,0,0,2.69764-3.63387,2.85119,2.85119,0,0,0,.42647-2.71607,144.38523,144.38523,0,0,1-3.79926-38.74743c-.31587-5.64548.8884-11.16712,1.37464-16.74754.30263-3.47333.51875-6.95346.82966-10.42526a3.55342,3.55342,0,0,0-.834-2.22916c.11183-.07761.22291-.22135.33566-.22268,1.25673-.01465,1.55485-.88679,1.68049-1.88325.32579-2.58413.6264-5.17139.94539-7.75638.21816-1.76788.456-3.53334.67258-5.30141.05836-.47666.08971-.95845.10182-1.43867a62.63688,62.63688,0,0,1,1.11592-9.17743c.506-2.90289.89781-5.82547,1.37078-8.73436.64876-3.99,1.15356-8.00179,1.931-11.97312.53954-2.75614.89789-5.54747,1.354-8.32031.46716-2.83991.96095-5.67544,1.43141-8.51482.35845-2.16306.6007-4.35052,1.06756-6.48939a66.7225,66.7225,0,0,0,1.29226-13.08,58.90073,58.90073,0,0,1,1.935-14.6401c1.85605-6.7479,3.59757-13.52664,5.84824-20.15768.66127-1.94833,1.45578-3.852,2.20943-5.76815a5.76278,5.76278,0,0,1,1.22378-1.89281,2.3936,2.3936,0,0,1,2.644-.648,3.808,3.808,0,0,1,2.3787,1.84867,10.00012,10.00012,0,0,1,1.02325,2.46569,28.19281,28.19281,0,0,1,.79567,6.10675,71.98133,71.98133,0,0,0,.75641,10.66564c.31962,2.44392.39815,4.92411.4905,7.39161a30.92337,30.92337,0,0,0,.83507,6.3102c.21411.86446.34052,1.92165,1.37625,2.09123.94087.15406,1.64857-.591,2.2144-1.28644a9.95524,9.95524,0,0,0,1.08857-1.738c.59687-1.16059,1.12292-2.35753,1.714-3.52129,1.0381-2.04406,2.937-2.79932,5.01521-3.19566a3.26618,3.26618,0,0,1,2.11769.69358,4.95214,4.95214,0,0,1,2.53119,3.1019.83839.83839,0,0,1-.60419,1.118,10.745,10.745,0,0,1-1.6033.3647,3.60533,3.60533,0,0,0-3.26576,2.71223c-.252.8554-.57252,1.69048-.83059,2.54425a9.60416,9.60416,0,0,1-4.47554,5.68116C266.693,58.03,264.8426,59.34823,262.906,60.52323A8.65991,8.65991,0,0,0,258.802,66.87a40.52883,40.52883,0,0,0-.41426,4.08892c-.79753,11.32756-.20238,22.67256-.47331,34.00426-.12472,5.21712-.12137,10.44262-.41879,15.65029-.16055,2.81165-.06123,5.64513-.40386,8.42778-.39566,3.21322-.171,6.444-.59682,9.65508a50.121,50.121,0,0,0-.09308,6.17819,6.47049,6.47049,0,0,1,.63058,3.5997c-.16348,7.6893.06961,15.37375.48372,23.04748.38446,7.1247.824,14.24338.75612,21.38262A5.12064,5.12064,0,0,1,257.59008,196.06538Z"/><path fill="#ffadb7" d="M232.85423,208.04416a1.02469,1.02469,0,0,1,.2381,1.47361c-.71772.99915-1.24294,2.10437-2.03455,3.07723-3.30831,4.06576-6.1128,8.4447-7.45353,13.5941a16.25768,16.25768,0,0,0-.66938,4.24008,22.12449,22.12449,0,0,0-.00614,3.64425,8.23578,8.23578,0,0,0,3.45894,5.812c.67847.46023,1.26787,1.0246,1.99938,1.43531a18.791,18.791,0,0,0,10.92277,2.16311,13.45339,13.45339,0,0,0,5.96136-1.9982,30.41555,30.41555,0,0,0,7.24833-6.34823,22.82371,22.82371,0,0,0,5.26957-10.10481,17.04939,17.04939,0,0,0,.07475-5.93095,17.37541,17.37541,0,0,0-.40029-2.6279,22.58038,22.58038,0,0,0-1.19346-3.70958,4.57194,4.57194,0,0,1-.13012-3.20855c.02745-.11368.1808-.197.27592-.29458,1.3271,1.22235,1.74973,2.93562,2.29229,4.53118a18.40153,18.40153,0,0,1,1.0354,6.25727,21.24355,21.24355,0,0,1-.43667,4.07349,62.59531,62.59531,0,0,1-2.582,9.287,44.1,44.1,0,0,0-2.01157,8.57929,72.3048,72.3048,0,0,0-.44991,11.29076c-.01931,3.01925-.074,6.04681.11229,9.05674.24573,3.97132.19308,7.95254.4478,11.91545.48471,7.54078.28951,15.08374.34168,22.62629.0076,1.09769-.0636,2.19609-.04953,3.29353.04575,3.56947-.4061,7.11218-.54888,10.67155a8.44386,8.44386,0,0,1-2.18327,1.5077c-4.5402,2.239-9.05338,4.53032-13.63949,6.67885-3.21853,1.5078-6.33091,3.24187-9.49443,4.8676-2.49514,1.28226-5.09182,2.34133-7.648,3.49039-2.55712,1.14945-5.03653,2.47195-7.54839,3.72179a4.56273,4.56273,0,0,1-2.10454.73977c-.15623-.30313-.43859-.6017-.45032-.91055-.10209-2.69306-1.37892-5.00813-2.3757-7.401-1.398-3.356-2.996-6.63017-4.34346-10.00519a88.37549,88.37549,0,0,1-4.82979-16.56768,101.13066,101.13066,0,0,1-1.40326-10.58945c-.30242-3.827-.54157-7.65874-.86106-11.481-.17048-2.03966-.26508-4.09821-.55154-6.13991a24.00481,24.00481,0,0,1,.03637-5.95441c.27771-2.52712.87029-4.98815,1.31373-7.47986a16.32251,16.32251,0,0,1,1.48536-4.26431,36.36337,36.36337,0,0,1,5.88978-8.89435c1.35019-1.465,2.70554-2.90127,4.18653-4.24255a51.20375,51.20375,0,0,0,9.47267-10.53688,35.42734,35.42734,0,0,0,3.45512-6.53321,48.95734,48.95734,0,0,1,7.923-11.74869C231.50261,208.66432,231.88416,207.80525,232.85423,208.04416Z"/><path fill="#f0aa89" d="M231.20625 209.29072c-1.02654 1.34644-2.00273 2.73531-3.09237 4.0286a45.25611 45.25611 0 0 0-3.43953 5.28845 6.12922 6.12922 0 0 1-1.70133 2.24146 7.91892 7.91892 0 0 1 .75037-2.333 22.2599 22.2599 0 0 0 1.59179-6.56118 15.42773 15.42773 0 0 0-.525-4.6697c-.12027-.60347-.43839-.75073-1.05326-.6538-1.62122.25557-3.25314.46434-4.85614.807a4.78538 4.78538 0 0 1-2.81761-.23956 8.42064 8.42064 0 0 1-4.39245-3.54591 18.22982 18.22982 0 0 1-1.76033-3.47634 6.64417 6.64417 0 0 0-.96989-1.7987 3.95653 3.95653 0 0 1-.87178-2.67414 5.4 5.4 0 0 0-1.12385-3.85508 2.6295 2.6295 0 0 1-.53446-1.73181c.00952-.82274.037-1.64524.0493-2.468.01644-1.09682.05355-2.19431.03147-3.29049-.03155-1.5667-.016-1.95539-1.825-1.88066-1.75236.0724-2.29731-.83332-1.65239-2.50987a10.273 10.273 0 0 1 .72676-1.47354c.48324-.82847.99021-1.64386 1.51-2.45009a18.24715 18.24715 0 0 0 2.835-7.61864 34.24791 34.24791 0 0 1 2.83589-9.82608 30.07134 30.07134 0 0 1 3.20755-5.95537 6.662 6.662 0 0 0 .55425-1.07672c1.58308-.50474 2.62195.44534 3.57543 1.433.85272.88331 1.57075 1.89528 2.33628 2.86009a4.62189 4.62189 0 0 0 4.01477 2.03568c1.7699-.066 2.77033.94746 2.8936 3.02163.134 2.25372.47735 4.48585.56371 6.74364.07057 5.76431-.11957 11.53273.10385 17.28542a130.09349 130.09349 0 0 0 3.07527 21.76975C231.429 207.5837 231.79433 208.44107 231.20625 209.29072zM463.85317 474.08989a18.44406 18.44406 0 0 1 1.99513-4.91853c.88573-1.45931 1.54572-3.05367 2.37752-4.54828a7.80346 7.80346 0 0 1 2.14825-2.9599c2.84228.41506 5.68169.85642 8.52936 1.236 1.6277.21692 3.27276.30167 4.90267.50469 1.35588.169 2.70955.38128 4.04932.64907a7.10972 7.10972 0 0 1 5.93729 6.05169 10.107 10.107 0 0 1-1.20517 7.92285 16.91891 16.91891 0 0 1-3.418 3.821c-.8.64459-1.54794 1.35342-2.32485 2.0269a9.69629 9.69629 0 0 0-3.18449 7.11734c-.08812 1.43615-.03409 2.88156-.02835 4.32274.00413 1.02949-.026 2.06431.06567 3.08726.22427 2.5046-1.0307 4.35265-2.65683 5.99776a21.824 21.824 0 0 1-2.58432 2.02826 11.21479 11.21479 0 0 1-4.88761 2.01351c-2.63044.45922-5.26769.84151-7.91344 1.19016a20.70687 20.70687 0 0 1-3.66884.38934 3.52553 3.52553 0 0 1-3.30977-4.897 4.74493 4.74493 0 0 1 1.48681-2.17625c1.01015-.8179 1.94482-1.733 2.87717-2.64207a9.49788 9.49788 0 0 0 2.67914-4.78766 38.21651 38.21651 0 0 0 .93714-11.8423A23.86151 23.86151 0 0 0 463.85317 474.08989zM106.58594 461.23215a30.02617 30.02617 0 0 0 10.876 1.7925 27.79286 27.79286 0 0 1 1.16295 7.6953c-.00891 3.15785.06612 6.321-.0969 9.47153-.12347 2.38608-.531 4.76052-.881 7.12993a9.96487 9.96487 0 0 1-.68175 2.15379 4.0886 4.0886 0 0 1-3.91325 2.804 18.13256 18.13256 0 0 1-4.454-.66981 18.087 18.087 0 0 0-3.0135-.62454 13.96722 13.96722 0 0 0-5.26809.66648 29.83518 29.83518 0 0 1-6.149 1.60549 38.28259 38.28259 0 0 1-7.58951.07271c-.34008-.02392-.67736-.16964-1.01313-.16013-2.95788.08389-5.87212-.4989-8.82387-.54719-2.39752-.03923-4.79145-.26436-7.18907-.3412-1.4611-.04678-2.99043-.96025-3.25581-2.09417a3.65542 3.65542 0 0 1 1.3465-3.67388 6.17317 6.17317 0 0 1 2.35256-1.23282c.91235-.2918 1.83924-.54115 2.767-.78114 4.84366-1.25306 9.61454-2.75507 14.3766-4.27747a36.14384 36.14384 0 0 0 10.11944-4.96964 20.79024 20.79024 0 0 0 5.35642-5.91378 34.15369 34.15369 0 0 0 3.16008-6.45588A5.24646 5.24646 0 0 1 106.58594 461.23215z"/><path fill="#8c4646" d="M257.59008 196.06538c-.00883-.82322-.045-1.6472-.02218-2.46955.17934-6.45154-.24452-12.89092-.4909-19.32979-.10725-2.80356-.14877-5.62121-.38641-8.41731-.55888-6.5764-.34516-13.16085-.3729-19.74338-.00171-.4102.05428-.82063.08379-1.23091 3.79191 2.37718 6.92737 5.32594 8.4816 9.6696a34.71271 34.71271 0 0 1 1.36313 6.19791 46.31749 46.31749 0 0 1 .5182 6.74537 83.851 83.851 0 0 0 .33722 8.80792 45.73334 45.73334 0 0 0-4.14232 13.6368c-.92455 1.18533-1.855 2.36609-2.77179 3.55739A8.67455 8.67455 0 0 1 257.59008 196.06538zM268.332 178.73486a1.95873 1.95873 0 0 0 1.84-.68166 22.81552 22.81552 0 0 1 3.245-2.50925 7.005 7.005 0 0 1 2.66763-1.00164 3.37379 3.37379 0 0 1 3.40924 1.3982 7.89915 7.89915 0 0 1 1.55239 3.7554 11.28167 11.28167 0 0 1-.22115 4.88486 41.1146 41.1146 0 0 1-3.025 7.83509 16.817 16.817 0 0 1-3.26805 4.45229c-2.90442 2.73693-5.072 2.35361-6.90174-.93267-.69859-1.25463-1.309-2.55808-1.97957-3.82869-.31789-.60231-.68293-1.17973-1.02662-1.76842C264.61887 186.0739 266.191 182.31349 268.332 178.73486zM227.526 167.16274a57.78182 57.78182 0 0 1-.499-6.10676 4.82326 4.82326 0 0 0-.38-1.58152 1.55221 1.55221 0 0 0-1.916-1.1254c-1.847.58181-3.01613-.416-4.11355-1.57651a19.20428 19.20428 0 0 1-2.03276-2.56186 5.71985 5.71985 0 0 0-3.90148-2.64346 11.14036 11.14036 0 0 1 2.80444-4.93757 24.79 24.79 0 0 1 11.23143-6.87093c.39312-.11.8027-.16116 1.20462-.23965.34072.01755.68217.02692 1.02206.05476a.633.633 0 0 1 .62.66824.78741.78741 0 0 1 .00423.20442c-.38637 1.95452-.26954 3.95567-.54332 5.91643a24.70818 24.70818 0 0 0-.22712 2.65449c-.07254 2.32687-.40656 4.62539-.6966 6.93055-.24734 1.96559-.27548 3.96764-.64662 5.90649a38.24679 38.24679 0 0 0-.34754 6.95293c-.39511.64415.034 1.46841-.45525 2.28353C227.199 169.97827 228.04805 168.36393 227.526 167.16274z"/><path fill="#7287cc" d="M254.81069,390.46083a.45715.45715,0,0,1-.247-.50191,3.07771,3.07771,0,0,1,.75023-1.20479,27.02184,27.02184,0,0,0,5.52909-9.47481c.11151-.32156.20175-.65277.3403-.96227.26944-.60188.64566-.80068,1.10441-.599.477.20973.45706.5797.354,1.02309q-.76184,3.27805-1.48121,6.56589a42.65,42.65,0,0,1-1.99339,6.00746c-.22349.585-.49747,1.14792-1.25165,1.18954-.55835-.55672-1.1425-1.09034-1.66619-1.67787A1.34143,1.34143,0,0,0,254.81069,390.46083Z"/><path fill="#6b3333" d="M268.332,178.73486c.07772.31752.31005.62313.07185.96464a20.15435,20.15435,0,0,0-2.33114,5.19138,29.68333,29.68333,0,0,0-1.03812,4.551,1.3526,1.3526,0,0,1-.41058.89634,1.84532,1.84532,0,0,0-1.66451-.40633,1.23574,1.23574,0,0,1-.37559-1.3135,38.35443,38.35443,0,0,1,3.48566-11.1026c.25955-.48232.45477-1.01061,1.032-1.22061A8.821,8.821,0,0,0,268.332,178.73486Z"/><path fill="#e29b7a" d="M227.526,167.16274a1.5094,1.5094,0,0,1,.3734,1.11679,5.17629,5.17629,0,0,0,.62748,2.36691c.52542-.53175.03759-1.36173.58214-1.83862q.01814,5.45333.0383,10.9075a10.181,10.181,0,0,0,.263,2.64385,8.75581,8.75581,0,0,1,.13593,2.45071,45.2279,45.2279,0,0,0,.76593,8.54623c.72,4.37017,1.51168,8.72323,2.46068,13.04915a9.60921,9.60921,0,0,1,.08139,1.639q-.824.6231-1.648,1.24646a2.0806,2.0806,0,0,0-.03648-.61406,38.23814,38.23814,0,0,1-1.45007-6.17022c-.42429-2.1355-.66457-4.30738-.99329-6.46213-.21559-1.41322-.44419-2.82446-.67021-4.23607a1.96805,1.96805,0,0,1-.09434-.39736c.13936-2.06469-.49158-4.06524-.47778-6.12488C227.52454,179.24512,227.5156,173.20387,227.526,167.16274Z"/><path fill="#e39c7b" d="M231.62325,217.056c0-.81113.00252-1.49856-.00078-2.186a2.09182,2.09182,0,0,1,.54594-1.507.41988.41988,0,0,1,.35915-.08829.49335.49335,0,0,1,.25006.27651.61439.61439,0,0,1,.03638.40279c-.76248,2.04258-.304,4.0791.13,6.074a21.91041,21.91041,0,0,0,6.60194,11.8302,10.163,10.163,0,0,0,3.62934,2.26689,6.15609,6.15609,0,0,0,5.6326-.9741c3.56967-2.32135,5.30069-5.80753,6.31683-9.76689a13.6281,13.6281,0,0,0,.50233-2.82323.49021.49021,0,0,1,.5896-.43193.50171.50171,0,0,1,.49923.543,14.3346,14.3346,0,0,1-.39059,2.41517,23.63658,23.63658,0,0,1-3.28623,7.71746,9.56645,9.56645,0,0,1-2.48326,2.43452c-.51827.3347-1.04912.65276-1.5467,1.01617-2.42759,1.773-4.93459,1.70642-7.527.39167a14.30581,14.30581,0,0,1-4.67529-3.96968,21.24932,21.24932,0,0,1-3.78537-6.54962C232.247,221.77781,231.44359,219.45707,231.62325,217.056Z"/></svg>
