<svg xmlns="http://www.w3.org/2000/svg" viewBox="0 0 512 512"><path fill="#9797ed" d="M390.62406,251.80851a12.14875,12.14875,0,0,1-2.32014-2.77583c-1.69319-2.1768-3.309-4.41373-4.95631-6.62624-2.14228-3.76257-4.71559-7.23838-7.17595-10.78945-5.055-7.29589-10.93659-13.9096-16.798-20.55093-7.62026-8.63408-13.83851-18.34609-20.8065-27.48366a10.62539,10.62539,0,0,1-2.00973-3.50338c-1.03861-3.86362-1.43812-7.85123-2.32265-11.747a9.60252,9.60252,0,0,0-4.69332-6.54373c-1.0214-.59621-2.26492-1.0152-2.6957-2.33425a81.78569,81.78569,0,0,1-.618-8.279c.0147-12.83195-.86482-25.64113-.92579-38.47848-.03251-6.844-.01317-13.77961-1.78833-20.53394-.79395-3.02086-.56449-6.178-.50186-9.28645.01607-.79656-.03838-1.64847.718-2.22019a11.17042,11.17042,0,0,1,4.15472-.76989,38.36851,38.36851,0,0,1,8.84642.98041c3.10619.64978,6.21245,1.32781,9.24286,2.28534,7.3915,2.33553,14.46995,5.32067,20.669,10.10124a44.28154,44.28154,0,0,1,8.62438,8.81633,67.68073,67.68073,0,0,1,5.69062,9.34912,61.42782,61.42782,0,0,1,4.0349,10.3841c1.11293,3.68778,2.18883,7.38732,3.35211,11.05916a117.27005,117.27005,0,0,0,5.70411,14.31082c2.67036,5.69883,5.66621,11.23461,8.54725,16.82822,2.94268,5.71334,6.08135,11.326,8.81682,17.14641a116.02811,116.02811,0,0,1,4.851,11.81463c2.03334,5.94923,4.01331,11.91893,6.18044,17.81952a141.90616,141.90616,0,0,0,7.64749,18.11621c4.04653,7.57464,7.86653,15.288,12.541,22.505,3.97031,6.1298,8.19572,12.09387,12.27052,18.15668,4.79521,7.13469,9.43584,14.369,13.01051,22.21337,1.56906,3.44316,2.975,6.9637,4.3661,10.48422a197.16265,197.16265,0,0,1,6.9911,22.6502c1.506,5.7508,3.05312,11.49221,4.79362,17.17968a80.97247,80.97247,0,0,1,2.91139,12.82817c.21721,1.604.47756,3.20214.71823,4.80294a2.28414,2.28414,0,0,1-.97784,1.24389C479.99978,365.517,472.7,368.99388,465.406,372.481a1.41023,1.41023,0,0,1-.79465.081,2.37493,2.37493,0,0,1-1.29775-1.4743c-2.318-5.65306-5.85784-10.62439-8.86534-15.89237-6.79-12.85361-13.10682-25.94932-20.41049-38.54322-5.42819-9.36-9.94276-19.22846-14.75736-28.924a100.07635,100.07635,0,0,0-15.07782-22.03081c-4.14112-4.65687-8.88012-8.72269-12.8901-13.49152A1.16131,1.16131,0,0,0,390.62406,251.80851Z"/><path fill="#ffadb7" d="M323.72976,80.656c-.0215,2.77427-.168,5.55507-.02356,8.32068a34.37656,34.37656,0,0,0,.939,6.19267,35.91318,35.91318,0,0,1,1.046,9.231,42.19171,42.19171,0,0,0,.04836,4.66967c.5606,6.28236-.01034,12.58716.39692,18.86312.26308,4.054.10184,8.12165.44588,12.15454.29437,3.4508.29982,6.89155.28723,10.33469-.01166,3.18506.47652,6.33635.44934,9.51554a26.169,26.169,0,0,1,.662,9.07776,20.12393,20.12393,0,0,0,1.2614,6.32829c.42254,1.20933.75917,2.4491,1.11763,3.68008a4.16563,4.16563,0,0,1,.17486.9907.97075.97075,0,0,1-1.02021,1.016,4.11418,4.11418,0,0,1-.9847-.19708,14.46573,14.46573,0,0,0-7.60348-.13076,6.73282,6.73282,0,0,0-1.496.60288,46.07086,46.07086,0,0,0-7.36071,4.64278c-.486.36495-.967.73722-1.4642,1.08634a62.13549,62.13549,0,0,0-6.02744,5.0905c-2.70009,2.46-5.27339,5.048-7.95136,7.52653a106.30748,106.30748,0,0,1-11.525,9.57321c-2.94251,2.03824-5.97342,3.94874-8.95981,5.92388-1.07028.70783-2.14464,1.41193-3.1841,2.16343a28.88851,28.88851,0,0,0-6.22291,6.882c-1.81967,2.52352-3.37911,5.21567-4.95945,7.892a115.16367,115.16367,0,0,1-10.48115,14.9038,41.04189,41.04189,0,0,1-8.00159,7.13655,43.71,43.71,0,0,1-19.31966,7.86722,28.43491,28.43491,0,0,1-3.82744.31173c-2.29931.01743-4.59962.0312-6.89826-.01537a20.3903,20.3903,0,0,0-8.09314,1.52433c-1.81922.72894-3.61479,1.503-5.40543,2.2978a42.31543,42.31543,0,0,1-9.29673,2.746.92926.92926,0,0,1-.59346.16938.61973.61973,0,0,1-.46378-.37307c-.0878-1.30824.9376-1.60663,1.83317-1.76143,5.54483-.95857,10.53613-3.52414,15.59956-5.70146,4.73133-2.03447,8.14957-5.94795,10.6865-10.499a31.52324,31.52324,0,0,0,3.215-8.074c1.24831-5.2289-.71689-9.78015-2.95384-14.19157-3.74861-7.39249-8.21756-14.31332-14.372-20.00675-3.92458-3.63058-8.38047-5.87636-13.87188-5.73106a12.10873,12.10873,0,0,0-5.97148,1.733,31.69594,31.69594,0,0,0-8.38046,7.865c-6.31116,7.9155-9.46931,17.09163-10.92957,26.94748a7.25641,7.25641,0,0,1-2.49355,4.706c-1.47867,1.26578-2.52156,3.02379-4.36987,3.87175a.81623.81623,0,0,1-.5514-.1766c-1.1232-1.39745-2.68518-2.4977-3.034-4.42831a5.30676,5.30676,0,0,1,.44482-4.64884A63.65671,63.65671,0,0,1,161.394,227.7466c2.18094-2.75671,4.41811-5.46932,6.575-8.24451.86916-1.11838,1.58415-2.35587,2.38068-3.53148,2.42724-3.58228,4.878-7.14882,7.28512-10.74455,2.03162-3.03477,3.98973-6.11884,6.02619-9.15029,2.67921-3.98829,5.6653-7.74847,8.67733-11.487,2.12059-2.63208,4.21607-5.28558,6.38854-7.87433,2.08617-2.486,4.25707-4.9008,6.3906-7.347q2.26659-2.59875,4.53289-5.19772c.17789-.204.34977-.41352.53373-.61188,2.25426-2.43085,4.562-4.81449,6.75286-7.30112,2.822-3.20288,5.9182-6.13939,8.81833-9.26237,5.02338-5.40937,10.2722-10.59593,15.56837-15.72908,3.39531-3.29078,6.85064-6.53256,10.51929-9.53647,3.13819-2.56959,6.15633-5.28535,9.27578-7.87849,1.92282-1.59842,3.91631-3.11423,5.91292-4.621,3.50752-2.64688,6.98646-5.337,10.57911-7.86437,4.31326-3.03428,8.7197-5.93614,13.3031-8.55934A164.06851,164.06851,0,0,1,312.3736,82.70506a78.1714,78.1714,0,0,1,9.85248-3.10357c.39519-.09805.84652-.21245,1.14151.13618A3.05848,3.05848,0,0,1,323.72976,80.656Z"/><path fill="#f6c193" d="M157.0958 247.66981c2.06042-1.66045 3.78714-3.66539 5.66837-5.51048a2.96423 2.96423 0 0 0 .8011-1.82374 78.92518 78.92518 0 0 1 1.57336-8.11528 57.96036 57.96036 0 0 1 2.59416-8.51163 24.76683 24.76683 0 0 1 3.35719-6.2239c1.28375-1.64449 2.343-3.46565 3.48078-5.22214a16.86008 16.86008 0 0 1 2.55543-3.1321c.93459-.88312 1.78408-1.85961 2.74725-2.70851a17.81944 17.81944 0 0 1 5.447-3.44081 15.04728 15.04728 0 0 1 9.53978-.18343 21.17835 21.17835 0 0 1 8.971 5.302 81.86441 81.86441 0 0 1 5.90986 6.39836 37.64039 37.64039 0 0 1 3.381 4.78812c1.66772 2.69753 3.31734 5.41515 4.79523 8.21883a32.45273 32.45273 0 0 1 3.68149 10.2252 8.44286 8.44286 0 0 1-.11906 3.426c-.325 1.23336-.46668 2.50115-.80194 3.74425a30.92234 30.92234 0 0 1-2.93054 6.43523 25.75934 25.75934 0 0 1-5.30351 6.60177c-1.38637 1.29755-3.01474 2.27017-4.47116 3.47177a4.1147 4.1147 0 0 1-1.30352.53315 67.8831 67.8831 0 0 0-6.95322 2.78357 30.98565 30.98565 0 0 1-7.87978 2.49862 9.231 9.231 0 0 0-1.54882.46544 1.1384 1.1384 0 0 0-.71509 1.12564c.29537 1.42721-.67156 2.434-1.279 3.504a182.68361 182.68361 0 0 1-10.96385 16.83115c-8.52763 11.785-16.90722 23.66955-24.96449 35.7805-.788 1.18453-1.71756 2.262-2.47433 3.46483q-4.40577 7.09551-9.07 14.02428a2.82066 2.82066 0 0 1-1.17215 1.06963 15.12272 15.12272 0 0 0-2.102 2.95131q-6.11631 9.5273-12.19812 19.07667c-.65381 1.02185-1.33168 2.02884-2.0206 3.02738a2.30559 2.30559 0 0 0-.4387 1.112 22.01343 22.01343 0 0 1-3.07691 4.747c-6.9212 9.44819-14.35743 18.50211-21.37913 27.87316-2.71882 3.62845-5.22722 7.41408-8.08464 10.94026a56.41575 56.41575 0 0 1-9.54412 9.35614c-.31347.187-.67106.29259-.96956.51139a3.43714 3.43714 0 0 0-1.81867.81374 42.23366 42.23366 0 0 1-10.73235 5.20225A34.92193 34.92193 0 0 1 56.54671 430.92c-3.71912-.008-7.41752.55254-11.14175.41156-1.83883.51991-3.77079.231-5.62655.65435A11.99393 11.99393 0 0 1 37.758 432.12a32.54287 32.54287 0 0 0-5.66309.31516 2.69251 2.69251 0 0 1-1.2107-.01245 16.90449 16.90449 0 0 0-4.64806-.2605A45.92586 45.92586 0 0 1 13.01288 430.541c-1.3664-.363-2.76749-.60115-4.15942-.86036a6.0728 6.0728 0 0 1-2.58284-1.11446 1.72712 1.72712 0 0 1 .02645-2.90827 11.48613 11.48613 0 0 1 4.586-2.06824c4.08195-.90226 8.15948-1.81171 12.28488-2.51982 3.32528-.57075 6.67122-.97075 10.00538-1.45962 1.39543-.20466 2.81864-.20471 4.22463-.44885 3.31987-.57619 6.64954-1.10766 9.98885-1.55582 1.87357-.25137 3.72809-.61076 5.59589-.8661a26.9917 26.9917 0 0 0 7.872-2.51824c.23894-.98185 1.13221-1.27573 1.85315-1.73564a24.617 24.617 0 0 0 8.79659-9.23447 19.90858 19.90858 0 0 1 2.28738-3.5567c3.2693-4.94534 5.75159-10.31831 8.46654-15.56462l.46439-.70387c.21053-.35394.20786-.77906.39032-1.14474 5.96973-11.96377 11.40786-24.21638 19.05486-35.27159a110.22989 110.22989 0 0 1 9.27827-12.02678c1.24786-1.35825 1.29013-3.17732 2.3816-4.5147.43434.29785.73805.84794 1.377.09807 1.16745-1.37022 2.59742-2.50831 3.64639-3.997 2.95436-3.39275 4.91376-7.43723 7.3166-11.1873 3.57411-5.578 7.35512-11.02047 10.854-16.646 2.87933-4.62935 5.3641-9.46207 5.64449-15.02517a72.21291 72.21291 0 0 1 2.3-14.17439 47.89906 47.89906 0 0 1 1.92805-5.9781c1.897-5.94679 5.5039-10.84386 9.52131-15.48824A1.23589 1.23589 0 0 1 157.0958 247.66981zM464.61777 372.3934c4.65774-2.32394 9.32679-4.62576 13.96559-6.987 1.19995-.61081 2.30846-1.40258 3.45317-2.12064q2.83309-1.77735 5.65824-3.56733a168.10314 168.10314 0 0 0 5.74141 16.87041c.5521 1.37947 1.10082 2.76567 1.75413 4.09821q3.17088 6.467 6.42547 12.89275c.91322 1.80963 1.91173 3.576 2.84077 5.37793.33935.65815.58141 1.36584.88178 2.04474a14.69522 14.69522 0 0 1 1.10509 7.336 8.30105 8.30105 0 0 1-4.87158 7.375 29.41248 29.41248 0 0 1-6.93809 2.16534 46.23973 46.23973 0 0 1-9.25012.88451c-4.72821-.01131-9.448.40416-14.18086.4001a36.928 36.928 0 0 0-4.62442.47622q-3.30872.41872-6.62546.75954c-6.5492.677-13.107.35963-19.65954.29487-2.89175-.02857-5.7778-.46006-8.67035-.64776-1.6184-.10509-3.24464-.10568-4.86766-.1162a18.43827 18.43827 0 0 1-4.02516-.35983c-1.44379-.32948-2.91154-.55309-4.36619-.83665-.39564-.07716-.78245-.20069-1.17179-.30846a3.65684 3.65684 0 0 1-1.83075-5.86186 8.267 8.267 0 0 1 2.42614-2.12478 17.94233 17.94233 0 0 1 4.90872-1.86531c3.156-.7101 6.32232-1.37685 9.49228-2.02228a87.96379 87.96379 0 0 0 14.9762-4.23758c2.45025-.97166 4.90793-1.91283 7.25686-3.115A3.40642 3.40642 0 0 1 455.704 397.906c1.98776-1.15436 3.91874-2.38669 5.79725-3.72084 3.82456-2.7162 4.66255-6.588 4.41941-10.90064a42.28329 42.28329 0 0 0-1.48154-8.98114C464.2625 373.6687 464.03959 372.98013 464.61777 372.3934z"/><path fill="#f6c193" d="M189.96317,271.65361c-.003,1.014-.04431,2.02979.00128,3.04162a1.64453,1.64453,0,0,0,1.5384,1.81747,26.24542,26.24542,0,0,1,8.10482,3.59875,6.03475,6.03475,0,0,1,2.969,5.41388,9.17477,9.17477,0,0,1-.44857,3.19155c-.46586,1.33971-.9062,2.68824-1.36634,4.02995a16.41218,16.41218,0,0,0-.99687,5.14194,2.92731,2.92731,0,0,1-.63177,1.87708,5.84071,5.84071,0,0,0-1.48672,3.66993,3.1843,3.1843,0,0,1-1.46961,2.54859,5.40692,5.40692,0,0,0-.47716.37751c-.97217.84372-.96417.8401-.25181,1.95917a10.3595,10.3595,0,0,1,.68595,1.23861,3.43872,3.43872,0,0,1-.39952,3.63877,6.69427,6.69427,0,0,1-2.08884,1.897,15.43814,15.43814,0,0,1-5.2575,2.03958,36.53249,36.53249,0,0,0-3.942.89026,5.45907,5.45907,0,0,0-3.93085,3.49069c-.22923.63454-.47267,1.26559-.74437,1.88292a19.637,19.637,0,0,1-7.0191,8.21692,43.42906,43.42906,0,0,1-9.44848,5.0418,15.53788,15.53788,0,0,0-2.1111,1.17124c-.70173-.24515-1.18863.295-1.77337.48661a16.94286,16.94286,0,0,1-7.32706,1.32619c-1.9992-.09831-2.82261-.89683-2.87681-2.91741-.05216-1.94444-.34358-3.92655.40264-5.8211,9.51346-13.53038,18.35865-27.52106,27.94717-41.00787a194.82936,194.82936,0,0,0,10.94744-16.79493C188.84612,272.51023,188.95859,271.60762,189.96317,271.65361Z"/><path fill="#8c4646" d="M147.40665,263.4999a80.81179,80.81179,0,0,0-3.60677,13.88587,45.24793,45.24793,0,0,0-.52529,5.23072,27.4446,27.4446,0,0,1-2.76518,10.90326,75.73145,75.73145,0,0,1-4.13036,7.1946c-4.85581,7.471-9.84524,14.85676-14.43373,22.5-.65826,1.09648-1.45967,2.10658-2.18282,3.16485a1.3754,1.3754,0,0,1-.80188.57077c-.99409-.19407-1.49987-1.03425-2.149-1.66465-1.78751-1.73583-1.77334-1.75041-3.30365.091a14.67724,14.67724,0,0,1-6.14576-5.867c.23582-.224.70015-.4845.67109-.666-.22024-1.37623.58678-2.13076,1.64183-2.75521-.25682-.71952-.47068-1.35887-.71216-1.98761a15.55754,15.55754,0,0,1-1.03929-5.55432,45.0553,45.0553,0,0,1,4.73371-20.776,65.33048,65.33048,0,0,1,11.803-16.66671,45.65265,45.65265,0,0,1,4.51621-4.08241c3.10614-2.39974,6.26809-4.72288,9.56878-6.8521a25.14342,25.14342,0,0,1,8.7633-3.60021c1.0721.19278.79366,1.01614.80252,1.70759C147.81818,260.009,147.69689,261.7659,147.40665,263.4999Z"/><path fill="#f0ad73" d="M464.61777,372.3934a11.9,11.9,0,0,0,.63839,2.94454,25.153,25.153,0,0,1,.98879,6.35611,3.123,3.123,0,0,0,.17268,1.19,4.58322,4.58322,0,0,1,.18755,2.20234,21.01219,21.01219,0,0,1-1.22366,5.48867,8.87672,8.87672,0,0,1-2.90891,3.5678,34.259,34.259,0,0,1-6.83623,4.27921c-.48827.36666-1.10642.125-1.62559.347-2.20066.325-4.39913.66544-6.60256.9702-1.86908.25855-3.74343.47895-5.61623.71027-1.13752.14052-2.27633.27121-3.41484.40382q-2.913.33934-5.82631.67543c-.20139.02331-.40258.05393-.60466.06377a134.44349,134.44349,0,0,1-14.37516.40566,38.50514,38.50514,0,0,1-8.20246-1.13886,6.59581,6.59581,0,0,1-2.33145-1.1788,3.5707,3.5707,0,0,1-1.433-2.979,2.63384,2.63384,0,0,1,1.76326-2.68369,33.96427,33.96427,0,0,1,3.84633-1.25947c6.33665-1.65807,12.60079-3.553,18.765-5.76407a136.40878,136.40878,0,0,0,13.87895-5.64043,49.72741,49.72741,0,0,0,6.4764-3.76664,9.5726,9.5726,0,0,0,4.23835-7.24246,49.44613,49.44613,0,0,0-.18929-8.07962,19.7044,19.7044,0,0,0-.98587-4.12325c-.28629-1.0396-.64831-2.05832-.9766-3.08635.75983-.9396,1.596-.56623,2.43517-.14156,2.539,4.305,5.09811,8.59848,7.60112,12.92435a18.46357,18.46357,0,0,1,1.28347,2.97289A5.6365,5.6365,0,0,0,464.61777,372.3934Z"/><path fill="#8c4646" d="M79.83461 423.08541c.08824-.27841.10008-.61191.48694-.67484 2.74549.27315 4.66357-1.08039 6.51164-2.9584 4.13259-4.19947 7.6039-8.93959 11.34982-13.45381 5.81653-7.00938 11.83607-13.85879 17.07047-21.33353a107.64373 107.64373 0 0 0 7.76285-11.8446 1.78927 1.78927 0 0 1 .7798-.89986 37.13507 37.13507 0 0 1 2.788 7.79034 53.21816 53.21816 0 0 1 1.89657 12.20123 27.362 27.362 0 0 1-2.24531 12.06831 21.45382 21.45382 0 0 1-6.49766 8.1916 44.21249 44.21249 0 0 1-13.94 7.29966 78.302 78.302 0 0 1-16.24031 3.38756A57.01983 57.01983 0 0 1 79.83461 423.08541zM113.909 330.56981c-.08142.18281-.24488.37193-.23144.54743a5.04186 5.04186 0 0 1-1.56716 3.76612 130.70525 130.70525 0 0 0-9.83287 12.898 194.04457 194.04457 0 0 0-10.58312 18.00619c-.76727 1.50338-1.41037 3.07009-2.11223 4.60691-.39325.86105-.76655 1.73222-1.18923 2.57867q-2.22045 4.4465-4.475 8.87593c-.30074.59058-.498 1.27868-1.19536 1.57655A32.49444 32.49444 0 0 1 81.19 376.73192a67.44182 67.44182 0 0 1-.57882-7.46695 57.53428 57.53428 0 0 1 1.28949-13.67449 90.21613 90.21613 0 0 1 4.84857-16.26321 33.61145 33.61145 0 0 1 9.25332-12.62014 53.93418 53.93418 0 0 1 4.91566-3.90071 6.80722 6.80722 0 0 1 2.49366-1.29512c1.39278 1.62981 2.14973 3.72514 3.90622 5.10858a16.48021 16.48021 0 0 0 3.53129 2.34687c1.7895.77994 2.05684.58763 2.25552-1.31714.07522-.7211-.375-1.805.98466-1.89683C114.81382 327.39 115.038 329.00585 113.909 330.56981z"/><path fill="#f0ad73" d="M82.25832,384.12977a.48841.48841,0,0,1,.13431.69762c-1.72964,3.34006-3.26406,6.777-5.14954,10.04206-.99956,1.731-2.03692,3.43518-3.08439,5.13531-1.876.40409-3.73431,1.107-5.68.33709-.67-.4939-1.4389-.266-2.16556-.27238-4.12944-.0361-8.26145.02949-12.38785-.09571-2.89987-.088-5.7922-.42457-8.68787-.65033-.20241-.01577-.4044-.0426-.607-.04858-3.04336-.08988-6.059-.47129-9.08332-.79122-2.41879-.25589-4.82927-.5549-7.24012-.86809a11.77672,11.77672,0,0,1-2.35108-.6,3.7384,3.7384,0,0,1-1.52727-.97317,1.83085,1.83085,0,0,1,.01242-2.71248,5.029,5.029,0,0,1,2.24765-1.33614,21.42707,21.42707,0,0,1,2.77885-.54594c2.6949-.3434,5.4158-.168,8.09846-.44955,2.48818-.26117,4.99557-.18554,7.47419-.60216,1.66061-.2791,3.36509-.20335,5.04712-.44795,2.002-.29118,4.03953-.32909,6.0564-.52973,1.88055-.18709,3.75344-.45022,5.63113-.66762,1.47593-.17087,2.9543-.32049,4.4311-.484A100.21221,100.21221,0,0,0,78.37553,386.183,7.34322,7.34322,0,0,0,82.25832,384.12977Z"/><path fill="#6c83d9" d="M454.85587,354.914q-1.21764.07041-2.43527.14119a20.1363,20.1363,0,0,1-2.4734-3.93208c-4.71468-9.12632-9.80713-18.04728-14.69726-27.078-4.47162-8.258-9.12346-16.41643-13.38874-24.78993-3.46394-6.80032-7.03306-13.55621-10.98492-20.09516-1.82-3.01145-3.97762-5.7882-6.06905-8.61142-2.2523-3.04028-4.41673-6.14607-6.6912-9.16936-1.86767-2.4825-3.84269-4.88422-5.76516-7.32567-.584-.74173-1.15153-1.49648-1.72671-2.24516.12309-.18386.30853-.31329.4914-.15777.41091.34954.79383.7332,1.1764,1.11478q3.73725,3.72774,7.47012,7.45986a112.159,112.159,0,0,1,9.125,10.27936c1.66475,2.12242,3.35952,4.21643,4.812,6.49048a100.74254,100.74254,0,0,1,5.48992,9.44635c3.63433,7.334,7.21744,14.69614,11.01324,21.94638,2.15845,4.12273,4.19773,8.31572,6.66464,12.281,1.56668,2.51824,2.89384,5.18524,4.33847,7.77987.45932.825.91669,1.65453,1.43433,2.443,1.90276,2.898,2.99753,6.1945,4.59406,9.244C449.80452,345.04611,452.3181,349.98637,454.85587,354.914Z"/><path fill="#6e3232" d="M123.79613,371.92037a7.97521,7.97521,0,0,1-1.303,2.94913c-2.35136,3.6901-4.77243,7.33581-7.38143,10.85241-1.323,1.78325-2.62171,3.58457-3.948,5.36533a34.20259,34.20259,0,0,1-2.11674,2.69652c-1.22928,1.34434-2.3049,2.80646-3.45482,4.21077-.936,1.143-1.951,2.22521-2.89534,3.36922-1.71207,2.07412-3.48447,4.09674-5.10867,6.24483-.85109,1.12567-1.82625,2.15682-2.726,3.24658-1.24188,1.50424-2.52867,2.97774-3.673,4.55385a21.97569,21.97569,0,0,1-2.251,2.58994c-.95387.95805-1.90749,1.91655-2.87586,2.85982-.38542.3754-.80479.71684-1.21792,1.06268a3.55049,3.55049,0,0,1-2.8097.86676c-.58426-.07092-1.23381.16633-1.71315-.37759,1.08242-.91892,2.17591-1.825,3.245-2.75895A63.87221,63.87221,0,0,0,93.303,408.531c3.58465-5.00373,7.23838-9.95619,11.023-14.81166q6.36159-8.16169,12.68442-16.35352c1.68828-2.19857,3.27192-4.47752,4.9-6.72216.276-.38057.48736-.82091.97845-.9863A10.267,10.267,0,0,1,123.79613,371.92037Z"/><path fill="#6c83d9" d="M337.03623,180.24676a36.30212,36.30212,0,0,0,3.72245,5.51684c2.47455,3.27325,4.84557,6.62166,7.28746,9.91688,2.28079,3.07789,4.4177,6.26387,6.88488,9.2076,2.11565,2.52433,4.178,5.091,6.33461,7.58378,1.10348,1.27551,2.29676,2.46364,3.38261,3.745,2.17263,2.56379,4.45826,5.034,6.44718,7.75329,1.865,2.54975,3.83426,5.02452,5.65713,7.60333,1.94136,2.7465,3.91635,5.47344,5.63768,8.37253a22.17606,22.17606,0,0,1,1.09026,1.93376.39737.39737,0,0,1-.13285.52673,32.78462,32.78462,0,0,1-3.4681-4.21237c-3.57867-4.83545-7.39433-9.47586-11.31567-14.03533-3.39113-3.943-6.70431-7.953-10.0704-11.91763-1.7922-2.11089-3.57428-4.234-5.44922-6.27019a92.13137,92.13137,0,0,1-6.92415-8.72456q-3.07558-4.27731-6.06923-8.61334a61.36056,61.36056,0,0,1-5.85569-10.63293c-.2666-.61841-.54178-1.23313-.813-1.84956a.53228.53228,0,0,1-.23286-.326l-.1749-.45661c.70052-1.10849,1.02055.01449,1.26412.31049A23.09346,23.09346,0,0,1,337.03623,180.24676Z"/><path fill="#f0ad73" d="M189.96317,271.65361c-.73262,1.20462-1.46114,2.41177-2.19869,3.61338-1.44561,2.35518-2.82275,4.7566-4.36134,7.0496q-3.886,5.79132-7.94413,11.46676c-6.18692,8.67532-11.90764,17.66461-17.90664,26.46616q-3.35775,4.9264-6.77188,9.81427a2.78239,2.78239,0,0,1-.62406.49638c-.75489-.60982-.23784-1.62522-.73851-2.3161.03818-.12847.039-.2908.12008-.38041a50.70645,50.70645,0,0,0,4.08573-5.7728c1.25032-1.83995,2.55-3.64636,3.799-5.48723,1.77845-2.62133,3.45747-5.31331,5.3101-7.88044,3.03549-4.20621,5.93963-8.50407,9.0526-12.65769,4.77262-6.36812,9.19815-12.98555,13.52486-19.66239a58.02549,58.02549,0,0,0,4.26194-7.58741q.20457.00934.40914.01852a2.76014,2.76014,0,0,1,.03985,2.06758Z"/><path fill="#8c4646" d="M68.47869 400.34185c1.73084-.21547 3.46068-.44 5.19424-.63065.14937-.01644.32333.19058.48582.29368a37.06372 37.06372 0 0 0-2.68483 4.2626 22.116 22.116 0 0 1-4.65944 5.8025c-1.46353 1.18156-3.04793 2.21419-4.58843 3.29905-.43934.30945-.91333.56965-1.37141.85227a10.62946 10.62946 0 0 1-1.84067-3.7709 6.71055 6.71055 0 0 1 2.29915-7.06415A9.9753 9.9753 0 0 1 64.254 401.6556 26.39488 26.39488 0 0 1 68.47869 400.34185zM149.41792 328.24406a.88386.88386 0 0 1 .6575.9038c.03306.47034.05455.94148.081 1.41228a25.57667 25.57667 0 0 0-.42317 6.60711c.00575 1.28015.57859 1.80663 1.84488 1.9131a18.339 18.339 0 0 0 5.3785-.56861c.98111-.20927 1.95775-.4395 2.9364-.66028.42209-.17912.49145.03965.4423.39209a22.90492 22.90492 0 0 1-8.13128 4.00064 51.27406 51.27406 0 0 1-7.73414 1.58607 11.64157 11.64157 0 0 1-4.82127-.34005c.40462-.69395.7796-1.40734 1.21926-2.07838q4.0842-6.23379 8.18925-12.454A6.82676 6.82676 0 0 0 149.41792 328.24406z"/><path fill="#7287cc" d="M337.03623,180.24676a1.93455,1.93455,0,0,1-.82519-.81972c-.85327-1.33122-1.72972-2.6477-2.60716-3.96324-.15851-.23773-.37185-.38044-.62943-.09576a17.19008,17.19008,0,0,1-1.65458-2.99777,6.08124,6.08124,0,0,0-3.33788-3.353,20.3361,20.3361,0,0,1-.6243-4.30405c-.14178-1.58019-.03675-3.18251-.039-4.77518a37.4101,37.4101,0,0,1,3.47148,2.03624,8.29513,8.29513,0,0,1,3.73716,5.28355,55.05014,55.05014,0,0,1,1.33871,6.88861c.22335,1.71724.70394,3.40063,1.05725,5.10173C336.99113,179.57473,337.0001,179.91357,337.03623,180.24676Z"/><path fill="#6e3232" d="M113.65562,325.59243c-.01942,1.14354-.02107,2.28778-.0635,3.43046-.03885,1.04644-.38955,1.27357-1.44333.98364a5.95514,5.95514,0,0,1-.76386-.25808c-3.80883-1.63023-6.75983-4.09329-7.97324-8.237a17.59821,17.59821,0,0,1,3.95061-2.00226,1.67734,1.67734,0,0,1,1.49758,1.16489,7.08057,7.08057,0,0,0,1.87009,2.34214,1.71811,1.71811,0,0,0,1.01.62172c1.03743.09078,1.35472.95976,1.84656,1.64551l.13627.13171Z"/><path fill="#f6c193" d="M147.68191 258.17382c-.11957-.5362.26759-1.19028-.37336-1.60519a3.78937 3.78937 0 0 0 .86992-1.774 38.69379 38.69379 0 0 1 2.77311-7.76395 7.96693 7.96693 0 0 1 2.84953-3.8227q1.63054 2.03235 3.26127 4.06483c-3.34289 4.127-6.66525 8.26829-8.92126 13.35423A2.31258 2.31258 0 0 1 147.68191 258.17382zM190.02117 270.90179q-.02-1.03405-.0399-2.06785.23522.01235.47057.02445C190.31239 269.54054 190.54138 270.30018 190.02117 270.90179z"/><path fill="#f7e1ca" d="M454.01079,398.76907c.46283-.48671,1.05916-.3482,1.62589-.34713a2.24606,2.24606,0,0,1-1.21483.77654Q454.2161,398.98365,454.01079,398.76907Z"/><path fill="#b26560" d="M160.33536,338.24355l-.44223-.392c.42592-.39725.85572-.56769,1.29827-.02237Q160.76405,338.036,160.33536,338.24355Z"/><path fill="#7287cc" d="M333.14933,175.82458q.11653.16326.23293.32624C333.2261,176.098,333.125,176.00607,333.14933,175.82458Z"/><path fill="#f1b27b" d="M147.68191,258.17382l.13708,1.76467c.56787-.27964.655-.77406.863-1.17558a63.5817,63.5817,0,0,1,5.90368-9.13276,9.427,9.427,0,0,1,2.47685-2.35726q.02018.19824.033.39707a14.78552,14.78552,0,0,1-2.74663,3.6997,45.17415,45.17415,0,0,0-6.38048,10.446c-.26489.54882-.03888,1.23943-.562,1.68453-.02-1.33283-.04786-2.66532-.05641-3.9979A1.9362,1.9362,0,0,1,147.68191,258.17382Z"/><path fill="#f0ae74" d="M187.375 226.15446c.74448 0 1.4894.01592 2.23331-.00461a3.16906 3.16906 0 0 1 1.89595.60746.41253.41253 0 0 1 .20824.50551.84983.84983 0 0 1-.41429.39107 1.10457 1.10457 0 0 1-.58944.02968 17.20476 17.20476 0 0 0-11.3884 1.54249 21.588 21.588 0 0 0-7.65425 5.85263 1.25908 1.25908 0 0 1-.12258.15951.60269.60269 0 0 1-.74147.11461.53012.53012 0 0 1-.22714-.70494 6.55331 6.55331 0 0 1 1.51643-2.12661 54.52974 54.52974 0 0 1 5.81031-4.02675 17.13786 17.13786 0 0 1 8.66118-2.34285c.27069.00268.54143.00034.81215.00034zM205.82465 239.98826a13.44907 13.44907 0 0 1-1.70439 7.05242c-.33836.66293-.67739 1.32564-1.00487 1.994a3.15251 3.15251 0 0 1-.82787 1.13794c-.22448.179-.48086.30965-.70923.091a.644.644 0 0 1-.14024-.54272 8.84038 8.84038 0 0 1 .4691-1.11679c.61064-1.35374 1.25513-2.69315 1.83046-4.06166a13.24932 13.24932 0 0 0 .35934-8.72352 3.631 3.631 0 0 0-1.06676-1.69988 12.47094 12.47094 0 0 1-.96407-1.03779.35475.35475 0 0 1 .09668-.5278.8369.8369 0 0 1 .54148-.16 1.1297 1.1297 0 0 1 .50881.30364 7.70117 7.70117 0 0 1 2.60638 5.51959C205.85428 238.75592 205.82465 239.29936 205.82465 239.98826z"/><path fill="#df959e" d="M113.87622,321.60335a1.17213,1.17213,0,0,1-1.76328,1.07406,2.01386,2.01386,0,0,1-.48055-.3666,8.50211,8.50211,0,0,1-2.27361-3.98529.49971.49971,0,0,1,.65349-.52122,8.586,8.586,0,0,1,3.705,3.331A1.817,1.817,0,0,1,113.87622,321.60335Z"/></svg>
