<svg xmlns="http://www.w3.org/2000/svg" viewBox="0 0 512 512"><path fill="#8c4646" d="M109.96212,114.78858a12.012,12.012,0,0,0-5.2644-6.59924,26.97247,26.97247,0,0,0-7.0896-3.12134A48.5138,48.5138,0,0,0,79.487,103.57044a31.70709,31.70709,0,0,0-3.533.51758,28.02478,28.02478,0,0,0-9.03821,3.8468c-.76972.47461-1.53284.96008-2.33936,1.46582A7.34038,7.34038,0,0,0,60.68594,107.37a7.17523,7.17523,0,0,1-2.85211-1.21179,18.05531,18.05531,0,0,0-12.01856-2.87488c-1.742.178-3.48858.35278-5.21435.64087a18.87164,18.87164,0,0,0-13.66443,9.19018,25.72065,25.72065,0,0,0-2.66205,6.15613c-.99872,3.42932-1.89538,6.88977-2.95654,10.2992a47.20258,47.20258,0,0,1-7.48468,14.96289c-1.06751,1.38867-2.07874,2.82226-3.07953,4.26062a29.4948,29.4948,0,0,0-4.61078,10.74426,61.32452,61.32452,0,0,0-.98944,6.85962,37.74908,37.74908,0,0,0,.40521,9.84875A49.93131,49.93131,0,0,0,12.632,194.7782c1.371,2.2013,2.78656,4.37525,4.13238,6.5918a39.58352,39.58352,0,0,1,3.80182,7.94665c2.02814,6.05188,2.16144,12.26355,1.41113,18.50477-.57672,4.79711-1.45215,9.55761-2.13293,14.34326a51.06924,51.06924,0,0,0-.58277,9.64319c.29163,6.10278,2.8714,10.89685,8.099,14.16247,1.18567.74072,2.4195,1.41333,3.6706,2.03845a76.38009,76.38009,0,0,0,12.639,4.52527,5.3976,5.3976,0,0,0,1.45362.188.98169.98169,0,0,0,1.04364-1.24072,10.913,10.913,0,0,0-.60785-1.78125,41.54118,41.54118,0,0,1-2.15216-6.80371,20.12345,20.12345,0,0,1,.73333-12.19007,27.019,27.019,0,0,1,2.81189-5.16027c.9834-1.45044,1.97046-2.89954,2.99628-4.32007a15.6951,15.6951,0,0,0,2.68463-12.3816c-.38391-2.20812-.81347-4.40832-1.20044-6.616a21.48475,21.48475,0,0,1-.32257-6.27173,26.90793,26.90793,0,0,1,1.61389-6.50793c.92664-2.42,1.91547-4.81666,2.90119-7.21363a59.04634,59.04634,0,0,0,2.95831-8.74963c1.14923-4.82422,1.16638-9.58106-.86944-14.21228-.08191-.18628-.179-.39221.06823-.5824a3.13242,3.13242,0,0,1,.536.229,13.153,13.153,0,0,0,5.22974,2.08033,3.79358,3.79358,0,0,1,.77966.30493,27.98392,27.98392,0,0,0,4.97418-1.53345,21.29848,21.29848,0,0,0,11.15223-8.83826c1.40637-2.08606,1.2373-2.70788-.77991-4.14489a9.79119,9.79119,0,0,1-3.273-3.76795,24.03453,24.03453,0,0,1-2.32745-9.52759,7.64913,7.64913,0,0,1,.29052-2.28649c.81574-2.99817,3.14521-4.13843,5.98889-2.90992a24.85372,24.85372,0,0,1,4.1792,2.41773,12.87052,12.87052,0,0,0,3.52991,1.82959c3.27991.99573,5.34277.285,7.23242-2.53638a14.87707,14.87707,0,0,0,1.37116-2.5979c2.0426-4.92615,3.67669-9.99316,5.23889-15.08618,1.17053-3.816,1.97967-7.74463,3.52515-11.44336.95044-2.2749,1.96057-4.51685,4.64941-5.26587A5.0389,5.0389,0,0,0,109.96212,114.78858ZM53.755,120.8971a46.46919,46.46919,0,0,0-7.185,18.45874,55.57428,55.57428,0,0,0-.84216,10.04016,50.63016,50.63016,0,0,0,3.4444,17.851c.125.32617.24518.65406.36761.9812a.65763.65763,0,0,1-.01385.89881c-3.16089-2.20716-6.48834-4.14539-9.80634-6.10108a30.96839,30.96839,0,0,1-4.77875-3.42468,14.00623,14.00623,0,0,1-4.88324-12.39038,26.4396,26.4396,0,0,1,3.26777-10.34155,37.43586,37.43586,0,0,1,3.73266-5.58814A65.50935,65.50935,0,0,1,47.145,121.183a20.98242,20.98242,0,0,1,4.42938-2.80249.70609.70609,0,0,1,.93182.179c.49518.5846.99677,1.1637,1.5116,1.76367A3.88813,3.88813,0,0,1,53.755,120.8971Z"/><path fill="#f6c193" d="M310.83635,312.57023c-.00049.06924.00118.13861-.00178.20773-.07394,1.74081-.13062,1.85-1.71533,2.33238-.45.137-.77133.27566-.74632.80048-2.84438.61387-5.52357-.42576-7.74813-.60259,4.11482,1.48074,8.52232,3.739,13.2009,5.34048,1.2399.42442,2.63776.33984,3.74095,1.17811.69477.70172,1.66469.59462,2.51327.8248a5.41081,5.41081,0,0,1,1.74153.68162,1.44325,1.44325,0,0,1,.57719,1.83258,12.13656,12.13656,0,0,1-.90666,1.88826,24.12415,24.12415,0,0,1-8.74653,8.83332,18.81977,18.81977,0,0,1-8.39126,2.31685,50.21179,50.21179,0,0,1-14.48278-1.83166,93.13259,93.13259,0,0,1-13.07931-4.42976,3.56281,3.56281,0,0,0-1.59809-.44479,3.16172,3.16172,0,0,1-2.03394-.325c-8.77053-4.3101-18.30689-5.97448-27.73931-7.95857-11.011-2.31612-22.1507-3.99868-33.08967-6.67461-4.10707-.84422-8.14868-1.94394-12.16812-3.1305q-7.68114-2.31072-15.488-4.15c-6.65982-2.17569-13.468-3.8526-20.15042-5.95573-7.89288-2.48413-15.60541-5.45061-23.26995-8.55885-11.61839-4.71163-23.49668-8.78557-34.87537-14.082-4.37644-2.0371-8.93356-3.70209-13.09006-6.20064a7.05038,7.05038,0,0,0-3.96626-1.13235c-1.87966-3.16443-4.75265-5.5708-6.69592-8.6824a28.98574,28.98574,0,0,0-5.48416-6.34818,54.4902,54.4902,0,0,0,7.52058,13.61642c.55553.77361,1.65411,1.47565.86532,2.7221A12.49436,12.49436,0,0,1,80.175,276.024a45.05116,45.05116,0,0,0-5.086.82535,3.35887,3.35887,0,0,0-.34563-.51794c-1.90172-1.96123-2.85279-4.4482-3.86048-6.90982-1.3255-3.23794-2.70814-6.45269-4.01573-9.69776a131.209,131.209,0,0,1-4.74086-14.119c-.70791-2.56226-1.32523-5.14205-1.79455-7.75675a36.54925,36.54925,0,0,1-.73655-5.60293,8.15709,8.15709,0,0,0-.17248-1.66605,6.8216,6.8216,0,0,1-.13636-2.50734c.28538-2.01725.30878-4.04507.42062-6.07028a2.70547,2.70547,0,0,1,.29361-.76648c3.79527-4.06808,8.727-5.28132,14.02185-5.57769,13.35159-.74734,24.9771,3.76566,35.44706,11.71177,1.17368.89076,2.54126,1.82367,2.32991,3.67-.9286.66469-2.00394.45637-3.02809.4623a16.03075,16.03075,0,0,0-6.19928.81967c3.68828.43519,7.25562,1.60382,11.01916,1.52124a10.7755,10.7755,0,0,1,3.30057,2.52925,311.82418,311.82418,0,0,0,27.13044,22.14308,143.14962,143.14962,0,0,0,15.3432,9.88465c10.15586,5.66838,20.37088,11.20365,31.301,15.29515,8.92409,3.34065,17.90908,6.49062,27.06262,9.14715a22.04225,22.04225,0,0,1,2.37936.83218c3.21665,1.11762,6.512,1.9733,9.76872,2.96132,7.68139,2.17428,15.19989,4.88652,22.94615,6.84064a98.51754,98.51754,0,0,0,13.189,2.53145,29.69544,29.69544,0,0,0,7.53093-.4032,53.84235,53.84235,0,0,1,15.26045-.32233,92.33918,92.33918,0,0,1,18.38322,4.9969C308.53779,310.816,309.99508,311.20987,310.83635,312.57023Z"/><path fill="#ffadb7" d="M150.417,393.827c-1.47615-2.54045-2.8986-5.10486-4.178-7.75651a118.77335,118.77335,0,0,0-10.48636-17.44295c-5.25265-7.34508-10.65147-14.58569-15.56969-22.169-3.04734-4.69867-6.41915-9.17541-9.79425-13.64641a86.54714,86.54714,0,0,1-6.31208-9.66871c-3.05979-5.43019-6.22313-10.79869-9.446-16.133-2.24465-3.71524-4.46254-7.44672-6.71773-11.15554a80.43147,80.43147,0,0,0-6.00551-8.34492,79.97969,79.97969,0,0,1-5.38064-7.76059,1.46361,1.46361,0,0,1-.10961-.40252,124.81973,124.81973,0,0,0,14.23578-2.499,3.1534,3.1534,0,0,1,2.73468.81109c6.19665,4.727,13.29864,7.71974,20.41249,10.698,12.6081,5.27846,25.54054,9.66861,38.422,14.212a186.93383,186.93383,0,0,0,33.46641,8.83828,4.3535,4.3535,0,0,0,.83243.07152c.95629.09711,1.37039.88606,1.8776,1.52489,1.988,2.50385,3.9324,5.04286,6.0946,7.40316a51.57355,51.57355,0,0,0,5.118,5.39942,13.55522,13.55522,0,0,1,2.54052,3.24343,4.14513,4.14513,0,0,1-.74535,3.57147c-7.78411,13.10957-15.4441,26.31849-24.32338,38.71465a78.699,78.699,0,0,1-24.71633,22.05765C151.78391,393.73305,151.17863,394.19184,150.417,393.827Z"/><path fill="#9797ed" d="M150.417,393.827a61.69564,61.69564,0,0,0,10.5235-6.8375c3.12979-2.47955,5.98058-5.25244,8.86221-8.006A66.18151,66.18151,0,0,0,179.82284,366.646c3.23424-5.06368,6.38049-10.18356,9.5716-15.27483.74213-1.184,1.48219-2.37111,2.27334-3.52233,1.78461-2.59682,3.29086-5.35437,4.83284-8.09638,1.3346-2.37327,2.83768-4.65136,4.24653-6.98346a5.02164,5.02164,0,0,0,1.04959-3.7351c2.01894-3.02468,4.5444-5.64549,6.799-8.48258a55.34675,55.34675,0,0,1,3.78723-4.48445c2.7292.56219,5.45518,1.14074,8.18833,1.683,4.78759.94989,9.58162,1.86731,14.3692,2.81714,5.26679,1.04494,10.53459,2.086,15.79208,3.17617,4.1664.864,8.31415,1.79926,12.41311,2.96838a84.57938,84.57938,0,0,1,9.78369,3.71506c.76787.32575,1.50964.71291,2.264,1.0716a52.55453,52.55453,0,0,1-3.268,6.576A206.38826,206.38826,0,0,1,255.16292,363.214c-1.6678,2.158-3.51928,4.17362-5.27568,6.2636-1.80127,2.1434-3.57537,4.30974-5.38689,6.44441-2.264,2.668-4.55052,5.317-6.83377,7.96868-2.56151,2.97481-5.41661,5.67331-8.07381,8.55656-2.04116,2.21483-4.07263,4.43395-6.22795,6.54042a27.20466,27.20466,0,0,1-13.257,7.28588,68.12272,68.12272,0,0,1-7.37506,1.59177c-.41609.04633-.82619.169-1.24229.18895-3.00542.14391-5.99492.54475-9.01207.51958-1.04536-.00873-2.09139.14784-3.13835.20753a5.8315,5.8315,0,0,1-1.4643-.01084,19.09612,19.09612,0,0,0-3.98015-.22067,56.49045,56.49045,0,0,1-9.37529-.99358c-1.31038-.20906-2.60789-.51647-3.92408-.66685a14.41,14.41,0,0,1-4.60338-1.37931c-2.77676-1.32987-5.51338-2.74355-8.2651-4.12559a24.55819,24.55819,0,0,1-4.33656-2.94427,11.42129,11.42129,0,0,1-2.2757-2.45859A3.63991,3.63991,0,0,1,150.417,393.827Z"/><path fill="#f6c193" d="M407.26933,276.44177a1.6366,1.6366,0,0,1-.94552.39442,12.38572,12.38572,0,0,0-2.961,1.03621c-5.7226,2.8064-11.63238,5.16243-17.58354,7.43747-6.2739,2.39839-12.55383,4.77214-18.93752,6.86207a139.00414,139.00414,0,0,1-16.41855,4.28447,55.80332,55.80332,0,0,1-9.15291,1.05087c-2.15986.06288-4.31953.31643-6.4902.29529a3.53944,3.53944,0,0,1-2.02755-.39972,2.05253,2.05253,0,0,1-.43269-1.76272c.74149-10.14853-.3342-20.2168-1.30879-30.29236-.28914-2.98927-.543-5.97867-1.08847-8.9356a2.83879,2.83879,0,0,1,.44754-2.39358c2.00861-1.49328,4.43376-1.21823,6.67654-1.33509q15.73576-.81995,31.48593-1.37266c9.802-.35814,19.607-.53579,29.40795-.84764,8.86623-.28208,17.51887-2.15072,26.05041-4.53768,10.53188-2.94661,20.95775-6.28664,31.671-8.56008a60.63391,60.63391,0,0,1,7.87692-1.15954c.03246-.00252.09164-.06321.08624-.07964a1.08274,1.08274,0,0,0-.09806-.185,1.53613,1.53613,0,0,1,.97249-.33026c.76989-.018,1.54035-.05825,2.30983-.04513a54.37628,54.37628,0,0,0,8.12148-.72584,53.58284,53.58284,0,0,1,5.84087-.49018c3.849-.08837,7.70093-.03226,11.55106-.08116a41.19546,41.19546,0,0,1,8.73234.91431,20.9773,20.9773,0,0,1,3.19807.99013,3.11258,3.11258,0,0,1,2.22128,3.40319c-.02589.34742.00781.69929.014,1.0491-2.06871,3.49526-5.476,5.35468-8.92578,7.0526-5.27131,2.59446-10.82432,4.57045-16.15471,7.03493-5.26525,2.43442-10.573,4.82025-15.4016,8.09153-1.04209.706-2.31194.999-3.24133,1.88371-2.323.91663-4.02026,2.70506-5.80815,4.3203-2.06527,1.86579-3.94824,3.93273-5.92326,5.89943a18.25279,18.25279,0,0,0-1.75343,2.3321,8.17358,8.17358,0,0,1-1.623,2.14841c-1.77093,1.446-3.44833,2.97247-5.85869,3.41477a9.75252,9.75252,0,0,1-5.90709-.73674,42.3817,42.3817,0,0,1-10.47938-7.242c-3.39713-2.95773-6.95054-3.59394-11.02157-1.7487C411.99846,274.16008,409.62909,275.29016,407.26933,276.44177Z"/><path fill="#9797ed" d="M330.56218,254.109a7.08485,7.08485,0,0,0-.01631,2.26093,64.03508,64.03508,0,0,1,.9985,7.877c.2657,3.75192.82429,7.48278,1.10142,11.23421a98.82213,98.82213,0,0,1,.55633,10.24166c-.06261,2.09473-.01263,4.19311.00267,6.28974a13.29539,13.29539,0,0,1-.44766,4.55833,2.60782,2.60782,0,0,0-.00465.8321,1.96125,1.96125,0,0,1-.57516.24821c-2.28659.1756-4.55291.75163-6.87.35734a7.109,7.109,0,0,0-1.04291-.09853,47.39773,47.39773,0,0,1-13.14006-2.43018A28.00619,28.00619,0,0,0,301.0226,293.988a8.39282,8.39282,0,0,0-6.32842,3.20293,57.528,57.528,0,0,0-3.65612,5.11565,6.21453,6.21453,0,0,0-.94865,1.85862c.04649.83063-.51766,1.26445-1.0971,1.68834a33.70269,33.70269,0,0,1-3.7594-.268,28.77691,28.77691,0,0,0-4.82125-.09929c-1.80954.0966-3.6093.37645-5.41322.57755a43.46105,43.46105,0,0,1-9.19328.53314,76.05211,76.05211,0,0,1-9.89886-1.71878c-5.92033-1.4034-11.72748-3.197-17.53124-5.00651-2.73484-.85267-5.48035-1.67108-8.21763-2.516a2.58788,2.58788,0,0,1-.53225-.318c-.29415-.8453.35749-1.2886.79974-1.78853A249.18469,249.18469,0,0,1,266.191,261.39352c3.28941-2.49607,6.56117-5.01561,9.87567-7.479,6.75323-5.019,14.14105-6.98484,22.54818-5.29383,5.42023,1.09027,10.77036,2.48794,16.22562,3.43634a62.00049,62.00049,0,0,0,12.93908,1.0426C328.81012,253.15305,329.90059,253.0431,330.56218,254.109Z"/><path fill="#f6c193" d="M64.32817,181.30514a6.48481,6.48481,0,0,1,3.15958-1.56062,16.8817,16.8817,0,0,0,7.46553-3.64781,30.24945,30.24945,0,0,0,4.04422-3.96578,10.47355,10.47355,0,0,0,1.41627-2.0743c.91019-1.8112.8026-1.72592-.71985-2.58672a9.44757,9.44757,0,0,1-3.96106-4.5008,23.95987,23.95987,0,0,1-2.20888-9.9586,8.73946,8.73946,0,0,1,.47628-2.67611,4.43489,4.43489,0,0,1,5.87578-2.87307,16.12768,16.12768,0,0,1,3.34108,1.74984c.93876.6102,1.86616,1.23846,2.816,1.83092a10.488,10.488,0,0,0,3.29684,1.30271,4.61614,4.61614,0,0,0,4.84351-1.72526A13.79539,13.79539,0,0,0,96.25248,146.99c1.44132-3.421,2.63553-6.93212,3.74645-10.46756,1.3202-4.20153,2.53956-8.43515,3.767-12.66521a32.59639,32.59639,0,0,1,2.37008-5.81971c.09593-.18659.20391-.36711.30916-.54878a3.2623,3.2623,0,0,1,3.63467-1.87466,57.989,57.989,0,0,1,6.42421,8.79122,22.96026,22.96026,0,0,1,3.20071,8.59324,15.49243,15.49243,0,0,1-.17437,5.63273q-.6899,2.85944-1.64546,5.631a8.5097,8.5097,0,0,0-.62656,2.64083,7.3864,7.3864,0,0,0,.71128,3.44758c.97793,2.028,2.34438,3.81312,3.44179,5.76451a11.7447,11.7447,0,0,1,1.23362,3.329,5.28693,5.28693,0,0,1-.66956,4.04363,18.507,18.507,0,0,1-1.15927,1.74675,6.96159,6.96159,0,0,0-1.32493,5.94511,37.75461,37.75461,0,0,1,.295,8.57962,6.328,6.328,0,0,1-1.727,3.95952,9.457,9.457,0,0,1-4.86741,3.095,28.61681,28.61681,0,0,1-6.78474,1.20722,7.305,7.305,0,0,0-2.9974.858c-3.86778-.87576-7.78543-1.57293-11.43238-3.23333-.58209-.265-1.2048-.46486-1.75186.06541a1.6349,1.6349,0,0,0-.25363,1.76168,5.61539,5.61539,0,0,0,.913,1.86835,16.642,16.642,0,0,0,9.51938,6.67171,5.38286,5.38286,0,0,1-.06848,1.24093,14.38065,14.38065,0,0,0-.25308,4.76982c.06154,1.31012.35969,2.60753.51353,3.91524a10.1761,10.1761,0,0,0,2.389,4.77882c.533.96543,1.5482,1.11752,2.452,1.474a65.93319,65.93319,0,0,1,21.69465,13.75221c.78213.74965,2.06462,1.646,1.42865,2.76692-.66755,1.1767-2.0644.37342-3.07638.07615a37.49114,37.49114,0,0,1-8.53125-4.04052,128.204,128.204,0,0,0-44.8973-16.61085c-2.70286-.45123-5.45368-.57269-8.01468.80424a1.1997,1.1997,0,0,1-1.00988.12135,9.38516,9.38516,0,0,1,.509-2.65481,31.8869,31.8869,0,0,0,.7575-5.57192c.00975-.69143.15133-1.38026.2155-2.07187a5.3054,5.3054,0,0,0,.07225-1.454c-.471-2.42015-.22484-4.86822-.3458-7.30067a25.29644,25.29644,0,0,0-.248-2.69874A14.06647,14.06647,0,0,1,64.32817,181.30514Z"/><path fill="#ffadb7" d="M63.03092,209.06109a8.43,8.43,0,0,1,5.2537-1.72823,32.18,32.18,0,0,1,8.05957,1.07127c3.26726.70255,6.53464,1.44016,9.74589,2.35866a98.55347,98.55347,0,0,1,11.72068,3.86315c5.40968,2.30935,10.69305,4.87309,15.87912,7.623,3.14531,1.66782,6.19512,3.5186,9.39967,5.08741a21.99407,21.99407,0,0,0,4.57285,1.455.68737.68737,0,0,0,.57519-.13387.62017.62017,0,0,0-.00869-.56285,5.5812,5.5812,0,0,0-.7218-1.01674,40.49,40.49,0,0,0-5.63274-4.99642,100.30677,100.30677,0,0,0-9.152-5.88217,40.66436,40.66436,0,0,0-7.58077-3.52675c-.523-.1823-1.09686-.23164-1.60156-.44862a1.52652,1.52652,0,0,1-.71748-.72042c-.08943-.19661.09855-.51943.16247-.78582a12.90638,12.90638,0,0,1,4.23309,1.12189,42.69241,42.69241,0,0,1,7.48849,3.75569,81.17351,81.17351,0,0,1,9.87657,6.71519,15.88333,15.88333,0,0,0,2.618,1.73817,30.552,30.552,0,0,1,5.43111,3.915c2.12487,1.81678,4.29907,3.577,6.39586,5.42523,2.56923,2.26468,5.22142,4.44661,7.55855,6.95932a33.46537,33.46537,0,0,1,6.9812,10.87407c.32284.84692.76058,1.65,1.14535,2.47333a13.27819,13.27819,0,0,1,1.52818,4.0967,64.18364,64.18364,0,0,0,2.6622,9.03c.2625.61915.57255,1.31043.02135,1.97181-1.20149-.707-2.40686-1.40744-3.60377-2.12209-3.775-2.25407-7.42774-4.69738-10.9703-7.29621-3.64909-2.67693-7.35235-5.27955-10.85118-8.16424-2.68751-2.2158-5.32457-4.48716-7.98024-6.73877-1.8568-1.5743-3.82169-3.0205-5.71367-4.5543-.59522-.48254-1.1-1.075-1.66468-1.59716a24.83561,24.83561,0,0,0-3.413-3.08653,4.30468,4.30468,0,0,1-.81434-.93419,8.35971,8.35971,0,0,1-2.09952-3.36651c-.96317-1.95823-2.67959-3.17869-4.34133-4.46053a43.58442,43.58442,0,0,0-7.1387-4.362,54.2083,54.2083,0,0,0-13.11156-4.89013,35.362,35.362,0,0,0-8.49034-1.01805c-1.04973.03683-2.10285.0386-3.15254.00215a40.76149,40.76149,0,0,0-8.07725.9756,6.72689,6.72689,0,0,0-2.15017.81,15.14574,15.14574,0,0,0-4.769,3.66064c-.37206.47618-.48186-.12765-.58252-.41674a14.15349,14.15349,0,0,1,.68135-4.68722A61.22575,61.22575,0,0,1,63.03092,209.06109Z"/><path fill="#ecaf7a" d="M158.92505,268.79408a10.38081,10.38081,0,0,0-.4569-1.58432c-1.4075-3.03034-1.95861-6.31417-2.857-9.49473-.20605-.7295-.34673-1.482-.61065-2.18915a5.41891,5.41891,0,0,1-.28706-1.83039q4.644,3.06374,9.289,6.12629c3.5108,2.30824,7.03927,4.58982,10.5369,6.91784a74.74043,74.74043,0,0,0,12.82885,6.69544c6.59226,2.73931,13.22354,5.38609,19.792,8.18091,5.53919,2.35683,11.04009,4.80307,16.65523,6.97793.521.2018,1.05624.36684,1.58486.54894a12.15668,12.15668,0,0,1-5.46784,4.9113c-2.40451-.72528-4.81646-1.42685-7.21169-2.18146-3.39668-1.07014-6.80588-2.10868-10.165-3.28792-5.40192-1.89632-10.81307-3.772-16.09543-5.99507-2.44788-1.03023-4.87221-2.10635-7.29049-3.20388-1.91079-.86724-3.83786-1.7009-5.68957-2.6842-2.71506-1.44178-5.38391-2.97026-8.08352-4.44153C163.248,271.089,161.08285,269.9483,158.92505,268.79408Z"/><path fill="#d28b94" d="M186.69991,311.75688a.77494.77494,0,0,1-.72234.3345,170.89108,170.89108,0,0,1-17.75322-3.81117c-4.51236-1.22958-9.00161-2.56418-13.40045-4.16388-6.10731-2.221-12.26394-4.29742-18.40206-6.42877-4.74768-1.64858-9.41908-3.51907-14.10995-5.32836-3.192-1.23114-6.361-2.52185-9.53605-3.79655-1.16627-.46827-2.33827-.92852-3.47643-1.4594-2.97956-1.38982-5.99309-2.71995-8.89564-4.25781a46.1755,46.1755,0,0,1-7.19962-4.66556,3.33188,3.33188,0,0,0-3.28261-.64946c-2.682.7279-5.4281,1.23728-8.16691,1.73043-1.29346.23288-2.64965-.02031-3.93919.44225-.48215.1729-.93629-.20817-1.39807-.35641a4.922,4.922,0,0,1-1.32766-2.497c.13729-.40447.29363-.80457.79888-.84774,1.24362-.10636,2.43947-.46274,3.71061-.50407a25.66468,25.66468,0,0,0,6.0999-1.24648,3.22454,3.22454,0,0,1,3.37685-1.23222c.78362.15356,1.47986-.59733,2.24253-.28021.63919.26577,1.19839.71732,1.81691,1.04091.99232.51911,1.96069,1.07853,2.93591,1.6258a25.97735,25.97735,0,0,0,3.83169,1.69751,24.24854,24.24854,0,0,1,2.49393,1.10015c4.95225,2.46106,10.04432,4.59946,15.185,6.62916,3.7703,1.4886,7.52332,3.021,11.29479,4.50663,3.12135,1.22955,6.2637,2.40566,9.38709,3.6301,3.774,1.47948,7.54832,2.959,11.30326,4.48585,4.66915,1.89854,9.44482,3.49508,14.24673,5.005,4.32888,1.36116,8.70491,2.57274,13.063,3.8404,2.07793.60442,4.1675,1.16928,6.24069,1.78925a11.90835,11.90835,0,0,1,1.5286.69434C185.70151,309.51878,186.86776,310.177,186.69991,311.75688Z"/><path fill="#7286cc" d="M219.93236,294.05414q2.139-1.9,4.27686-3.80146c.40493-.36155.79471-.7401,1.19118-1.11035,2.3816-1.94883,4.80128-3.854,7.13682-5.85721,4.09189-3.50967,8.2359-6.947,12.65043-10.05078,5.66871-3.98559,11.12253-8.26,16.64382-12.4439a136.46639,136.46639,0,0,1,15.38247-10.20563,34.92991,34.92991,0,0,1,10.79319-3.93869,13.99163,13.99163,0,0,1,5.21992.09326c2.88183.5531,5.75876,1.13681,8.65189,1.62359a44.27825,44.27825,0,0,0,4.99748.55929c3.98214.21058,7.91284.92682,11.907,1.07645a32.422,32.422,0,0,1,6.25158.64784,2.99917,2.99917,0,0,1,1.96364,1.0754,1.96086,1.96086,0,0,0,.28286.26378l-.02394-.03306c.49716.46215.91978.944.44009,1.66443-2.03163.01338-4.07109.14311-6.0926.00668a55.483,55.483,0,0,1-5.77792-.83408c-1.91723-.33489-3.80767-.83364-5.73063-1.12225-2.28631-.34313-4.47022-1.08847-6.7248-1.544-2.18129-.4407-4.37359-.80384-6.573-1.14844a50.23741,50.23741,0,0,0-5.63013-.37953,17.77079,17.77079,0,0,0-8.07885,1.90686,41.80149,41.80149,0,0,0-9.05088,5.6316c-1.90476,1.52165-3.936,2.88391-5.86982,4.37056-1.71315,1.317-3.36864,2.7089-5.05185,4.065-2.00761,1.61742-4.01211,3.23878-6.02887,4.84473-1.03752.82614-1.90624,1.82572-2.99584,2.61791a39.5353,39.5353,0,0,0-4.24286,3.729c-2.7603,2.68864-5.52859,5.37481-8.16848,8.17975-2.63566,2.80042-5.19639,5.67072-7.95849,8.35052-1.06469,1.842-2.91465,3.006-4.09746,4.74613a12.21913,12.21913,0,0,1-3.20381-.858c-1.803-.50137-3.58862-1.06548-5.38164-1.60286A1.94891,1.94891,0,0,1,219.93236,294.05414Z"/><path fill="#ecaf7a" d="M327.69763 253.6171q-.22-.83216-.44-1.66435a4.54944 4.54944 0 0 1 1.20754-.32064c2.38982.04081 4.74814-.327 7.11833-.51634 10.07841-.80529 20.1783-.11044 30.25944-.48059 4.9714-.18256 9.956-.10585 14.911-.4564 4.97474-.352 9.94388-.25075 14.91456-.3276a50.89453 50.89453 0 0 0 6.06042-.52985 172.402 172.402 0 0 0 20.33631-4.12885c4.80453-1.25382 9.57357-2.64816 14.33964-4.04389 5.57571-1.63289 11.23561-2.919 16.907-4.15007a33.61652 33.61652 0 0 1 4.56841-.63508 52.926 52.926 0 0 1 5.64726-.42187c.40894.04384.81828.088 1.25.13453-.28663.56368-.78217.23813-1.15921.3431a9.95148 9.95148 0 0 1-1.41866.35174 93.48361 93.48361 0 0 0-12.66738 2.64716c-4.64668 1.24489-9.31684 2.40695-13.9248 3.81176-6.26794 1.91092-12.56413 3.74861-18.95049 5.23266-2.57178.59761-5.2201.86646-7.79075 1.468-1.43389.33556-2.925.20542-4.32494.71372a4.03472 4.03472 0 0 1-1.25208.06876 10.59914 10.59914 0 0 0-3.32357.3334 5.38028 5.38028 0 0 1-1.66938.08434c-2.94289.00807-5.88582.00095-8.82865.013a10.20864 10.20864 0 0 0-3.3258.30977 6.10223 6.10223 0 0 1-1.87768.09683q-5.78072.013-11.56139.01182a7.3756 7.3756 0 0 0-2.284.24173 5.76186 5.76186 0 0 1-1.65875.16265c-1.82159.02009-3.64354.00843-5.46533.01495a8.20288 8.20288 0 0 0-2.698.28822 5.44684 5.44684 0 0 1-1.665.12056c-1.5414.015-3.083.00645-4.62452.01156a7.77249 7.77249 0 0 0-2.49023.27078 5.547 5.547 0 0 1-1.66245.13746c-1.7516.01647-3.50358-.00606-5.25508.01575a14.83862 14.83862 0 0 0-4.37346.33966 7.1317 7.1317 0 0 1-1.8812.07384 11.70292 11.70292 0 0 0-3.94978.35251 2.55231 2.55231 0 0 1-1.04214.06095 8.44725 8.44725 0 0 0-3.09046.45614A7.2648 7.2648 0 0 0 327.69763 253.6171zM462.76513 264.68821a2.63071 2.63071 0 0 1 1.24715-1.349 137.14775 137.14775 0 0 1 16.22446-8.712c2.94663-1.42206 6.01038-2.60484 9.0392-3.85222 2.06394-.85 4.09269-1.77507 6.1333-2.67618a42.52415 42.52415 0 0 0 6.92139-3.8534 10.28045 10.28045 0 0 0 2.97349-2.89156 1.34653 1.34653 0 0 1 1.18453-.72844c1.05237 2.26316.41526 4.225-1.13989 5.97011a22.38885 22.38885 0 0 1-4.65413 3.87972 47.67561 47.67561 0 0 1-7.47954 3.75068c-5.08459 2.13252-10.15038 4.31558-15.42416 5.95232-3.99642 1.24034-8.01119 2.42186-12.01871 3.6264C464.77174 264.10535 463.76761 264.394 462.76513 264.68821zM407.26933 276.44177c.03388-.27849-.3174.058-.14308-.16114.07286-.09164.06795-.285.14978-.32387 2.77656-1.31686 5.38242-3.00684 8.37757-3.8469.80531-.22589 1.59893-.50936 2.41691-.66957a5.63158 5.63158 0 0 1 2.69082.12146 11.64178 11.64178 0 0 1 4.2266 2.25892c1.98658 1.64833 4.05822 3.18231 6.07547 4.78695a22.41047 22.41047 0 0 0 6.01018 3.38325 8.30143 8.30143 0 0 0 7.91241-1.11192c.74755-.50849 1.42878-1.11349 2.15532-1.65426.19735-.14686.38484-.02388.51578.16358a12.51587 12.51587 0 0 1-3.32727 3.9775 7.73123 7.73123 0 0 1-6.95056 1.16234 27.10912 27.10912 0 0 1-6.83467-3.11481c-1.80618-1.056-3.575-2.17677-5.346-3.29162a20.11444 20.11444 0 0 0-7.79994-2.85319 8.50433 8.50433 0 0 0-2.50156-.03124 46.84807 46.84807 0 0 0-6.58881 1.09025A5.609 5.609 0 0 1 407.26933 276.44177zM100.40423 196.01277c-.36287.24274-.54259.765-1.205.44107a23.50452 23.50452 0 0 1-7.50206-5.19685 10.74944 10.74944 0 0 1-2.35674-3.8895 2.31126 2.31126 0 0 1 .34113-2.14782 1.21532 1.21532 0 0 1 1.27344-.533 2.35012 2.35012 0 0 1 .78664.25826c2.54142 1.38022 5.36082 1.90443 8.11625 2.60777a8.47018 8.47018 0 0 0 2.444.50089 1.20047 1.20047 0 0 1 1.10769.82529 10.61331 10.61331 0 0 0-2.55831 5.11558C100.70425 194.66767 100.55336 195.34 100.40423 196.01277z"/><path fill="#ecaf7b" d="M317.56664,321.82682c-2.26273.24458-4.26572-.72387-6.26039-1.50057-3.77333-1.46934-7.47142-3.13225-11.19693-4.72368-.374-.15978-.72182-.38105-1.06156-.563.10451-.51255.43909-.32161.66215-.3465a1.49759,1.49759,0,0,1,.62249.06238,5.53849,5.53849,0,0,0,1.84376.34725,35.97883,35.97883,0,0,1,6.19651.80821c1.98144.59992,3.97331,1.16729,5.94014,1.81118a22.81814,22.81814,0,0,0,4.1958,1.11552,1.09565,1.09565,0,0,1,1.00233.61708,1.14,1.14,0,0,1-.43775,1.28947A15.48474,15.48474,0,0,1,317.56664,321.82682Z"/><path fill="#ecb07b" d="M288.99231,305.85352a3.988,3.988,0,0,1,1.09782-1.68839c1.08539.25414,2.16487.5422,3.25876.75653a97.10047,97.10047,0,0,1,14.91236,4.20187,6.19348,6.19348,0,0,1,2.52442,1.43877c.60462.64374.6106.96933.05073,2.00793a1.068,1.068,0,0,1-.40917-.07253,28.24264,28.24264,0,0,0-7.48408-3.16651,74.65284,74.65284,0,0,0-12.33046-3.08731C290.06519,306.16519,289.53207,305.9861,288.99231,305.85352Z"/><path fill="#ecaf7a" d="M327.28148,251.98573a.44582.44582,0,0,1-.2846-.26544A.31958.31958,0,0,1,327.28148,251.98573Z"/><path fill="#7286cc" d="M212.38293,316.06687a1.94893,1.94893,0,0,1-.58163,1.50774c-1.95861,2.17057-3.71658,4.51184-5.60764,6.73389-1.38694,1.62965-2.49182,3.564-4.3966,4.725a89.405,89.405,0,0,0-6.162-6.52694c-.52256-.54259-1.20964-.9789-1.33046-1.82056-.00377-.09865-.00755-.19732-.012-.29623a2.40386,2.40386,0,0,1,.00791-.59411,18.07588,18.07588,0,0,1,5.84331-6.83858c1.8066.45121,3.6148.89607,5.41938,1.35522C207.838,314.89108,210.1098,315.48149,212.38293,316.06687Z"/><path fill="#ecaf7a" d="M89.076 273.01914q-1.68818.61641-3.37661 1.23251c-.99542-1.433-1.9592-2.8888-2.99261-4.29339a46.74619 46.74619 0 0 1-4.70008-8.17715c-.52723-1.1411-1.00178-2.30765-1.46463-3.47672a.82175.82175 0 0 1 .1757-.99052 2.30474 2.30474 0 0 1 .50755.28609 31.53 31.53 0 0 1 5.97655 6.99677 12.78647 12.78647 0 0 0 2.45639 3.12254 6.15441 6.15441 0 0 1 .9175 1.13727 4.81149 4.81149 0 0 0 1.62855 1.60654c.48.26749.78189.56085.55008 1.16506C88.55542 272.14661 88.898 272.57086 89.076 273.01914zM111.81438 230.93408a6.09889 6.09889 0 0 1 2.0995 3.36656 3.43142 3.43142 0 0 0-.83654.01274 8.27434 8.27434 0 0 1-4.878-.479 9.038 9.038 0 0 0-3.72429-.3502 4.398 4.398 0 0 1-3.06874-1.06772c-.21853-.16055-.42333-.37465-.30127-.701a.59413.59413 0 0 1 .69207-.33687c1.69042.16217 3.28636-.5693 4.98423-.46264C108.45282 231.021 110.13621 230.9358 111.81438 230.93408z"/><path fill="#e398a1" d="M59.90877,108.84891a5.20144,5.20144,0,0,1,3.05593,1.19825.42768.42768,0,0,1-.00456.71154c-.627.55073-1.28746,1.06393-1.90609,1.62358a43.15861,43.15861,0,0,0-5.19,5.719,5.49869,5.49869,0,0,1-.525.64495.5583.5583,0,0,1-.757.03017,3.209,3.209,0,0,1-.45641-.428c-.95575-1.02664-.98459-1.2297-.17264-2.30185a59.93412,59.93412,0,0,0,4.01221-5.85681C58.61225,109.085,59.04357,108.84958,59.90877,108.84891Z"/><path fill="#ffadb7" d="M194.40148,320.55029a.244.244,0,0,1,.1311-.30587A.28476.28476,0,0,1,194.40148,320.55029Z"/></svg>
