<svg xmlns="http://www.w3.org/2000/svg" viewBox="0 0 512 512"><path fill="#9797ed" d="M270.02936,247.52784a1.88513,1.88513,0,0,1-.87763-1.27451c-.75679-2.34694-1.54675-4.68327-2.29139-7.034a47.57,47.57,0,0,0-1.897-5.4735,13.86276,13.86276,0,0,0-6.6681-6.90623c-.89809-.44178-1.79838-.87978-2.6858-1.34224a25.53641,25.53641,0,0,1-7.20613-5.62254,39.74662,39.74662,0,0,1-7.91574-13.78311,119.337,119.337,0,0,1-3.2932-12.14708,129.974,129.974,0,0,0-3.4978-12.71366,101.80558,101.80558,0,0,0-8.811-19.03157c-3.49242-5.83858-7.11761-11.60129-10.97328-17.2072-4.57307-6.64893-9.33432-13.16613-14.44085-19.42033a87.78917,87.78917,0,0,0-8.39942-8.85309,31.81937,31.81937,0,0,0-4.90392-3.7835,10.03731,10.03731,0,0,0-1.227-.66826,1.73484,1.73484,0,0,0-2.02733.38921,9.33773,9.33773,0,0,0-1.04156,1.21366,74.4552,74.4552,0,0,1-5.303,5.991c-2.00848,2.23129-3.98074,4.49145-5.95713,6.75029a74.10632,74.10632,0,0,1-7.41183,7.29753,24.5809,24.5809,0,0,0-4.92936,4.93169,1.1112,1.1112,0,0,1-.80833.51938c-.52647-.0795-.76432-.48869-1.0045-.88875-5.65462-9.41789-12.3619-18.123-18.42821-27.26135-.80893-1.21859-2.17041-2.22123-1.99309-3.95891a10.73,10.73,0,0,1,2.62989-2.96548c.43212-.41448.94752-.74581,1.3582-1.17841a81.69441,81.69441,0,0,1,10.20075-8.6773c5.69045-4.30453,11.44048-8.5302,17.15185-12.80721,2.08139-1.55867,4.11178-3.18531,6.18748-4.75175a35.5404,35.5404,0,0,1,11.50637-5.461,12.10861,12.10861,0,0,1,6.12677-.0393,27.51122,27.51122,0,0,1,7.7866,3.05985,82.961,82.961,0,0,1,10.8432,7.15817c2.80581,2.25614,5.56773,4.56826,8.31127,6.90007,2.49012,2.11641,4.9326,4.289,7.38977,6.444,1.95536,1.71494,3.886,3.45832,5.85474,5.15769,3.08456,2.66251,5.90359,5.6067,8.9029,8.35585,3.05348,2.79878,5.99074,5.70944,8.87737,8.67287,3.91124,4.01532,7.5918,8.236,11.16355,12.55857,3.6566,4.4253,7.00079,9.08534,10.5089,13.62158a63.99294,63.99294,0,0,0,8.20523,9.00661c2.14967,1.89525,4.364,3.70086,6.58561,5.50369,3.79407,5.04,6.33819,10.7417,8.76942,16.50689.29316.69513.39972,1.95352,1.2288,1.81763.97269-.15944.7088-1.402.75385-2.22061a26.73906,26.73906,0,0,0-1.059-9.46464c-.18845-.6087-.53725-1.26034.01544-1.88109a3.641,3.641,0,0,1,.78994.10119c3.89962,1.39647,7.96531,2.16493,11.96327,3.1902a109.64581,109.64581,0,0,1,11.86712,3.53217,142.2389,142.2389,0,0,1,20.88237,10.04958c7.674,4.46224,14.98759,9.47964,22.366,14.39856,4.38324,2.92218,8.76646,5.84722,13.33894,8.46825a130.27741,130.27741,0,0,0,19.802,9.53416,14.87763,14.87763,0,0,0,3.64853,1.02307.57785.57785,0,0,0,.70107-.53635,21.93876,21.93876,0,0,0,.06832-2.19709,10.45626,10.45626,0,0,1,.3659-2.96564c1.085-3.9869,2.27746-7.94569,3.70512-11.81894a60.90657,60.90657,0,0,1,5.50318-10.871,35.74645,35.74645,0,0,0,2.29132-3.98375,4.869,4.869,0,0,1,.5754-.80034c1.24094-.29872,1.96936.62457,2.76992,1.2453a160.94967,160.94967,0,0,0,16.40624,11.62539,47.628,47.628,0,0,0,6.68276,3.53306,2.86445,2.86445,0,0,1,1.86938,1.37821,2.77577,2.77577,0,0,1-.24008,1.36685c-1.21735,2.18654-1.60919,4.65653-2.39972,6.989q-1.57329,4.64207-3.04127,9.31964c-1.75272,5.599-3.41388,11.22157-4.80852,16.92691a76.98076,76.98076,0,0,1-2.98813,9.53687,24.5962,24.5962,0,0,1-6.652,9.40329,9.33235,9.33235,0,0,1-3.09863,1.80489,35.60675,35.60675,0,0,1-6.58723,1.62538,33.96184,33.96184,0,0,1-5.38588.31327,42.15876,42.15876,0,0,1-9.689-1.30791c-5.973-1.42655-11.8194-3.28439-17.65088-5.19378-2.91558-.95465-5.84956-1.85365-8.75892-2.82661-4.558-1.52433-9.01033-3.33249-13.45051-5.163-9.38035-3.867-18.91374-7.30787-28.55751-10.454-2.09139-.68222-4.14421-1.4852-6.20342-2.26264a30.53711,30.53711,0,0,0-4.43382-1.20127c-.596-.12748-.939.23482-.75336.79483.29328.88487.67518,1.74019.97494,2.62316a4.76559,4.76559,0,0,1,.48348,1.72176,1.05424,1.05424,0,0,1-1.05836.42813c-6.32468-.84517-11.98038,1.55283-17.58692,3.83654-7.35238,2.99483-14.47326,6.55383-22.05349,8.99805a28.49741,28.49741,0,0,0-5.41055,2.58734A1.998,1.998,0,0,1,270.02936,247.52784Z"/><path fill="#f6c193" d="M294.14787 367.51035a7.33933 7.33933 0 0 0 1.27538 2.90085c4.87594 8.35815 10.15788 16.45992 15.515 24.51469a123.56645 123.56645 0 0 1 9.43939 16.71829c1.05894 2.29964 2.04015 4.64679 2.87313 7.03628a109.09915 109.09915 0 0 1 4.68026 16.31747 44.41441 44.41441 0 0 1 .68617 7.94821 6.13117 6.13117 0 0 1-4.24967 6.13153 32.90212 32.90212 0 0 1-6.35219 1.73515c-1.37309.25457-2.75318.47445-4.135.67734a12.60566 12.60566 0 0 1-1.79365.12655c-3.47305.00876-6.94973.09611-10.418-.034a57.88813 57.88813 0 0 1-7.92526-.91923c-2.7504-.48805-5.50624-.94531-8.25891-1.42059-1.96621-.33942-3.9284-.70288-5.89732-1.02552-2.1658-.35488-4.3369-.67713-6.50624-1.01-2.30047-.35308-4.60028-.71076-6.90288-1.04945-1.25057-.1839-2.51189-.25868-3.76472-.4674-1.6374-.27277-3.3395-.19339-4.95842-.53091-1.84174-.384-3.72135-.21116-5.55575-.63383-1.28933-.297-2.64351-.16673-3.97312-.3797-2.03217-.32553-4.11044-.355-6.16581-.54584-4.45861-.414-8.93431-.22222-13.39776-.41381a22.17891 22.17891 0 0 1-5.51559-.83995 9.84167 9.84167 0 0 1-6.07846-5.15118c.741-.95549 1.93484-1.10186 2.92678-1.5878a12.68273 12.68273 0 0 0 6.66147-6.75514 16.66927 16.66927 0 0 0 1.11835-3.19013 4.53917 4.53917 0 0 0-.79906-4.30889 10.71645 10.71645 0 0 1-1.58205-3.20912 18.2362 18.2362 0 0 1-.08672-8.60039 4.03784 4.03784 0 0 1 1.61766-2.62482 3.37015 3.37015 0 0 1 .91511-.46162 2.22553 2.22553 0 0 1 .666-.0899c2.14921.71565 2.79441 1.69145 2.53689 3.83439-.562 4.67674.28865 6.1444 4.6622 7.97757a38.56743 38.56743 0 0 1 3.78323 1.82872 7.83642 7.83642 0 0 1 4.29645 5.503c.71722 4.11734 3.56859 5.7277 7.17122 6.5128a24.27479 24.27479 0 0 0 5.35669.6304c5.80113-.04449 11.60741.16061 17.3944-.40725a155.25026 155.25026 0 0 0 24.54075-4.7017c1.15968-.31461 1.52945-.7916 1.19078-1.98145a71.9321 71.9321 0 0 0-5.80025-14.24941c-4.59815-8.60234-10.69716-16.07626-17.18772-23.29871-5.21582-5.80393-10.30507-11.74267-14.40177-18.43323-.47324-.77286-.88776-.8679-1.53749-.30708-3.28493-.55088-5.4563-2.58337-7.02666-5.35654a37.05426 37.05426 0 0 1-4.33276-16.06673 58.82447 58.82447 0 0 1 4.36706-25.9779A36.99424 36.99424 0 0 1 258.40238 311.11a13.54992 13.54992 0 0 1 17.57994-4.48933c7.41774 4.07941 14.71389 8.611 20.73357 14.58655 6.44111 6.39391 10.38607 14.37273 9.85036 23.71615-.486 8.47622-3.38552 16.02576-10.78634 21.134A6.13892 6.13892 0 0 0 294.14787 367.51035zM136.03679 107.2508c1.34823 2.38365 2.99769 4.56752 4.53965 6.822q3.89909 5.70072 7.84448 11.36973 2.22474 3.2069 4.491 6.38493a52.13714 52.13714 0 0 1 4.55025 7.53226A19.49929 19.49929 0 0 1 153.249 143.318a101.54119 101.54119 0 0 1-8.89477 5.39474c-4.38524 2.42441-8.85757 4.6762-13.38062 6.82027-6.62953 3.14257-13.2545 6.30516-20.13824 8.87408a197.77333 197.77333 0 0 1-19.83941 6.19116c-1.41809.36531-2.83462.74928-4.22523 1.20582a5.37642 5.37642 0 0 0-3.97058 5.166 48.57229 48.57229 0 0 1-2.23652 11.94474 16.24307 16.24307 0 0 1-3.74334 5.85261 6.74046 6.74046 0 0 1-4.69956 1.93756 38.73773 38.73773 0 0 1-9.52156-.93176c-2.6044-.48959-5.24563-1.00772-7.92322-.40221a1.40227 1.40227 0 0 1-.39853.032c-2.87372-.1957-5.53541.73723-8.18982 1.611-3.54612 1.16729-7.0627 2.42589-10.57943 3.68036a19.51679 19.51679 0 0 1-6.62824 1.33969 27.04211 27.04211 0 0 1-7.87507-1.19623 83.97056 83.97056 0 0 1-9.95581-3.62362 16.52337 16.52337 0 0 1-2.60161-1.4855c-1.34284-.93621-1.35627-2.25272-.124-3.34587a5.042 5.042 0 0 1 1.56275-.87589c1.05558-.41293 2.1103-.8283 3.17-1.23041a42.87912 42.87912 0 0 0 9.89016-5.61316c4.69785-3.40506 9.41046-6.78635 14.37456-9.81043 2.44527-1.48963 4.74652-3.22032 7.0795-4.88869A105.78752 105.78752 0 0 1 62.87091 159.185c4.26568-1.89932 8.55782-3.75452 12.73018-5.8449A157.068 157.068 0 0 0 97.889 139.58269c2.0414-1.49223 3.91893-3.2123 5.83986-4.8648 2.831-2.43537 5.6295-4.90846 8.44926-7.35691 3.32371-2.886 6.62981-5.79321 9.99152-8.63441 2.74912-2.32346 5.45069-4.70383 8.30918-6.89941C132.381 110.36614 134.18748 108.7806 136.03679 107.2508zM440.9325 197.47356a76.839 76.839 0 0 1-15.048-8.50859c-3.50857-2.50549-6.90155-5.17253-10.35571-7.75461a10.36925 10.36925 0 0 0-2.32493-1.5179 51.575 51.575 0 0 1 3.14071-6.91243c1.228-2.29363 2.4533-4.59113 3.76759-6.83551 1.85363-3.16546 3.73637-6.31647 5.70094-9.41385 2.64439-4.16916 5.387-8.27592 8.07158-12.41975 2.21248-3.41515 4.45315-6.81376 6.58356-10.2798 1.46624-2.38547 2.77745-4.867 4.13031-7.32085a16.22716 16.22716 0 0 0 .7869-1.83666c.61842-1.54826 1.22044-3.10307 1.839-4.65123a13.689 13.689 0 0 0-.217-10.33931 30.1058 30.1058 0 0 1-1.54591-4.74954 10.94763 10.94763 0 0 1 3.951-11.42749 29.13118 29.13118 0 0 1 5.56655-3.51758 105.01906 105.01906 0 0 0 9.50127-5.14926 52.89544 52.89544 0 0 0 9.482-7.64769c1.72463-1.77021 3.48586-3.5051 5.24577-5.24045a90.75869 90.75869 0 0 1 8.53389-7.25119 19.539 19.539 0 0 1 6.71349-3.025 63.12387 63.12387 0 0 1 7.06906-1.27177 7.86215 7.86215 0 0 1 1.996.02181 1.12284 1.12284 0 0 1 1.03345 1.05335 4.50513 4.50513 0 0 1-.2487 1.96387 17.56135 17.56135 0 0 1-2.97961 5.17645c-1.7673 2.34217-3.57233 4.6565-5.30607 7.02313a41.03763 41.03763 0 0 0-6.10995 12.97477c-1.13812 3.90879-2.38615 7.77929-3.9028 11.55481-1.21794 3.03167-2.53933 6.02258-3.85387 9.01442a61.28624 61.28624 0 0 1-8.0707 13.08533 73.45977 73.45977 0 0 0-6.83671 10.81047c-2.61254 4.88929-4.80011 9.97557-7.01626 15.05373-2.50884 5.749-4.73947 11.60875-7.15411 17.3945-1.411 3.381-2.5638 6.87159-3.78188 10.3308-2.21512 6.29054-4.43455 12.57913-6.91946 18.76958A11.96842 11.96842 0 0 1 440.9325 197.47356zM270.02936 247.52784a60.49033 60.49033 0 0 1 6.7956-3.31882c2.01221-.69233 4.00337-1.44567 6.01406-2.14248 3.14886-1.09129 6.1539-2.52464 9.19762-3.86213 3.89769-1.71277 7.75476-3.52032 11.80112-4.86911a43.04209 43.04209 0 0 1 8.30594-2.06127 11.03184 11.03184 0 0 1 4.16794.12215 7.22493 7.22493 0 0 0 1.38073.09422 51.86336 51.86336 0 0 1 4.86419 12.41825c2.10041 7.83068 3.89466 15.74263 6.25607 23.50444a11.41429 11.41429 0 0 1 .58937 3.72947 9.668 9.668 0 0 0 .22592 2.37821 9.17831 9.17831 0 0 1 .03223 3.58043 24.2589 24.2589 0 0 0-.25866 4.57772 59.69723 59.69723 0 0 1-.63053 6.1398c-.321 3.2506-1.26229 6.3824-1.70625 9.6033-.15381 1.11583-.08476 2.26154-.13416 3.39288-.02564.58759.12826 1.20977-.28721 1.73449a7.80312 7.80312 0 0 0-4.10151-2.66727c-12.91519-4.72059-26.08109-8.637-39.34136-12.2453-3.40867-.92755-6.77084-2.02028-10.25553-2.68922a30.38857 30.38857 0 0 0-7.72447-.06949 14.89473 14.89473 0 0 1 .621-3.514c.94818-4.74016 2.00558-9.45928 2.89515-14.21a40.80085 40.80085 0 0 0 .58032-6.93165 55.20872 55.20872 0 0 1 .62842-7.51762A29.29154 29.29154 0 0 0 270.02936 247.52784z"/><path fill="#ffadb7" d="M265.22047,284.87811a6.5102,6.5102,0,0,1,3.43438-.8437,31.68834,31.68834,0,0,1,9.02408,1.45321q7.603,2.0731,15.17713,4.252,5.37374,1.53443,10.72,3.16435,4.19617,1.28037,8.35451,2.68345c2.4589.83452,4.88325,1.77034,7.32992,2.64158,1.4391.51244,2.89722.97159,4.33619,1.48445.563.20064,1.0812.53089,1.64777.717a1.85533,1.85533,0,0,1,1.39834,2.11891c-.03731,2.66722.10546,5.35248-.15858,7.9971a80.19729,80.19729,0,0,0-.21348,9.98226c.04759,1.92442.28481,3.84443.2655,5.77963a30.24211,30.24211,0,0,1-2.12451,11.309c-.58105,1.4165-1.19,2.82688-1.8824,4.19121a20.47915,20.47915,0,0,1-4.72042,5.879c-3.42039,3.08569-7.2,5.70965-10.84072,8.51094a50.31207,50.31207,0,0,0-6.99,6.53616,19.24465,19.24465,0,0,1-5.83032,4.77523c-.17119-.13436-.2892-.34021-.1201-.49238a10.082,10.082,0,0,1,.96922-.68879,29.78416,29.78416,0,0,0,5.12625-4.74248,16.421,16.421,0,0,0,3.2943-5.42616,62.73649,62.73649,0,0,0,2.57951-9.4146,18.02214,18.02214,0,0,0,.06748-5.3873,28.7336,28.7336,0,0,0-1.25821-5.83106A31.83207,31.83207,0,0,0,301.42,328.311c-.47127-.72341-.74568-1.5844-1.26252-2.26707a34.86868,34.86868,0,0,0-5.74785-6.3169c-2.07651-1.67934-4.22158-3.23037-6.42588-4.71971-3.30563-2.23342-6.61569-4.46083-9.89675-6.72993a13.96278,13.96278,0,0,0-9.84667-2.5129,12.24883,12.24883,0,0,0-7.49774,3.38425,29.88329,29.88329,0,0,0-4.31241,6.20554,47.7526,47.7526,0,0,0-2.8215,6.39075c-.78492.03081-.59037-.41819-.41916-.85573a6.888,6.888,0,0,1,.22065-1.97619c1.23313-4.55709,2.44082-9.121,3.67009-13.67914a91.50288,91.50288,0,0,1,7.35632-18.73757C264.71488,285.9659,264.96,285.418,265.22047,284.87811Z"/><path fill="#8c4646" d="M273.638 432.76661c-3.45283.2392-6.90207.54472-10.36945.48516-2.7974-.04811-5.59766-.01351-8.3921-.12753a20.252 20.252 0 0 1-7.93108-1.77337 5.994 5.994 0 0 1-3.40575-3.68528 14.86135 14.86135 0 0 1-.40334-1.54126 8.111 8.111 0 0 0-4.46582-5.80415c-1.06364-.54887-2.16482-1.02557-3.25356-1.525-.72568-.33286-1.471-.62448-2.18733-.9757a5.87521 5.87521 0 0 1-3.28236-4.04408 3.61883 3.61883 0 0 1-.07441-1.95874c.1694-.57163.275-1.16348.38778-1.75037a2.47169 2.47169 0 0 0-1.70584-3.15917 3.617 3.617 0 0 0-.57855-.15307 1.51155 1.51155 0 0 1-.29632-1.32036c.81717-4.46406.81456-8.99526 1.12616-13.50058A38.06333 38.06333 0 0 1 259.58567 376.652a1.57941 1.57941 0 0 1 1.02789 1.13639c1.66226 4.35987 3.72487 8.55637 5.28429 12.95786a18.23094 18.23094 0 0 1 .57508 1.91421c.84922 3.6131.276 4.91886-2.95155 6.70542-.81653.452-1.67885.81917-2.47757 1.30257a4.66461 4.66461 0 0 0-2.17174 6.00435 7.42457 7.42457 0 0 0 7.9555 5.041c.3314-.03655.65759-.10942.98755-.15547 4.30961-.602 6.43839 1.19332 6.77145 5.65817.24943 3.34389-.2748 6.65026-.48173 9.96861-.09218 1.47823.20548 2.92338.07 4.3862A1.80187 1.80187 0 0 1 273.638 432.76661zM214.69647 428.46174c-.32609.0486-.65708.07576-.97751.14906a10.28618 10.28618 0 0 1-9.02991-2.07193 14.73028 14.73028 0 0 1-3.60394-4.25 31.48821 31.48821 0 0 1-3.57927-10.34376 43.14053 43.14053 0 0 1-.67615-6.5656 37.6033 37.6033 0 0 1 1.94409-13.5941 18.00645 18.00645 0 0 1 5.67609-8.32669 14.28186 14.28186 0 0 1 18.24971.3938 10.26227 10.26227 0 0 1 3.2312 5.63242 17.563 17.563 0 0 1 .4732 3.7662c.00878.4475-.12208.95023.30487 1.30948.68414 1.92167.042 3.82347-.225 5.68588-1.09127 7.61151-1.64628 15.33015-4.21228 22.66788C220.27049 425.4742 218.06569 427.76371 214.69647 428.46174z"/><path fill="#f6c193" d="M273.67285,431.58542a38.0432,38.0432,0,0,1,.223-8.7561,21.4007,21.4007,0,0,0-.22022-7.564,5.93528,5.93528,0,0,0-.47236-1.31107,3.46079,3.46079,0,0,0-3.54236-2.1011,23.6287,23.6287,0,0,0-2.36959.3501,7.95052,7.95052,0,0,1-9.371-7.89566,4.40079,4.40079,0,0,1,1.57327-3.32065,9.3742,9.3742,0,0,1,2.22092-1.34079,26.40418,26.40418,0,0,0,2.98044-1.6327,3.35223,3.35223,0,0,0,1.56828-3.6042,18.885,18.885,0,0,0-1.30106-4.6084c-1.32366-3.20609-2.6624-6.406-3.98279-9.61343-.48208-1.17113-.92953-2.35652-1.39325-3.53543a65.24022,65.24022,0,0,1-1.75333-6.43626c-.08547-.37956-.10647-.77364-.15726-1.161,1.20188-.58015,2.08064.66258,3.19809.56345a39.81061,39.81061,0,0,1,5.29987,6.49428c3.36022,4.68021,7.25593,8.88785,11.03649,13.20363,7.77728,8.87837,14.78754,18.26943,19.37343,29.26058.82453,1.97626,1.27328,4.07717,1.92541,6.11122a2.01062,2.01062,0,0,1-1.54855,2.898,132.32862,132.32862,0,0,1-22.37587,4.326A1.12721,1.12721,0,0,1,273.67285,431.58542Z"/><path fill="#f2b179" d="M214.69647,428.46174a23.8208,23.8208,0,0,0,6.43332-4.75768,4.55955,4.55955,0,0,1,.80545-.52759c.86425.29974,1.10218,1.16881,1.62607,1.77954.90352,1.519,2.36365,2.61787,3.17544,4.20518-.32443.65292-.63342,1.31405-.97622,1.95718a10.83314,10.83314,0,0,1-4.2585,4.06635,14.17372,14.17372,0,0,1-4.73373,2.01062A14.57486,14.57486,0,0,1,214.69647,428.46174Z"/><path fill="#7287cc" d="M295.33578,162.56748c.45807,1.863,1.06866,3.68628,1.37811,5.58962a9.79449,9.79449,0,0,1,.1979,1.57307c0,1.53205-.03039,3.06493.01172,4.59584a6.32206,6.32206,0,0,1-.571,2.50648.6995.6995,0,0,1-1.15116.25113,2.56507,2.56507,0,0,1-.733-1.15514,93.67163,93.67163,0,0,0-4.49056-9.99961,58.946,58.946,0,0,0-3.99762-6.89071c-.24055-.3464-.69341-.6909-.35281-1.2289a8.47643,8.47643,0,0,1,.9859.65513,17.29381,17.29381,0,0,0,6.49425,3.32432A6.68745,6.68745,0,0,1,295.33578,162.56748Z"/><path fill="#6f3332" d="M223.18575,425.171q-.62516-.99714-1.25043-1.99442c-.06974-.31447-.27114-.60373-.10378-.95612,1.23967-2.61068,1.61157-5.44931,2.12185-8.24634q.74694-4.09417,1.26309-8.227c.26369-2.09684.49763-4.20024.79933-6.28708a25.13607,25.13607,0,0,1,.693-4.89925,18.21918,18.21918,0,0,1,2.09728-2.62776,1.09054,1.09054,0,0,1,.35935.88363c-.00289,2.117.00841,4.23415-.016,6.35089-.01216,1.0539-.37275,2.05928-.44344,3.12312a43.58684,43.58684,0,0,1-.72992,4.46342.41524.41524,0,0,1-.31222.06651c-.205.00107-.33742.14764-.49355.24659a4.19209,4.19209,0,0,0-1.70745,2.80642,18.42332,18.42332,0,0,0-.01693,7.68821c.059.257.07952.52274.11789.78446.5936,2.27722-.54641,4.24218-1.168,6.292C224.24491,425.1358,223.85016,425.58974,223.18575,425.171Z"/><path fill="#e7a0a4" d="M260.82433,369.86036a3.687,3.687,0,0,1-2.06259-.41748,7.7231,7.7231,0,0,0-1.08647-.38816c-.71151-.70829-1.68653-1.02978-2.42144-1.73652a16.7492,16.7492,0,0,1-4.00816-6.36756,51.43613,51.43613,0,0,1-2.51354-10.64323,61.4562,61.4562,0,0,1-.28183-9.96154,26.53246,26.53246,0,0,1,.38646-3.36213,61.14515,61.14515,0,0,1,3.60955-14.05725c.27025-.67374.23426-1.45614.74335-2.03675.035.33607.07211.67168.41907.85537-.55722,1.63321-1.093,3.27416-1.67643,4.898a59.39532,59.39532,0,0,0-1.92906,7.718,54.933,54.933,0,0,0-.71866,14.70523A37.09568,37.09568,0,0,0,251.466,359.153a27.11078,27.11078,0,0,0,2.7295,5.539,8.34818,8.34818,0,0,0,3.83865,3.36736,8.48838,8.48838,0,0,0,2.38265.99455C260.78873,369.20344,261.008,369.43011,260.82433,369.86036Z"/><path fill="#f0ad74" d="M260.82433,369.86036q-.20359-.40322-.40733-.80647c.05176-.45345-.17788-1.125.24537-1.30578.65781-.281.81651.52257,1.08667.89666.58164.80548,1.01962,1.71282,1.56262,2.54844a86.30731,86.30731,0,0,0,5.39349,7.153c1.45962,1.80491,2.89209,3.63174,4.33685,5.44867.08293.10426.16355.21087.25318.30913,1.478,1.62093,2.9788,3.22165,4.43,4.86617,1.40443,1.59148,2.70914,3.27285,4.14546,4.8339,2.21206,2.4041,3.9843,5.14181,6.002,7.69174a45.28039,45.28039,0,0,1,3.26948,5.00451,73.59447,73.59447,0,0,1,4.787,8.96527c.93217,2.206,1.87019,4.40641,2.66911,6.66205.5096,1.43884.92062,2.913,1.36024,4.37607.19959.66417.0264.98549-.61215,1.24681a1.43675,1.43675,0,0,1-.37.14706c-2.40135.22976-4.6094,1.24383-6.95438,1.7052-2.59966.51144-5.18668,1.08816-7.789,1.58487-2.20915.42173-4.42139.87073-6.65339,1.11282-1.31532.1427-2.62507.33649-3.94164.46637q.01758-.59085.03494-1.18134c3.01943-.41327,6.0561-.72984,9.05352-1.26594,3.19834-.572,6.36325-1.335,9.53533-2.04781,1.42316-.31985,2.82955-.71516,4.24049-1.08782a9.52319,9.52319,0,0,0,1.13105-.37392c.48-.19394.77015-.49387.58081-1.08326-.12114-.37721-.12574-.79073-.2345-1.17317a50.20713,50.20713,0,0,0-4.91233-12.19915c-1.29469-2.16486-2.20628-4.55787-3.93064-6.48118a24.47654,24.47654,0,0,1-1.67726-2.71359,89.6515,89.6515,0,0,0-6.91063-9.019c-1.84516-2.09-3.544-4.30886-5.32525-6.456-.38232-.46083-.83821-.86074-1.26108-1.28784a78.80882,78.80882,0,0,1-7.60545-9.22747c-.78126-1.07416-1.54217-2.17213-2.41785-3.1663A44.39853,44.39853,0,0,1,260.82433,369.86036Z"/><path fill="#8d4747" d="M223.18577,425.171c.34178-.04943.64078-.1589.74054-.53928a51.81929,51.81929,0,0,0,1.63742-6.28539c.67065,1.14708,1.302,2.3196,2.02383,3.4335a3.79367,3.79367,0,0,1,.57435,3.04152,12.35232,12.35232,0,0,1-1.425,4.3399A15.445,15.445,0,0,1,223.18577,425.171Z"/><path fill="#8c4646" d="M227.17025,407.06718a.42858.42858,0,0,1,.4935-.24689A.48846.48846,0,0,1,227.17025,407.06718Z"/></svg>
