<svg xmlns="http://www.w3.org/2000/svg" viewBox="0 0 512 512"><path fill="#9797ed" d="M192.09391,310.97178a23.00692,23.00692,0,0,0-5.81509.63219,19.85463,19.85463,0,0,0-8.25622,4.80712c-4.74707,4.14776-9.12318,8.68064-13.57055,13.138-4.89379,4.90486-9.79515,9.80352-14.61257,14.78287-4.8153,4.97718-9.59211,9.99469-14.273,15.098-4.63285,5.051-8.92942,10.39148-13.11636,15.81988a293.50256,293.50256,0,0,0-18.98778,28.16553,94.05891,94.05891,0,0,0-8.10673,17.70787,44.81831,44.81831,0,0,1-2.43379,5.79889,116.73982,116.73982,0,0,0-6.95634,16.85052c-1.885,5.71332-4.23477,11.2508-6.38156,16.86494a43.72,43.72,0,0,0-1.84837,5.56586c-.26421,1.12307-.82463,1.72629-2.01039,1.64785-4.78539.31872-12.55029-3.61725-14.34164-7.26974a10.14973,10.14973,0,0,0-.84876-1.19218,3.68771,3.68771,0,0,1-.9017-3.1014,50.11265,50.11265,0,0,1,1.13575-6.18124c2.44843-11.05906,5.389-21.99688,8.23567-32.95626,1.19449-4.5987,2.5655-9.16288,4.10109-13.65915a246.95791,246.95791,0,0,1,8.99777-23.0629c1.33937-2.92562,2.57717-5.89546,3.98377-8.79435a87.32231,87.32231,0,0,1,11.26305-17.4109,120.34992,120.34992,0,0,0,15.13343-23.63968c2.62261-5.3481,4.79934-10.87769,6.992-16.4077,2.24322-5.65752,4.64547-11.2518,6.95919-16.88154,1.99467-4.85337,3.95154-9.72226,5.94495-14.57618a97.20765,97.20765,0,0,1,15.41978-25.62382c2.112-2.52421,4.26794-5.00668,6.57464-7.35608,2.25905-2.30092,4.73578-4.36123,7.14883-6.49227,1.67854-1.48238,3.385-2.936,5.00952-4.47588a23.00366,23.00366,0,0,1,4.72819-3.465q3.3089-1.82706,6.6491-3.59733a42.23389,42.23389,0,0,1,10.05061-3.57143c3.73984-.90637,7.50659-1.64974,11.3-2.26441a34.49229,34.49229,0,0,1,5.41419-.59892,20.62108,20.62108,0,0,0,4.80794-.32724,1.4095,1.4095,0,0,1,1.55188.34477c-1.00452,11.51836,3.07438,22.0446,6.79186,32.52691,2.82566,7.96759,7.85782,14.782,13.63155,20.99269a100.42981,100.42981,0,0,0,17.5412,14.58985c2.749,3.05635,4.30361,6.85789,6.40838,10.31679,4.82071,7.92222,8.25491,16.51477,11.96395,24.96989,6.90119,15.732,14.23357,31.25268,24.82878,44.9,5.71378,7.35975,10.524,15.36945,16.5477,22.48241a213.02131,213.02131,0,0,0,15.90059,16.1532c4.55078,4.34016,9.33943,8.43482,14.07664,12.57879,4.058,3.54977,8.3317,6.8309,12.46833,10.2816,4.88847,4.07793,9.5579,8.40717,14.4624,12.4673a55.82874,55.82874,0,0,0,9.48449,6.54655,6.20453,6.20453,0,0,1,2.55948,7.12751,19.32828,19.32828,0,0,1-3.22784,6.76246c-1.70493,2.214-3.72266,4.15535-5.49023,6.315-.30113.368-.6277.77269-1.20735.69255a2.69976,2.69976,0,0,1-2.11011-.72518c-1.93106-1.724-3.8925-3.41407-5.84964-5.10866-3.70626-3.20909-7.6306-6.13342-11.60749-8.99721A77.32116,77.32116,0,0,0,335.552,452.742c-5.20778-2.41849-10.23229-5.19849-15.24163-8.00425-3.4194-1.91521-6.87485-3.76727-10.3364-5.60567-4.57515-2.42983-9.1391-4.8767-13.49846-7.6843a67.8387,67.8387,0,0,1-15.28648-13.33831c-3.34328-3.96621-6.38367-8.15063-9.39815-12.36055-3.99341-5.577-8.14461-11.03457-12.5199-16.317-1.51673-1.83117-3.15863-3.55965-4.76358-5.3166-4.53488-4.96428-9.27461-9.73094-13.993-14.51892-1.07948-1.09534-2.18347-2.16508-3.26045-3.26066-4.90824-4.99334-9.8405-9.96564-14.64149-15.06106-3.45339-3.66524-6.71694-7.50739-9.95869-11.36727-3.69172-4.39568-7.29824-8.85462-10.75243-13.4373a115.25858,115.25858,0,0,1-6.51381-9.78114c-.28763-.47557-.50573-.99319-.756-1.49136,4.32-1.768,8.38236-4.08009,12.63774-5.9843a14.91107,14.91107,0,0,0,3.55962-1.90944A75.93775,75.93775,0,0,1,192.09391,310.97178Z"/><path fill="#f6c193" d="M367.77437,474.99394c1.71983-1.898,3.20488-3.99251,5.02579-5.81224a18.0865,18.0865,0,0,0,4.50641-8.55607,6.3804,6.3804,0,0,0-.33473-3.89076,3.07365,3.07365,0,0,0-1.102-1.479c-.33825-.23678-.64322-.52108-.9631-.78408-2.16852-1.8402-2.698-4.54237-3.57029-7.0211a319.96134,319.96134,0,0,0-13.46034-31.465,227.12,227.12,0,0,1-9.525-23.1049c-3.26971-9.38823-6.98416-18.62379-9.62137-28.23231a304.11773,304.11773,0,0,1-7.05481-35.20774,2.53486,2.53486,0,0,1,.11239-1.44372,6.08447,6.08447,0,0,0,1.28221-1.87773,107.48791,107.48791,0,0,0,3.4294-10.34427,18.70958,18.70958,0,0,0,.47562-4.15033,6.20491,6.20491,0,0,0-3.501-5.97788,66.71807,66.71807,0,0,0-11.51278-4.4404,43.56,43.56,0,0,1-11.47693-9.25337c-.31357-.3463-.63742-.78347-.21468-1.29677,2.39748-.39148,4.8141-.00485,7.24024-.31508,6.46661-.827,12.50865-2.46919,17.00187-7.59852a51.356,51.356,0,0,1,13.13787-10.31135c.99647-.58011,1.92679-1.42854,3.22079-1.33467.12486.75628.162,1.51676.34961,2.27455a91.80852,91.80852,0,0,0,4.20272,12.94156,93.21546,93.21546,0,0,1,4.79021,16.26469c.40474,1.91029.815,3.82445,1.09113,5.75565a24.113,24.113,0,0,1,.03453,6.49229c-.41895,3.25091-.85414,6.49766-1.23028,9.755a81.64808,81.64808,0,0,0-.28386,9.42647c-.00007,2.585.41942,5.14134.674,7.70957.29674,2.99337.8876,5.933,1.34544,8.89714a101.348,101.348,0,0,0,2.97413,13.05867c1.53438,5.22974,3.1633,10.43173,4.74352,15.64808a146.225,146.225,0,0,1,3.67525,15.04838c.58755,3.08424,1.2212,6.15988,1.78971,9.24755.41662,2.26264.76195,4.53839,1.13747,6.8086q.54627,3.30253,1.0887,6.60576c.32665,1.99585.67972,3.98807.9654,5.98979.54289,3.80395,1.38813,7.54828,2.19759,11.29872.57428,2.66071,1.26727,5.29331,1.97067,7.9255a29.256,29.256,0,0,0,7.13829,12.65221A79.135,79.135,0,0,0,400.562,464.56c1.9855,1.45052,4.27447,2.38262,6.35653,3.66829a31.273,31.273,0,0,1,5.99753,4.5533,2.42641,2.42641,0,0,1,.67739,2.31336c-.18973.91082-.55753,1.75021-1.64238,1.94041-1.9,1.30378-3.98553,1.07941-6.06921.69409-4.84332-.89553-9.04416-3.258-13.14439-5.83517-2.722-1.71086-5.26011-3.70832-8.12739-5.19434-1.0966-.56839-2.28876-1.09326-3.34272-.23042-1.07613.881-.689,2.16272-.33463,3.31735a23.37566,23.37566,0,0,0,2.2462,5.18582,8.99125,8.99125,0,0,1,.96482,1.85831c.31.9808.931,2.1286-.20085,2.86389a2.46145,2.46145,0,0,1-3.21568-.72282,19.46175,19.46175,0,0,1-4.0362-6.32572,16.97308,16.97308,0,0,1-.9673-3.40991,17.80579,17.80579,0,0,0,4.36839,9.1638,4.00356,4.00356,0,0,0,.74362.73653c1.05125.66407,2.17363,1.64661,3.40465.6299,1.22438-1.01122.66793-2.28688-.00213-3.41832a28.28563,28.28563,0,0,1-3.20272-6.81648c-.24269-.87978-.57157-1.83959.17611-2.58068.79614-.78916,1.83345-.53611,2.77841-.25063a15.741,15.741,0,0,1,4.04269,2.19442,82.67941,82.67941,0,0,0,11.89984,7.03793,31.27242,31.27242,0,0,0,7.00432,2.12362,9.50921,9.50921,0,0,0,4.907-.60825.97845.97845,0,0,0,.74786.88229,31.21445,31.21445,0,0,0,5.31012,1.17233,54.35158,54.35158,0,0,1,10.91524,2.8723c1.443.52288,2.84127,1.17947,4.22965,1.83867a14.81073,14.81073,0,0,1,1.96047,1.20891c1.76416,1.2065,1.26443,2.98544.20164,4.14309a4.16863,4.16863,0,0,1-1.02559.71872,12.86154,12.86154,0,0,1-3.708,1.42374,30.96279,30.96279,0,0,1-11.64464.54807c-1.439-.23879-2.91361-.26485-4.3717-.435a52.69882,52.69882,0,0,1-9.392-2.05128,51.02123,51.02123,0,0,0-7.96855-1.72728,13.54809,13.54809,0,0,0-1.67722-.05956,51.499,51.499,0,0,0-7.28992.65807c-1.5911.20508-3.18672.37531-4.78111.55428-2.28675.25684-4.57018.55668-6.86268.745a12.2318,12.2318,0,0,1-5.39806-.36951,5.81154,5.81154,0,0,1-2.508-1.83774,3.34242,3.34242,0,0,1-.834-2.1069,28.76625,28.76625,0,0,1,.214-5.2342A11.801,11.801,0,0,0,367.77437,474.99394Z"/><path fill="#ffadb7" d="M350.8699,271.09661a6.92776,6.92776,0,0,1-1.02664.71885c-2.41444,1.12025-4.46682,2.83108-6.781,4.12534a19.62062,19.62062,0,0,0-4.5886,3.60939c-1.544,1.6192-3.2015,3.13118-4.72641,4.76733a18.53418,18.53418,0,0,1-7.22264,4.484,45.24113,45.24113,0,0,1-7.04228,1.92953,8.39557,8.39557,0,0,1-1.46045.095,10.83268,10.83268,0,0,0-2.69327.28624,4.99054,4.99054,0,0,1-2.89886-.0444,5.82419,5.82419,0,0,0-2.27819-.18594c-1.25714.90381-2.68182.55161-4.04553.49222a160.4404,160.4404,0,0,1-27.12106-3.44041c-1.60965-.34961-3.19634.222-4.77277-.15726-1.16645-.63488-.95347-1.62222-.54791-2.54945,3.32035-7.591,2.95878-15.53856,2.37231-23.52437a135.59464,135.59464,0,0,0-4.35133-26.03767c-1.27881-4.65915-3.09585-9.14252-4.79041-13.66462-.89758-2.3952-2.61765-4.25985-3.83235-6.44322a1.36761,1.36761,0,0,1,.93036-.77508,17.65913,17.65913,0,0,1,2.4728-.39273,16.3513,16.3513,0,0,0,5.6433-1.43033c2.90356-1.18731,5.76868-2.46859,8.67241-3.65542,1.74069-.71148,3.50534-1.37571,5.29249-1.95933a16.81879,16.81879,0,0,1,7.66149-.36442c2.20395.30923,4.39715.69443,6.59753,1.03026a8.03152,8.03152,0,0,0,1.04527.02714c1.70541-.33465,3.1743.58186,4.75912.89268,7.9482,2.59494,16.12113,4.36454,24.16142,6.61759,1.83441.51407,3.88761.72528,5.10283,2.54093a18.62165,18.62165,0,0,1,5.78282,4.31875c1.288,1.38636,2.35979,2.91256,2.16982,4.96594-.6956,1.21348-1.73774.63119-2.61748.417a15.49862,15.49862,0,0,0-6.43542-.50143,6.638,6.638,0,0,0-5.46784,4.62038,41.14645,41.14645,0,0,0-1.954,8.59088c-1.07153,7.86737-.10277,15.6246,1.451,23.33463a8.84288,8.84288,0,0,0,1.78336,3.76822c2.04143,2.57039,4.0934,3.21578,7.00685,1.74728,3.26333-1.64477,6.72575-2.7926,10.01765-4.34938.79945-.37808,1.62137-.94529,2.54209-.2435a2.41771,2.41771,0,0,1,.869,1.56755c.21233,1.06628.41621,2.13453.64837,3.19652C351.32564,270.10607,350.98137,270.57263,350.8699,271.09661Z"/><path fill="#f6c193" d="M335.40153 218.08839c-3.0859-1.692-6.51117-2.38529-9.85651-3.2881-3.47838-.9387-6.9959-1.7321-10.494-2.59825a15.66544 15.66544 0 0 1-1.59657-.48085 45.20168 45.20168 0 0 0-5.59184-1.64044 3.2474 3.2474 0 0 1-1.888-.78439c-1.322-1.37466-1.32877-3.32615-2.16342-4.93285-1.47525-2.83989-2.32377-5.97783-4.0805-8.69922a.71737.71737 0 0 1-.099 1.08464 1.77815 1.77815 0 0 1-.35215-1.1794 32.702 32.702 0 0 0-.3353-3.75343c-.31549-1.9949-.24024-4.053-.57575-6.043-.45548-2.70167-.2453-5.43838-.66274-8.14295-.26492-1.71648-.03607-3.50336-.20158-5.2422-.35208-3.69844-.13728-7.4208-.46306-11.10395a43.73459 43.73459 0 0 0-.65448-6.87546 2.3066 2.3066 0 0 1-.0431-.6275c.12545-3.85324-.44427-7.67833-.45538-11.52765a53.47529 53.47529 0 0 0-1.02315-8.51683c-.57829-3.51063-1.38456-6.98956-1.81942-10.51585-.27214-2.20663-.46354-4.44044-.55253-6.68139-.21932-5.52376-.53586-11.04922-.28789-16.57146a82.138 82.138 0 0 1 .674-10.23375 2.02078 2.02078 0 0 0 .03471-.41814c-.13617-3.36493.44486-6.694.48778-10.0539a82.52745 82.52745 0 0 1 .48311-8.57892c.21349-1.81452.24164-3.62315.37614-5.43274.14471-1.94695.41847-3.88428.635-5.82591a10.13257 10.13257 0 0 0 .10467-1.04195q.03783-5.25268.05418-10.50549a12.02643 12.02643 0 0 0-.75286-3.68284c-.49066-1.53184-1.03372-3.0471-1.51265-4.58246-1.14447-3.66917-2.29674-7.33647-3.38159-11.02345a16.95878 16.95878 0 0 1-.63393-6.02013 9.32528 9.32528 0 0 1 1.24482-4.38263 7.262 7.262 0 0 1 6.11275-3.49246c1.743-.11295 3.50039.00851 5.25114-.004a26.03032 26.03032 0 0 0 6.06225-.32834 3.74442 3.74442 0 0 1 2.66523.28906 1.49883 1.49883 0 0 1 .91071 1.30338 6.93253 6.93253 0 0 1-.14512 2.29482 23.38963 23.38963 0 0 0-.7375 5.59528c-.07524 1.88025-.455 3.739-.34643 5.64193a17.927 17.927 0 0 0 .5493 3.08824 4.2903 4.2903 0 0 0 .63029 1.31906 1.50413 1.50413 0 0 0 2.332.457 3.23542 3.23542 0 0 0 1.08829-1.2545c.25066-.50091.5052-1.00007.76885-1.49422a3.83883 3.83883 0 0 1 1.93648-1.84947 9.21368 9.21368 0 0 1 3.88558-.67014 14.02857 14.02857 0 0 1 2.06269.35693 2.08436 2.08436 0 0 1 .57891.23116c1.19165.65636 1.35037 1.63349.33632 2.50375a12.24216 12.24216 0 0 1-2.07745 1.41391 10.01152 10.01152 0 0 0-4.92212 6.02137 24.75715 24.75715 0 0 1-2.94239 5.98454 29.456 29.456 0 0 0-4.76385 13.06984 59.64078 59.64078 0 0 0-.286 7.95207c.07979 2.08673.4087 4.164.63034 6.24514.037.34708.1106.691.13428 1.03863.18055 2.64733.40558 5.28986.80263 7.9152a2.20662 2.20662 0 0 1 .024.41913 55.49929 55.49929 0 0 0 .58943 8.15006c.26428 2.49985.22539 5.01549.61471 7.51481.407 2.61223.32609 5.29683.54664 7.94243.559 6.70681.2317 13.43189.47824 20.14193.14845 4.04066.49635 8.09442 2.36484 11.82973.59215 1.18376 1.00343 2.45822 1.4936 3.6927a42.84647 42.84647 0 0 1 1.95687 8.1314c.96633 5.21186 1.52232 10.497 2.86956 15.64222a38.898 38.898 0 0 0 2.16885 6.11973c1.32072 2.935 2.75294 5.81959 4.09664 8.7445a114.10348 114.10348 0 0 1 5.372 13.20752 77.30457 77.30457 0 0 1 2.62664 11.20949 32.06646 32.06646 0 0 1 .44907 7.73194c-.1187 1.38753-.32755 2.77117-.57664 4.14186A7.61511 7.61511 0 0 0 335.40153 218.08839zM263.06251 215.5571a9.28524 9.28524 0 0 1 3.20565 3.77545 55.57239 55.57239 0 0 1 2.79126 6.76161c.80936 2.448 1.74205 4.85522 2.54651 7.30473a55.96652 55.96652 0 0 1 2.49924 10.10963c.364 2.747 1.04973 5.44991 1.51551 8.18553.25605 1.504.21267 3.06738.55371 4.54647.53665 2.32737.0932 4.738.745 7.04157a3.93249 3.93249 0 0 1 .05146 1.0435c.00413 2.93585.06978 5.87375-.02132 8.80676-.05154 1.6588-.35736 3.31021-.56077 4.96345a10.94173 10.94173 0 0 0-.22768 1.43531 8.13827 8.13827 0 0 1-.90717 3.40795c-.47677 1.08462-.92646 2.18163-1.42617 3.25545-.21754.46734.00593.80335.198 1.17166a3.53671 3.53671 0 0 1-2.52023 1.29781c-6.43091 1.495-12.85655 2.99652-19.13435 5.07684-1.0828.35879-2.27406.77326-3.4407.1108-2.59052-1.661-5.16522-3.35034-7.58-5.25878a92.3557 92.3557 0 0 1-12.84308-12.3337 75.26743 75.26743 0 0 1-9.77817-14.86107 43.89872 43.89872 0 0 1-3.08716-7.79119c-1.22612-4.22545-2.60745-8.40782-3.55806-12.712-.64729-2.931-1.39187-5.84592-1.76919-8.82487a11.5548 11.5548 0 0 1 .71928-6.7798q3.52618-.37769 7.05186-.75515c.2776-.02963.55592-.06759.83437-.07147 2.51525-.03489 4.97915-.55338 7.46924-.788a72.963 72.963 0 0 0 12.88195-2.58693c5.03159-1.41273 10.16407-2.391 15.23117-3.64946C257.337 216.73528 260.208 216.17957 263.06251 215.5571zM349.68041 264.75719a2.91633 2.91633 0 0 0-1.60247.392c-2.27447 1.23395-4.73975 2.02014-7.11353 3.02156-.831.35059-1.61844.80638-2.419 1.22707a8.73969 8.73969 0 0 1-4.97389 1.27369 3.571 3.571 0 0 1-1.93384-.70679A10.18873 10.18873 0 0 1 327.88 264.5596a39.86849 39.86849 0 0 1-1.33589-8.41846c-.08807-2.00182-.50505-3.98694-.68871-5.98745a18.97775 18.97775 0 0 1 .1068-5.62327 7.839 7.839 0 0 0 .18214-1.44434 38.0361 38.0361 0 0 1 2.09223-11.229 9.40057 9.40057 0 0 1 1.43474-2.76848c1.44721-1.919 3.57943-2.28545 5.73271-2.549a12.15439 12.15439 0 0 1 4.75229.50038c.66895.18661 1.34917.33848 2.00652.5591a1.60535 1.60535 0 0 0 1.19152-.22611c1.03318 2.00372 1.31591 2.50581 4.047 1.73707.93136-.26218 1.73256-.81028 2.67608-.99819.79673.6012.86384 1.56868 1.18564 2.402a10.32158 10.32158 0 0 0 1.24755 2.65089c.3728.48888.74742 1.15339 1.47786.96535.67685-.17421.56077-.89355.6091-1.42784.37724-4.17052.8217-8.33306 1.42251-12.47795a5.43 5.43 0 0 1 .69532-2.17914c.95771-1.78346 1.99536-3.52384 2.98716-5.28926a3.92119 3.92119 0 0 1 1.85274-1.64382c3.05707-1.40642 6.16121-2.67916 9.61021-2.62918a3.90037 3.90037 0 0 0 3.43416-1.64934c.36469-.49745.58688-1.16438 1.29246-1.29647a3.81586 3.81586 0 0 1 2.65281.31642 30.587 30.587 0 0 1 2.89045 1.69251 5.40492 5.40492 0 0 0 3.55372.97087c1.11741-.04864 2.24094-.05429 3.35768.002a43.43011 43.43011 0 0 1 5.62976.42349 11.99728 11.99728 0 0 1 7.61257 4.42449c.85425 1.1045 1.67412 2.23576 2.50115 3.36109a13.448 13.448 0 0 1 2.20689 4.02414 6.3141 6.3141 0 0 0 .58622 1.10491c.89114 2.10267-.30287 3.513-1.71624 4.72a44.22332 44.22332 0 0 1-7.12358 5.15394 22.67915 22.67915 0 0 0-10.81207 12.80729c-1.05191 3.01638-3.44765 4.84488-6.29579 6.097a38.68766 38.68766 0 0 1-8.79013 2.73567c-5.57915.99029-10.28906 3.83774-15.03487 6.66063-1.671.994-3.0848 2.40592-4.96861 3.05091A3.58319 3.58319 0 0 0 349.68041 264.75719z"/><path fill="#8c4646" d="M352.1421,263.08235a2.69888,2.69888,0,0,1,1.022-1.02831c1.55976-1.06209,3.07072-2.20918,4.69825-3.15537,2.53488-1.47363,5.13731-2.83334,7.73624-4.19335a19.7182,19.7182,0,0,1,4.19808-1.28092c2.69773-.71654,5.40911-1.38546,8.09-2.16018a20.18461,20.18461,0,0,0,4.603-1.994,9.97046,9.97046,0,0,0,4.127-4.60374c.69532-1.526,1.42451-3.03654,2.11716-4.56371a15.39988,15.39988,0,0,1,5.67484-6.56913q4.01731-2.66568,7.97021-5.428a30.329,30.329,0,0,0,2.788-2.21647,3.76413,3.76413,0,0,0,1.52689-3.6804c-.01991-.10089.12255-.23378.18958-.35176q.16209.06257.32337.12675a.8141.8141,0,0,1,.45094.35562,30.59372,30.59372,0,0,1,7.37866,10.96986,5.85755,5.85755,0,0,1,.17168.79832c-.91369,8.51135-1.20276,16.98684,1.13513,25.36236.58114,2.08194,1.74662,3.97853,1.90967,6.18406a19.41563,19.41563,0,0,1-2.472,4.59068,46.44527,46.44527,0,0,1-10.03037,11.48374c-.82115.65112-1.603,1.35514-2.37151,2.06872a14.97979,14.97979,0,0,1-6.87905,3.385,2.54949,2.54949,0,0,1-1.23783.00741c-.61087-.14586-1.23341-.24191-1.84689-.3777a20.45259,20.45259,0,0,0-4.97944-.61294,16.01158,16.01158,0,0,1-9.50093-2.7925,18.00925,18.00925,0,0,0-6.72525-2.78911c-.47932-.09059-.94727-.24087-1.421-.36152a12.8726,12.8726,0,0,1-6.44656-3.721c-2.37749-2.57031-4.93785-4.94835-7.509-7.321A20.454,20.454,0,0,1,352.1421,263.08235Z"/><path fill="#f6c193" d="M61.38356,460.58161c.99979.86956,1.96749,1.77971,3.0055,2.60094a23.55345,23.55345,0,0,0,9.74841,4.16085,6.02965,6.02965,0,0,1,1.58728.50764,17.92122,17.92122,0,0,1,.10234,6.03368c-.42886,3.10581-1.202,6.2249-.90172,9.35554.26,2.71089.14316,5.43969.593,8.14115a15.63528,15.63528,0,0,1-.39155,6.24219,5.27438,5.27438,0,0,1-.9829,2.06919,8.78394,8.78394,0,0,1-5.83937,3.37892,14.50019,14.50019,0,0,0-2.28084.29917,4.0936,4.0936,0,0,1-2.66217-.36823,10.00485,10.00485,0,0,0-4.92519-.71559,6.34972,6.34972,0,0,1-3.82023-.86972,16.35272,16.35272,0,0,1-3.28412-2.2346,6.8467,6.8467,0,0,1-2.19189-4.83411,16.29307,16.29307,0,0,1,.52976-5.40193,36.27506,36.27506,0,0,1,4.146-10.045,22.08189,22.08189,0,0,0,2.88073-6.71807,37.63969,37.63969,0,0,1,3.37125-9.00465C60.52956,462.32566,60.94625,461.4481,61.38356,460.58161Z"/><path fill="#8c4646" d="M416.17241,237.73177a6.28952,6.28952,0,0,0,1.92715-2.68781,60.37026,60.37026,0,0,0,2.61453-6.17447,21.93266,21.93266,0,0,1,1.2575-2.8752,2.69783,2.69783,0,0,1,3.33675-1.51963,12.0464,12.0464,0,0,1,5.61039,2.68478,8.27856,8.27856,0,0,1,2.703,4.63344,36.58563,36.58563,0,0,0,4.23658,10.67025c.74719,1.34285,1.43723,2.71926,2.10926,4.10179a15.45055,15.45055,0,0,1,1.21691,9.82132,35.61408,35.61408,0,0,0-.75242,6.23537,4.72457,4.72457,0,0,1-2.31044,4.20992,27.62439,27.62439,0,0,0-4.21821,3.44462,3.50249,3.50249,0,0,1-4.92143.41259,29.5166,29.5166,0,0,1-4.637-3.9237c-.8845-.896-1.75124-1.81016-2.65549-2.68565a2.57518,2.57518,0,0,0-1.76477-1.01751,81.94514,81.94514,0,0,1-3.97042-18.19991,30.8412,30.8412,0,0,1-.44179-4.59245C415.55123,239.38205,415.35513,238.4215,416.17241,237.73177Z"/><path fill="#6a3333" d="M416.17241,237.73177a16.168,16.168,0,0,0,.29682,5.39382,2.09287,2.09287,0,0,1,.04333.83165,19.66724,19.66724,0,0,0,.56595,4.95752,94.498,94.498,0,0,0,2.38542,10.75712c.19846.73737.40528,1.475.66223,2.19317.16567.463-.09061.8071-.2019,1.19706q-.83511,1.29549-1.6714,2.59163c-.94721-.7522-1.06294-1.9471-1.44828-2.9552a48.8128,48.8128,0,0,1-2.437-9.87511c-.55071-3.4784-.24553-6.94608-.36513-10.41628-.03843-1.11432-.05487-2.23478.01752-3.346.07183-1.10268.27645-2.19627.40664-3.2958a2.508,2.508,0,0,1,.78134-1.65785A12.63566,12.63566,0,0,1,416.17241,237.73177Z"/><path fill="#eaad79" d="M411.84387,477.44829a3.731,3.731,0,0,1-2.75084,1.26643,11.47833,11.47833,0,0,1-4.34058-.547,36.7554,36.7554,0,0,1-7.75874-3.07728c-3.27869-1.74549-6.30905-3.866-9.42964-5.85211a29.72774,29.72774,0,0,0-2.66794-1.652,4.8639,4.8639,0,0,0-2.825-.63278.84085.84085,0,0,0-.83057.98634,4.62707,4.62707,0,0,0,.16736,1.026,25.30472,25.30472,0,0,0,2.70484,6.118c.47021.77551.85063,1.60588,1.32779,2.37672a1.49076,1.49076,0,0,1-.076,1.75893,8.66142,8.66142,0,0,1-.79643.968,1.70805,1.70805,0,0,1-2.09363.41205,9.05842,9.05842,0,0,1-3.99782-3.295,17.0147,17.0147,0,0,1-3.14529-7.4509c-.093-.62042-.50712-1.17038-.37052-1.83179.04349-.21057.10631-.41995.365-.41482a.46788.46788,0,0,1,.34984.15336,4.07138,4.07138,0,0,1,.44389.94077c.33442,1.20809.594,2.4382.96345,3.63479a8.24084,8.24084,0,0,0,.87667,1.89885c.81138,1.30373,1.683,2.57041,2.54317,3.8433a3.20979,3.20979,0,0,0,2.43665,1.4534c.898.09158,1.38867-.40226,1.13683-1.24052a9.665,9.665,0,0,0-1.12233-2.6953,23.24336,23.24336,0,0,1-2.80076-6.50617,3.90668,3.90668,0,0,1,.42383-2.81217c.30087-.70215,2.00556-1.13955,2.8122-.75012,1.19472.57685,2.3877,1.17274,3.51778,1.86447,1.607.98367,3.21058,1.989,4.71859,3.115a48.56525,48.56525,0,0,0,9.32468,5.20168,18.988,18.988,0,0,0,8.11482,1.76447c1.002-.01539,1.88884-.54592,2.88565-.43755Q411.8976,477.24189,411.84387,477.44829Z"/><path fill="#7287cc" d="M192.09391,310.97178a4.46108,4.46108,0,0,1,2.54441-.76992,73.00891,73.00891,0,0,0,11.25948-2.04012c1.77273-.41975,3.45042-1.10491,5.194-1.59387.2-.05611.42285-.08253.562.131a.70582.70582,0,0,1,.004.78062,1.70278,1.70278,0,0,1-.80253.64191c-.75058.37375-1.47335.81605-2.25,1.12254-3.51635,1.3873-6.793,3.26842-10.19222,4.89616a7.65474,7.65474,0,0,1-3.78162,1.0575c-.52659-.88459-1.05888-1.76593-1.5778-2.655A5.71283,5.71283,0,0,0,192.09391,310.97178Z"/><path fill="#e8b385" d="M356.02009,220.22428c.71471.78968.45074,1.73122.28991,2.58547a30.68445,30.68445,0,0,0-.7356,6.60178,2.73675,2.73675,0,0,1-.04548,1.039,10.66857,10.66857,0,0,0-.383,3.51383,1.07965,1.07965,0,0,1-1.76883.8994,4.34922,4.34922,0,0,1-1.67648-1.81929,16.35476,16.35476,0,0,1-1.623-4.93216c.45358-.31444.89693-.64486,1.363-.93937a8.99288,8.99288,0,0,0,3.83478-5.012C355.48793,221.50382,355.76989,220.86919,356.02009,220.22428Z"/><path fill="#e8b386" d="M299.63172,196.74893a3.22837,3.22837,0,0,1,.048-.41271c.0472-.195.06082-.45784.19138-.55805.16949-.13.36972.04483.48973.209a16.48636,16.48636,0,0,1,2.01682,3.6218c.76867,1.92778,1.51953,3.85807,2.44248,5.72172a17.71052,17.71052,0,0,1,1.15455,3.96559,17.49733,17.49733,0,0,1-4.5966-1.25911c-.33953-1.62887-.71515-3.2513-1.00976-4.88834A31.92047,31.92047,0,0,1,299.63172,196.74893Z"/><path fill="#f6c193" d="M407.65762,222.33934a.44165.44165,0,0,1-.451-.35572A.44165.44165,0,0,1,407.65762,222.33934Z"/><path fill="#e8b385" d="M332.09016,327.819c-.48244-3.17846-.74121-6.37662-.965-9.58328a35.5417,35.5417,0,0,0-.8711-5.578,17.33773,17.33773,0,0,0-4.76928-8.48527c-1.14219-1.13318-2.33122-2.21918-3.49882-3.32681a.59648.59648,0,0,1,.73954-.17665c2.33825.88351,4.66577,1.79712,7.01887,2.63921a23.23959,23.23959,0,0,1,5.01817,2.51772,6.18311,6.18311,0,0,1,2.76,5.08067,18.99145,18.99145,0,0,1-1.06572,7.167c-.89927,2.84691-1.94994,5.64628-2.95593,8.45881a5.8472,5.8472,0,0,1-.6668,1.29732C332.64182,328.113,332.34034,327.906,332.09016,327.819Z"/></svg>
