<svg xmlns="http://www.w3.org/2000/svg" viewBox="0 0 512 512"><path fill="#9797ed" d="M269.05481,286.377a35.66037,35.66037,0,0,0,3.41887-7.71691,27.07515,27.07515,0,0,0,.92046-4.76057c.36154-3.64078.73582-7.28334,1.24457-10.90553a32.06911,32.06911,0,0,1,2.28075-8.33263,35.70664,35.70664,0,0,1,12.07045-15.21429,32.06648,32.06648,0,0,1,9.58015-4.83169c2.36209-.7,4.67378-1.563,7.082-2.1221,1.02549-.238,2.00983-.651,3.01671-.97243a11.79492,11.79492,0,0,0,4.30093-2.61513,30.94,30.94,0,0,0,6.33719-8.14595c4.09321-7.4053,8.13559-14.83869,12.22107-22.24827,3.94921-7.16241,7.94429-14.29954,11.88375-21.46726,1.766-3.21314,3.46366-6.46436,5.15894-9.71573a34.79526,34.79526,0,0,0,3.35189-9.98748,19.004,19.004,0,0,0,.334-7.35092,7.34636,7.34636,0,0,1-.05728-1.47774c-.01219-2.8929.02453-5.78678-.03894-8.67849a83.42041,83.42041,0,0,1,.48776-8.65141,74.01319,74.01319,0,0,1,1.661-9.9907,127.81056,127.81056,0,0,1,8.75824-25.318,174.42366,174.42366,0,0,1,10.67422-19.93845c1.04446-1.67406,2.18151-3.29161,3.3111-4.91065a19.69147,19.69147,0,0,1,1.47749-1.79091,3.27305,3.27305,0,0,1,2.80408-1.21072,2.18788,2.18788,0,0,1,1.24982-.01243,68.62638,68.62638,0,0,1,15.09137,6.99077c.63968.38688,1.29153.91938,1.07823,1.87066a6.70918,6.70918,0,0,1-1.29742,3.73992A40.03077,40.03077,0,0,0,392.434,90.82339c-3.63881,10.29406-7.227,20.60729-10.33732,31.076-1.1218,3.77568-2.20947,7.567-3.03262,11.42578a29.6098,29.6098,0,0,0-.37943,10.91105c.45164,2.84838.91139,5.69709,1.275,8.55742a50.77551,50.77551,0,0,1,.46192,10.3318,61.30512,61.30512,0,0,1-3.45782,16.69371c-1.59247,4.29242-3.1058,8.61708-4.94552,12.81422-1.30117,2.96852-2.58241,5.94668-3.94057,8.88912-4.04651,8.76669-7.85378,17.63109-11.327,26.64382-2.53277,6.5722-5.01835,13.16546-7.89524,19.60324-1.93066,4.32033-4.22517,8.44394-6.491,12.58535-1.319,2.41081-2.72246,4.77533-4.08287,7.16352a3.76792,3.76792,0,0,0-.63,1.55435,16.06743,16.06743,0,0,1-2.6586,4.28314c-5.81278,7.67708-11.4095,15.49563-18.22094,22.40867-4.7752,4.84642-9.72829,9.54913-14.17805,14.71967a1.14179,1.14179,0,0,0-.8206.4421c-1.13816.89836-1.89032.01633-2.50012-.686-8.12479-9.35775-18.57726-15.67714-28.87232-22.20564C269.77347,287.63682,268.91468,287.40675,269.05481,286.377Z"/><path fill="#7286cc" d="M302.594,310.48427a9.73921,9.73921,0,0,1,2.53209-3.53466c2.82153-2.84641,5.77518-5.57154,8.46232-8.53868,2.54683-2.8122,5.31033-5.415,7.81765-8.24869,2.45334-2.77273,4.66225-5.76517,6.92314-8.70375,1.91978-2.49522,3.7687-5.04525,5.63277-7.5829.82915-1.12874,1.64555-2.26892,2.414-3.43922a3.73239,3.73239,0,0,1,1.27576-1.36353,69.36726,69.36726,0,0,1,3.53058,8.14063c1.88931,4.86219,3.63137,9.78217,5.71684,14.56737.73223,1.68013,1.4044,3.38977,2.20943,5.03429a170.82912,170.82912,0,0,1,9.78959,24.98369,203.338,203.338,0,0,0,10.16578,26.42941c1.28443,2.74643,2.67308,5.44452,4.03659,8.15345a53.72168,53.72168,0,0,0,13.46293,16.95109,84.79511,84.79511,0,0,1,18.63029,22.56482c2.47431,4.28341,4.53374,8.77044,6.69284,13.20826q2.453,5.04176,5.00486,10.03139a141.87355,141.87355,0,0,1,7.17729,16.01294c1.56763,4.31454,3.461,8.4826,5.37826,12.64554.70664,1.53439,1.27491,3.1319,1.93581,4.68816a3.27451,3.27451,0,0,1,.03122,2.47012c-.084,1.02349-.92079,1.35244-1.66325,1.68636a49.298,49.298,0,0,1-12.05355,3.4412c-1.3677.2326-2.8411.24-3.6881-1.27956a21.56185,21.56185,0,0,1-2.97709-4.83284,134.218,134.218,0,0,0-7.094-12.98255c-2.5476-4.14237-5.07683-8.29916-7.74939-12.36058-2.71138-4.1204-5.58566-8.13371-8.39336-12.19058-2.12595-3.07186-4.2893-6.11831-6.38263-9.21219a123.75856,123.75856,0,0,0-10.28606-13.41272,55.59116,55.59116,0,0,0-10.07161-8.99577c-2.09871-1.42569-4.19416-2.8574-6.323-4.23725a31.48755,31.48755,0,0,1-11.0837-11.96314c-.42359-.81216-.92343-1.58649-1.31678-2.41225a74.02409,74.02409,0,0,0-8.60542-13.28122q-9.11463-11.7954-18.12867-23.66846c-3.548-4.65606-6.80292-9.5184-10.00969-14.41347C304.62265,313.36587,303.59365,311.93467,302.594,310.48427Z"/><path fill="#ffadb7" d="M204.70711,375.32353a13.57672,13.57672,0,0,1,2.73159-2.91793q3.41-2.99206,6.92981-5.85842c3.16276-2.57593,6.365-5.10369,9.56381-7.63493,1.489-1.17828,2.99187-2.34092,4.52208-3.46483a17.24367,17.24367,0,0,0,3.55262-3.57771,72.2848,72.2848,0,0,0,6.39889-10.42346c3.88738-7.50443,7.25048-15.24749,10.426-23.07721,2.06235-5.085,4.21528-10.1334,6.52971-15.11194a55.12693,55.12693,0,0,1,3.04651-6.02272,4.25163,4.25163,0,0,1,1.89076-1.91278c.75389-.64229,1.45211-.1696,2.16694.10014a37.931,37.931,0,0,1,8.21881,4.32851c6.79283,4.70345,14.17327,8.45776,21.02546,13.0658a29.756,29.756,0,0,1,5.85791,5.46943,8.81741,8.81741,0,0,1,2.33358,5.33091,89.77775,89.77775,0,0,1,3.00115,12.50653,11.50033,11.50033,0,0,1,.10405,1.68721,17.38882,17.38882,0,0,0,.27228,3.15461,5.49626,5.49626,0,0,1,.06164,1.68479,39.01328,39.01328,0,0,1-4.98684,15.9982,94.28624,94.28624,0,0,1-8.4333,12.13349c-2.65535,3.37755-5.28069,6.78148-8.032,10.07969-1.487,1.78253-3.20594,3.37215-4.82766,5.04155a42.33645,42.33645,0,0,1-8.09515,6.75779c-3.845,2.36457-7.67229,4.789-11.97037,6.24542a66.71666,66.71666,0,0,1-12.88384,3.18909c-2.29373.29533-4.5389.95524-6.81443,1.408a41.37848,41.37848,0,0,1-7.72448,1.04231,9.7581,9.7581,0,0,0-2.26153.46887c-5.93728,1.21522-11.83718,1.46232-17.6466-.67547a2.3467,2.3467,0,0,1-1.13073-.86913c-.22707-.73166.19585-1.0611.79578-1.28171a4.31217,4.31217,0,0,1,1.62749.25124c13.18732,2.5215,25.14948.39219,35.32431-9.02211,4.44749-4.11508,5.06639-9.23034,4.335-14.74676-1.1804-8.90315-6.09139-15.46219-13.3098-20.4373-3.75514-2.58812-6.78061-2.38809-10.40691.44856-6.162,4.82012-12.20846,9.784-18.27083,14.72715a20.45845,20.45845,0,0,0-1.64045,1.425C206.2857,375.26223,205.637,375.95478,204.70711,375.32353Z"/><path fill="#f6c193" d="M209.41953 402.42485a1.506 1.506 0 0 0-.8645.84987c-6.59719 7.217-12.0499 15.4504-19.38676 22.00366-4.41307 3.94166-8.819 7.88177-12.99243 12.08156a13.32243 13.32243 0 0 1-4.00873 2.71544 2.41883 2.41883 0 0 0-1.56.52666 81.36908 81.36908 0 0 0-11.51345 10.2511c-.81374.87514-1.5404 1.83413-2.2744 2.77989a35.06918 35.06918 0 0 1-10.744 9.07873c-2.64239 1.48266-5.23154 3.05979-7.85981 4.568-3.11725 1.78881-6.24936 3.55167-9.3778 5.32094-5.34133 3.02081-10.76948 5.87767-16.30867 8.5179-2.98956 1.425-6.01839 2.76739-9.02493 4.15695-.83208.38462-1.64035.82077-2.4725 1.20523a9.08568 9.08568 0 0 0-4.0857 3.54944 7.95092 7.95092 0 0 1-4.32055 3.5527 19.846 19.846 0 0 1-3.28981.70758c-2.91849.4346-5.8411.84708-8.76969 1.20632-1.88425.231-3.78364.33582-5.67322.527-2.09748.21218-4.19159.45781-6.28692.69108-.13969.01551-.27646.06286-.41611.07216A105.22719 105.22719 0 0 1 53.619 497.203a28.634 28.634 0 0 1-8.684-1.60789 8.71979 8.71979 0 0 1-3.24984-1.91767 2.6017 2.6017 0 0 1 .52934-4.28084 12.636 12.636 0 0 1 4.82671-1.41965c2.77856-.42214 5.55671-.86362 8.34867-1.17437 1.53671-.17109 3.07816-.386 4.6159-.46495a44.93719 44.93719 0 0 0 4.60311-.60326c3.74818-.58223 7.48159-1.27455 11.20131-2.02048a62.03881 62.03881 0 0 0 9.20176-2.31624 18.01535 18.01535 0 0 0 4.14669-2.07444q2.95086-2.05 5.91138-4.08592c.36291-.33836.31976-.90911.704-1.23693a93.12106 93.12106 0 0 0 10.42946-7.84739c.61958-.51994 1.39133-.99683 1.54551-1.925a8.40158 8.40158 0 0 0 3.29349-2.12633c1.95245-1.82427 4.00672-3.53947 6.01615-5.30284 1.26951-1.11406 2.52151-2.24838 3.78934-3.36393q7.69295-6.769 15.953-12.822c2.43829-1.78721 5.02681-3.371 7.5662-5.01762a4.43779 4.43779 0 0 0 1.59912-1.33736c3.38635-2.3807 6.93455-4.52378 10.14039-7.17171a15.455 15.455 0 0 0 5.17285-6.70455c1.40736-3.87172 4.06588-7.06407 6.79614-10.10345 5.224-5.81552 10.34364-11.68249 14.08524-18.62864 1.63577-3.03676 3.98408-5.61731 5.98384-8.42287a2.58449 2.58449 0 0 1 1.26722-1.06945 11.46729 11.46729 0 0 1 7.2631-3.86348 21.30413 21.30413 0 0 0 8.03235-2.97026 6.00156 6.00156 0 0 0 2.17839-.83941c3.581-2.51737 7.81759-3.04392 11.93859-3.89359 2.82253-.58194 5.69519-.86553 8.55326-1.22276a14.78871 14.78871 0 0 1 8.23416 1.3113c3.79548 1.77075 5.99224 7.03466 4.02237 10.90766a20.63829 20.63829 0 0 1-7.84158 8.57608c-5.41325 3.31407-11.13245 6.0392-16.73074 8.99637C213.136 400.17658 211.51705 401.71345 209.41953 402.42485zM398.75368 76.87206a4.16257 4.16257 0 0 0-1.92079-1.87318c-1.80685-.93225-3.58893-1.91234-5.38885-2.85816a89.0429 89.0429 0 0 0-9.3545-3.77686c-.2572-.1-.50381-.22718-.75531-.34126.37242-.5958.70021-1.226 1.12448-1.78277a37.70011 37.70011 0 0 0 5.80383-11.19245c1.03433-3.14332 1.941-6.31962 2.805-9.51181a51.95341 51.95341 0 0 1 4.27911-11.22473 12.868 12.868 0 0 1 4.27068-4.86359 6.65324 6.65324 0 0 1 6.2678-.48125 12.47517 12.47517 0 0 1 5.21779 3.85811 46.49328 46.49328 0 0 0 11.371 9.6764c3.53207 2.19123 6.99023 4.48428 10.33612 6.94784a28.07645 28.07645 0 0 1 8.13536 9.83725 23.9539 23.9539 0 0 1 2.7557 6.60583 12.293 12.293 0 0 1 .3091 2.29183c-.0017 1.76227.03551 3.52626-.03163 5.28617-.04084 1.07018-.81726 1.433-1.77852.95428a5.74055 5.74055 0 0 1-1.887-1.66256 35.19265 35.19265 0 0 0-11.604-9.65285 18.9998 18.9998 0 0 0-11.69661-1.70424 16.78443 16.78443 0 0 0-5.95185 2.00933 16.50423 16.50423 0 0 0-4.52053 3.76845 93.07367 93.07367 0 0 0-6.89221 8.80484A5.81146 5.81146 0 0 1 398.75368 76.87206z"/><path fill="#8c4646" d="M189.412,382.1573c-.95586,1.388-1.83824,2.83425-2.883,4.15178a73.85185,73.85185,0,0,0-5.70024,8.612,74.13736,74.13736,0,0,1-8.73184,11.61954c-2.28872,2.57463-4.663,5.07494-6.69547,7.87189a32.509,32.509,0,0,0-4.72431,8.67194,3.9318,3.9318,0,0,1-1.13364,1.73547,84.85388,84.85388,0,0,1-11.46244,8.60391,3.41817,3.41817,0,0,1-2.11511.83308,4.14872,4.14872,0,0,0-.4904-.65961,25.83708,25.83708,0,0,1-7.81337-13.38976,56.94354,56.94354,0,0,1-1.50864-8.4504,43.70706,43.70706,0,0,0,11.46313-9.771,22.1092,22.1092,0,0,0,4.94568-13.37022c.06708-1.51718.623-3.068-.25585-4.53392-.02327-.101-.04493-.20238-.06657-.30377a34.97994,34.97994,0,0,1,20.67437-5.9778,37.012,37.012,0,0,1,11.74862,2.11636A34.76313,34.76313,0,0,1,189.412,382.1573Z"/><path fill="#f6c193" d="M414.00909,458.802a6.22262,6.22262,0,0,0,4.84428.51456,62.37161,62.37161,0,0,0,10.22722-2.995,9.22893,9.22893,0,0,0,2.33314-1.3678,46.1591,46.1591,0,0,1,6.1324,10.07153c.67506,1.47035,1.23269,2.99414,1.86919,4.48279a16.65864,16.65864,0,0,1,1.1753,8.48829,6.07647,6.07647,0,0,1-3.95246,5.09893,11.65285,11.65285,0,0,1-6.61006.84677,4.99887,4.99887,0,0,0-1.04159-.15362c-3.17748.10338-6.322-.39-9.48408-.55633a71.06041,71.06041,0,0,0-7.58422-.30166c-2.03495.11041-4.0754.24568-6.09133.5277a19.81071,19.81071,0,0,1-2.93721.25146,77.52044,77.52044,0,0,1-8.65111-.29747c-2.08788-.25327-4.2298-.02021-6.34-.13945-3.36717-.19027-6.74071-.351-10.082-.85344a11.37891,11.37891,0,0,1-1.84659-.439,2.53167,2.53167,0,0,1-1.03673-4.36256,5.66786,5.66786,0,0,1,2.98314-1.49c1.65115-.32982,3.31325-.62817,4.98379-.83312a63.09611,63.09611,0,0,0,10.16-1.78731,40.79379,40.79379,0,0,0,12.63363-5.74158,51.64082,51.64082,0,0,0,7.06428-6.34546A4.30125,4.30125,0,0,0,414.00909,458.802Z"/><path fill="#8c4646" d="M136.09368,411.4414a1.01523,1.01523,0,0,0-1.23468-.5317,21.2567,21.2567,0,0,1-4.17388.62159,15.6337,15.6337,0,0,1-7.84631-1.22144,9.15857,9.15857,0,0,1-2.68861-1.658c-4.00671-3.65737-5.44758-8.2453-4.82-13.54936a7.0507,7.0507,0,0,1,2.49707-4.52686c.89795-.79123,1.83726-1.53912,2.792-2.26155a18.06743,18.06743,0,0,0,5.1321-6.096c.55685-1.05978,1.061-2.14753,1.628-3.20163a29.71067,29.71067,0,0,1,1.7901-3.11057,11.92764,11.92764,0,0,1,11.92669-5.20316,9.11734,9.11734,0,0,1,4.7098,2.23907,18.029,18.029,0,0,1,5.74344,8.93132c.19507.63766-.01735,1.44908.6905,1.90521l.07416.12454a27.80512,27.80512,0,0,0-.64619,5.41457c-.17182,5.16494-2.59033,9.30681-5.74567,13.05521-2.662,3.16229-5.51543,6.2144-9.49921,7.83155C135.78207,410.46432,136.7713,411.179,136.09368,411.4414Z"/><path fill="#f6c193" d="M209.41638 403.71245c.6081.16908 1.22232.31908 1.82308.5111a13.35385 13.35385 0 0 0 4.11921.77495c1.18776-.0024 2.32146.57755 3.54453.39772a11.21227 11.21227 0 0 0 1.26274-.05324c2.36075-.64254 4.75931-.30354 7.14429-.32915a29.17772 29.17772 0 0 1-5.31617 3.40538c-3.2957 1.899-6.72921 3.56767-9.83549 5.78283-1.6042 1.144-3.19946 2.31389-4.69632 3.59206a13.89675 13.89675 0 0 0-4.90484 9.72738c-.19409 2.11047-.29636 4.21189-.32926 6.3221a8.99588 8.99588 0 0 1-.80314 3.25843 3.80069 3.80069 0 0 1-2.55965 2.34374 7.86773 7.86773 0 0 1-3.71792.40783 21.28112 21.28112 0 0 1-3.69557-.82987 3.17539 3.17539 0 0 0-.82355-.17057 1.52982 1.52982 0 0 0-1.662.6427 1.99923 1.99923 0 0 1-2.54534.92224c-.47176-.14809-.93734-.39212-1.423-.12173a2.81912 2.81912 0 0 0-1.34784 1.57006 6.48506 6.48506 0 0 1-1.36333 2.35945 3.25067 3.25067 0 0 1-4.01063.84145 7.45635 7.45635 0 0 1-2.03678-1.48942c-1.06144-1.02639-2.14925-2.0256-3.226-3.03617.332-.93475 1.2002-1.37038 1.9017-1.91441A200.0837 200.0837 0 0 0 190.257 424.78464a152.9848 152.9848 0 0 0 16.4189-18.9679C207.39815 404.85421 208.07647 403.85927 209.41638 403.71245zM299.90162 323.61639c-.43961-.95118-.8471-1.91893-1.32691-2.84939a15.83424 15.83424 0 0 0-2.31665-3.24173 39.45074 39.45074 0 0 0-9.49564-7.26429c-5.04605-3.04072-10.18343-5.92847-15.06976-9.23492a41.03421 41.03421 0 0 0-6.12773-3.68316c-1.40935-.63068-2.81289-1.27527-4.23489-1.87608a4.00455 4.00455 0 0 0-1.03153-.1453 4.94287 4.94287 0 0 1 .46145-.68878c2.67414-2.84291 5.41558-5.61869 8.2951-8.25546a2.52644 2.52644 0 0 0 1.28642 1.03632 111.55678 111.55678 0 0 1 10.98167 7.06575c3.34056 2.33764 6.64283 4.72534 9.84807 7.23922a43.30573 43.30573 0 0 1 6.87311 6.19776c.58186.70176 1.10726 1.45063 1.69442 2.14763a2.10206 2.10206 0 0 0 2.0342.86267 29.41146 29.41146 0 0 1-.69452 6.48474C300.69665 319.48162 300.29472 321.54821 299.90162 323.61639zM95.08756 474.80837c-2.19365.48645-4.40025.92172-6.57729 1.47366-2.1918.55571-4.44471.65986-6.66151 1.02277a9.47387 9.47387 0 0 1-2.52094-.08126 1.90511 1.90511 0 0 1-.91149-.48773c-.30272-.25437-.20419-.63573-.15956-.98794.01463-.11547-.07445-.24413-.16354-.5064-1.07234 0-2.19453-.00232-3.31671.00047-1.90363.00475-3.80912-.0365-5.71024.03592a20.49159 20.49159 0 0 1-3.968-.52211 4.4225 4.4225 0 0 1-1.54181-.6641 2.16447 2.16447 0 0 1-.45656-3.43165 5.26576 5.26576 0 0 1 2.12358-1.33616 37.80014 37.80014 0 0 1 6.10939-1.62919c2.96434-.56439 5.94687-1.03213 8.951-1.37478 2.22878-.25426 4.42917-.74871 6.64968-1.08728a38.14993 38.14993 0 0 1 4.3947-.51239c5.06659-.17683 10.12641-.57882 15.2013-.49462.2817.00466.56319.02249.84478.03427.25634 1.00887-.60224 1.3173-1.15505 1.79227-3.46371 2.97585-7.18143 5.62161-10.85271 8.32221A.84536.84536 0 0 1 95.08756 474.80837z"/><path fill="#e8af7d" d="M209.41638,403.71245a15.06046,15.06046,0,0,0-2.4527,2.563c-1.74329,2.36881-3.73645,4.55294-5.49789,6.90942a97.59992,97.59992,0,0,1-7.14418,8.0165c-1.33932,1.43308-2.62061,2.92648-3.97811,4.35078-1.122,1.17722-2.54452,1.98212-3.65669,3.1779a17.70571,17.70571,0,0,1-3.57824,3.26117,7.54664,7.54664,0,0,0-1.37234,1.30949,43.87022,43.87022,0,0,1-6.17488,5.40219,10.76768,10.76768,0,0,1-2.54806,1.83879q-.423-.233-.84619-.46619a.99273.99273,0,0,1,.53479-.8447,20.01948,20.01948,0,0,0,4.77194-3.79005c1.12769-1.16663,2.304-2.28611,3.43441-3.4502a47.77564,47.77564,0,0,1,6.04179-5.24883,9.91045,9.91045,0,0,0,1.07741-1.01424c1.54981-1.54334,3.09206-3.09427,4.643-4.63642a80.05014,80.05014,0,0,0,8.30046-9.80075,9.09713,9.09713,0,0,1,.647-.8307q2.49812-2.71305,4.79966-5.594c.54783-.68816,1.08369-1.52475,2.13766-1.59086Q208.98559,403.49356,209.41638,403.71245Z"/><path fill="#763737" d="M136.09368,411.4414a1.05213,1.05213,0,0,0-.49381-1.13313c1.441-.92658,2.83476-1.82078,4.22592-2.719a6.07671,6.07671,0,0,0,.862-.59624c3.30513-3.06674,6.42937-6.3054,8.4983-10.362a13.15311,13.15311,0,0,0,1.80512-6.40875,4.92762,4.92762,0,0,1,.23372-1.86937,7.819,7.819,0,0,0,.16521-2.92971,1.66325,1.66325,0,0,1,.92377-1.52109c.19806.0512.51952.0443.57385.16138a3.09407,3.09407,0,0,1,.46408,2.59508,7.07344,7.07344,0,0,0-.25745,2.07286c-.17509,1.59226-.36548,3.18491-.6212,4.76582-.50778,3.13921-2.16482,5.74732-4.00312,8.2361a38.67,38.67,0,0,1-10.1608,9.315,3.4027,3.4027,0,0,1-2.15569.70866A.24691.24691,0,0,1,136.09368,411.4414Z"/><path fill="#e9b07e" d="M95.09278,474.42173c-.14246-.09991-.20047-.26526-.07274-.36125,2.88185-2.16547,5.82522-4.25366,8.63515-6.50823a18.30122,18.30122,0,0,0,3.719-3.2924.95159.95159,0,0,1,.3751-.03163c.29031.09433.88281.13031.48817.57318a20.74693,20.74693,0,0,1-3.03,2.88834c-2.28834,1.71-4.54733,3.46452-6.73908,5.29566-.77665.6489-1.77362.7881-2.52448,1.41349A.56494.56494,0,0,1,95.09278,474.42173Z"/><path fill="#f5e4d1" d="M95.09278,474.42173q.42552-.01124.85111-.02264a1.2563,1.2563,0,0,1-.87369.8384q.00856-.21445.01741-.42881A1.9923,1.9923,0,0,1,95.09278,474.42173Z"/><path fill="#f6c193" d="M208.15909,373.22063c2.30064-1.94741,4.5716-3.9314,6.91015-5.83221,2.44856-1.99024,5.04674-3.80376,7.418-5.87913,1.64343-1.43843,3.4815-2.61872,5.07583-4.10427a6.09265,6.09265,0,0,1,5.89969-1.3626,14.68593,14.68593,0,0,1,7.05462,4.01663,7.7767,7.7767,0,0,0,1.602,1.36671,3.597,3.597,0,0,1,.96509.81c1.80948,2.14466,3.77545,4.18615,5.0454,6.72166a35.58812,35.58812,0,0,1,2.7714,7.9432,29.50017,29.50017,0,0,1,.38288,8.40347,11.374,11.374,0,0,1-1.82057,5.12774,18.02447,18.02447,0,0,1-2.07149,2.653,31.70947,31.70947,0,0,1-10.61943,7.49211,33.93444,33.93444,0,0,1-9.02441,2.76591c-1.68429.26356-3.35672.24067-5.028.39948a47.3576,47.3576,0,0,1-5.24068.39881,21.24509,21.24509,0,0,1-6.78066-1.29352c-.11785-.91118.6229-1.23108,1.19782-1.53972,2.911-1.56274,5.66076-3.39143,8.69672-4.76209,5.9036-2.66533,11.82493-5.4125,16.28544-10.33856,2.41577-2.66793,4.09828-5.72488,3.52546-9.55179-.82925-5.5402-6.45259-7.86112-11.16416-7.429-6.62944.608-13.22221,1.54685-19.50637,3.93346C209.21053,373.35862,208.70165,373.64748,208.15909,373.22063Z"/><path fill="#e8af7d" d="M208.15909,373.22066a4.98787,4.98787,0,0,0,2.42642-.62823,35.92853,35.92853,0,0,1,8.06578-2.31208c2.1183-.44934,4.25288-.8239,6.38483-1.20588a10.09538,10.09538,0,0,1,1.47136-.09061,6.518,6.518,0,0,0,2.08439-.23713,3.81724,3.81724,0,0,1,1.242-.175,13.21279,13.21279,0,0,1,8.56753,2.9469,6.008,6.008,0,0,1,1.75058,2.34963,9.08144,9.08144,0,0,1,.39475,7.34663,18.39236,18.39236,0,0,1-3.76757,6.008,35.24678,35.24678,0,0,1-6.15582,4.746,64.37223,64.37223,0,0,1-9.90255,5.16434c-3.46442,1.45259-6.49906,3.599-9.74018,5.40816a1.34755,1.34755,0,0,0-.28178.30631,2.69653,2.69653,0,0,1-1.27926-.42272,6.92778,6.92778,0,0,1,2.40766-1.98385c1.80529-1.20514,3.729-2.23869,5.63934-3.278.85861-.46709,1.85181-.69171,2.69732-1.1772,3.28771-1.88789,6.76864-3.42588,9.9429-5.51862,1.05384-.69483,2.15559-1.31644,3.22-1.99577a14.1255,14.1255,0,0,0,5.50758-6.72065,8.00076,8.00076,0,0,1,.56093-1.13488,4.61288,4.61288,0,0,0,.43184-3.48584,8.0811,8.0811,0,0,0-5.09562-6.26175,13.22242,13.22242,0,0,0-8.24564-.72849,2.38808,2.38808,0,0,1-.62391.09077,35.91389,35.91389,0,0,0-6.02287.78415c-2.00934.31755-3.98722.72437-5.95816,1.21085a36.15273,36.15273,0,0,0-6.37681,2.1377,2.669,2.669,0,0,1-.61833.12077A2.62641,2.62641,0,0,1,208.15909,373.22066Z"/></svg>
