<svg xmlns="http://www.w3.org/2000/svg" viewBox="0 0 512 512"><path fill="#f6c293" d="M144.50808,265.78671c.10055-.41977.20591-.83845.30068-1.25953a6.28676,6.28676,0,0,1,1.56718-3.033c1.77277-1.85046,2.62895-2.26085,5.04591-.72723a25.195,25.195,0,0,0,5.7327,2.98009c10.17981,3.42187,19.75166,7.86919,27.33595,15.808,4.78123,5.00467,9.81936,9.74986,14.33815,15.02438a33.29493,33.29493,0,0,0,7.9306,6.485,111.42291,111.42291,0,0,0,16.36267,10.46149c11.96013,6.35775,23.79813,12.95166,35.948,18.95078a38.94362,38.94362,0,0,0,3.587,1.6084c10.39216,5.0819,19.90936,3.39,28.70529-3.73268,6.22834-5.04351,12.06921-10.53252,18.08357-15.82192a179.00729,179.00729,0,0,1,17.61184-13.28588c4.01484-2.79816,8.338-5.11431,12.36193-7.89938,6.34022-4.09407,12.79163-8.04581,18.77439-12.64241a59.19652,59.19652,0,0,1,13.8973-8.00974,2.78129,2.78129,0,0,0,1.53779-1.15354c4.33955-7.16558,11.14485-10.90087,18.81219-13.33633a53.15224,53.15224,0,0,1,13.24389-2.6902,12.27711,12.27711,0,0,1,12.373,9.34518,7.5687,7.5687,0,0,0,.28852,1.28878,4.95334,4.95334,0,0,1,.17666.64735,79.22332,79.22332,0,0,0,2.70327,9.51434,99.73244,99.73244,0,0,1,2.15907,13.9813,293.43643,293.43643,0,0,1,1.36312,36.60476,56.27953,56.27953,0,0,1-.65863,7.5991c-1.21221,8.15633-8.28786,13.454-17.025,12.69977a27.18256,27.18256,0,0,1-11.48688-3.11725c-.83123-1.51067-.47333-3.11262-.32643-4.69291.96881-10.42088-1.53348-19.78463-8.52437-27.74535-2.30942-2.62978-3.28178-2.66945-5.64759-.166-3.80892,4.03041-8.09843,7.52767-12.18355,11.25022-10.09323,7.28828-20.621,13.94342-30.84,21.05127a13.04779,13.04779,0,0,0-3.08909,2.73009c-6.1148,4.1051-12.66271,7.51065-18.79536,11.58225-10.68824,7.09623-21.6127,13.81837-32.46562,20.65421-1.048.66012-2.10635,1.30747-3.14179,1.98293-4.54344,2.964-9.31783,2.986-14.239,1.20858a25.24482,25.24482,0,0,1-5.01274-2.14544c-.95935-.80727-2.2602-1.11716-3.0917-2.11248l.01731.01034a10.59507,10.59507,0,0,1-4.38318-3.07447l.007.022a4.90008,4.90008,0,0,1-.46978-.42036l-.00213-.00133c-2.46041-.95554-4.26016-2.82338-6.14791-4.54443-.57621-.52537-1.09263-1.13209-1.711-1.6253l.01854.02308a1.84682,1.84682,0,0,1-.46056-.45l.01648.00834c-3.48347-1.97364-6.25455-4.82667-9.20565-7.45747l.01766.01c-3.03641-1.526-5.407-3.9081-7.89441-6.14l.01843.02286a2.11244,2.11244,0,0,1-.46422-.44322l.01424.014c-.16524-.13037-.307-.28587-.46046-.42888-3.46964-1.88478-6.18076-4.71118-9.00337-7.37713a40.12674,40.12674,0,0,1-3.232-3.17158l.01785.02361a1.4841,1.4841,0,0,1-.45618-.45473l.01784.018a1.53764,1.53764,0,0,1-.45658-.45493l.01809.0183a1.57019,1.57019,0,0,1-.45589-.45583l.01806.01822a1.6131,1.6131,0,0,1-.457-.45477l.01819.00858a2.83873,2.83873,0,0,1-1.32535-1.31854l.00914.01793a1.941,1.941,0,0,1-.45639-.45437l.0174.01755a2.00436,2.00436,0,0,1-.45527-.455l.01732.01758a2.02081,2.02081,0,0,1-.455-.45527l.01735.01757a1.9917,1.9917,0,0,1-.45455-.45583l.01754.01769a1.92389,1.92389,0,0,1-.45459-.45637l.01776.01795a1.84788,1.84788,0,0,1-.45462-.45661l.018.01817a1.7605,1.7605,0,0,1-.45465-.45712l.01826.0183a1.65614,1.65614,0,0,1-.45436-.45757l.0182.01824a1.59275,1.59275,0,0,1-.45565-.45623l.01819.01827a1.55637,1.55637,0,0,1-.45487-.45669l.018.01806a1.51061,1.51061,0,0,1-.455-.45626l.02339.01784c-1.70278-2.24989-3.97642-3.93859-5.906-5.97466-3.61386-3.81329-7.24725-7.62592-11.19214-11.11426l.01818.01186a42.61149,42.61149,0,0,1-6.258-5.06911c-1.97141-1.76611-4.321-1.637-6.34139-1.03373a47.53169,47.53169,0,0,1-5.39364,1.30556l.00932-.00738a10.22618,10.22618,0,0,1-5.33262,1.73155l-.17829-.01007-.17329.04317a17.872,17.872,0,0,1-7.02314,1.74044l.01485-.00919a28.879,28.879,0,0,1-2.84207.9249,11.20768,11.20768,0,0,1-9.39966-2.6702l.00484.0074c-.35885-.39391-.97067-.03607-1.32425-.44563l.00971.00254c-2.64479-.3326-5.47139.40555-7.87667-1.33753l.01239.00227c-3.36011-1.62277-7.10837-2.68294-9.25888-6.106-1.14154-1.81706-3.38923-2.864-3.65942-5.27981.63468-1.77693,2.15558-2.4954,3.76606-3.01794a37.85224,37.85224,0,0,1,6.30017-1.78009c7.41891-1.03683,16.69162-12.20335,17.322-20.33747.06353-.81966.20761-1.74806-.32877-2.32016-2.09168-2.23105-3.69666-5.07143-6.98-5.89956A.92632.92632,0,0,1,144.50808,265.78671Z"/><path fill="#9797ed" d="M261.23176,377.35421c1.21093.49209,2.41966.9897,3.63321,1.47519a21.12178,21.12178,0,0,0,8.70173,1.75476,11.48362,11.48362,0,0,0,4.615-1.16957,37.28427,37.28427,0,0,0,3.58756-2.07849c3.32834-2.08833,6.62949-4.22,9.95925-6.30609,7.27591-4.55832,14.621-9.00473,21.70847-13.862,4.56313-3.12726,9.40041-5.82559,14.13526-8.683,2.43-1.46648,4.83949-2.96692,7.25828-4.452,1.08758.3454.97,1.34325,1.13316,2.15971.66335,3.31966.3479,6.68276.37179,10.02727a269.88459,269.88459,0,0,0,3.44447,38.68225,11.59628,11.59628,0,0,1,.44336,3.341c.13037,1.81244.49663,3.60332.619,5.41447a3.42985,3.42985,0,0,0,2.78627,3.41814c10.77128,4.16916,17.52034,12.766,23.58132,21.92021,5.89435,8.90252,9.82835,18.78064,13.02451,28.94493.24043.76458.59312,1.48732.80216,2.2628a2.9794,2.9794,0,0,1-1.252,2.57049c-.97958,1.78076-1.90146,3.5964-2.9509,5.335-2.14287,3.55024-4.31625,7.08349-6.54924,10.57757a71.63748,71.63748,0,0,1-6.58717,8.41377q-1.65066,1.89037-3.38706,3.70545a73.22375,73.22375,0,0,1-14.07269,10.98315,35.586,35.586,0,0,1-12.25924,4.97846,27.31423,27.31423,0,0,1-5.61241.71153c-1.60152-.02015-3.20377.01693-4.80567.03227a66.02425,66.02425,0,0,1-9.76907-.80567c-2.94875-.41167-5.91487-.69854-8.87268-1.04609a41.93938,41.93938,0,0,1-12.6295-3.19317c-.65769-.2991-1.35869-.503-2.03967-.7509a5.774,5.774,0,0,1-2.40169-.86561c-6.15226-4.00263-10.38076-9.67461-13.95477-15.92935-.364-.63709-.46492-1.36261-.77275-2.01424l.01942.00775a17.11622,17.11622,0,0,1-3.09619-7.43526l.012.01928c-.424-.35717-.08094-.9644-.43807-1.34338l.02138.00657c-1.1497-1.243-1.02-2.87841-1.34159-4.3754l.01207.021c-.43131-.35467-.08613-.96371-.44023-1.34365l.02361.00449c-1.278-1.0803-.28956-2.69152-.919-3.92371l.00809.01458c-.49591-.49775.02893-1.25688-.45028-1.7589l.00479.00924c-.47857-.50769.02647-1.25762-.43578-1.76932l.00933.016a30.5277,30.5277,0,0,1-1.31854-5.711l.0121.02063c-.5554-.67354.04371-1.572-.44007-2.25949a.44342.44342,0,0,0-.029-.36156c-.93681-1.95055-.58075-4.03772-.65635-6.08173a5.05481,5.05481,0,0,0-.19158-2.30837.40909.40909,0,0,0-.00782-.35616c-.60934-1.29268.12323-2.72785-.42752-4.02678a.41115.41115,0,0,0-.01819-.35375c-.57707-.98145.1216-2.13778-.42824-3.123a.50431.50431,0,0,0-.01953-.38267c-.66592-2.76578-.54084-5.61069-.84173-8.413a.33074.33074,0,0,0-.00232-.32691c-.53462-1.99838-.09829-4.036-.24666-6.04957a5.81008,5.81008,0,0,0-.19449-2.36105q-.00928-.83326-.01864-1.6665c-.49468-3.32081-.07569-6.66206-.22553-9.99019-.07477-1.66.22275-3.33438-.19176-4.98086a37.402,37.402,0,0,0-.01878-5.1621,99.37742,99.37742,0,0,1,.00222-14.89193q.00834-.82977.01672-1.65952C261.36418,379.56753,260.76794,378.401,261.23176,377.35421Z"/><path fill="#8c4646" d="M473.06475,215.27628l-.0686.12019.087.10764c.63715,1.42913-.11594,2.99574.43839,4.43308l-.02736-.03492a25.06356,25.06356,0,0,1,.03591,7.87288,1.392,1.392,0,0,0-.01865,1.14048q-.45505,9.7777.00278,19.55529a.19226.19226,0,0,0,.027.30388c.559.822-.09468,1.83808.42685,2.66606l-.01379-.02709c.5093.519.03837,1.26273.41526,1.81212l-.03729-.03153a4.00887,4.00887,0,0,1,.89393,3.0842l-.01165-.03281c.52473.31623.13929.962.486,1.34258l-.02351-.03686c1.46659,2.41854,2.57691,5.02526,3.95625,7.48989l-.0288-.03657c1.75725,2.24471,3.88839,4.23061,4.85878,7.02l-.02046-.02936a6.88618,6.88618,0,0,1,2.1718,3.56786l-.033-.03895c1.37977.96182,1.146,2.66232,1.80934,3.95211l-.02559-.03759a9.09878,9.09878,0,0,1,1.32869,4.4217l-.03414-.04608c.6598.83163.01378,1.89141.48161,2.75659a.16937.16937,0,0,0,.02367.28107,19.43934,19.43934,0,0,1,.00737,6.57483.18943.18943,0,0,0-.02783.29916c-.4891.85263.19806,1.92044-.50032,2.73476l.03911-.04888c-.33,1.02667-.20084,2.1904-.92534,3.09926l.0359-.049c-.131.31721-.10873.69338-.36979.96053l.00348-.00943c-.40858.34371-.00412.99571-.49588,1.30788l.02431-.03837c-.81358,2.15223-1.459,4.39087-3.13525,6.09969l.02783-.014c-1.48363,4.08387-4.7439,6.66844-7.86018,9.39637-4.05649,3.55093-8.84495,4.48721-14.02437,4.065a3.15568,3.15568,0,0,1-2.47112-1.20927l.01929.02751c-1.84914-.64938-2.3595-2.21647-2.68179-3.91246l.01982.03591c-.58147-.7021-.019-1.61873-.4409-2.35075a.15285.15285,0,0,0-.03788-.26049c-.47686-.52134.00887-1.26644-.41825-1.79935l.019.02722a8.611,8.611,0,0,1-1.30437-3.98953l.02308.01546a67.77031,67.77031,0,0,1-4.78147-8.997c-.70361-1.406-2.23111-2.38392-2.21578-4.15217l.0124.03243c-.37626-.169-.28115-.61821-.51742-.87045l.01406.02135a11.71954,11.71954,0,0,1-2.99719-4.88149l.00967.02695a5.488,5.488,0,0,1-1.82783-3.06106l.02047.02965a7.55359,7.55359,0,0,1-1.77958-3.52109l.0157.02688c-.30209-.24078-.2556-.63643-.41744-.93953l.03147.03766a3.53245,3.53245,0,0,1-.93427-2.62l.00711.022c-.43556-.36856-.12348-.96384-.41713-1.37544l.03323.0487c-.69383-.61153.0171-1.54908-.51036-2.19924l.01261.02693c-.59355-.82.05541-1.83849-.42738-2.67621l.03446.04181a27.47785,27.47785,0,0,1-.164-9.2208,39.36535,39.36535,0,0,0-.335-10.48917l.00989.02274c-.401-.42915-.15869-1.03389-.41045-1.50375l.0428-.13657-.09959-.1028c-.39015-.36231-.03153-.96678-.4291-1.32671l.00294.00793c-1.20019-.89251-.80086-2.37662-1.3044-3.5268l.01079.02025c-1.293-1.20562-1.32561-2.89447-1.70609-4.44994l.03837.05145c-.7322-.5955.01-1.54777-.52989-2.18984l.011.02608a9.98558,9.98558,0,0,1,.00663-4.81826l.084-.11046-.073-.118c.42452-.73717-.15895-1.671.46238-2.36979l-.02944.042a14.01921,14.01921,0,0,1,1.7044-5.7486l.09973-.09687-.04253-.13237c.61062-1.30892-.05244-3.041,1.35708-4.08451l-.03285.01365c.28942-.41285-.03265-1.0154.42668-1.37554l-.02126.03382c.43518-.5222-.09826-1.29522.46222-1.785l-.024.03508c1.11978-3.82577.40323-7.65133-.00123-11.47695l.02132.03489c-.52826-.55588-.08586-1.33323-.44-1.92883l.05263-.13486-.095-.10924c-.4838-.50626.03511-1.26115-.43887-1.76983l.00385.01159c-1.00082-1.01728-.49567-2.38843-.83671-3.56074l.03227.04562a41.22157,41.22157,0,0,1-.05011-10.47855l-.01235.02653c.63966-1.54274-.41987-3.41456.93326-4.81913l-.03056.03209c.5461-2.12143.47135-4.459,2.15321-6.185l-.00454.01054c.39244-1.47576.22323-3.13065,1.39045-4.35926l-.03863.02762a29.851,29.851,0,0,0-.03216-7.52783l.0078.01943a27.56557,27.56557,0,0,0-3.19226-6.25811,4.10819,4.10819,0,0,0-5.047-1.3767c-1.05139.61639-3.25793.0738-2.79827,2.44781l-.01224-.03062c.35638.2087.29288.624.45632.92757l-.02746-.0182a4.257,4.257,0,0,1,1.33435,3.05938l-.01149-.03283c.52054.28959.09238.962.52016,1.289l-.00013-.00043c.24786.26295.20851.64649.393.936l-.02458-.04052a8.79193,8.79193,0,0,1,.877,2.24767l-.03561-.04673c.54589.31.158.9586.48829,1.34679l-.029-.04151a4.50672,4.50672,0,0,1,.88341,3.209.15513.15513,0,0,0,.04825.26043c.57391,1.01939-.05707,2.19573.42049,3.22767a2.10357,2.10357,0,0,0,.002,1.44666c-.52505,1.16716.211,2.48777-.4428,3.63925l.01747-.0318c-.31254,1.17263-.11888,2.46511-.83847,3.54135a.1747.1747,0,0,0-.0608.275c-.27808.44955.00251,1.0615-.4265,1.46717l.01522-.02814c-.4721,1.31131-.08225,2.90059-1.28247,3.97712l-.10074.09886.04042.13523c-.35282,1.7467-.48185,3.57472-1.80552,4.96863l.03457-.03744c-.14479.31339-.09283.71732-.43291.94084l.01116-.02857a3.69175,3.69175,0,0,1-1.325,2.649l.02589-.03348a5.05353,5.05353,0,0,1-1.76852,3.102l.02332-.03321a15.1547,15.1547,0,0,1-3.51927,5.287l.0226-.03061a26.58823,26.58823,0,0,1-7.01739,8.65127,37.9021,37.9021,0,0,0-2.94579,3.16145,2.54574,2.54574,0,0,1-2.08587.332,14.73305,14.73305,0,0,1-9.304-5.21534,50.54821,50.54821,0,0,1-7.01-11.29266c-1.034-2.21679-.96737-3.109.83989-4.87462a17.264,17.264,0,0,0,5.444-11.582c.25339-4.00143-.532-7.67323-3.70459-10.5132-2.32737-2.08333-4.28324-2.30993-6.92071-.66113-3.98839,2.49335-4.89028,2.36634-8.23967-.91828-2.87211-2.81658-4.56022-6.40727-6.37188-9.87376a68.90748,68.90748,0,0,0-11.37672-16.21918,2.97644,2.97644,0,0,1-1.14376-2.039,3.833,3.833,0,0,1,2.20007-2.284l-.04625.03231a22.03713,22.03713,0,0,1,12.26407-7.06793l-.01578.02861c1.37108-1.2994,3.14208-1.16115,4.82432-1.342l-.042.02439c.62657-.65361,1.54967.02648,2.20659-.4906l-.01675.01245c1.55763-1.2806,3.45294-.76986,5.21088-.97356,3.58721-.41567,7.1843-.07492,10.77515-.05331a4.54542,4.54542,0,0,1,3.22354,1.04267l-.01606-.01965c.66715.49561,1.581-.16053,2.21813.47515l-.039-.02276c1.67275.22355,3.493-.09938,4.84633,1.30776l-.01694-.01392c.377.36043.99262.00863,1.34253.44986l-.02613-.013a18.88936,18.88936,0,0,1,11.26123,7.02063c.96435,1.255,1.7321,1.32744,3.09408.78843,2.03943-.80716,3.73772-2.20846,5.75031-3.026a9.25934,9.25934,0,0,1,7.91762.05134l-.01672-.01675c.5079.45769,1.30785-.12349,1.76985.4975l-.03542-.01079a5.01189,5.01189,0,0,1,2.68842.65107c3.50648,1.93523,6.57323,4.3102,8.248,8.10585l-.02575-.02017a16.96587,16.96587,0,0,1,3.58357,7.83229l-.00417-.01129a10.0251,10.0251,0,0,1,1.301,4.41089l-.01454-.02825c.51042.54026.04713,1.30578.43374,1.87467a.204.204,0,0,0,.04948.30553c.7611,1.888.507,3.91835.82314,5.86875l-.07806.12407.0819.12157c.5507,2.11073.10857,4.2611.2554,6.38787a7.88049,7.88049,0,0,0,.18139,2.5546.64806.64806,0,0,0,.00967.68962c.63309,1.46448-.09676,3.05741.42722,4.53218a.18046.18046,0,0,0,.03655.28976,31.051,31.051,0,0,0,6.03119,11.649c.49283.57079.514,1.35643.97519,1.92965l-.00293-.004c.74657.37235.93,1.1466,1.284,1.7991l-.02164-.03156a5.21663,5.21663,0,0,1,1.77327,3.09358l-.02148-.03318c.3216.22139.25684.6333.45223.91693l-.02377-.03368c1.54454,1.42513,1.3446,3.45008,1.80453,5.24815l-.00577-.01622C473.11385,213.91244,472.72788,214.66948,473.06475,215.27628Z"/><path fill="#e498a2" d="M339.35209,395.35023a8.7857,8.7857,0,0,1-.54886-1.64579c-.35415-2.73645-.63835-5.4819-.97111-8.22124-.38514-3.17078-.83016-6.33466-1.18063-9.5091-.19926-1.80494-.37625-3.631-.44055-5.43027-.18193-5.09264-.71839-10.17332-.56339-15.27956.05965-1.96671.04694-3.93963-.03577-5.90541-.06706-1.59375-.27853-3.18211-.45373-4.76979-.02142-.1943-.21478-.3696-.328-.5549a5.1979,5.1979,0,0,1,1.729-1.89149q10.5206-7.01046,20.96789-14.13079c2.82121-1.91828,5.57642-3.93341,8.38056-5.87723.8342-.57827,1.73262-1.064,2.60163-1.592,1.49616-.57194,2.09989.69811,2.78769,1.496a89.44622,89.44622,0,0,0,21.42206,17.65253,10.63831,10.63831,0,0,1,2.91368,1.87313,15.27284,15.27284,0,0,0,4.658,1.71093,34.74443,34.74443,0,0,0,5.9413,1.244,21.93942,21.93942,0,0,0,6.94085-.217,11.35947,11.35947,0,0,0,4.91921-2.66269,21.129,21.129,0,0,0,4.07352-5.08388,11.46071,11.46071,0,0,0,1.47776-5.18967,14.86668,14.86668,0,0,1,.35127-3.45657,6.65177,6.65177,0,0,0,.08955-1.95393q.009-10.926.00521-21.85209a9.27272,9.27272,0,0,0-.32584-3.23853,4.932,4.932,0,0,1-.10261-1.51665,7.76039,7.76039,0,0,0-.33113-2.80049,3.233,3.233,0,0,1-.10125-1.08034,16.45237,16.45237,0,0,0-.38761-4.545,6.48169,6.48169,0,0,1-.05874-1.73959,7.10893,7.10893,0,0,0-.29127-2.58706A2.84613,2.84613,0,0,1,422.36,285.521a43.70633,43.70633,0,0,0-1.17478-8.37156c-.17434-.986.06706-2.07-.58767-2.96166a87.04929,87.04929,0,0,0-2.62794-9.68868q.00393-.19536-.00542-.39052c-.26127-.23749-.1527-.65318-.42631-.88471-.01414-1.81388-1.14447-3.13672-2.1401-4.44265a14.05733,14.05733,0,0,0-4.03733-3.63388,7.46082,7.46082,0,0,0-3.71386-1.122,22.69983,22.69983,0,0,0-5.631.46879c-2.46687.58666-4.94394,1.13057-7.41843,1.685a33.32454,33.32454,0,0,0-7.5959,2.66553,32.33834,32.33834,0,0,0-9.78988,6.8146,19.9937,19.9937,0,0,0-2.9639,4.02116,2.16276,2.16276,0,0,1-2.22219,1.42385c-.30877-.59764-.01213-1.10418.23784-1.6197a32.11894,32.11894,0,0,1,16.05843-13.11886,59.2974,59.2974,0,0,1,18.36891-4.23414c4.22639-.24291,7.157,1.85682,9.62414,4.94409a5.13381,5.13381,0,0,1,1.63308,2.67158l-.012-.0184c.28769.22758.2131.6392.45273.8912l-.01149-.01522c1.13349.91765.82458,2.37,1.30815,3.52865l-.0152-.02367c.54821.478-.0093,1.257.47686,1.75187l-.00657-.00521c1.38887,1.34555.67476,3.26805,1.32152,4.81719l-.00489-.009c.47441.52246-.01653,1.27446.42891,1.80381a.623.623,0,0,0,.0335.38662c1.30211,2.04168.95818,4.39966,1.27422,6.63083a.54483.54483,0,0,0,.02591.36869c.50058.68459-.06823,1.5654.41344,2.25347a.546.546,0,0,0,.01531.36885c.71563,2.75507.566,5.59836.85618,8.39681l.02578.79762c.586,1.44375-.14667,3.00927.41135,4.45561l.02517.79642c.56958,1.14363-.12652,2.4331.41261,3.58024l.0172.79313a1.90351,1.90351,0,0,1,.22056,1.25966q.00517,12.316-.00005,24.63209a1.85947,1.85947,0,0,1-.2251,1.25749l-.00852.801c-.58535,2.03663.19972,4.1678-.4279,6.20152a.53566.53566,0,0,0-.00916.36653c-.38726,2.04843.01186,4.20982-.88824,6.18461l.01566-.01983c-.5834,1.72656.19424,3.56485-.43417,5.28772a.50671.50671,0,0,0-.00826.36c-.52732.99317.13408,2.14159-.40908,3.13268l-.02875.80567c-.59136,2.18564.21263,4.46124-.42845,6.64367a.55259.55259,0,0,0-.00334.375c-.38731,3.08828-.06671,6.22438-.63605,9.30212-.12986.702.18064,1.45654-.22379,2.1351l-.02209.80083c-.56724,1.44548.19408,3.02013-.43359,4.45974a.48455.48455,0,0,0-.00408.3556c-.52489.994.133,2.14181-.40738,3.13381l-.03467.79415a37.748,37.748,0,0,1-.83505,6.207l-.04285.78964c-.29274,1.48673-.20149,3.04771-.863,4.46314l.00845-.01488c-.466.50966.04311,1.26139-.43866,1.76713l.00564-.01018c-.48338.49831.05957,1.2686-.46535,1.75591l.01344-.02188c-.36928.373-.02541.97875-.43666,1.33806l.00863-.0144c-.38426.366-.04426.96489-.4281,1.331l.00109-.002c-.32471,1.3519-.0643,2.90037-1.323,3.93851l.005-.00719c-.4039.35074-.02741.97694-.46447,1.316l.01309-.02094c-.23383.25531-.15585.651-.40486.89946a.45528.45528,0,0,0-.05479.33247c-.18327.30788-.13293.71536-.41774.98l.00855-.01568a2.67516,2.67516,0,0,1-1.57185,1.49723c-2.46463.90622-4.98287.61709-7.53875.53358a129.14706,129.14706,0,0,1-14.15084-.8086c-8.94483-1.27828-17.80757-2.97136-26.63877-4.84658-4.62978-.9831-9.30677-1.71268-13.9339-2.69565q-5.15233-.78431-10.23228-1.96114A3.31962,3.31962,0,0,1,339.35209,395.35023Z"/><path fill="#f6c293" d="M416.17264 257.52066a13.29437 13.29437 0 0 0-3.69728-3.31252 7.532 7.532 0 0 0-4.88971-1.53862 44.74807 44.74807 0 0 0-7.111.77767c-1.98951.39634-3.94516.936-5.93451 1.29228-1.97235.35319-3.67008 1.3539-5.51343 2.00059a27.35174 27.35174 0 0 0-8.06837 4.19574 23.81091 23.81091 0 0 0-4.96407 4.50644c-.96817 1.34053-2.101 2.58036-3.01866 3.97768-.1109.16884-.34356.25777-.51977.38376-2.28352 1.8126-5.08438 2.56018-7.68587 3.716-.26675.11851-.55166-.07739-.76263-.29453-.07854-3.60068 1.24106-6.94745 1.95889-10.39687a58.86362 58.86362 0 0 1 2.46562-8.76625 1.84493 1.84493 0 0 1 1.25527-1.12066c3.78546.05838 6.71682-1.94529 9.23707-4.35221 5.45423-5.209 8.777-11.51745 8.7172-19.27291-.02738-3.55382-1.33384-4.41409-4.69459-3.12016-3.04949 1.17409-5.9395 2.71225-8.94222 4.00247-4.66251.286-9.21759 1.308-13.82 1.9988-1.22255.1835-2.43252.4518-3.65659.64019-5.08172.7821-8.86808-2.04777-9.08162-7.19526a16.47223 16.47223 0 0 0-2.20648-8.501c-1.03741-1.65357-.61986-3.7096-.37427-5.57007a4.458 4.458 0 0 0-1.90648-4.55669c-1.53471-1.0777-2.88926-2.42712-4.67634-3.15088a4.43051 4.43051 0 0 1-2.13657-2.39117l.01213.022c-.88688-1.44651-1.33054-2.89331-.00281-4.34125l-.01525.00643c.22884-.25939.16058-.6634.4378-.89924l-.00815.01376a41.07007 41.07007 0 0 1 4.83642-8.32186l-.01365.01591c.22913-.259.15914-.66554.44277-.89765l-.00294.01311c.25438-1.23806.34358-2.53733 1.30248-3.51428l-.00652.00425c.48044-.50055-.05254-1.26467.45712-1.75761l-.011.017c.62045-1.85908.28208-3.94315 1.33759-5.70014l-.01419.01828c.36009-.37767.02589-.97587.42589-1.34086l-.00639.01019a11.83077 11.83077 0 0 1 1.33807-4.38117l-.01248.01824c.37729-.36507.01093-.987.45861-1.32778l-.01108.0194a7.65787 7.65787 0 0 1 1.76341-3.95187l-.01039.0162c.41731-.74663.48616-1.69935 1.30577-2.20809l-.0109.00634c.24308-.2477.1624-.666.465-.88235l-.02306.02095a3.261 3.261 0 0 1 .42076-.4729l-.00075.00135c.26715-.2284.17731-.653.47512-.86453l-.02222.02083a3.88247 3.88247 0 0 1 .42126-.47137c.98685-2.64887 2.95023-4.57015 4.8641-6.52831l-.0277.00139a1.42584 1.42584 0 0 1 .45418-.45553l-.00377.01848a2.34076 2.34076 0 0 1 1.31776-1.318l-.01883.00975c1.35759-.9713 2.15179-2.66332 3.9419-3.0813l-.01552.00268a2.9542 2.9542 0 0 1 1.59132-.4534 2.19973 2.19973 0 0 0 .808 1.25625 65.84738 65.84738 0 0 1 11.96447 16.85263c1.216 2.39913 2.66563 4.6807 4.02862 7.00421a16.50078 16.50078 0 0 0 3.26252 3.8007 15.5963 15.5963 0 0 0 1.402 1.03382 2.832 2.832 0 0 0 3.79393-.19075 18.04391 18.04391 0 0 1 1.77619-1.26926 5.33586 5.33586 0 0 1 6.816.547c3.46945 2.98962 4.50478 6.85673 4.26793 11.189a16.55461 16.55461 0 0 1-1.74734 6.93362 16.36183 16.36183 0 0 1-3.00757 4.26182 20.635 20.635 0 0 0-1.63992 1.75626 2.37861 2.37861 0 0 0-.33271 2.83023c2.20769 4.18671 4.30355 8.43086 7.49556 12.01452a13.81111 13.81111 0 0 0 8.16341 4.65932c.83978.14477 1.6838.58129 2.535.03091a.84175.84175 0 0 1 .00139 1.25333l.02324 1.74418c.469 2.87508.07675 5.77165.22013 8.65423a7.15366 7.15366 0 0 0 .19632 2.78553.59942.59942 0 0 0-.00659.36434c.67137 2.47542-.16719 5.03966.44245 7.51872l.01317.80636c.611 1.435-.15319 3.00213.42677 4.44008a.67932.67932 0 0 0 .01183.37561c.91407 1.52218.60912 3.25725.85514 4.89613a.58237.58237 0 0 0 .01851.355c.4735.53427-.00507 1.28661.41964 1.83205a.61133.61133 0 0 0 .02426.36139A.56449.56449 0 0 1 416.17264 257.52066zM91.85773 265.877a1.58533 1.58533 0 0 0 .97889.39906 48.18073 48.18073 0 0 1 5.92615 1.29158c3.29911 4.52426 6.4209 9.17138 9.51254 13.83744 3.58758 5.41456 6.64148 11.14021 9.67821 16.87353a3.044 3.044 0 0 1 .54209 1.63481c-.15163 1.15581-1.0725 1.82887-1.6919 2.69181l.01141-.01427a14.60566 14.60566 0 0 1-3.52641 5.69584l.01387-.01774c-2.19048 4.081-5.40232 7.31865-8.75838 10.40584a7.19852 7.19852 0 0 1-4.81943 2.24936.94013.94013 0 0 0-.40008.07366c-.66686.50683-1.54284-.08135-2.21033.42212l.01736-.01053c-2.13829.04288-4.27873.09564-6.1005-1.322l.00557.01367c-.25476-.23258-.67049-.15476-.88747-.46021l.01775-.00551c-3.05335-1.23462-4.70015-4.00155-6.70354-6.32977-1.01991-1.18531-2.34567-2.18017-2.93225-3.72228l.0072.01789a1.60665 1.60665 0 0 1-.45371-.458l.018.01811a1.5022 1.5022 0 0 1-.45434-.45676l.01759.01763a1.46344 1.46344 0 0 1-.45516-.45552l.01753.01766a1.4581 1.4581 0 0 1-.45517-.45535l.01743.0176a1.48292 1.48292 0 0 1-.45617-.45471l.01788.00526c-2.44562-1.80514-4.955-3.51868-7.48051-5.20917l-.00825-.00532c-.33865-.42487-.95347-.05212-1.30127-.45054l.00444.00125a8.52846 8.52846 0 0 1-3.78289-.75012 8.79831 8.79831 0 0 0-3.99578-.80807c-2.06327.07331-3.90309-.84862-5.79025-1.52574l.01619.01069c-1.76962-.54146-3.85633-.12545-5.26892-1.745l.00343.00384c-1.697-.00881-2.99-1.008-4.374-1.78412l.01615.00056a19.487 19.487 0 0 1-7.027-3.4757l.00742.00513c-.93737-.31927-2.00367-.38517-2.62088-1.33363l.00717.01183c-.25025-.24035-.666-.16213-.88622-.46024l.01679 0a29.34791 29.34791 0 0 1-7.2529-4.702 38.82328 38.82328 0 0 1-5.86206-5.50963 5.48713 5.48713 0 0 1 .838-7.73078c.81481-.64442 1.77344-.501 2.62873-.83254l-.0086.00443a12.37912 12.37912 0 0 1 6.51452-1.09985 3.4162 3.4162 0 0 1 2.2374.66154.64407.64407 0 0 0 .37043.01491c.53983.4288 1.28169-.04018 1.817.40887a.6844.6844 0 0 0 .37543.02714c3.18593.0627 6.12521 1.434 9.26413 1.74611a.65967.65967 0 0 0 .37811-.001 12.45722 12.45722 0 0 0 4.91951.00153l.81626-.00973c3.27107-.29445 6.32166-1.81033 9.658-1.74335l-.01809.01167c.496-.51124 1.25812.01464 1.76539-.45284l-.00642.0113c1.19-1.34862 2.98491-.6835 4.38936-1.31827l-.01855.01277c.34886-.43259.964-.07557 1.33265-.44939l-.01531.01365c1.09823-1.07461 2.64141-.84457 3.93631-1.3425l-.00742.00441c.35373-.39987.96468-.03858 1.31625-.44483l-.00207.00243c1.32794-1.46929 3.22091-.85752 4.82492-1.31l-.0111.00609c1.91705-.14792 3.61792-1.32906 5.62647-1.11745a5.02215 5.02215 0 0 1 2.67658.69952l-.01368-.01506c1.11923.57418 2.40963-.1872 3.52063.45121z"/><path fill="#efad73" d="M259.91691,145.39251a2.61375,2.61375,0,0,0-.37032,1.42646c-.13138.91755-.2645,1.83774-.46516,2.74169-.23736,1.06945-.27375,1.066-1.65306,1.15257a2.491,2.491,0,0,1-1.30365-1.67173c-3.54284-9.801-7.31756-19.53158-9.15856-29.85536a10.89029,10.89029,0,0,1-.26838-2.60371,2.39023,2.39023,0,0,1,.50924-1.34557c.29186-.65965.56694-1.32745.88245-1.97558a.8284.8284,0,0,1,.85914-.53117.962.962,0,0,1,.78758.66525c.66151,1.60433,1.31523,3.21217,1.94679,4.82849a39.763,39.763,0,0,0,5.62162,10.21658l-.0062-.01742c1.22787,1.204,1.20677,2.91307,1.77288,4.38468l-.00847-.01424c1.01746,1.49947.40374,3.289.86887,4.88667a.404.404,0,0,0,.00519.35171,17.0073,17.0073,0,0,1,.01541,6.13991Z"/><path fill="#9797ed" d="M294.19432,247.44149a22.92912,22.92912,0,0,1,11.98792,8.26433,4.41238,4.41238,0,0,0,.64589.57164,6.12313,6.12313,0,0,1,2.20963,2.366,121.57233,121.57233,0,0,1,14.68361,28.93886c.35749,1.03394.84,2.0175,1.17881,3.0578.741,2.12541,1.42059,4.27087,2.13735,6.404a3.302,3.302,0,0,1,.29848,2.523c-1.22821.90259-2.43361,1.8383-3.68862,2.70191a139.45612,139.45612,0,0,0-15.10791,11.85413c-3.70812,3.388-7.48228,6.7051-11.27474,9.99884a64.49592,64.49592,0,0,1-10.58318,8.05743,24.85915,24.85915,0,0,1-11.15228,3.39c-4.29633.19467-8.19461-1.01075-12.10242-2.4272a4.97635,4.97635,0,0,1-1.062-.74067,6.13317,6.13317,0,0,1-.45062-3.204c-.01977-8.95368.32239-17.8962.85784-26.83219.17591-2.93585.13913-3.00459-2.81021-2.42608a123.251,123.251,0,0,1-27.56669,2.51531c-6.695-.20378-13.40137-.06081-20.10244-.02664a13.82775,13.82775,0,0,1-5.76321-.97212c-2.00316-.95177-3.53246-2.54512-5.246-3.88717-2.42525-1.89942-4.26021-4.36479-6.33928-6.60114-4.31838-4.64507-8.69321-9.25214-13.41441-13.49092a86.64038,86.64038,0,0,0-7.45646-5.70626,34.65026,34.65026,0,0,0-8.61411-4.20873,66.88238,66.88238,0,0,1-6.83452-2.90556,3.91755,3.91755,0,0,1-1.47023-.90953c2.0743-.3642,4.14537-.74807,6.22371-1.08726,1.57612-.25721,3.15769-.49022,4.74357-.67682,4.18421-.4923,8.38388-.86917,12.5548-1.45334,3.44963-.48314,6.86552-1.20495,10.29921-1.80472,2.1448-.37462,4.28671-.78333,6.445-1.05825a59.01978,59.01978,0,0,0,5.971-1.24085c3.04985-.71345,6.14825-1.08091,9.238-1.53121a70.46363,70.46363,0,0,0,7.08495-1.18977,33.29369,33.29369,0,0,1,5.78149-1.06467,10.49982,10.49982,0,0,0,1.69625-.39826,4.65012,4.65012,0,0,1,2.38865-.9604,166.71311,166.71311,0,0,1,18.82763-3.558,238.9556,238.9556,0,0,1,36.07733-1.83918c2.4771.0475,4.92559.2785,7.38279.50587A3.65668,3.65668,0,0,1,294.19432,247.44149Z"/><path fill="#7389d5" d="M294.19432,247.44149c-1.201-.27126-2.44966-.26229-3.64013-.46818-3.97537-.68756-7.963-.29084-11.94189-.36855-3.92189-.07665-7.85909-.20162-11.76517.05976-2.30709.15436-4.61132.33794-6.92509.38266-1.56549.69346-3.32217.16235-4.91419.775a4.64607,4.64607,0,0,1-1.51377.07913,11.75727,11.75727,0,0,0-2.57977.28139,14.46706,14.46706,0,0,1-2.81336.14559c-1.87976-1.77576-2.40438-4.28658-3.35794-6.51756-4.60577-10.776-9.09749-21.602-12.34328-32.89318a28.39672,28.39672,0,0,1-.7077-4.288c-.56785-2.62414-1.11895-5.252-1.70689-7.87166-1.33553-5.95048-2.464-11.939-3.3249-17.97651-.55308-3.87881-1.11729-7.757-1.58993-11.646-.28008-2.30472-.35822-4.63322-.58711-6.94509-.344-3.47487-.41964-6.96007-.52652-10.446-.03326-1.08491-.23419-2.16465-.35838-3.24676.02807-.29537.07034-.66233.31812-.78333,3.96669-1.93711,2.89-6.1714,4.206-9.30442.49011-1.16682-.26825-2.27129-1.12232-3.125-1.87142-1.87059-2.05132-4.0042-1.29957-6.44047,1.23193-3.99228-.95011-7.06466-5.17711-7.47714-.77387-.07552-1.63233.10113-2.2-.66612q-.61282-1.739-1.22629-3.4778a15.35566,15.35566,0,0,0-1.90688-3.883,2.26755,2.26755,0,0,1-.55623-1.38113c1.39951-2.04895,3.678-3.02687,5.62085-4.32877,6.28209-4.20955,12.30764-8.753,18.30375-13.34589.83821-.642,1.67921-1.51733,2.90406-.72951a7.79653,7.79653,0,0,1,.8113,2.91164c1.32436,5.56375,2.5934,11.14076,3.85653,16.71885.30348,1.34022.5134,2.70165.76639,4.05333.26306.38172.03775.85893.24468,1.25162a77.36136,77.36136,0,0,0,2.14186,10.24516,155.70461,155.70461,0,0,0,5.686,17.20257c.88384,2.2331,1.64259,4.51571,2.45865,6.77542,1.69535,5.41707,3.66468,10.73819,5.79289,15.99574q9.01044,22.25932,16.72157,44.99877c2.68826,7.926,5.73962,15.71579,9.07347,23.394q2.17335,5.00562,4.315,10.025c.14148.33038.22349.68619.33311,1.03023.26343.22614.15556.61724.382.85981Z"/><path fill="#efad73" d="M241.46259,91.555a3.1451,3.1451,0,0,0-2.1819.81687c-2.286,1.79451-4.63745,3.50637-6.909,5.31859-2.78889,2.225-5.7432,4.20888-8.70157,6.1922-1.38746.93017-2.76151,1.8833-4.10364,2.87735a52.06932,52.06932,0,0,1-4.93329,3.19969c-.61166-.90386-1.22006-1.80994-1.83731-2.71a11.14016,11.14016,0,0,0-5.73768-4.15718c-3.0914-1.08608-6.19832-2.12806-9.30009-3.18453a15.35844,15.35844,0,0,1-4.609-2.43446,12.39619,12.39619,0,0,1-4.50927-7.75091,15.91207,15.91207,0,0,1,2.68094-12.03234,44.292,44.292,0,0,1,5.53891-6.7452,57.86634,57.86634,0,0,0,4.77835-5.39755,35.62342,35.62342,0,0,0,5.68805-11.49189,146.88846,146.88846,0,0,0,3.65134-16.61226,154.22078,154.22078,0,0,1,5.63584-23.53717,26.73561,26.73561,0,0,1,3.04367-6.27186,9.73227,9.73227,0,0,1,1.8944-2.10529,3.65249,3.65249,0,0,1,5.29947.19985,7.48221,7.48221,0,0,1,2.473,4.97266,30.47873,30.47873,0,0,1-.281,7.6254,44.059,44.059,0,0,0-.55089,11.1036,26.06234,26.06234,0,0,0,1.20252,5.7572c1.15926,3.76666,2.73605,7.37048,4.24121,11.00263,1.143,2.75841,2.395,5.47674,3.41733,8.279a63.96309,63.96309,0,0,1,3.40016,13.74214,100.84239,100.84239,0,0,1,.77809,14.81669C241.4798,85.87,241.48364,88.71271,241.46259,91.555Z"/><path fill="#9797ed" d="M119.84646,300.35213a2.84923,2.84923,0,0,1-1.67172-.35766q-1.18994-2.31837-2.38095-4.6367A180.70295,180.70295,0,0,0,104.52,276.73686q-2.44966-3.60144-4.90964-7.19587a3.80786,3.80786,0,0,1-.847-1.97308c.28332-.26754.63151-.4468.974-.2081a5.12192,5.12192,0,0,0,3.13.68646c7.479-.02335,14.95852.00366,22.43694-.07427,2.16843-.02257,4.3361-.31128,6.5-.52094,2.235-.21657,4.4738-.42471,6.69443-.74948a38.64,38.64,0,0,0,6.00849-.91447,3.09727,3.09727,0,0,1,3.54231,1.30531,24.9312,24.9312,0,0,0,3.36241,3.11321,4.132,4.132,0,0,1,1.537,3.86229,25.18813,25.18813,0,0,1-4.5769,11.43271,3.62462,3.62462,0,0,1-.38488.52959c-1.8482,1.85358-3.41415,3.97439-5.46884,5.6365a16.61758,16.61758,0,0,1-6.55042,3.34881q-3.7068.913-7.35772,2.0471a5.98119,5.98119,0,0,0-3.42567,2.5596C123.41661,299.94778,121.58173,299.78551,119.84646,300.35213Z"/><path fill="#efad73" d="M231.692 204.62956c.82076 2.71208 1.61365 5.433 2.46746 8.13457 2.59117 8.199 5.77093 16.177 9.10317 24.0967q2.41352 5.73617 4.83846 11.46746c-1.65659.63415-3.43646.4775-5.1492.78993q-5.13438.93648-10.22052 2.08322a27.92623 27.92623 0 0 1-5.53929 1.04025c.00566-2.90818-.13972-5.82666.06248-8.72084.17226-2.46583.1702-4.938.38147-7.39471.28571-3.32246.72172-6.63229 1.11251-9.9453.33139-2.8092.6656-5.61847 1.04289-8.42171.48346-3.59205.68964-7.22318 1.527-10.76665C231.50128 206.21863 231.57047 205.41791 231.692 204.62956zM218.32333 118.70108q.98156.00321 1.96311.00644a6.63677 6.63677 0 0 1 5.97506 3.74149 4.99237 4.99237 0 0 1 .13795 4.2334 9.02224 9.02224 0 0 0-.64276 2.52045 3.78085 3.78085 0 0 0 .93214 2.81724c.38365.43766.80392.84352 1.18285 1.285a3.60345 3.60345 0 0 1 .68959 4.05118 9.90189 9.90189 0 0 0-.91 4.44559 3.15705 3.15705 0 0 1-1.55969 2.9299c-.84962.56-1.66356 1.174-2.49332 1.76492-1.61833.90523-2.91934.3973-4.0395-.90857a7.11263 7.11263 0 0 1-.553-.67283 66.79 66.79 0 0 1-5.24538-9.03919 15.79629 15.79629 0 0 1-1.19221-4.17557c-.48045-3.08072-.98966-6.15356-.34139-9.29175.30626-1.48262.81017-2.57882 2.50373-2.83149C215.94472 119.39616 217.1269 119.00084 218.32333 118.70108z"/><path fill="#dbd1d4" d="M247.14149,116.49043a1.32445,1.32445,0,0,1-.24484-1.25141,2.55831,2.55831,0,0,0,.31061-.00187Q247.17413,115.86351,247.14149,116.49043Z"/><path fill="#efad73" d="M324.39749 290.8205c-1.16923-3.0609-2.30522-6.135-3.51612-9.17933a95.39 95.39 0 0 0-5.18612-10.8335c-1.69024-3.062-3.24822-6.196-5.22587-9.09115-.90363-1.32287-1.829-2.63093-2.72969-3.95574-.32605-.47964-.60912-.98848-.9117-1.48366 3.91212-.339 7.82656-.65238 11.73534-1.02526 3.69006-.352 7.37408-.76717 11.061-1.15195.217-.02265.43641-.02652.65489-.03077 5.52951-.10723 11.04729-.60993 16.58433-.476a64.73519 64.73519 0 0 0 7.6013-.66865 67.09407 67.09407 0 0 1 10.03723-.11939 4.83644 4.83644 0 0 1 2.68965 1.32493c.75664.98254.215 1.979-.07366 2.89911a141.00252 141.00252 0 0 0-3.13135 14.00246c-.14738.7182-.50875 1.55456.16809 2.25577a3.1854 3.1854 0 0 0 .823-.22574 41.90176 41.90176 0 0 1 7.47793-3.25816q-.21531.65049-.43065 1.30071a3.13426 3.13426 0 0 1-1.47746.86439 42.84377 42.84377 0 0 0-8.45919 4.47075c-1.58157 1.14953-3.08737 2.39605-4.67383 3.54473-2.47157 1.78968-5.02709 3.44746-7.55615 5.14626-3.01193 2.02319-6.06722 3.98195-9.11092 5.95753a12.91738 12.91738 0 0 1-1.16212.60258 1.53027 1.53027 0 0 1-1.04322.27046 23.53423 23.53423 0 0 0-4.417-.08C330.85147 291.80644 327.567 291.83738 324.39749 290.8205zM395.63254 341.56428a7.57351 7.57351 0 0 1-2.97854-1.306 85.88447 85.88447 0 0 1-9.52869-6.50679c-2.20344-1.77493-4.39274-3.57642-6.52616-5.42351a34.4366 34.4366 0 0 1-5.29119-5.49753c-.70273-.95249-1.42839-2.06711-2.79885-2.28759a5.22261 5.22261 0 0 1 1.44072-1.61993c1.476-1.27961 3.0008-2.50278 4.49426-3.76254.4992-.42108.97587-.87133 1.43924-1.332q3.01935-3.00165 6.01935-6.02267a2.47641 2.47641 0 0 1 1.92659-.83289 2.44951 2.44951 0 0 1 1.7686.68227 26.67755 26.67755 0 0 1 3.58823 4.08293 34.531 34.531 0 0 1 5.7289 12.1293 18.47684 18.47684 0 0 1 .73723 5.14033 2.337 2.337 0 0 0 .034.8686c.5951 1.77338.33246 3.60207.386 5.40967a3.28123 3.28123 0 0 1-.0315 1.08638C395.47743 338.07479 395.69051 339.82849 395.63254 341.56428z"/><path fill="#f6c293" d="M394.24932,445.672q-.18938.24284-.379.48546a6.0756,6.0756,0,0,0-.75824.75112,67.88851,67.88851,0,0,1-9.24127,10.31015,39.9323,39.9323,0,0,0-3.2245,2.88888,4.90175,4.90175,0,0,1-1.02689-2.38365,59.91644,59.91644,0,0,0-4.09984-11.03589c-1.53645-3.46133-3.0281-6.94264-4.58338-10.39542-.44694-.9923-1.03587-1.92192-1.57743-2.87013a91.40279,91.40279,0,0,0-8.77712-12.50349,72.1405,72.1405,0,0,0-5.16411-5.63779,31.93389,31.93389,0,0,0-10.48385-6.9728c-.4694-.1909-.90384-.4678-1.35449-.70484.01547-1.755,1.66962-2.427,2.47756-3.65988a43.23135,43.23135,0,0,1,4.94878-6.32529c3.20222.58134,6.40674,1.15023,9.60557,1.74966,1.4235.2668,2.83426.60084,4.25287.89444,3.47316.71879,6.94328,1.45328,10.4227,2.14066,2.98009.58866,5.95577,1.23646,8.9626,1.64122,2.43783.32816,4.84991.81619,7.30313,1.08355a24.42873,24.42873,0,0,1,4.94139.67458,5.92384,5.92384,0,0,0,1.73678.10186c2.33169.01325,4.66349.00641,6.99519.01993a8.36236,8.36236,0,0,1,3.023.30084,2.58888,2.58888,0,0,0,1.29248.04659c1.35287-.23226,2.69582-.52214,4.04254-.78967q-.0123.64193-.02482,1.28333c-.4401.3416-.41669.83545-.43291,1.31624-.44512.32549-.42744.81867-.46831,1.29048a7.8604,7.8604,0,0,0-1.32623,3.49051,1.05968,1.05968,0,0,0-.38015.91861,32.9393,32.9393,0,0,0-2.08154,4.86819,8.50152,8.50152,0,0,0-.97683,2.5761,13.12,13.12,0,0,0-1.785,3.91308,1.02548,1.02548,0,0,0-.42771.88421,5.73607,5.73607,0,0,0-1.29288,2.64054,10.00985,10.00985,0,0,0-1.74307,3.50685.95787.95787,0,0,0-.44.87422,6.31156,6.31156,0,0,0-1.37878,2.57333,2.2677,2.2677,0,0,0-.46534.44015c-1.81239,3.10261-3.8932,6.02889-5.88939,9.0108A2.69391,2.69391,0,0,0,394.24932,445.672Z"/><path fill="#efad73" d="M351.00554,397.61845c-.018.87329-.67335,1.43694-1.11427,2.0594-1.28755,1.81759-2.79635,3.46731-4.01527,5.34891a21.58387,21.58387,0,0,1-2.297,2.577,7.84563,7.84563,0,0,1-2.57259-1.11219c-.86676-.67006-.52064-1.75666-.67441-2.64581-.30653-1.77264-.43131-3.57669-.63116-5.36778.37374-.8538-.19735-2.02672.89128-2.63907a10.84555,10.84555,0,0,1,2.3505.286C345.61532,396.69313,348.31571,397.13088,351.00554,397.61845Z"/><path fill="#8397e6" d="M433.16544,156.14768a1.97756,1.97756,0,0,1-.85679,1.64577,8.72506,8.72506,0,0,1-2.99372,1.23068,1.00838,1.00838,0,0,1-1.11657-.48659,5.03682,5.03682,0,0,1-.31342-.57068,33.27037,33.27037,0,0,1-2.11586-6.3747c-.20843-.88658-.06121-1.20314.68828-1.60512a7.3068,7.3068,0,0,1,2.39915-.98289,1.42164,1.42164,0,0,1,1.54564.55411,19.084,19.084,0,0,1,2.73653,6.34443C433.15187,155.97372,433.15473,156.04668,433.16544,156.14768Z"/><path fill="#efad73" d="M369.73652,253.07556c1.9646-3.21323,2.72258-6.84444,3.53343-10.44108.62-2.75,1.03122-5.54636,1.587-8.31172a5.93615,5.93615,0,0,0-.63843-4.39873c.31478-.766,1.06787-.96667,1.7133-1.25853,2.38224-1.07727,4.78219-2.11568,7.1827-3.15189a11.13812,11.13812,0,0,1,1.24018-.38106,2.39639,2.39639,0,0,1,2.28342.09107,3.15949,3.15949,0,0,1,1.502,2.306,23.69156,23.69156,0,0,1-.07125,5.22795,29.385,29.385,0,0,1-4.99454,11.94569,23.77976,23.77976,0,0,1-9.08464,7.91557,16.09878,16.09878,0,0,1-3.11823.926A1.00458,1.00458,0,0,1,369.73652,253.07556Z"/><path fill="#e59aa0" d="M364.15483,273.28742a2.45761,2.45761,0,0,1-.51527.36121c-.21425.08111-.501-.00606-.499-.24612a10.57579,10.57579,0,0,1,.14987-1.93626c.62475-3.19023,1.23035-6.38591,1.94986-9.55535.51223-2.25623,1.19976-4.47241,1.79456-6.71034a9.13051,9.13051,0,0,0,.15682-1.071q.8636-.1116,1.72695-.22507c-.55965,2.09644-1.14788,4.18669-1.67219,6.29283-.76941,3.09082-1.49162,6.19334-2.237,9.29015A25.63072,25.63072,0,0,1,364.15483,273.28742Z"/><path fill="#9797ed" d="M294.046,247.01715a.86575.86575,0,0,1-.382-.85989A.86575.86575,0,0,1,294.046,247.01715Z"/><path fill="#f6c293" d="M338.7419,291.63939c-1.146-.00424-2.292-.00494-3.4379-.0148a1.51071,1.51071,0,0,1-.99147-.35049q1.623-.01647,3.24657-.033A1.38388,1.38388,0,0,1,338.7419,291.63939Z"/></svg>
