<svg xmlns="http://www.w3.org/2000/svg" viewBox="0 0 512 512"><path fill="#9797ed" d="M122.54126,279.993c-1.15253-1.36842-2.2837-2.75549-3.46141-4.10185q-6.32941-7.23581-12.68394-14.44966c-3.95434-4.50609-7.94862-8.97808-11.84523-13.5336-4.34381-5.07839-8.63428-10.20178-12.78057-15.44686-3.8024-4.81-7.752-9.50332-11.59934-14.27825-1.90158-2.36006-3.70014-4.80279-5.57856-7.18185-2.68968-3.40657-5.37985-6.81351-8.12347-10.1765A91.1933,91.1933,0,0,1,43.897,180.48113a18.88355,18.88355,0,0,1-1.69724-7.80769,46.73447,46.73447,0,0,1,2.25939-14.63214,179.99111,179.99111,0,0,1,7.4947-19.24764c1.34559-2.94777,2.69215-5.893,4.18034-8.77175a62.79238,62.79238,0,0,1,3.4215-5.65761,3.82437,3.82437,0,0,1,3.1849-1.94681,16.00118,16.00118,0,0,1,3.08188-.03159c.54137.07351,1.09414.063,1.64177.0904,2.16137-.99852,4.3381-.19194,6.49667-.01571,8.09734.66112,15.884,2.46235,23.08662,6.394a56.64458,56.64458,0,0,1,5.73257,3.6563c2.169,1.60275,2.28568,3.577,1.49818,6.04733-2.3613,7.40706-6.16879,14.152-9.41508,21.15246a67.00345,67.00345,0,0,0-2.86884,6.86768c-1.74348,5.20346-.21562,9.88538,3.17344,13.64632,9.55818,10.60694,20.28066,20.06777,30.44882,30.07694,2.69279,2.65067,5.6675,5.03213,8.61017,7.42851,6.71826,5.471,14.69863,7.66663,23.00081,9.11812,2.96974.51919,6.03663.69633,8.77424,2.1828a15.66928,15.66928,0,0,1,.96852,7.48014c-.4628,5.90368-1.2549,11.78069-1.80995,17.67949A71.05176,71.05176,0,0,0,165.85,269.849a126.19568,126.19568,0,0,0,10.98757,37.77951,10.87593,10.87593,0,0,0,1.72915,2.80657,2.36907,2.36907,0,0,1,.78595,1.10577c-2.20691,3.80379-3.19647,8.03-4.17114,12.24724q-1.62517,7.03193-2.56326,14.19663c-.47013,3.61367-.85625,7.23419-1.22459,10.85863-.32651,3.2131-.767,6.41448-1.11226,9.62586-.22045,2.05086-.23757,4.13-.56322,6.16158-.47088,2.93771-.16041,5.91841-.64688,8.849a14.19849,14.19849,0,0,0-.0695,2.27042c-.00981,3.58284-.07243,7.16689.00032,10.74816.08667,4.26613.19521,8.53645.48515,12.79194.15448,2.26736.20722,4.53657.3617,6.80064.16837,2.468.47533,4.92627.67407,7.39263.13812,1.71384.18271,3.4315.46059,5.13714.24287,1.49066.19714,3.04127.55958,4.49544a1.7087,1.7087,0,0,1-.92464,2.19663,2.65771,2.65771,0,0,0-.44508.42088,3.05418,3.05418,0,0,1-1.705,1.43c-6.67567,2.67108-13.45788,4.5566-20.75327,2.98163-1.88589-.40714-3.81321-.614-5.70856-.99123a4.066,4.066,0,0,1-2.522-1.28323,12.2989,12.2989,0,0,1-4.24722-2.87544,2.04343,2.04343,0,0,1-.64246-1.25649c-.11805-1.50821-.42344-2.99331-.41917-4.51992.01578-5.65224.03327-11.30531-.04872-16.95667a95.43,95.43,0,0,0-.68247-9.87983c-.22731-1.91208-.334-3.83819-.53426-5.75391-.19292-1.84594-.42336-3.68825-.66153-5.52906-.2031-1.56972-.23371-3.15129-.46612-4.7248-.311-2.10526-.35049-4.2495-.541-6.37394-.20872-2.32855-.45689-4.65356-.68676-6.98021-.02032-.20566-.03408-.412-.04754-.61828-.17042-2.60988-.31028-5.22221-.51883-7.829-.19736-2.46727-.4848-4.92723-.69889-7.39333-.19045-2.19369-.31467-4.39312-.50477-6.58684-.20773-2.39756-.4581-4.79139-.68845-7.187-.033-.34285-.07041-.68594-.08458-1.02977-.12191-2.95849-.46306-5.89633-.784-8.83765-.2313-2.11957-.32849-4.25339-.5276-6.37693-.20535-2.19028-.47025-4.37485-.693-6.56359-.1881-1.84794-.35128-3.69838-.529-5.54741-.16453-1.71192-.32387-3.42443-.50317-5.13481-.24374-2.325-.53912-4.64524-.74287-6.97361a13.56076,13.56076,0,0,1-.35184-3.48058c.97471-.58984,1.87349-.004,2.77156.22143,6.89414,1.73078,13.06275,5.08536,19.25169,8.458,6.46986,3.52567,12.65312,7.59717,19.30357,10.26525-4.75124-2.27039-9.623-4.82361-14.37154-7.63154-5.619-3.32261-10.39283-7.72188-15.49368-11.70655C131.21555,285.8447,127.15441,282.52975,122.54126,279.993Z"/><path fill="#ffadb7" d="M178.47782,311.02066a3.34556,3.34556,0,0,1-1.45833-1.68537,67.75218,67.75218,0,0,1-3.63882-8.09855c-1.171-3.236-2.3478-6.47306-3.39062-9.7515a139.83623,139.83623,0,0,1-3.56789-13.98072c-.67213-3.23605-.97966-6.5181-1.53512-9.766a1.34406,1.34406,0,0,1-.02216-.20542c-.06217-4.12912-.78328-8.25319-.364-12.37431a52.12479,52.12479,0,0,1,.61746-6.35747c.27241-1.20084.17169-2.45516.38849-3.6886.332-1.88908.40055-3.82434.5835-5.73978.05225-.54707.073-1.10122.17861-1.63831a10.66978,10.66978,0,0,0,.06315-3.70288,24.31809,24.31809,0,0,1-.24779-3.08116,2.84475,2.84475,0,0,0-.40341-1.77993c.7827-1.08542,1.87138-.66216,2.83146-.48243a36.92219,36.92219,0,0,1,12.76981,5.17856,55.74329,55.74329,0,0,0,10.22089,4.94669c3.87463,1.43714,7.46033.65936,10.94663-1.17A36.60284,36.60284,0,0,0,215.316,226.20328c4.33595-6.08569,8.31855-12.36282,10.584-19.572.52205-1.6612.55281-3.40015.91114-5.08551a3.80023,3.80023,0,0,1,.9697-2.43628c3.93122,1.18367,7.7313,2.78572,11.74887,3.69222a19.14268,19.14268,0,0,0,5.27124.789,15.64508,15.64508,0,0,0,10.21347-2.52357,12.28543,12.28543,0,0,0,5.54666-8.56861,50.04539,50.04539,0,0,0,.38907-12.54662,2.84086,2.84086,0,0,1,.23955-1.99824c1.81008-1.35046,3.67574-.92721,5.55328-.17931a5.94091,5.94091,0,0,1,2.69883,3.77334c1.82962,8.47994,4.93052,16.63838,6.1773,25.27346a178.06537,178.06537,0,0,1,1.94969,31.90894,81.75735,81.75735,0,0,0-.31949,8.244c.19947,3.08033,1.25444,3.64193,3.96061,2.17767a12.46564,12.46564,0,0,0,5.39972-6.3395,59.3823,59.3823,0,0,0,5.12549-26.752,21.731,21.731,0,0,0-.83614-3.39814c-.15626-.74809-.43284-1.8064,1.05734-1.46686.96614.49822,1.93387.99345,2.89778,1.49594a3.00471,3.00471,0,0,1,1.31356.92841c.91767,4.7531.33024,9.46165-.32824,14.18632a115.70651,115.70651,0,0,1-3.98623,19.2095A36.6636,36.6636,0,0,1,277.20333,266.949c-2.73806,1.85466-5.58563,3.538-8.235,5.53717-1.97074,1.48708-2.97122,1.24611-4.61878-.58637a25.33471,25.33471,0,0,0-2.99973-3.37873,6.80224,6.80224,0,0,0,.68961,5.23443c.87839,1.89422.39784,3.11538-.96364,4.55788-7.42795,7.87-16.226,13.92113-25.67334,18.97449a83.02973,83.02973,0,0,1-21.83206,7.55282c-2.224.47942-4.47566.86738-6.66908,1.44627-5.58532,1.47406-11.32021,1.47881-17.009,1.944-1.99069.16278-3.97417.3938-5.96184.58142A8.89477,8.89477,0,0,0,178.47782,311.02066Z"/><path fill="#f6c193" d="M296.91345 214.08869c2.37507-.10655 4.62019.65551 6.92228 1.03652 2.64465.43767 5.30479.7607 7.95951 1.121 2.67035.36233 5.37118.16025 8.02129.654a7.9658 7.9658 0 0 0 1.4452.05737q8.38133.00288 16.76266-.0022c2.92265-.53934 5.90173-.2438 8.84748-.65607a81.31615 81.31615 0 0 0 8.33667-1.36572 79.25843 79.25843 0 0 0 9.05825-2.84253c10.23862-3.88452 20.51838-7.65746 30.98066-10.90261 8.67694-2.69139 17.39144-5.26172 26.06878-7.95183A60.96358 60.96358 0 0 0 432.502 188.985a52.992 52.992 0 0 0 7.64666-4.8955 118.40707 118.40707 0 0 1 11.101-7.55572 13.115 13.115 0 0 1 3.36876-1.55967 2.67989 2.67989 0 0 1 3.43 1.80388c.30938.7808.17417 1.63383.50059 2.4737a19.54664 19.54664 0 0 0 3.546-1.14833c1.15767-.43639 2.33476-.82342 3.48076-1.28783a4.73619 4.73619 0 0 1 3.81572.23533 8.776 8.776 0 0 1 5.32954 5.92887 6.84886 6.84886 0 0 1-.36053 4.04934 10.8138 10.8138 0 0 1-3.50538 5.005 25.70631 25.70631 0 0 1-6.06229 3.51559c-4.99993 2.14367-10.03576 4.20373-15.03215 6.35548a41.84418 41.84418 0 0 1-7.73234 2.20074A72.92032 72.92032 0 0 0 425.19 210.24512c-4.63162 2.29617-9.29275 4.52676-14.01962 6.623-3.8417 1.70364-7.61019 3.57433-11.46792 5.23942-7.96474 3.4378-15.82235 7.16343-24.18042 9.60034-4.29178 1.25136-8.63613 2.32155-12.9505 3.49661-5.90962 1.60952-11.90776 2.82426-17.9121 4.0038-2.156.42352-4.34672.6727-6.52373.98681-2.38073.34353-4.765.66237-7.14576 1.00627-2.38038.34388-4.75773.709-7.13737 1.05808-1.63151.23935-3.2658.46-4.89683.70255-1.42976.21264-2.87587.279-4.31073.438-2.8696.3181-5.76822.38017-8.656.526-1.44225.07286-2.8782.14112-4.32039.29066a59.04664 59.04664 0 0 1-5.99109.05825c.66221-1.48611 2.01046-.82739 3.0554-.88842 2.40181-.14034 2.46026-.1809 1.8578-2.5378-.92151-3.60488-1.74147-7.23619-2.87744-10.78638a17.992 17.992 0 0 1-.02211-5.29961 19.8077 19.8077 0 0 0-.75691-9.68079A1.3029 1.3029 0 0 1 296.91345 214.08869zM261.30256 178.05819a3.81846 3.81846 0 0 0 .0166.82345c.75893 3.19238.235 6.43377.38485 9.64857-.47636 1.79045-.331 3.672-.83467 5.46423a12.51763 12.51763 0 0 1-5.07674 7.24135 17.90588 17.90588 0 0 1-5.94618 2.6931 7.548 7.548 0 0 1-1.82383.24552q-1.65116-.00318-3.30229-.00515a2.60232 2.60232 0 0 1-1.16878-1.39148 18.6142 18.6142 0 0 0-7.24758-8.79619c-6.85834-4.73942-14.14181-8.82165-21.10005-13.41066-2.78024-2.00518-4.64961-4.87074-6.82622-7.4217-8.13944-9.53928-16.08576-19.24224-24.12849-28.86366q-18.70749-22.37957-36.032-45.84165c-3.93655-5.31733-8.06453-10.49337-12.14431-15.70368-.56706-.72421-1.40047-1.39918-1.08854-2.53142 3.99185-3.82777 6.84081-8.26571 7.44114-13.909a1.20948 1.20948 0 0 1 .47017-.885 8.62381 8.62381 0 0 1 .76882.67784q4.98148 5.52814 9.952 11.06619c1.246 1.38188 2.50632 2.74906 3.73159 4.15127 2.35767 2.69815 4.66564 5.436 6.97337 8.17623 2.21891 2.63473 4.52463 5.19668 6.806 7.77845q4.51658 5.11138 9.05508 10.20338 3.84756 4.32491 7.70649 8.63975 4.39776 4.94065 8.78715 9.88876c.13745.15466.28007.30483.42319.4543 3.09979 3.23738 6.14918 6.525 9.31263 9.69894 4.23362 4.24767 8.62531 8.33072 13.24578 12.16158 2.70444 2.24226 5.36992 4.532 8.09549 6.748q2.96571 2.41122 6.051 4.674c1.16354.8529 2.44295 1.54672 3.661 2.32656q2.95971 1.89492 5.9035 3.81457a2.19972 2.19972 0 0 0 1.29356.56c4.24589 2.67306 8.27681 5.67544 12.60447 8.22132a4.94175 4.94175 0 0 1 .45991.30807c.22181.15627.43724.32318.659.47443.68589.39354.69812-.11653.85213-.575.15216-.4529.0581-1.40852 1.05029-.75372C260.53259 175.45031 260.95524 176.74459 261.30256 178.05819zM102.68385 133.00807c-.52283-.33093-1.05575-.647-1.56689-.99509a49.45215 49.45215 0 0 0-18.93817-7.81408c-2.97322-.55706-5.97483-.84691-8.96349-1.25541-1.9202-.26248-3.8431-.22-5.75107-.46643.70183-1.34043 1.42461-2.66962 2.10139-4.02182 1.63637-3.26947 3.47736-6.42487 5.30138-9.59.75694-1.31349 1.57139-2.59691 2.26817-3.94143 2.38017-4.59277 4.99407-9.05053 7.63529-13.49549 2.00631-3.37647 3.97652-6.77645 5.87414-10.21488q3.34724-6.06508 6.53248-12.21915c2.21744-4.28727 4.00522-8.7737 5.93435-13.194a7.46082 7.46082 0 0 1 .40214-.70764c.09926.01945.19851.03889.298.05667a10.5706 10.5706 0 0 0 5.91009-.31112c2.608-.89195 3.66457-2.34919 3.49515-5.0877a2.19531 2.19531 0 0 1 1.53567-2.3578c3.51755-1.70183 3.51419-1.72632 3.26773-5.61154a2.6844 2.6844 0 0 1 .6884-2.07715c3.37805-3.86278 3.29146-7.264-.24124-11.08843.56983-1.39839 1.13268-2.79967 1.71081-4.19462a81.01856 81.01856 0 0 0 3.644-11.40631c.284-1.13514.59786-2.26284.901-3.39316a3.86121 3.86121 0 0 1 .13614-.3901c.7132-1.84242 1.81655-2.16406 3.30145-.88532a21.044 21.044 0 0 1 4.02419 4.694 27.54563 27.54563 0 0 1 3.65041 9.60018 26.32657 26.32657 0 0 1 .09984 9.04053 58.7288 58.7288 0 0 0-.50394 11.13586 21.0461 21.0461 0 0 0 .98134 5.05565c.44815 1.51789 1.01018 3.004 1.56481 4.48819a34.79176 34.79176 0 0 1 1.95822 6.50781c-.23408 2.44967.411 4.89025-.076 7.36223a22.68365 22.68365 0 0 1-6.184 11.47456c-.26964.28154-.70369.46379-.69756.95808-3.13661 2.18858-6.75925 2.92781-10.43553 3.50242a5.78154 5.78154 0 0 1-.82724.01624c-4.57854.04758-4.60918.04175-5.46182 4.45729a127.47774 127.47774 0 0 1-3.8266 15.24577c-2.41042 7.42429-3.68821 15.14861-5.86831 22.63718a56.49913 56.49913 0 0 1-2.28688 6.432C103.925 131.76459 103.65774 132.66843 102.68385 133.00807z"/><path fill="#f6c193" d="M291.95632 211.19531c-.568.06947-1.03745.40489-.72925.94316 1.3088 2.28609 1.15719 4.7668 1.12507 7.24294-.009.68917-.02333 1.37939.0019 2.06776a38.90732 38.90732 0 0 1-.68056 6.11315 57.35035 57.35035 0 0 1-1.82143 8.01309 31.70013 31.70013 0 0 1-4.73557 10.90124 10.64827 10.64827 0 0 1-4.97734 3.77645c-.39041.13255-.78.269-1.17529.38553-.96457.28449-1.6513-.00748-1.85795-.97607a10.83256 10.83256 0 0 1-.512-3.03744c.09207-1.37244.0184-2.75577.0251-4.13436a4.60991 4.60991 0 0 1 .1904-1.837 5.05626 5.05626 0 0 0 .216-2.04024c.00447-4.20479.10031-8.41276-.0372-12.61306-.07377-2.25412-.28929-4.51637-.4893-6.765-.10862-1.22146-.29945-2.44383-.29523-3.67831.00422-1.24358-.63045-2.40563-.44528-3.66824-.68819-1.47881-.07809-3.17264-.7703-4.6508a69.32362 69.32362 0 0 0-2.35988-11.45773c-.81208-2.97791-1.64657-5.95238-2.5862-8.8916-.42283-1.32272-.51571-2.68907-.8097-4.02479a7.64219 7.64219 0 0 0-2.55213-4.57925c.43327-1.06892 1.59352-.904 2.36448-1.40079a30.77811 30.77811 0 0 0 9.6126-5.44172c2.48632-1.97161 4.29835-4.44742 3.15341-8.01612-.68768-2.14356.13675-4.19008.68781-6.23674.76065-2.08535 1.6186-4.09189 3.50235-5.47551a6.47424 6.47424 0 0 1 6.80767-.87033 15.64972 15.64972 0 0 0 6.4095 1.39257c3.03951-.04 4.79412-1.54433 5.313-4.44244.52559-2.93552.52559-2.9356 3.50422-2.974.27529-.00355.55056-.00857.82491-.01194 3.81229-.25972 3.91858-.25482 3.74246 3.56272a26.55792 26.55792 0 0 1-1.50686 8.22229 29.22 29.22 0 0 0 1.54346-10.40136 2.906 2.906 0 0 1 .96838-2.77542c3.078-2.29787 3.95407-5.63394 4.28832-9.23029.081-.87166-.40312-1.996.864-2.47344a4.365 4.365 0 0 1 .85673.53429c3.00688 3.02032 4.41693 6.61729 3.61046 10.86934a35.34367 35.34367 0 0 0-.59592 9.22985 9.12867 9.12867 0 0 0 2.4309 6.19916 9.96872 9.96872 0 0 1 1.29119 1.60567 4.81035 4.81035 0 0 1 .71551 1.46872c.434 1.76912-.12722 2.86771-1.79722 3.709-.1229.06191-.24742.12076-.37264.1779-1.8578.84792-2.03208 1.09932-1.87589 3.12759a36.52206 36.52206 0 0 0 .45755 4.09044 39.74545 39.74545 0 0 1 .32794 7.61384c-.00321 4.172-2.38771 5.84633-5.91285 6.38535a10.102 10.102 0 0 1-3.702-.08667 20.47846 20.47846 0 0 0-4.93264-.24082 12.36021 12.36021 0 0 0-2.01337.36533 44.31068 44.31068 0 0 1-17.39169-7.12019c-.34388-.22691-.65442-.503-1.00935-.71327-.29377-.174-.621-.3924-.94276-.12893-.31361.25674-.20119.62045-.07738.94386a8.65581 8.65581 0 0 0 .9421 1.59261 64.82111 64.82111 0 0 0 9.32032 10.69577c.67293.65743 1.52539 1.20588 1.74362 2.23135a40.39656 40.39656 0 0 1-2.46411 4.23978c-1.618 3.01127-3.3406 5.96866-4.65744 9.13159A6.34324 6.34324 0 0 0 291.95632 211.19531zM139.48472 427.87077a49.34286 49.34286 0 0 0 7.6288 1.55769c1.61982.25671 3.24127.50969 4.86883.70792a9.3476 9.3476 0 0 0 2.26014.04549 46.00091 46.00091 0 0 0 7.47111-1.297 46.72074 46.72074 0 0 0 8.46016-3.15147 102.7685 102.7685 0 0 1 2.539 11.8993c.51414 3.32923 1.11682 6.64622 1.56233 9.9844.72873 5.4601 1.77549 10.85949 2.99929 16.2235a107.02751 107.02751 0 0 0 3.5987 12.7122 30.92259 30.92259 0 0 0 4.68758 8.69 16.39523 16.39523 0 0 0 7.42013 5.39539 34.00636 34.00636 0 0 0 7.40477 1.8045c1.50921.1905 3.0145.25333 4.52159.38081a21.18975 21.18975 0 0 1 7.58156 1.82476c1.85909.89919 3.77875 1.67374 5.67645 2.49216a6.92843 6.92843 0 0 1 2.71721 1.83477 4.4617 4.4617 0 0 1 .9302 4.261 3.38223 3.38223 0 0 1-2.53568 2.45233c-1.48455.4175-3.00822.28714-4.49663.62064a25.14049 25.14049 0 0 1-4.50852.49442c-7.646.296-15.29048.70515-22.94786.4729-1.31023-.03973-2.633.065-3.93039-.07678-4.12554-.45086-8.26558-.22659-12.396-.37918a19.18794 19.18794 0 0 1-6.23644-1.32367 9.04758 9.04758 0 0 1-5.29352-5.748 26.75892 26.75892 0 0 1-1.24452-5.63472c-.358-2.79644-.58381-5.60966-.92678-8.40827a58.13954 58.13954 0 0 0-3.38243-13.58744c-1.41753-3.739-3.01966-7.39924-4.50819-11.10705-1.10329-2.74822-2.11938-5.53329-3.10628-8.32594-1.538-4.352-3.07807-8.705-4.50478-13.09417A48.63953 48.63953 0 0 1 139.48472 427.87077z"/><path fill="#392520" d="M308.89417,145.3357c-1.0303.0701-2.06079.13765-3.09081.21157a.65615.65615,0,0,0-.66461.64663c-.02892.342.00449.68872-.0041,1.033a5.37833,5.37833,0,0,1-5.415,5.59813,15.30785,15.30785,0,0,1-6.25709-1.11031,3.36476,3.36476,0,0,1-.373-.17793c-3.9022-2.00726-6.94078.12546-8.56,2.60113a31.3553,31.3553,0,0,0-1.66275,3.2983c-1.90389,1.70129-1.81683,4.022-1.40506,6.112.53913,2.73635-.34027,4.57906-2.27164,6.38668-2.17751,2.038-4.2753,4.10525-7.1337,5.1787-2.49638.9375-3.91083.21564-4.68487-2.36706a21.08812,21.08812,0,0,1-.45647-4.51135c-.1947-2.46628-.95408-3.40673-3.104-3.99186-1.62377-1.3511-2.1296-3.44336-3.35187-5.06455-.37072-.98141.3431-1.8104.38434-2.735a10.25513,10.25513,0,0,1,.64844-3.43075c1.19273-4.38518,2.59373-8.70777,4.07823-13.00186a42.704,42.704,0,0,1,3.22837-7.14672A21.1387,21.1387,0,0,1,285.045,121.75107a61.31956,61.31956,0,0,1,14.02437-.38033,40.75585,40.75585,0,0,1,10.84313,2.44859,17.7605,17.7605,0,0,1,6.38181,4.10011,9.45328,9.45328,0,0,1,2.12369,3.005,1.09947,1.09947,0,0,1-.68911,1.33584c-.63226-.20564-1.18535-.80066-1.94657-.39857a2.246,2.246,0,0,1-.82035-.27477c-6.734-.75151-10.65682,3.24752-9.76221,9.97692a6.575,6.575,0,0,0,.401,2.41608c.46686.57972,1.14095.34522,1.72706.45911C307.94037,144.55813,308.79336,144.30661,308.89417,145.3357Z"/><path fill="#c98a94" d="M296.91345,214.08869c1.46693,1.66047,1.44568,3.77438,1.59886,5.77021a20.313,20.313,0,0,1-.26587,5.28579,29.35134,29.35134,0,0,0-.09414,5.10859,34.21051,34.21051,0,0,1-2.90877,14.03824,4.74393,4.74393,0,0,0-.81145,2.0849,42.65974,42.65974,0,0,1-3.65226,9.4204,27.41153,27.41153,0,0,1-3.57882,5.05071,76.67,76.67,0,0,1-16.23593,13.68463,72.61714,72.61714,0,0,0-11.10483,8.58308c-2.55681,2.40532-4.98973,4.953-7.7663,7.12933a60.6179,60.6179,0,0,1-12.65878,7.75432,98.1779,98.1779,0,0,1-9.44332,3.63786c-1.24252.4082-2.46206.88605-3.69364,1.32781a108.26545,108.26545,0,0,1-18.36361,4.76857c-1.831.313-3.6604.62792-5.495.91938-2.11649.33628-4.25184.43853-6.37075.58331-2.74649.18765-5.50767.24413-8.24493.55377a38.0539,38.0539,0,0,0-8.47107,1.75049c-.337-.09656-.693-.16182-.875-.51955a1.80837,1.80837,0,0,1,1.14224-1.59714,7.36566,7.36566,0,0,1,1.92085-.7337,16.10315,16.10315,0,0,1,4.26955-.59691,4.01477,4.01477,0,0,0,1.83569-.20632,2.01681,2.01681,0,0,1,.80179-.1693c2.75676.11857,5.46168-.69813,8.22537-.44235a19.20355,19.20355,0,0,0,5.30238-.60428c3.83771-.71655,7.6621-1.50978,11.47793-2.33638,1.94324-.421,3.85588-.9831,5.78292-1.47917a93.75181,93.75181,0,0,0,11.4888-3.96908,47.09319,47.09319,0,0,0,8.60342-4.42744c3.49112-2.32349,7.0267-4.58041,10.50737-6.91927,1.19192-.80091,2.295-1.73922,3.40562-2.65484a106.18412,106.18412,0,0,0,7.79777-7.37531c.29109-.29409.57211-.59989.88092-.8743a.918.918,0,0,0,.17814-1.28535,16.5547,16.5547,0,0,1-1.43115-4.07284,9.86813,9.86813,0,0,1-.15744-3.07585.668.668,0,0,1,1.08024-.47692,2.95935,2.95935,0,0,1,.61114.55064c.717.91885,1.39473,1.86864,2.12252,2.77854.64386.805,1.26321,1.84115,2.31748,1.94039a3.85,3.85,0,0,0,2.66552-1.34727,21.45879,21.45879,0,0,1,3.50609-2.53125,65.75065,65.75065,0,0,0,6.94538-4.80211,27.03364,27.03364,0,0,0,4.80147-4.79174c.46233-.59777,1.02022-1.12417,1.4589-1.7372a36.50029,36.50029,0,0,0,4.684-9.15757,74.84161,74.84161,0,0,0,3.181-11.713,61.65584,61.65584,0,0,0,.98792-6.49884c.101-1.42511.60211-2.82459.67535-4.24834.09543-1.85479.64088-3.65848.53029-5.52863-.11726-1.98323.2641-3.99362-.36533-5.95195a.92712.92712,0,0,1,.45538-1.06551Q296.54073,213.854,296.91345,214.08869Z"/><path fill="#f6c193" d="M103.51357,55.09264a3.54328,3.54328,0,0,0-.11428-1.82962,14.19889,14.19889,0,0,1-.827-3.595c-.34906-2.5774.226-4.77832,2.45425-6.30252a6.22845,6.22845,0,0,0,2.6128-5.31527,14.01174,14.01174,0,0,1,.35233-3.26225,6.49781,6.49781,0,0,1,6.27934-4.96582,21.12794,21.12794,0,0,0,3.70258-.08085c.34733.66463.56347,1.38122.93294,2.04649,1.50622,2.71208,1.27244,4.6389-.86478,6.88949a4.75871,4.75871,0,0,0-1.5321,3.68208,3.80468,3.80468,0,0,1-2.44551,3.9254,3.52571,3.52571,0,0,0-2.146,3.42662,4.219,4.219,0,0,1-3.77758,4.21332,17.31638,17.31638,0,0,0-4.534,1.22924Z"/><path fill="#7287cc" d="M122.54126,279.993c.2076-.27034.45227-.22619.7253-.10629a18.20171,18.20171,0,0,1,3.40452,1.94086q2.832,2.06116,5.60666,4.20075c1.84748,1.42372,3.66439,2.88719,5.48942,4.33987,1.98611,1.58087,4.00058,3.12875,5.93623,4.76941a32.37393,32.37393,0,0,0,3.76024,2.878c2.45082,1.52572,4.88732,3.07194,7.3898,4.51875,3.34745,1.93534,6.863,3.52752,10.28177,5.31435.48651.25427.96436.52729,1.429.81911a.38982.38982,0,0,1,.08617.35833.40718.40718,0,0,1-.29423.22111,1.35327,1.35327,0,0,1-.59864-.07946,97.78741,97.78741,0,0,1-10.18848-5.00615c-2.76114-1.54573-5.42255-3.26587-8.28164-4.6484-1.97687-.95592-3.81886-2.18661-5.76047-3.22061a84.97928,84.97928,0,0,0-8.40612-3.95722,91.14848,91.14848,0,0,0-9.24041-2.87369Q123.21089,284.72731,122.54126,279.993Z"/><path fill="#392520" d="M260.84351,156.44378c.20342.90761-.32589,1.81267-.00945,2.72067-1.14931.62925-1.09851,1.50838-.72132,2.62609.39419,1.1682,1.65331,1.86323,1.64609,3.21327a14.78714,14.78714,0,0,0-3.52691,8.17311c-.09948.71705-.02394,1.53955-.73063,2.0592a6.25974,6.25974,0,0,1-.92686-.4166q-5.2732-3.45857-10.5243-6.95051c-.54912-.36734-1.253-.64169-1.38821-1.434a39.6614,39.6614,0,0,1,5.09539-3.80158,21.95267,21.95267,0,0,1,7.92592-3.22227,1.16778,1.16778,0,0,0,.84677-.489c.19205-.27177.44854-.66014.71228-.69088C260.34837,158.10232,260.53314,157.2345,260.84351,156.44378Z"/><path fill="#e8b385" d="M299.83251 194.26245c-.46847-.39783-.96288-.76921-1.40062-1.19838-1.42248-1.3946-2.81514-2.81957-4.23588-4.216a53.61668 53.61668 0 0 1-6.61211-8.35873 2.75031 2.75031 0 0 1-.60459-1.7174.889.889 0 0 1 1.26577-.85188 4.28621 4.28621 0 0 1 .88721.5122 32.99513 32.99513 0 0 0 6.83807 4.14593 40.71536 40.71536 0 0 0 9.86679 3.41531 2.138 2.138 0 0 1 1.41047.76777 12.45576 12.45576 0 0 0-5.20984 4.54332A15.2161 15.2161 0 0 1 299.83251 194.26245zM103.60651 55.154a2.35515 2.35515 0 0 0 .32431-.52058.91362.91362 0 0 1 .84067-.76106c1.15483-.12331 2.31018-.2589 3.45566-.448a4.59886 4.59886 0 0 0 3.0272-2.29689 1.63506 1.63506 0 0 0 .13824-.80008c.02191-.55-.00871-1.10224.0187-1.65175a2.57878 2.57878 0 0 1 1.5909-2.44149 11.22577 11.22577 0 0 0 1.46969-.751 2.65678 2.65678 0 0 0 1.49773-2.71026c-.05238-.40641.00358-.82561-.01282-1.23805a3.39623 3.39623 0 0 1 1.06226-2.593c.24063-.24609.502-.47348.72768-.73231.57439-.65881 1.46909-1.10683 1.51138-2.12718a5.97444 5.97444 0 0 0-.63056-3.7935c-.22827-.3412-.3653-.79413-.673-1.02148-.7639-.56443-.25941-1.0241.01918-1.52547q.2466-.56365.49354-1.12628c.31058-.11439.6866-.3793.92649-.01307a14.77656 14.77656 0 0 1 2.04294 3.994 8.839 8.839 0 0 1-.2135 4.841 4.24336 4.24336 0 0 1-1.86527 2.39877 1.74234 1.74234 0 0 0-.75287 2.29379 4.83263 4.83263 0 0 1 .25487 1.61564 3.17427 3.17427 0 0 1-1.85112 3.17485c-.803.38809-1.60825.773-2.42558 1.12936-.9876.43056-1.00933.41969-.81375 1.49387a4.1816 4.1816 0 0 1-.47373 3.365 6.28082 6.28082 0 0 1-1.94066 1.8177 9.76027 9.76027 0 0 1-3.90274 1.18273 26.789 26.789 0 0 1-3.09065.01568A.69174.69174 0 0 1 103.60651 55.154zM132.96091 78.33073c-.30024-.2298-.19478-.45126.00555-.6816.98823-1.13617 1.99664-2.25582 2.95408-3.41746a15.76426 15.76426 0 0 0 2.72265-5.50134 16.86562 16.86562 0 0 0 .93222-6.4705c-.07183-.81852-.01086-1.6487-.01046-2.47356a1.12657 1.12657 0 0 1 .37077-.91818 8.07027 8.07027 0 0 1 .47053 2.78145 2.54535 2.54535 0 0 0 .86786 1.96629c.57321.56669 1.08353 1.197 1.62144 1.79928.10369 4.40472-1.79419 8.07355-4.26675 11.52012a16.73065 16.73065 0 0 1-2.37605 2.8251 1.87323 1.87323 0 0 1-1.25416.62032C133.81814 80.19557 133.42594 79.227 132.96091 78.33073zM295.24353 244.29152a25.46337 25.46337 0 0 1 1.059-4.96036c.44771-2.11957.944-4.229 1.37515-6.35178a8.86369 8.86369 0 0 0 .05633-1.63158 1.23542 1.23542 0 0 1 .41821-1.09442 2.17782 2.17782 0 0 1 .66866 1.46322c.6129 2.522 1.49508 4.97228 1.89269 7.5553a34.51687 34.51687 0 0 0 1.05414 3.7512.63506.63506 0 0 1-.62471.85024c-1.304.03753-2.60927.02977-3.9138.05251-.53818.00938-1.11264-.11135-1.5518.34927Q295.46069 244.28316 295.24353 244.29152z"/><path fill="#49322d" d="M315.46051,131.19848l.39316.5037c.52615.89459-.12628,1.58459-.45621,2.28815a21.44468,21.44468,0,0,0-1.6464,8.03609c2.2054-1.96329,2.9871-4.56387,3.301-7.38194.09613-.86313-.188-1.81882.59213-2.52241q.38685-.59883.77376-1.19762a.80137.80137,0,0,1,.34194.78787c-.54958.33689-.29968.86319-.27378,1.30638a14.466,14.466,0,0,1-.93536,5.87477,9.31274,9.31274,0,0,1-3.74139,5.045,1.393,1.393,0,0,0-.72992,1.35072,33.14229,33.14229,0,0,1-.423,6.58586,23.04559,23.04559,0,0,1-1.5547,5.75985,3.48332,3.48332,0,0,1-1.02866,1.51635.39328.39328,0,0,1-.36122-.03573c-.0905-.068-.1896-.26211-.15333-.33929.26238-.55846.62188-1.07784.83283-1.65283a29.59505,29.59505,0,0,0,1.79749-11.55139c-.021-.49611-.28575-.65876-.85921-.55585a6.21154,6.21154,0,0,1-2.43547.31951,1.27382,1.27382,0,0,0-1.09437-.35824c-.73386.0013-1.46779.00542-2.2015-.00612a.79625.79625,0,0,1-.7814-.50761c1.11161-.78315,2.38531-.43852,3.59255-.48873,2.71111-.11269,3.04314-.39925,3.26506-3.04623a24.9347,24.9347,0,0,1,1.93073-7.7409C313.97493,132.32125,314.29912,131.35315,315.46051,131.19848Z"/><path fill="#e8b385" d="M227.80247,199.23321c-.935-3.89807-3.08566-7.14277-5.529-10.22127-2.21449-2.79013-4.46411-5.55236-6.69589-8.3288-.12821-.15948-.23524-.336-.35263-.5045a1.85644,1.85644,0,0,1,1.14406.38194c1.5333,1.04023,3.11558,2.01,4.62656,3.08092,3.1406,2.22586,6.52993,4.04669,9.78134,6.0912a77.30719,77.30719,0,0,1,7.59766,5.26879,23.11178,23.11178,0,0,1,4.21389,4.72285,11.32951,11.32951,0,0,1,1.31437,2.55671c.24683.63939.54338,1.25958.81761,1.88829a12.45511,12.45511,0,0,1-4.2495-.53757c-3.94641-.85964-7.72116-2.307-11.55733-3.54457C228.3973,199.92065,228.18714,199.495,227.80247,199.23321Z"/><path fill="#1e1411" d="M268.09476,176.99431a5.74357,5.74357,0,0,1-3.51875-5.75956,11.72969,11.72969,0,0,1,.28179-2.65638,4.6949,4.6949,0,0,0,.08433-2.243.76617.76617,0,0,0-.9-.605,1.95226,1.95226,0,0,0-1.6397,1.06408,15.99347,15.99347,0,0,0-2.42958,7.13245c-.55938.78424-.02411,1.71358-.34191,2.60615a2.63356,2.63356,0,0,1-1.67109-.94174,1.40315,1.40315,0,0,0-.43971-.35213l-.01858-.003a23.392,23.392,0,0,1,.92975-5.58156,10.63324,10.63324,0,0,1,2.75969-4.66808c.1227-.12869.37684-.13209.56994-.19365.56742-.5262,1.47765-.16281,2.01181-.77532a.69566.69566,0,0,1,.68652-.36933,3.0208,3.0208,0,0,1,2.23577,1.66226,6.81762,6.81762,0,0,1,.81135,3.37523,12.026,12.026,0,0,0,.45341,4.286,4.74851,4.74851,0,0,0,.4845,1.1332,2.05061,2.05061,0,0,0,2.50719.81855,14.36986,14.36986,0,0,0,5.9704-3.55792,41.58724,41.58724,0,0,1,3.08881-3.0536,3.15734,3.15734,0,0,0,1.05333-3.52944,11.70831,11.70831,0,0,1,.1187-5.90476,3.03418,3.03418,0,0,1,.82906-1.62772c.34027-.30613.62256-.12051.855.18624-.08666.40082-.15485.80677-.26306,1.20172a9.85209,9.85209,0,0,0,.05992,6.07744,3.4135,3.4135,0,0,1-.30529,2.9579,13.11537,13.11537,0,0,1-4.26421,4.93047,56.11065,56.11065,0,0,1-5.82174,3.49567,14.75827,14.75827,0,0,1-3.05485,1.19163l-.59986-.10894A1.598,1.598,0,0,0,268.09476,176.99431Z"/><path fill="#392520" d="M257.52012,175.23926a.44087.44087,0,0,1,.44.35231A.42136.42136,0,0,1,257.52012,175.23926Z"/><path fill="#e8b385" d="M285.34479,161.75766a1.49637,1.49637,0,0,1,.36117-1.23323,5.83541,5.83541,0,0,1,2.83341-1.96865c.39023-.10921.43863-.49056.14092-.81257a7.18992,7.18992,0,0,1-.73638-.70252.48054.48054,0,0,1,.153-.71347c.15879-.08408.47512-.13462.56395-.04508a3.18042,3.18042,0,0,1,1.13221,2.72944c-.04757.34314-.28624.72549-.653.7a2.82011,2.82011,0,0,0-3.15177,2.30038.21556.21556,0,0,1-.34322.12374A1.80154,1.80154,0,0,1,285.34479,161.75766Z"/><path fill="#f6c193" d="M315.46051,131.19848a16.1364,16.1364,0,0,0-2.84842,7.18885,22.92668,22.92668,0,0,0-.39084,4.50944,1.06148,1.06148,0,0,1-.89007,1.19216,13.27326,13.27326,0,0,1-2.21482.432,13.10646,13.10646,0,0,1-4.29946-.05708c-.07084-1.02274-.08966-2.0523-.22406-3.06654a11.94108,11.94108,0,0,1,.55339-5.2562,6.54616,6.54616,0,0,1,4.58842-4.5467,13.55,13.55,0,0,1,4.61206-.79495A1.35365,1.35365,0,0,1,315.46051,131.19848Z"/><path fill="#f6c193" d="M317.6442,132.12207a17.078,17.078,0,0,1-.5052,5.2897,12.53556,12.53556,0,0,1-2.0457,4.22394,3.48107,3.48107,0,0,1-1.65531,1.391c-.50082-.226-.33132-.61939-.321-.91527a20.73908,20.73908,0,0,1,2.24227-9.29009c.19263-.35816.33107-.74545.49451-1.11923a2.33885,2.33885,0,0,1,.26632-.28978c.53385-.41815.76651-.42325,1.14054.0245A4.09666,4.09666,0,0,1,317.6442,132.12207Z"/><path fill="#d3818b" d="M263.77273,164.01762c-.01294,1.03087-.06606,1.09678-.86768.98418-.3835-.05387-.76274-.13813-1.144-.20874a6.21572,6.21572,0,0,1-2.46954-3.86192,3.9473,3.9473,0,0,1-.06543-1.21738c.02641-.51144.36761-.73889,1.01509-.7029a3.01342,3.01342,0,0,1,.593.15342A20.58186,20.58186,0,0,1,263.77273,164.01762Z"/><path fill="#d4a89f" d="M268.09476,176.99431a.33363.33363,0,0,1,.525.18822C268.36523,177.337,268.17032,177.33175,268.09476,176.99431Z"/></svg>
