<svg xmlns="http://www.w3.org/2000/svg" viewBox="0 0 512 512"><path fill="#9797ed" d="M427.671,213.1325a2.2485,2.2485,0,0,1,2.327,2.15106c.1501,1.22717.4821,2.43186.63664,3.65872.51926,4.12318.9883,8.25265,1.48952,12.37815.53623,4.4143,1.09817,8.82549,1.62847,13.24048.4957,4.12645.93373,8.26,1.45385,12.38327q.80788,6.405,1.32019,12.838c.28949,3.5619.63364,7.11864.8993,10.68416.28177,3.78226.59835,7.56211.87242,11.34606q.48234,6.65907.90658,13.32035c.177,2.844.15818,5.69636.40477,8.529.56532,6.49437.35235,12.99659.30512,19.49484a114.77928,114.77928,0,0,1-.73495,11.79263c-.03213.29013-.0346.58352-.05275.87523-.1766,2.841-.31535,5.685-.54352,8.52184-.16364,2.03343-.44761,4.05712-.67627,6.08534-.03272.29029-.06442.58114-.08268.87258-.17767,2.84106-.31588,5.68519-.54,8.52256-.16638,2.10669-.44644,4.20433-.66947,6.30668-.2,1.8858-.38678,3.773-.58738,5.65872-.49356,4.639-.8518,9.29182-1.64967,13.8976-.52227,3.01518-.85148,6.06328-1.33632,9.08558-.55417,3.45467-1.24447,6.88811-1.76657,10.34723a62.16433,62.16433,0,0,1-2.78748,11.24089,36.27575,36.27575,0,0,1-2.96966,6.57547,26.04767,26.04767,0,0,1-6.61167,7.51478,36.85039,36.85039,0,0,1-18.24435,7.3719c-3.11261.38314-6.23619.63911-9.35841.92581-6.40631.58818-12.8289.65934-19.24589.94626q-11.40149.50973-22.7865.16594c-4.9625-.14715-9.927-.29012-14.88957-.45923-4.15514-.14158-8.31433-.40451-12.44878-.8345-3.21082-.334-6.42581-.165-9.62532-.39835-7.00483-.51091-14.02331-.20124-21.02731-.4919a64.831,64.831,0,0,0-7.6544-.19508c-2.91969.22533-5.83848.21912-8.75756.30292-1.60638.04611-3.221.07754-4.82207-.03031-2.18027-.14693-4.35379-.41066-6.52514-.66711-1.52-.17949-3.03434-.41291-4.54621-.65372a8.04534,8.04534,0,0,1-6.0172-3.56389c-1.24972-.85367-1.38014-2.1849-1.39139-3.50145q-.09538-11.14533-.0004-22.291a9.37064,9.37064,0,0,1,.91411-4.01774,10.66085,10.66085,0,0,1,2.52434-2.88395c6.16061-3.427,13.00112-4.35834,19.82249-5.08593,9.43166-1.006,18.91973-1.36191,28.38649-1.95668,11.97421-.75231,23.93723-.73718,35.91058-.72706,4.003.00338,7.98839.23763,12.01274.09256A77.3696,77.3696,0,0,0,368.795,399.4685c3.31457-.90463,4.08768-2.324,3.3977-5.70236-.746-3.65222-1.79586-7.23345-2.62839-10.86527a2.33564,2.33564,0,0,0-2.6003-2.06661c-.908-.00889-2.14755.36071-2.50365-1.08241a2.25989,2.25989,0,0,1,1.82334-.58114c1.89723.11422,2.22717-.79629,1.81362-2.43815-1.19358-4.73886-2.21114-9.52023-3.35079-14.27186-2.32809-9.70682-2.026-19.53718-1.452-29.37632.41177-7.05848,1.30531-14.0756,2.0038-21.10583.37112-2.4312.99611-4.81712.60631-7.34717-.612-3.9719-3.30472-6.49279-6.17038-8.71948-6.57574-5.10953-13.13826-10.211-18.79783-16.36294a8.96053,8.96053,0,0,0-1.58014-1.16913c-5.29357-7.28205-8.26963-15.47328-10.21059-24.22707a146.14331,146.14331,0,0,1-3.3057-22.05437c-.1241-1.88082-.40509-3.78925.31334-5.6343,2.83648-2.78213,6.58072-3.73811,10.19449-4.75982a236.71085,236.71085,0,0,1,35.2804-6.62431,211.15824,211.15824,0,0,1,25.29137-2.013c5.22146-.01872,10.46745-.69252,15.71674.13631,4.20655.66416,8.438-.508,12.67468-.33441A4.75455,4.75455,0,0,1,427.671,213.1325Z"/><path fill="#ffadb7" d="M427.671,213.1325a6.02774,6.02774,0,0,1-1.47618.34919c-4.23552-.08161-8.4474.73951-12.67792.40909-2.62148-.20477-5.23606-.34561-7.86239-.30553a14.34337,14.34337,0,0,0-2.83069.21152,7.62036,7.62036,0,0,1-3.0483-.01081,11.66506,11.66506,0,0,0-4.34695.00125,12.23882,12.23882,0,0,1-2.18046.13471,91.73738,91.73738,0,0,0-11.98232.84205c-1.51294.197-3.04128.207-4.56517.43479-3.02013.45147-6.08617.59123-9.11034,1.021-4.24747.60358-8.46829,1.39206-12.71094,2.03234a175.27658,175.27658,0,0,0-18.33083,4.05257,38.14519,38.14519,0,0,0-8.14758,3.14153c-.70548.37259-1.35232.85616-2.0261,1.28878-1.2652-.14667-1.25454-1.28335-1.52065-2.104-1.33-4.10176-3.04524-8.067-4.36592-12.16514-2.49778-7.75074-8.09026-12.8538-14.45909-17.33188-12.86-9.04222-27.42674-13.808-42.62742-16.98356-6.15019-1.28484-12.34156-2.31022-18.58859-2.98083a11.57743,11.57743,0,0,0-7.42414,1.18919,19.99583,19.99583,0,0,1-6.6521,2.11483c-1.38253.12072-2.71313.51278-4.06955.76875-.64719.12211-1.35634.17427-1.77017-.49022-.45693-.73368-.08281-1.39508.33388-2.01428a4.29221,4.29221,0,0,1,2.76671-1.5733c2.45117-.64032,5.00076-.87994,7.30472-2.11475,4.9047-2.62874,7.19951-6.99556,8.35994-12.16233.44606-1.986.89643-3.97107,1.32849-5.96062,1.86286-7.31879,2.52188-14.79792,3.19111-22.29506a78.00852,78.00852,0,0,0-.22276-13.31338c-.84519-10.3383-7.29868-16.35675-17.76528-16.70724-12.891-.43168-24.68884,3.03734-36.05026,8.59511-6.56,3.209-13.08612,6.4809-18.87949,11.03939-2.69022,2.11679-5.07093,4.39328-6.42978,7.59618-.25131.59237-.49548,1.24373-1.25651,1.40606-2.212-1.12829-2.20482-3.41546-2.70741-5.38318a12.43385,12.43385,0,0,1-.20106-3.47449,28.95173,28.95173,0,0,1,9.02333-11.91374c9.51241-7.95324,20.72858-12.443,32.44976-15.87223,9.12547-2.66982,18.45244-4.51984,27.71012-6.6463a73.26514,73.26514,0,0,0,11.90773-3.73106,13.18322,13.18322,0,0,0,3.93139-2.355,3.97919,3.97919,0,0,0-2.33251.00431c-5.30534.67849-10.45982,2.08612-15.65585,3.28386a22.73464,22.73464,0,0,1-6.10271.37315c-.85162-.03458-1.82594-.06548-1.86781-1.32167a23.78382,23.78382,0,0,1,4.58543-1.342c3.46234-.86806,6.96571-1.57111,10.44649-2.3671a66.94364,66.94364,0,0,1,10.12244-1.676,4.08192,4.08192,0,0,0,1.06886-.19877A30.012,30.012,0,0,1,257.2724,77.472a103.846,103.846,0,0,1,13.3517-.33808c7.556.23525,14.94987,1.38412,21.9492,4.43423a62.19519,62.19519,0,0,1,7.92228,4.22341A220.32468,220.32468,0,0,0,320.14374,96.4225a61.00617,61.00617,0,0,0,8.35728,3.25772c7.452,2.36374,14.69658,5.26931,21.91453,8.2574,5.39992,2.23547,10.7525,4.56875,15.95779,7.2239a100.19718,100.19718,0,0,1,15.47323,9.50443,68.01762,68.01762,0,0,1,10.72277,9.97979c2.31224,2.72915,4.743,5.36015,6.8252,8.27461,3.86507,5.40979,7.6661,10.86661,10.42028,16.95554,1.20286,2.65934,2.286,5.37315,3.40824,8.06857,1.15045,2.76312,2.2776,5.536,3.4233,8.30106a122.42041,122.42041,0,0,1,4.4498,13.96388c1.102,3.93255,2.2792,7.84394,3.40677,11.76939C425.57,205.69353,426.61586,209.41436,427.671,213.1325Z"/><path fill="#f6c193" d="M167.51455,131.06981c.10561-.09754.26908-.176.30844-.2954a17.94753,17.94753,0,0,1,7.18711-9.0951,64.97218,64.97218,0,0,1,6.83057-4.68882c.25692-.13534.48785-.32034.74561-.45372,4.72885-2.44736,9.441-4.92816,14.20077-7.314a50.16161,50.16161,0,0,1,5.24774-2.16585,91.17731,91.17731,0,0,1,12.29478-3.77737c1.48523-.31667,2.99834-.519,4.496-.77329,4.2845-.72755,8.59167-.45116,12.87707-.34988a16.05587,16.05587,0,0,1,11.59447,4.80339,16.71485,16.71485,0,0,1,4.07333,6.62739,23.28847,23.28847,0,0,1,1.3411,8.35137c-.05979,1.23846-.00718,2.48244-.00252,3.72392a6.85841,6.85841,0,0,0,.21548,1.9468,5.86815,5.86815,0,0,1-.01687,3.44907,6.86368,6.86368,0,0,0-.20353,1.94909,12.1054,12.1054,0,0,1-.36521,3.90033,4.39032,4.39032,0,0,0-.07555,1.305,7.81346,7.81346,0,0,1-.31088,2.81038,3.41285,3.41285,0,0,0-.12075,1.08027,45.36064,45.36064,0,0,1-1.22086,8.165c-.38191,1.6237-.67027,3.26938-1.00064,4.90519-1.16319-.17171-1.114-1.21657-1.36868-1.98777-1.38928-4.207-4.33483-7.258-7.64412-9.927-2.18032-1.75848-4.93445-1.18512-7.03613,1.16464a18.85817,18.85817,0,0,0-4.714,12.68217c-.07109,5.03484-.33051,10.08137.30212,15.11382.24525,1.951-.36172,3.98728-.2078,5.859.23334,2.83738.09307,5.68471.42772,8.50856a182.95393,182.95393,0,0,1,1.11722,19.45551c.18838,16.5928.01925,33.18937.10388,49.78388.01484,2.91011-.65873,5.79168-.21756,8.70275-.13931,5.607-.498,11.20549-.89274,16.7973-.55927,7.92306-1.34949,15.82911-2.00222,23.74587-.37725,4.57564-1.05719,9.12874-.91052,13.73985a2.45825,2.45825,0,0,1-.50309,1.63961c-.15227.29428-.57134-.09472-.58652.1094-.99569,13.38266-2.87865,26.67521-4.06856,40.03674-1.00251,11.25719.57046,21.99932,6.62857,31.82548a89.98677,89.98677,0,0,1,5.07118,10.44638c1.02557,2.25863,1.87541,4.58983,2.67476,6.93047a2.95577,2.95577,0,0,0,3.24134,2.25452q7.53981-.07455,15.08106.0016c1.04166.00935,2.226-.30225,3.00917.78787a16.46926,16.46926,0,0,0-.90243,5.79765c.03465,6.431-.0004,12.86247-.03906,19.29363a13.1348,13.1348,0,0,0,.78494,4.93763c-2.96446.47594-5.9644.40976-8.942.62652-2.84307.20691-5.68172.28692-8.52481.37474a3.92949,3.92949,0,0,0-.87049.08053c-2.47985.652-1.96559-.14506-2.9533,2.29168a21.17636,21.17636,0,0,1-1.14308,2.36632,4.71607,4.71607,0,0,1-5.74164,2.38132,6.13665,6.13665,0,0,1-4.28232-3.42338q-.814-1.66-1.63335-3.31719a22.297,22.297,0,0,1-2.44544-5.59247c-2.41363-6.62913-6.30711-12.31045-10.80928-17.65681-2.12343-2.52156-4.47036-4.813-6.74995-7.17806-1.84741-1.91668-3.36245-4.0397-3.63434-6.81082.0102-.67472-.04476-1.30678-.91851-1.40263a14.98933,14.98933,0,0,1-1.07094-5.31968c-.008-4.50741-.32-9.026.37421-13.51751a4.51689,4.51689,0,0,1,.66643-2.26549,44.90242,44.90242,0,0,0,.35939-10.05159c-.27978-4.232-.07035-8.48149-.45958-12.68783-.23464-2.53562-.04553-5.1163-.66714-7.61676a2.008,2.008,0,0,1-.03795-.43618c-.09156-4.08578-.61151-8.14729-.55782-12.24605.10058-7.67486-.06128-15.35545.16662-23.02532.10819-3.64172.14231-7.3039.46974-10.92934.25057-2.77423.28362-5.538.33919-8.30815.05705-2.84446.64418-5.67776.335-8.521-.37068-3.40868-.28029-6.83754-.66-10.25213-.32205-2.8959-.81435-5.76895-1.074-8.67424-.22-2.46164-.69181-4.90063-1.04918-7.35011-.36788-2.52143-.7271-5.04414-1.09933-7.56492-.37222-2.52063-.74351-5.04146-1.13941-7.55839-.21514-1.36769-.26959-2.74971-.5143-4.12056-.31908-1.78743-.39493-3.61925-.55409-5.43383-.09559-1.08975-.3779-2.14517-.45436-3.24683-.146-2.10326-.4723-4.19405-.72377-6.29-.01742-.14509-.0424-.28976-.05127-.43538-.1727-2.83889-.26528-5.68541-.53554-8.515-.30491-3.19221-.22726-6.412-.73566-9.587a5.751,5.751,0,0,1-.06193-.87394,59.636,59.636,0,0,0-.99857-9.559,37.22259,37.22259,0,0,0-1.60739-5.89969,107.10128,107.10128,0,0,0-6.1045-14.0517c-1.03452-2.01095-1.95721-4.08323-2.84917-6.16264a23.49679,23.49679,0,0,1-1.68718-7.42758c-.19194-2.32762-.33132-4.65256-.45567-6.98311a7.47491,7.47491,0,0,0-.7708-3.35856c-.89792-.9129-.88934-2.14889-1.0456-3.2732-.83345-5.99673-2.53218-11.84955-2.97405-17.90809C166.95649,134.44777,166.44454,132.68764,167.51455,131.06981Z"/><path fill="#8c4646" d="M167.51455,131.06981c.17723,2.17164.16382,4.35043.37578,6.52615a50.80865,50.80865,0,0,0,1.12327,7.091c.87717,3.60617,1.15992,7.31159,1.998,10.91972a9.61141,9.61141,0,0,1,.08918,1.73705,59.45665,59.45665,0,0,1-8.88567,9.9503,39.73082,39.73082,0,0,1-18.41468,9.63251,50.00715,50.00715,0,0,1-9.352,1.02041,65.14707,65.14707,0,0,1-10.93-.583c-2.45323-.35381-4.9155-.64493-7.52255-.98341a2.82643,2.82643,0,0,0-.60458,2.91734,5.85387,5.85387,0,0,1,.29043,1.93521,7.57905,7.57905,0,0,0,1.35317,4.10263c.56286.85277,1.16755,1.67856,1.7696,2.50471a25.42705,25.42705,0,0,1,5.0404,14.89882,72.11937,72.11937,0,0,1-.80919,10.695,78.73569,78.73569,0,0,0-.78458,9.16274,29.22343,29.22343,0,0,0,3.68851,14.70263,75.04552,75.04552,0,0,0,4.07426,6.49362c1.44848,2.10635,2.90221,4.21049,4.291,6.35617a24.28122,24.28122,0,0,1,4.06028,16.238,54.75565,54.75565,0,0,1-3.90626,14.5461c-1.11553,2.85509-2.34165,5.66721-3.531,8.49317a57.66039,57.66039,0,0,0-2.78752,7.83328,34.3858,34.3858,0,0,0-.32247,14.99444c.656,3.597,1.75317,7.08255,2.66262,10.61568a39.18236,39.18236,0,0,1,1.54141,11.682,16.34259,16.34259,0,0,1-.50824,3.4608,7.70944,7.70944,0,0,1-5.941,5.80914,15.91516,15.91516,0,0,1-9.25309-.70859,22.17017,22.17017,0,0,1-6.76961-3.96116,38.15921,38.15921,0,0,1-13.48841-22.46234,52.00107,52.00107,0,0,1,1.04859-25.78169c.994-3.35893,2.06821-6.694,3.08686-10.04578a36.33751,36.33751,0,0,0,1.40425-8.1878,23.13182,23.13182,0,0,0-2.3466-11.89925c-.77141-1.57243-1.55037-3.15215-2.47219-4.63778a16.94448,16.94448,0,0,1-1.79486-14.11632c.807-2.88079,1.67882-5.74346,2.51427-8.61635.46862-1.6114.96012-3.21746,1.37606-4.84261a22.44672,22.44672,0,0,0-.75028-14.3992,36.73318,36.73318,0,0,1-1.57263-4.54883,21.61318,21.61318,0,0,1,.19724-10.83478,53.5715,53.5715,0,0,1,4.84781-11.94318,71.312,71.312,0,0,1,5.36087-8.77464c-.17-.41283.07207-.59993.40131-.73921,1.782.0211,3.55272.70933,5.35419.08434.4854-.1684,1.06573-.25871,1.144-.84034.097-.72032-.51554-.99036-1.064-1.1708-1.75948-.5789-3.58178-.28074-5.37781-.31909-.58379-.08509-1.073.46669-1.6758.25821a6.68584,6.68584,0,0,0-4.57779-2.69987q-3.451-.55737-6.88761-1.203a25.965,25.965,0,0,1-12.58913-6.19915,20.9682,20.9682,0,0,1-5.2231-6.93757,51.84862,51.84862,0,0,1-3.66777-12.32916,50.18452,50.18452,0,0,1-.76935-7.39045,40.43382,40.43382,0,0,1,2.16042-13.53476c.87888-.31184,1.39645.32011,1.86534.8259,4.434,4.78291,10.10989,5.15955,15.99815,4.34637,5.82213-.804,10.95826-3.47192,15.9195-6.49,5.01851-3.05288,5.95364-2.68737,7.79247,2.98645,1.42023,4.38223,3.94748,5.73557,8.40124,4.61723,4.71349-1.18355,8.05567-4.2789,11.10285-7.80082.71676-.8284,1.42862-1.65747,2.17895-2.45694,2.65-2.82361,5.50676-5.22911,9.63669-5.48764,5.84689-.366,11.36012.56328,16.26426,3.98548a3.28134,3.28134,0,0,1,1.59953,2.72265,6.04176,6.04176,0,0,1,.34831,2.33456A12.86876,12.86876,0,0,0,167.51455,131.06981Z"/><path fill="#f6c193" d="M164.94755 122.28962c-1.55919-2.61514-4.14522-3.786-6.82171-4.80107a25.738 25.738 0 0 0-11.43494-1.31565 11.18843 11.18843 0 0 0-6.63788 3.08178 45.48321 45.48321 0 0 0-4.19975 4.46461 27.34869 27.34869 0 0 1-7.90342 6.83844 15.28894 15.28894 0 0 1-6.26132 1.80035 5.631 5.631 0 0 1-5.65254-3.36 12.87533 12.87533 0 0 1-1.08694-3.09076 7.89311 7.89311 0 0 0-1.27174-2.767 1.7132 1.7132 0 0 0-2.46869-.64709c-.91535.449-1.788.99064-2.65647 1.52851a52.73285 52.73285 0 0 1-10.97159 5.41245 29.41779 29.41779 0 0 1-10.7487 1.65974 15.5663 15.5663 0 0 1-11.02357-4.59859 5.95714 5.95714 0 0 0-1.61963-1.45462 7.33758 7.33758 0 0 0-.52324-1.18743c-1.57186-2.3596-1.55874-4.95143-1.122-7.59373a12.5497 12.5497 0 0 1 1.15215-3.29115 37.34859 37.34859 0 0 1 5.02054-7.671 3.85431 3.85431 0 0 1 .77769-.764 23.615 23.615 0 0 0 5.26233-5.52535c1.72766-2.25632 3.28708-4.64064 4.95831-6.94123a16.15491 16.15491 0 0 0 2.81266-8.16271 28.02574 28.02574 0 0 1 3.42251-10.9862 5.66424 5.66424 0 0 1 .4676-.73811c1.52913-1.95508 3.57509-2.32616 5.42982-.47648.20687.20631.4328.39652.61931.61976.99057 1.18558 2.004 1.04813 3.227.02336a4.73767 4.73767 0 0 0 .5475-.67849 45.668 45.668 0 0 1 3.92108-4.12655 5.60716 5.60716 0 0 1 4.73658-1.80006A4.91934 4.91934 0 0 0 119.5654 63.91a9.19363 9.19363 0 0 1 1.11855-1.04687 8.48652 8.48652 0 0 1 10.36555-.56958 16.93117 16.93117 0 0 1 7.29168 8.46015 21.34627 21.34627 0 0 0 1.21457 2.32045c.8288 2.70822 1.76628 5.381 2.55491 8.10359.99536 3.43641 2.2453 4.20385 5.60594 3.23414 4.04149-1.16614 8.1195-2.32019 11.47867-5.06364 3.93817.69607 7.85875 1.52306 11.819 2.05471a111.59727 111.59727 0 0 1 14.3604 2.72448c2.60006.70389 5.15838 1.57973 7.69946 2.47982a32.16313 32.16313 0 0 0 13.616 1.36136 57.4096 57.4096 0 0 0 9.227-1.68775c2.61267-.66014 5.21075-1.37805 7.81555-2.06992a1.47453 1.47453 0 0 0 1.45292.7837 27.01651 27.01651 0 0 0 7.37407-.64182 96.86941 96.86941 0 0 1 9.7717-2.23458c2.56683-.44322 5.11546-1.14873 7.76016-1.06251.27856.00909.556.05151.88272.08317-.00974.75719-.55107 1.08462-.98915 1.401a17.48547 17.48547 0 0 1-3.59961 2.06752 65.12616 65.12616 0 0 1-12.70127 3.94468c-2.427.45151-4.80772 1.1467-7.21931 1.68739-5.53363 1.24063-11.06466 2.48849-16.55074 3.93118a105.73216 105.73216 0 0 0-15.9569 5.26542c-2.60053 1.14865-5.25279 2.1973-7.78159 3.48732a58.1588 58.1588 0 0 0-11.32083 7.39461c-.88652.75284-1.79265 1.48062-2.665 2.25589a31.58827 31.58827 0 0 0-5.60742 6.96265 5.79536 5.79536 0 0 0-.82157 1.778A1.45273 1.45273 0 0 1 164.94755 122.28962zM216.6926 444.205c-2.19073.031-4.38586-.01521-6.57132.10881-4.51732.25629-9.05323.19326-13.55449.51589-4.60069.32965-9.19914.06351-13.78186.37693-3.7052.25334-7.43225.18474-11.11866.72784a10.73917 10.73917 0 0 1-1.53182.06056c-4.01835.01017-8.03943.10656-12.05409-.01237-2.68573-.07952-5.3623-.46764-8.043-.71761a6.26623 6.26623 0 0 0-.872-.07534c-2.27434.111-4.49171-.45757-6.75411-.55985a20.79311 20.79311 0 0 1-4.70912-.90166 4.00448 4.00448 0 0 1-2.72078-5.53014 13.26782 13.26782 0 0 1 2.39316-3.89065 21.87229 21.87229 0 0 1 4.98572-4.24074c1.5731-.9212 3.1072-1.91234 4.62833-2.91825a30.75763 30.75763 0 0 1 9.24124-3.86821c5.70283-1.51382 11.43491-2.9206 17.11981-4.498 5.50439-1.52738 10.83293-3.51444 15.51728-6.90534 1.18008-.85426 2.32488-1.76041 3.44942-2.687a10.81654 10.81654 0 0 1 1.96318-1.38134c2.35363 7.63614 8.79626 12.34214 13.35915 18.37506 3.59128 4.74822 7.08076 9.43369 8.9826 15.12572C216.9347 442.24717 217.49268 443.22128 216.6926 444.205z"/><path fill="#e8af7d" d="M194.27988 384.51012a14.55915 14.55915 0 0 1-.35267 4.74863 5.12847 5.12847 0 0 0-.05857 1.5173c-.00564 2.47032.02444 4.94114-.01668 7.41078a15.22506 15.22506 0 0 0 .71339 5.782 1.80293 1.80293 0 0 1-.25527 1.64416c-6.495 1.28175-12.98643 2.5824-19.48658 3.838-3.5.67605-7.01229 1.28961-10.5239 1.9036-2.43607.42593-4.87087.88179-7.32347 1.18467a21.01875 21.01875 0 0 1-8.86108-.83218 3.92671 3.92671 0 0 1-2.9675-4.29547 2.15451 2.15451 0 0 1 1.25837-2.12383 34.04463 34.04463 0 0 0 7.04517-4.77347c2.643-2.08533 5.50663-3.82888 8.28332-5.70683a32.45174 32.45174 0 0 1 10.4114-4.4369c3.31556-.83292 6.66552-1.53473 10.0133-2.232a65.23461 65.23461 0 0 0 10.25856-3.01225C193.02674 384.89077 193.65857 384.714 194.27988 384.51012zM159.19527 79.34826a1.35243 1.35243 0 0 1-.54463 1.13858 9.68463 9.68463 0 0 1-1.983 1.3252 73.86876 73.86876 0 0 1-9.84137 3.45859 3.84614 3.84614 0 0 1-4.12731-1.234 2.73834 2.73834 0 0 1-.55814-.91548q-1.50328-4.65754-2.95762-9.33081c-.10273-.3279.13647-.53416.37228-.71577a69.04736 69.04736 0 0 0 10.54733 4.07329C153.10663 78.008 156.16068 78.63143 159.19527 79.34826zM216.6926 444.205a11.1933 11.1933 0 0 0-1.18088-4.386 37.32618 37.32618 0 0 0-4.88641-8.95674 32.72606 32.72606 0 0 0-3.00543-3.7074 53.95217 53.95217 0 0 1-4.21981-5.25656c-.6776-.85844-1.40662-1.65487-2.12211-2.47326-1.76437-2.01809-3.59805-3.99006-5.192-6.13779a8.56808 8.56808 0 0 1-1.80631-5.47847 1.8559 1.8559 0 0 1 .94891-.79344 2.2891 2.2891 0 0 1 .77452 1.288 12.51016 12.51016 0 0 0 3.364 5.28039c.88963.86348 1.7466 1.76058 2.63656 2.62368a62.66985 62.66985 0 0 1 5.28971 6.07554c1.08584 1.36373 2.1434 2.7447 3.19662 4.13274a35.90364 35.90364 0 0 1 5.03006 8.88691c.77935 2.03582 1.68662 4.02258 2.5313 6.03356a7.18836 7.18836 0 0 1 .81638 2.9175Q217.78017 444.22923 216.6926 444.205z"/><path fill="#90616d" d="M105.7429,175.33483c.43688-.27416.60972-.98633,1.325-.79868a7.29754,7.29754,0,0,1,.41272,2.99788l-.51957.52771A7.128,7.128,0,0,1,105.7429,175.33483Z"/><path fill="#7286cc" d="M253.87248,385.97827c.04525-.87437.06884-1.75054.14046-2.62277.13615-1.65838.69222-2.21363,2.33374-2.23714a30.39919,30.39919,0,0,1,3.94025.1071c2.258.263,4.51979.22892,6.78121.26876q4.16263.07334,8.32638.07987a106.66876,106.66876,0,0,0,15.4754-1.23941c5.19447-.75812,10.38823-1.52775,15.59512-2.19175,3.47155-.44269,6.974-.641,10.44749-1.071a120.50311,120.50311,0,0,1,14.41384-.89234c2.7014-.00908,5.41705-.05692,8.10132.18715,3.62729.32987,7.2452.8347,10.84058,1.42609,4.74916.78122,9.49147,1.59045,14.28342,2.0733a1.49711,1.49711,0,0,0,1.21636.3576c1.02246.01135,2.045.0181,3.06736.03516a.86207.86207,0,0,1,.91376.75678c.09328.42563.24841.83734.35385,1.26075.86066,3.45607,1.70636,6.91593,2.58,10.36868.21414.84637.28649,1.71322.49648,2.56579a3.62308,3.62308,0,0,1-1.9408,4,11.59523,11.59523,0,0,1-2.42512.97994c-2.81824.69906-5.65269,1.33433-8.48815,1.96147q-2.01612.446-4.05948.76457a20.81333,20.81333,0,0,1-2.18051.11869,46.27785,46.27785,0,0,0-6.09691.32753,11.425,11.425,0,0,1-5.21118-.168,6.30793,6.30793,0,0,0-1.73423-.14688q-12.92847-.01362-25.857-.0076a7.31315,7.31315,0,0,0-2.16278.24372,7.04429,7.04429,0,0,1-1.72853.18073c-2.32265.09668-4.65256-.15885-6.96788.39024a16.17092,16.17092,0,0,1-3.05852.06037c-2.32255.08552-4.6667-.26321-6.96461.39439a6.30441,6.30441,0,0,1-1.52818.04032,19.67247,19.67247,0,0,0-4.343.33929,15.19209,15.19209,0,0,1-3.273.10268,7.62443,7.62443,0,0,0-3.0254.32421,1.34852,1.34852,0,0,1-.64585.08731c-2.34641-.22967-4.63449.36954-6.956.5066a41.291,41.291,0,0,0-5.80124.87817c-2.4151.49394-4.85005.88824-7.22668,1.59359a20.58736,20.58736,0,0,0-5.4261,2.22549,1.02273,1.02273,0,0,1-1.19114.083c-1.70671-2.01675-1.09055-4.55823-1.55332-6.8584-.1483-5.1334-.05087-10.26627-.05215-15.39871A3.19952,3.19952,0,0,1,253.87248,385.97827Z"/><path fill="#7287cc" d="M365.75525,311.40555a39.456,39.456,0,0,0-9.121-11.90291A108.57915,108.57915,0,0,1,345.752,288.4157a34.20711,34.20711,0,0,1-5.80946-9.96765c.27463-.32962.50484-.14193.719.07165,1.91022,1.90521,3.83016,3.80089,5.7226,5.72364a65.05563,65.05563,0,0,0,5.76688,4.977c2.66015,2.13566,5.396,4.17281,8.05838,6.30042a42.76005,42.76005,0,0,1,4.33852,4.31413,6.60315,6.60315,0,0,1,.95895,1.70481,19.14694,19.14694,0,0,1,1.14266,3.97,3.40961,3.40961,0,0,1-.02737,1.73236,11.039,11.039,0,0,0-.37631,3.23692A1.12957,1.12957,0,0,1,365.75525,311.40555Z"/><path fill="#e8af7d" d="M230.69524 177.99533a9.2013 9.2013 0 0 0 .49212 3.4487 108.71839 108.71839 0 0 1 1.83961 14.30021c.2712 3.12655.09535 6.28245.66521 9.3829a1.2924 1.2924 0 0 1 .01087.21877c.063 5.76724.81983 11.51795.45519 17.29359-.16983 2.69019-.50333 5.37-.6746 8.06017-.37447 5.88121-2.20731 11.43974-3.71688 17.06788-1.32271 4.93144-2.57238 9.87727-3.4924 14.9018-.32113.40264-.03668.9592-.34689 1.36459a.834.834 0 0 1-.03446.38659 2.0428 2.0428 0 0 1-.31519-2.252 9.8805 9.8805 0 0 0 .30577-3.02783q.00385-27.26857-.00024-54.53711a8.4282 8.4282 0 0 0-.29677-2.81142 5.65588 5.65588 0 0 1-.12718-1.7344c-.01564-1.606-.00514-3.21234-.012-4.81848a6.12651 6.12651 0 0 0-.30108-2.58817.95864.95864 0 0 1-.08873-.42526c.13114-2.55557-.42156-5.07015-.4656-7.61065-.05952-3.43035-.00844-6.86252-.01931-10.29387a11.98861 11.98861 0 0 0-.34994-3.90034 5.667 5.667 0 0 1-.08394-1.74011c-.0068-3.35838.03925-6.71753-.01954-10.0749a23.51721 23.51721 0 0 1 1.582-9.17605 16.63448 16.63448 0 0 1 4.00475-6.16713 5.8481 5.8481 0 0 1 4.34868-1.69687 5.33689 5.33689 0 0 1 3.55082 1.47962 19.33981 19.33981 0 0 1 3.41226 3.67746c.49814.78934 1.28729 1.38848 1.86578 2.135a11.52067 11.52067 0 0 1 2.28875 5.3598 1.30224 1.30224 0 0 0 .438.956c-.42729 1.7594-.90535 3.50856-1.26929 5.28112a23.1804 23.1804 0 0 1-2.5535 7.16313 12.68227 12.68227 0 0 1-4.19111 4.64959 17.10072 17.10072 0 0 1-4.83139 2.47838 41.24047 41.24047 0 0 1-4.89446 1.01831 3.39162 3.39162 0 0 0-2.75555 2.17514.68329.68329 0 0 0 .663.89077 13.17033 13.17033 0 0 0 2.3362-.49379A7.24049 7.24049 0 0 1 230.69524 177.99533zM253.93484 404.02607c-.65164-.02857-1.30322-.07995-1.95494-.08193-4.132-.01248-8.23232-.49536-12.34683-.77536a98.873 98.873 0 0 0-11.08645-.05942c-1.407-2.96577-2.77613-5.95061-4.23367-8.89162-1.06825-2.15544-2.3595-4.2043-3.36124-6.38789a55.98737 55.98737 0 0 1-3.84528-11.58314 24.86681 24.86681 0 0 1-.43677-5.42857c.01387-2.558-.00678-5.11624.01135-7.67424a11.90811 11.90811 0 0 1 .35792-4.12149 4.2612 4.2612 0 0 0 .07344-1.30571 8.37829 8.37829 0 0 1 .30686-2.81326 4.82637 4.82637 0 0 0 .13-1.517 7.56039 7.56039 0 0 1 .29074-2.37714 5.1411 5.1411 0 0 0 .1471-1.51465 9.73242 9.73242 0 0 1 .33441-3.02939 5.97 5.97 0 0 0 .1083-1.73956 7.63232 7.63232 0 0 1 .33749-3.025 1.73756 1.73756 0 0 0 .08622-.64784c.06292-2.40222.62226-4.75532.787-7.131.13593-1.96075.59608-3.87983.5768-5.85886a29.19132 29.19132 0 0 1 .50665-4.09988c.164-1.22686.31551-2.445.37072-3.68012.00123-.02771.25792-.09481.28223-.06134a1.65662 1.65662 0 0 1 .1641.39961c-.00166 4.30811-.0607 8.61678.00875 12.92339.08705 5.39649.14343 10.79935.46093 16.18481a56.41019 56.41019 0 0 0 4.69746 19.4486c.90687 2.06886 1.73645 4.1748 2.51794 6.29456a20.34505 20.34505 0 0 1 1.48181 7.46406 1.37589 1.37589 0 0 0 1.022 1.47155 23.77425 23.77425 0 0 0 7.90579 1.49728c4.74531.06477 9.49169.052 14.23723.07224Q253.9035 395.00241 253.93484 404.02607z"/><path fill="#8398e7" d="M107.4806,177.534c-.23338-.60666-.44119-1.22484-.708-1.81642-.22427-.49728.04241-.82729.29508-1.18166,1.525-.01565,3.05052-.0662,4.57432-.03468a4.25968,4.25968,0,0,1,2.62989.90977,1.23787,1.23787,0,0,1-.08879,2.165,1.50817,1.50817,0,0,1-.56483.31584C111.54968,178.19759,109.46159,178.74713,107.4806,177.534Z"/><path fill="#f6c193" d="M225.92747,264.03394c-.04975-.49709-.12962-1.00185.34713-1.36475A1.39,1.39,0,0,1,225.92747,264.03394Z"/></svg>
