<svg xmlns="http://www.w3.org/2000/svg" viewBox="0 0 512 512"><path fill="#9797ed" d="M237.62863,338.97232c-.04888-2.30886-.19173-4.62082-.11636-6.92562a25.80569,25.80569,0,0,0-.484-5.255c-.39153-2.26986-.91764-4.51626-1.37379-6.77519a63.15852,63.15852,0,0,0-2.67184-8.75352,44.0444,44.0444,0,0,1-2.24667-8.65269,35.99689,35.99689,0,0,1-.27582-10.74724,11.3742,11.3742,0,0,0,.08506-1.62721,23.26913,23.26913,0,0,1,2.30879-9.42053,34.65646,34.65646,0,0,1,1.78685-3.43277,68.01244,68.01244,0,0,0,3.56622-7.3202c.555-1.23905,1.113-2.47745,1.633-3.73131a30.5339,30.5339,0,0,0,2.11527-8.46079,33.48342,33.48342,0,0,1,.94791-4.98946,11.616,11.616,0,0,0,.33874-2.6089c.4462-9.96364,1.093-19.91266,2.24717-29.82241a172.91759,172.91759,0,0,1,3.9698-19.99032,86.20706,86.20706,0,0,0,1.55469-28.98771c-1.10146-10.84569-2.92225-21.57178-4.52039-32.33746a11.77969,11.77969,0,0,1-.16006-2.44137,5.697,5.697,0,0,1,.39688-2.98283,2.31388,2.31388,0,0,1,1.77413-.85928c2.83684-.2622,5.66472-.72762,8.50415-.8225q7.42218-.248,14.82061-.81083a4.255,4.255,0,0,1,3.60639.99707,93.48072,93.48072,0,0,0,1.83411,12.69569q2.29818,11.17529,4.80075,22.30812c1.10974,4.903,2.24106,9.80368,3.11411,14.75046,1.26326,7.15779,2.78683,14.26247,4.137,21.40168q.88951,4.70347,1.61816,9.43688c.37845,2.48306.62115,4.98669.93246,7.48018.22706,1.819.53184,3.631.68371,5.45591.14654,1.76141.19657,3.53552.19228,5.30384-.0102,4.221.07514,8.45056-.16492,12.66032-.23554,4.13085-.45209,8.26577-.99475,12.38632-.729,5.535-1.81972,10.99335-3.08932,16.41121q-1.62653,6.94119-3.759,13.76513c-.999,3.17513-2.08439,6.32564-2.82539,9.58075a46.91911,46.91911,0,0,0-1.0357,8.073c-.09966,1.97075-.05539,3.94833-.11878,5.92144-.07858,2.44618-.23734,4.89006-.297,7.33649-.06968,2.85823.03062,5.72375-.12776,8.57585a18.27945,18.27945,0,0,0,1.755,8.29315,2.78117,2.78117,0,0,1,.3414,1.95329c-1.043,1.12-2.44068,1.07658-3.78645,1.09134-4.13623.04544-8.27394.0712-12.40941.00514a106.28,106.28,0,0,0-22.23971,1.94049,41.45786,41.45786,0,0,1-4.42739.64394C238.81633,339.74956,238.05169,339.81774,237.62863,338.97232Z"/><path fill="#f6c193" d="M257.57658 434.97622a5.00788 5.00788 0 0 0 .30787.95839c1.886 3.38357 3.724 6.79322 5.77852 10.08227 3.27663 5.24548 6.58209 10.47585 9.72348 15.80219a91.98671 91.98671 0 0 1 9.6708 22.40741 85.8883 85.8883 0 0 1 2.09864 8.496 29.18643 29.18643 0 0 1 .56146 6.89178c-.00478.06788-.00553.13606-.007.2041a5.20957 5.20957 0 0 1-3.47387 5.02821 28.01594 28.01594 0 0 1-5.88009 1.59173 37.74667 37.74667 0 0 1-9.932.74367 75.51048 75.51048 0 0 1-9.09967-.98308c-3.45542-.69149-6.94569-1.20732-10.417-1.82121-2.6701-.47224-5.329-1.00971-8.00316-1.45656-1.53634-.25672-3.09368-.38645-4.64065-.58077-2.35542-.29587-4.71823-.54746-7.06049-.92582-.80958-.13078-1.6134-.18749-2.42241-.26939-2.157-.21836-4.30417-.55384-6.46487-.7088-1.89668-.136-3.765-.54217-5.68189-.49369-1.97271.05-3.95017-.0621-5.92151.00883a32.39336 32.39336 0 0 1-5.6721-.53588 8.14215 8.14215 0 0 1-6.40276-4.8135 2.57557 2.57557 0 0 1 1.32562-.89479 10.345 10.345 0 0 0 6.40324-6.3954c1.15164-2.5612 1.52711-5.05645-.4418-7.4516a6.10007 6.10007 0 0 1-.73852-2.10527 11.68451 11.68451 0 0 1-.40647-3.42382 7.19248 7.19248 0 0 0 .26846-2.15629 5.129 5.129 0 0 1 .11242-.96183c.45117-1.57093 1.0814-2.9629 3.04473-3.00086 1.72236.63519 2.05761 1.9687 1.87291 3.61485-.39812 3.54851.26338 4.73489 3.42592 6.31.731.364 1.5.64242 2.23509.993 2.38134 1.1362 4.236 2.80983 4.73816 5.49831.67376 3.60751 3.16807 5.15286 6.39677 5.61527a55.17425 55.17425 0 0 0 14.82566.21711 22.09923 22.09923 0 0 1 2.84879-.09157 118.39586 118.39586 0 0 0 19.15428-3.79755c2.15955-.57648 2.23088-.76093 1.57552-2.96505-3.07308-10.3353-8.55306-19.31728-15.40871-27.54641-5.03943-6.04905-10.25-11.972-14.3624-18.73636-.417-.68586-.70342-1.44519-1.21556-2.16342-.02124-.18629-.34684.1403-.08289.073.12092-.03083.1594.00693.18454.093a.82328.82328 0 0 1-.37365 1.04548c-2.82894-.44062-4.47319-2.42394-5.7279-4.69449-2.34719-4.24749-3.12677-8.94218-3.51743-13.71583-.65162-7.962 1.19929-15.51731 3.72682-22.96192a38.37331 38.37331 0 0 1 4.10978-8.82764c2.60127-4.436 9.33349-6.00134 13.71028-3.9489a26.07355 26.07355 0 0 1 4.69606 2.84779c3.30352 2.50406 6.7515 4.81492 10.012 7.37292 7.32776 5.74891 13.92813 18.73314 9.35319 30.57829a34.82332 34.82332 0 0 1-1.47649 4.01042A46.83278 46.83278 0 0 1 257.57658 434.97622zM275.4353 132.2142a13.6954 13.6954 0 0 0-5.851-.08988 1.07556 1.07556 0 0 1-.20312.00993c-3.86192.16109-7.72523.29543-11.5852.49444-1.96084.1011-3.92433.25335-5.86972.51041a26.23883 26.23883 0 0 1-3.035.25284 4.44531 4.44531 0 0 0-1.98187.37212c-1.09687-2.06394-.48526-4.23844-.40056-6.37473.33931-8.55928 2.81686-16.72674 4.56952-25.03027a106.56587 106.56587 0 0 0 2.18347-26.14733c-.22734-5.97176-1.65388-11.54552-5.49477-16.32907a26.01788 26.01788 0 0 1-3.26009-5.163 7.92051 7.92051 0 0 1-.43032-6.69365c1.05657-1.14723 2.08449-2.323 3.18421-3.42723a6.334 6.334 0 0 1 1.52083-1.007c.83868-.45011 1.70592-.84745 2.56458-1.25979a15.73758 15.73758 0 0 0 6.96747-6.93431 32.80983 32.80983 0 0 0 1.91194-4.28005 24.04113 24.04113 0 0 1 4.20926-6.93856 15.34479 15.34479 0 0 0 2.91569-5.55029c.77165-2.60357 1.50649-5.218 2.272-7.82343a15.14708 15.14708 0 0 1 2.52466-4.86509A3.70855 3.70855 0 0 1 275.46178 4.27a1.80187 1.80187 0 0 1 1.51749.88546 3.66192 3.66192 0 0 1 .60479 1.71538 13.5631 13.5631 0 0 1-.13046 3.25565 53.22708 53.22708 0 0 0-1.15687 8.87c-.01788 1.022-.33989 1.99839-.34682 3.03329a50.92482 50.92482 0 0 0 .95764 9.50548c.27959 1.53193.46154 3.0831.64713 4.63043.25834 2.15411.537 4.3084.69965 6.47069a38.89215 38.89215 0 0 1-.0588 7.33369c-.06148.53907-.1749 1.077-.1829 1.61661a49.82006 49.82006 0 0 1-1.07174 8.26746c-.71189 3.868-1.562 7.7104-2.32639 11.569-.39555 1.99679-.5189 4.03353-.79116 6.04559a75.74934 75.74934 0 0 0-.2539 12.225c.06455 2.43767.19635 4.88823.40576 7.31938.29123 3.38092.54189 6.76419.82524 10.144.20489 2.44347.13349 4.8971.396 7.32248C275.836 120.38941 275.54064 126.30073 275.4353 132.2142z"/><path fill="#ffadb7" d="M264.479,427.17947c.476-1.48225.92781-2.97278,1.43294-4.445a24.90942,24.90942,0,0,0,1.40467-10.1838,23.3035,23.3035,0,0,0-1.94439-7.6342,51.17281,51.17281,0,0,0-2.87873-5.6115,25.65122,25.65122,0,0,0-7.25384-7.58465c-1.43469-1.01739-2.97158-1.90575-4.32458-3.01966-1.83226-1.50854-3.75994-2.87831-5.688-4.24961a11.83462,11.83462,0,0,0-7.93923-2.60182,11.26982,11.26982,0,0,0-6.37457,2.35428,4.68377,4.68377,0,0,0-.97475,1.03166c-1.03667,1.58719-2.0819,3.17273-3.02376,4.81631a24.75052,24.75052,0,0,0-1.18592,2.80375c-.2871.68658-.58222,1.36982-.87378,2.05456-.39832.07664-.61768-.01646-.45111-.4756a12.98872,12.98872,0,0,1,.20439-1.815c1.08324-4.27567,2.174-8.54972,3.30876-12.812a73.5179,73.5179,0,0,1,5.10313-13.52235c.32926-.67017.61863-1.35995.92647-2.04067,1.01188-2.038,2.82933-1.88264,4.60341-1.58757a104.86411,104.86411,0,0,1,12.04564,3.13079c9.73864,2.83657,19.40409,5.89306,28.88928,9.49931,1.64746.62638,3.38194,1.089,4.62064,2.47725-.02324,2.78549.1318,5.58721-.12025,8.35183-.24779,2.71791-.24036,5.42235-.22076,8.13482.01322,1.82894.34156,3.63849.29383,5.481a30.27252,30.27252,0,0,1-4.13986,14.52491,17.85227,17.85227,0,0,1-4.195,4.69045c-3.43868,2.86968-6.94953,5.65288-10.43263,8.46929a3.23642,3.23642,0,0,1-.344.215C264.52719,427.754,264.4023,427.57116,264.479,427.17947Z"/><path fill="#f6c193" d="M284.1057,377.76392a1.67557,1.67557,0,0,1-.39957-.07267,203.29559,203.29559,0,0,0-20.61463-7.53273c-3.47215-1.12857-6.94934-2.271-10.50895-3.13066-1.57624-.38072-3.11672-.91926-4.65837-1.4315a87.47014,87.47014,0,0,0-9.42841-2.42937,4.7143,4.7143,0,0,0-4.5496,1.07742q1.22664-6.17406,2.45082-12.34779a49.45687,49.45687,0,0,0,1.11622-10.07786c-.00952-.94869.07357-1.89827.11482-2.847a1.82133,1.82133,0,0,0,1.16042.26891c2.46411-.41959,4.937-.78975,7.39519-1.24079,1.73113-.31764,3.48125-.49775,5.21086-.77873,2.08148-.33812,4.19577-.19,6.26069-.62422a9.19109,9.19109,0,0,1,1.82555-.06818c5.764-.0281,11.528-.06526,17.29194-.06823a27.43367,27.43367,0,0,0,5.65909-.45635c.54284,2.02431,1.09346,4.04693,1.62672,6.07411.603,2.29221,1.19176,4.58811,1.78393,6.88313a21.48167,21.48167,0,0,1,.646,4.61032,42.24745,42.24745,0,0,1-.04334,6.50912c-.25086,2.08372-.294,4.17991-.56406,6.26457-.32276,2.491-.92934,4.91772-1.29322,7.3921a7.84961,7.84961,0,0,0-.10926,1.41865A9.45308,9.45308,0,0,1,284.1057,377.76392Z"/><path fill="#8c4646" d="M240.82264 490.922c-1.42235.06095-2.84208.1595-4.26178.25866a63.54468 63.54468 0 0 1-10.98408-.07766 6.93319 6.93319 0 0 0-1.01023-.10739 11.44419 11.44419 0 0 1-5.096-1.23261 5.28637 5.28637 0 0 1-3.19319-3.70577c-.08506-.32785-.1739-.65609-.232-.98922a7.27784 7.27784 0 0 0-4.48845-5.40708c-1.03892-.50037-2.11768-.91944-3.14835-1.43532-2.6377-1.32-3.57177-3.32072-2.94158-6.204.02888-.13217.08208-.259.11285-.39089a2.35068 2.35068 0 0 0-1.04266-2.82289c-.17357-.10624-.33784-.22779-.50642-.34226a2.07628 2.07628 0 0 1-.53414-1.89209c.50915-3.56836.64247-7.1693.97191-10.75287 6.16818-8.38031 14.36218-12.92517 24.85077-13.12558.74913-.11571.91585.496 1.09683.96787 1.58088 4.1228 3.47549 8.12908 4.67828 12.39243.92848 3.29105.30567 4.73579-2.6593 6.36967-.17854.0984-.36271.18649-.5415.28439-2.90135 1.58844-3.6618 3.1293-2.821 5.71343a5.73213 5.73213 0 0 0 6.15681 4.26216c.47314-.04838.937-.16754 1.41093-.21283 2.475-.23666 3.83989.61259 4.65972 2.98725a15.97438 15.97438 0 0 1 .34944 6.87147 56.09932 56.09932 0 0 0-.2826 5.89449C241.30094 489.148 241.51127 490.12646 240.82264 490.922zM192.6787 487.19522a3.784 3.784 0 0 0-.603.09133c-2.66571.84617-4.93963-.05851-7.03952-1.61572a11.60686 11.60686 0 0 1-3.11587-3.72458 25.04062 25.04062 0 0 1-2.66469-7.44646 38.1797 38.1797 0 0 1 .24708-17.15835 17.33692 17.33692 0 0 1 3.97972-7.702 10.89224 10.89224 0 0 1 9.0981-3.6954 11.06362 11.06362 0 0 1 6.80606 2.87382c2.11584 1.89539 2.78467 4.41683 3.0323 7.11887.066.71993-.22206 1.49861.322 2.14791.6329 1.16424.27705 2.3957.12455 3.56363a62.67646 62.67646 0 0 1-1.46945 9.382 81.11589 81.11589 0 0 1-2.05925 11.48108C197.42086 484.50016 195.79909 486.91347 192.6787 487.19522z"/><path fill="#f6c193" d="M240.85444,488.088a27.00644,27.00644,0,0,1,.21442-5.27242,25.65925,25.65925,0,0,0,.11848-5.69049,6.38176,6.38176,0,0,0-.83312-2.702,2.62091,2.62091,0,0,0-2.66414-1.49756,13.29762,13.29762,0,0,0-1.80782.24335,5.86481,5.86481,0,0,1-5.89593-1.891,7.11384,7.11384,0,0,1-1.8686-4.20709,3.76472,3.76472,0,0,1,1.47147-3.59669,14.44789,14.44789,0,0,1,1.71276-1.08548c.70282-.409,1.44335-.75573,2.132-1.18632a3.1628,3.1628,0,0,0,1.45429-3.69605,25.76822,25.76822,0,0,0-.82512-2.93532c-.73606-2.04143-1.53342-4.0609-2.31522-6.08567q-.95279-2.46756-1.93352-4.92422a6.97554,6.97554,0,0,0-.49483-.86607,28.82722,28.82722,0,0,0-.96412-4.305,16.20277,16.20277,0,0,1-.30842-2.18752c.98575-.28973,1.731.51558,2.64087.57663,2.31592,2.40937,3.982,5.30858,5.97658,7.961,3.87948,5.159,8.342,9.84934,12.16537,15.04619,4.89066,6.64768,9.2294,13.61767,11.7055,21.58739.283.911.51378,1.833.74225,2.75741a1.6898,1.6898,0,0,1-1.29526,2.33475,109.00353,109.00353,0,0,1-17.54223,3.61629C240.75506,490.2697,241.11938,488.95943,240.85444,488.088Z"/><path fill="#f0ad73" d="M244.0766,48.02605a.73576.73576,0,0,1,.3.8908c-.71179,1.93814-.17512,3.70611.60978,5.49677a27.82971,27.82971,0,0,0,3.48511,5.47612,25.1342,25.1342,0,0,1,4.61791,9.85364c.23552,1.07226.22908,2.15408.40712,3.20923.71843,4.25759.20988,8.5372.36143,12.80231a5.84123,5.84123,0,0,1-.291,2.61213,1.44531,1.44531,0,0,0-.08554.60112,50.32867,50.32867,0,0,1-.78389,7.24255c-.449,3.9033-1.32122,7.71709-2.12427,11.5471-.34662,1.65321-.87577,3.26731-1.2803,4.90946a42.66071,42.66071,0,0,0-1.56823,9.57457c-.7217,1.80732-.14342,3.77444-.71472,5.62379a9.55007,9.55007,0,0,0-.08571,2.63647c-.01065,1.08745-.01043,2.175-.01492,3.26225q-.0148,1.41768-.02957,2.83595c-1.8077.96046-3.62111,1.88363-5.72944.87456a36.03356,36.03356,0,0,1-.06492-9.33143,147.962,147.962,0,0,1,2.71232-15.01355c.72774-3.52194,1.42706-7.04778,1.92516-10.60962q.80315-5.74308,1.54567-11.49462a67.89774,67.89774,0,0,0,.45323-12.81924,24.1355,24.1355,0,0,0-2.36422-8.80292,90.61291,90.61291,0,0,0-4.58985-8.17374c-.45388-.75707-.83784-1.55617-1.29431-2.31156a6.81072,6.81072,0,0,1,1.28389-7.88414C241.884,50.0547,242.97145,49.03019,244.0766,48.02605Z"/><path fill="#7286cc" d="M241.15036,137.47487a10.00028,10.00028,0,0,0,3.55247-.53668,16.845,16.845,0,0,1,2.17722-.33764,81.59035,81.59035,0,0,0,1.43,10.23718c.4453,2.18175.71853,4.39873,1.06573,6.60042.22088,1.40076.45849,2.7994.64763,4.20453.21634,1.60715.38393,3.22083.57882,4.83091q.32871,2.71507.67027,5.42856a2.27219,2.27219,0,0,1,.089.3952c-.13527,1.91313.47284,3.76452.46443,5.66637a3.98823,3.98823,0,0,0,.026,1.01807c.66045,2.47877.29911,5.00567.377,7.51034.0423,1.36027-.02374,2.72376.013,4.08434a32.00538,32.00538,0,0,1-.68312,5.83538c-.31445,2.00315-.59461,4.01414-.99423,6.00069-.3738,1.85819-.91921,3.68117-1.32763,5.53321-.85886,3.895-1.69881,7.79154-2.39365,11.7239-.41181,2.33064-.78125,4.67681-1.02942,7.01231a34.30778,34.30778,0,0,0-.54184,6.06778,5.333,5.333,0,0,1-.28627,2.61459.87711.87711,0,0,0-.07289.39894c.15155,2.31747-.35256,4.59261-.438,6.894a13.59668,13.59668,0,0,1-.35069,4.0428,3.04165,3.04165,0,0,0-.05292,1.21692c.17782,1.985-.38712,3.90584-.49283,5.86591-.00908.16853-.21961.32619-.33655.48894a10.74667,10.74667,0,0,1-.33131-1.80106c-.05339-3.26536-.4968-6.51528-.374-9.7867.12509-3.33107.14429-6.66985.39378-9.99144a87.128,87.128,0,0,1,1.69914-11.0765c.75691-3.66478,1.78952-7.25725,2.76988-10.86362a47.41439,47.41439,0,0,0,1.4527-15.36941c-.19078-3.182-.55172-6.35979-.98286-9.529-.51309-3.77152-1.01161-7.54331-1.72533-11.28151-.67528-3.53688-1.37341-7.0708-2.14731-10.58713-1.16877-5.31061-2.22469-10.64192-3.06971-16.0126-.27433-1.74344-.38785-3.51229-.56945-5.2701A1.00139,1.00139,0,0,1,241.15036,137.47487Z"/><path fill="#f2b179" d="M192.67869,487.19517a14.23952,14.23952,0,0,0,5.02875-3.653c.35032-.39263.681-.88427,1.34646-.674.641.24769.79952.92218,1.2183,1.36743.77664,1.1972,1.93062,2.12023,2.51758,3.455-.093.18066-.19984.35558-.27685.54277-1.464,3.55973-4.26756,5.4609-7.87514,6.36866a11.67491,11.67491,0,0,1-1.695-5.85722A2.88618,2.88618,0,0,0,192.67869,487.19517Z"/><path fill="#6f3333" d="M201.15833,471.31743a11.33062,11.33062,0,0,1,.29131-2.81343c.313-1.16243-.01248-2.44248.49974-3.59918-.1611-1.70575.62-3.3303.43476-5.03785a5.56818,5.56818,0,0,1,.35671-1.78226,12.06213,12.06213,0,0,1,1.72774-2.26432c.11774.23522.34291.47333.3365.705-.05434,1.95958.316,3.94225-.303,5.87514a2.95942,2.95942,0,0,0-.06549.81025,11.36639,11.36639,0,0,1-.30662,2.8209,10.2264,10.2264,0,0,0-.09936,2.43381c-1.49537.36789-2.03388,1.56031-2.45724,2.852Q201.36587,471.60606,201.15833,471.31743Z"/><path fill="#e8a4a6" d="M230.56261,436.99081c-.96281.13452-1.67271-.53753-2.51511-.78846-2.95629-1.69921-4.49508-4.44011-5.52971-7.54452a45.67481,45.67481,0,0,1-1.82189-8.32574,40.171,40.171,0,0,1-.35452-4.25458,50.55273,50.55273,0,0,1,1.80538-14.48891c.63962-2.41448,1.49828-4.77093,2.25759-7.154l.45079.47518c-.36842,1.15808-.71013,2.32545-1.11064,3.47233a44.409,44.409,0,0,0-2.03831,8.03461c-.24769,1.65148-.47241,3.33025-.591,5.01847a51.08087,51.08087,0,0,0,.0187,6.62189,31.16719,31.16719,0,0,0,3.54664,13.59721,8.63356,8.63356,0,0,0,5.4722,4.52212C230.52879,436.32734,230.75418,436.55419,230.56261,436.99081Z"/><path fill="#e9a6a6" d="M264.479,427.17947l.46782.45154a40.6056,40.6056,0,0,1-5.25763,5.81588,9.26746,9.26746,0,0,1-2.11272,1.52913c-.06417-.10848-.20953-.26385-.17854-.31771a1.54577,1.54577,0,0,1,.47758-.60332,13.84332,13.84332,0,0,0,2.71943-2.35136,16.50952,16.50952,0,0,0,3.17575-3.84568A3.31348,3.31348,0,0,1,264.479,427.17947Z"/><path fill="#f0ae74" d="M230.56261,436.99081q-.20474-.40722-.40967-.81444c.01417-.33982.01252-.68152.0524-1.0183.01242-.10474.12708-.2633.21345-.27656a.51065.51065,0,0,1,.3445.15461,1.18836,1.18836,0,0,1,.22415.33573,65.49794,65.49794,0,0,0,6.37445,9.42683c1.79074,2.29764,3.5735,4.59873,5.50137,6.78983,1.92259,2.185,3.78089,4.43473,5.54255,6.751,1.76246,2.31734,3.467,4.67942,5.04575,7.13737,1.28711,2.00391,2.39049,4.10624,3.59223,6.153a40.01551,40.01551,0,0,1,2.223,4.80441,62.23761,62.23761,0,0,1,3.007,8.85754c.20262.80153.14324.88068-.64055,1.19461a45.39517,45.39517,0,0,1-5.47968,1.53721,63.8858,63.8858,0,0,1-6.52977,1.49083c-2.20332.33463-4.34807,1.07775-6.6103,1.01311-.76-.02165-1.41646.51229-2.1912.39448q.01623-1.41739.032-2.83432c.55.3654.10848,1.27845.8221,1.53018.55359.19517,1.0546-.18884,1.57841-.23677,1.2795-.117,2.54748-.25073,3.82174-.45648a120.05615,120.05615,0,0,0,12.64284-2.88339,5.761,5.761,0,0,0,.76043-.28156.61839.61839,0,0,0,.42977-.79065c-.18011-.72133-.29872-1.45951-.50623-2.17225a52.82582,52.82582,0,0,0-2.75095-7.64094,107.36886,107.36886,0,0,0-8.80714-14.62219c-1.13423-1.675-2.51278-3.1852-3.78934-4.76292-.68072-.84138-1.39137-1.65851-2.07205-2.49994-2.33909-2.89163-4.97495-5.55727-7.00195-8.68287C234.28459,441.9708,232.2522,439.60537,230.56261,436.99081Z"/><path fill="#8d4747" d="M202.78978,487.69065a10.1643,10.1643,0,0,1-2.85653-3.29319,37.91618,37.91618,0,0,1,1.67568-6.61286,15.37028,15.37028,0,0,0,1.88481,3.75765,2.8833,2.8833,0,0,1,.45413,2.30926A12.93676,12.93676,0,0,1,202.78978,487.69065Z"/><path fill="#723635" d="M201.60893,477.7846a14.43586,14.43586,0,0,1-.87625,5.27042,2.33386,2.33386,0,0,1-.79944,1.34239,3.0632,3.0632,0,0,1-.87914-1.52953,2.7974,2.7974,0,0,1-.01495-2.13863,34.46456,34.46456,0,0,0,1.70425-8.06848,4.82029,4.82029,0,0,1,.41494-1.34334h.415l-.053.82646c-.37446.67324.02791,1.45656-.30282,2.136Q201.41326,476.03221,201.60893,477.7846Z"/><path fill="#8c4646" d="M201.21761,474.27988c-.02748-.7303-.30651-1.49622.30288-2.13609A3.61482,3.61482,0,0,1,201.21761,474.27988Z"/></svg>
